<?xml version="1.0" encoding="us-ascii" standalone="no"?><svg xmlns="http://www.w3.org/2000/svg" xmlns:xlink="http://www.w3.org/1999/xlink" contentStyleType="text/css" height="1798px" preserveAspectRatio="none" style="width:790px;height:1798px;background:#FFFFFF;" version="1.1" viewBox="0 0 790 1798" width="790px" zoomAndPan="magnify"><defs/><g><text fill="#000000" font-family="sans-serif" font-size="14" font-weight="bold" lengthAdjust="spacing" textLength="319" x="228.5" y="24.5332">Refactorizacion con &#225;rboles binarios - RCCCF</text><!--class Simulacion--><g id="elem_Simulacion"><rect codeLine="3" fill="#F1F1F1" height="65.6094" id="Simulacion" rx="2.5" ry="2.5" style="stroke:#181818;stroke-width:0.5;" width="189" x="345.5" y="45.6094"/><ellipse cx="401.75" cy="61.6094" fill="#ADD1B2" rx="11" ry="11" style="stroke:#181818;stroke-width:1.0;"/><path d="M404.5156,57.4844 Q404.6719,57.2656 404.8594,57.1563 Q405.0469,57.0469 405.2656,57.0469 Q405.6406,57.0469 405.875,57.3125 Q406.1094,57.5625 406.1094,58.1719 L406.1094,59.625 Q406.1094,60.2344 405.875,60.5 Q405.6406,60.7656 405.2656,60.7656 Q404.9219,60.7656 404.7188,60.5625 Q404.5156,60.375 404.4063,59.8594 Q404.3594,59.5 404.1719,59.3125 Q403.8438,58.9375 403.2344,58.7188 Q402.625,58.5 402,58.5 Q401.2344,58.5 400.5938,58.8281 Q399.9688,59.1563 399.4688,59.9063 Q398.9844,60.6563 398.9844,61.6875 L398.9844,62.7813 Q398.9844,64.0156 399.875,64.8438 Q400.7656,65.6563 402.3594,65.6563 Q403.2969,65.6563 403.9531,65.4063 Q404.3438,65.25 404.7656,64.8125 Q405.0313,64.5469 405.1719,64.4688 Q405.3281,64.3906 405.5313,64.3906 Q405.8594,64.3906 406.1094,64.6563 Q406.375,64.9063 406.375,65.25 Q406.375,65.5938 406.0313,66 Q405.5313,66.5781 404.7344,66.9063 Q403.6563,67.3594 402.3594,67.3594 Q400.8438,67.3594 399.6406,66.7344 Q398.6563,66.2344 397.9688,65.1719 Q397.2813,64.0938 397.2813,62.8125 L397.2813,61.6563 Q397.2813,60.3281 397.8906,59.1875 Q398.5156,58.0313 399.6094,57.4219 Q400.7031,56.7969 401.9375,56.7969 Q402.6719,56.7969 403.3125,56.9688 Q403.9688,57.125 404.5156,57.4844 Z " fill="#000000"/><text fill="#000000" font-family="sans-serif" font-size="14" lengthAdjust="spacing" textLength="68" x="422.25" y="67.3379">Simulacion</text><line style="stroke:#181818;stroke-width:0.5;" x1="346.5" x2="533.5" y1="77.6094" y2="77.6094"/><line style="stroke:#181818;stroke-width:0.5;" x1="346.5" x2="533.5" y1="85.6094" y2="85.6094"/><ellipse cx="356.5" cy="99.9141" fill="#84BE84" rx="3" ry="3" style="stroke:#038048;stroke-width:1.0;"/><text fill="#000000" font-family="sans-serif" font-size="14" lengthAdjust="spacing" textLength="163" x="365.5" y="104.1426">main(args : String[]) : void</text></g><!--class Restaurante--><g id="elem_Restaurante"><rect codeLine="7" fill="#F1F1F1" height="347.3594" id="Restaurante" rx="2.5" ry="2.5" style="stroke:#181818;stroke-width:0.5;" width="275" x="302.5" y="189.6094"/><ellipse cx="396.75" cy="205.6094" fill="#ADD1B2" rx="11" ry="11" style="stroke:#181818;stroke-width:1.0;"/><path d="M399.5156,201.4844 Q399.6719,201.2656 399.8594,201.1563 Q400.0469,201.0469 400.2656,201.0469 Q400.6406,201.0469 400.875,201.3125 Q401.1094,201.5625 401.1094,202.1719 L401.1094,203.625 Q401.1094,204.2344 400.875,204.5 Q400.6406,204.7656 400.2656,204.7656 Q399.9219,204.7656 399.7188,204.5625 Q399.5156,204.375 399.4063,203.8594 Q399.3594,203.5 399.1719,203.3125 Q398.8438,202.9375 398.2344,202.7188 Q397.625,202.5 397,202.5 Q396.2344,202.5 395.5938,202.8281 Q394.9688,203.1563 394.4688,203.9063 Q393.9844,204.6563 393.9844,205.6875 L393.9844,206.7813 Q393.9844,208.0156 394.875,208.8438 Q395.7656,209.6563 397.3594,209.6563 Q398.2969,209.6563 398.9531,209.4063 Q399.3438,209.25 399.7656,208.8125 Q400.0313,208.5469 400.1719,208.4688 Q400.3281,208.3906 400.5313,208.3906 Q400.8594,208.3906 401.1094,208.6563 Q401.375,208.9063 401.375,209.25 Q401.375,209.5938 401.0313,210 Q400.5313,210.5781 399.7344,210.9063 Q398.6563,211.3594 397.3594,211.3594 Q395.8438,211.3594 394.6406,210.7344 Q393.6563,210.2344 392.9688,209.1719 Q392.2813,208.0938 392.2813,206.8125 L392.2813,205.6563 Q392.2813,204.3281 392.8906,203.1875 Q393.5156,202.0313 394.6094,201.4219 Q395.7031,200.7969 396.9375,200.7969 Q397.6719,200.7969 398.3125,200.9688 Q398.9688,201.125 399.5156,201.4844 Z " fill="#000000"/><text fill="#000000" font-family="sans-serif" font-size="14" lengthAdjust="spacing" textLength="78" x="417.25" y="211.3379">Restaurante</text><line style="stroke:#181818;stroke-width:0.5;" x1="303.5" x2="576.5" y1="221.6094" y2="221.6094"/><rect fill="none" height="6" style="stroke:#C82930;stroke-width:1.0;" width="6" x="310.5" y="232.9141"/><text fill="#000000" font-family="sans-serif" font-size="14" lengthAdjust="spacing" textLength="176" x="322.5" y="240.1426">HORA_APERTURA : double</text><rect fill="none" height="6" style="stroke:#C82930;stroke-width:1.0;" width="6" x="310.5" y="250.5234"/><text fill="#000000" font-family="sans-serif" font-size="14" lengthAdjust="spacing" textLength="153" x="322.5" y="257.752">HORA_CIERRE : double</text><rect fill="none" height="6" style="stroke:#C82930;stroke-width:1.0;" width="6" x="310.5" y="268.1328"/><text fill="#000000" font-family="sans-serif" font-size="14" lengthAdjust="spacing" textLength="107" x="322.5" y="275.3613">MINUTO : double</text><rect fill="none" height="6" style="stroke:#C82930;stroke-width:1.0;" width="6" x="310.5" y="285.7422"/><text fill="#000000" font-family="sans-serif" font-size="14" lengthAdjust="spacing" textLength="227" x="322.5" y="292.9707">PROBABILIDAD_LLEGADA : double</text><rect fill="none" height="6" style="stroke:#C82930;stroke-width:1.0;" width="6" x="310.5" y="303.3516"/><text fill="#000000" font-family="sans-serif" font-size="14" lengthAdjust="spacing" textLength="123" x="322.5" y="310.5801">cocinero : Cocinero</text><rect fill="none" height="6" style="stroke:#C82930;stroke-width:1.0;" width="6" x="310.5" y="320.9609"/><text fill="#000000" font-family="sans-serif" font-size="14" lengthAdjust="spacing" textLength="249" x="322.5" y="328.1895">generadorPedidos : GeneradorPedidos</text><rect fill="none" height="6" style="stroke:#C82930;stroke-width:1.0;" width="6" x="310.5" y="338.5703"/><text fill="#000000" font-family="sans-serif" font-size="14" lengthAdjust="spacing" textLength="179" x="322.5" y="345.7988">arbolPedidos : ArbolPedidos</text><rect fill="none" height="6" style="stroke:#C82930;stroke-width:1.0;" width="6" x="310.5" y="356.1797"/><text fill="#000000" font-family="sans-serif" font-size="14" lengthAdjust="spacing" textLength="108" x="322.5" y="363.4082">minutoActual : int</text><rect fill="none" height="6" style="stroke:#C82930;stroke-width:1.0;" width="6" x="310.5" y="373.7891"/><text fill="#000000" font-family="sans-serif" font-size="14" lengthAdjust="spacing" textLength="140" x="322.5" y="381.0176">pedidosAtendidos : int</text><rect fill="none" height="6" style="stroke:#C82930;stroke-width:1.0;" width="6" x="310.5" y="391.3984"/><text fill="#000000" font-family="sans-serif" font-size="14" lengthAdjust="spacing" textLength="158" x="322.5" y="398.627">tiempoEsperaTotal : long</text><line style="stroke:#181818;stroke-width:0.5;" x1="303.5" x2="576.5" y1="405.7031" y2="405.7031"/><ellipse cx="313.5" cy="420.0078" fill="#84BE84" rx="3" ry="3" style="stroke:#038048;stroke-width:1.0;"/><text fill="#000000" font-family="sans-serif" font-size="14" lengthAdjust="spacing" textLength="88" x="322.5" y="424.2363">Restaurante()</text><ellipse cx="313.5" cy="437.6172" fill="#84BE84" rx="3" ry="3" style="stroke:#038048;stroke-width:1.0;"/><text fill="#000000" font-family="sans-serif" font-size="14" lengthAdjust="spacing" textLength="99" x="322.5" y="441.8457">ejecutar() : void</text><rect fill="#F24D5C" height="6" style="stroke:#C82930;stroke-width:1.0;" width="6" x="310.5" y="452.2266"/><text fill="#000000" font-family="sans-serif" font-size="14" lengthAdjust="spacing" textLength="141" x="322.5" y="459.4551">validarLlegada() : void</text><rect fill="#F24D5C" height="6" style="stroke:#C82930;stroke-width:1.0;" width="6" x="310.5" y="469.8359"/><text fill="#000000" font-family="sans-serif" font-size="14" lengthAdjust="spacing" textLength="230" x="322.5" y="477.0645">recibirPedido(pedido : Pedido) : void</text><rect fill="#F24D5C" height="6" style="stroke:#C82930;stroke-width:1.0;" width="6" x="310.5" y="487.4453"/><text fill="#000000" font-family="sans-serif" font-size="14" lengthAdjust="spacing" textLength="182" x="322.5" y="494.6738">seleccionarPedido() : Pedido</text><rect fill="#F24D5C" height="6" style="stroke:#C82930;stroke-width:1.0;" width="6" x="310.5" y="505.0547"/><text fill="#000000" font-family="sans-serif" font-size="14" lengthAdjust="spacing" textLength="166" x="322.5" y="512.2832">procesarCocina() : Pedido</text><rect fill="#F24D5C" height="6" style="stroke:#C82930;stroke-width:1.0;" width="6" x="310.5" y="522.6641"/><text fill="#000000" font-family="sans-serif" font-size="14" lengthAdjust="spacing" textLength="156" x="322.5" y="529.8926">mostrarResumen() : void</text></g><!--class Cocinero--><g id="elem_Cocinero"><rect codeLine="27" fill="#F1F1F1" height="136.0469" id="Cocinero" rx="2.5" ry="2.5" style="stroke:#181818;stroke-width:0.5;" width="380" x="7" y="632.1094"/><ellipse cx="164.25" cy="648.1094" fill="#ADD1B2" rx="11" ry="11" style="stroke:#181818;stroke-width:1.0;"/><path d="M167.0156,643.9844 Q167.1719,643.7656 167.3594,643.6563 Q167.5469,643.5469 167.7656,643.5469 Q168.1406,643.5469 168.375,643.8125 Q168.6094,644.0625 168.6094,644.6719 L168.6094,646.125 Q168.6094,646.7344 168.375,647 Q168.1406,647.2656 167.7656,647.2656 Q167.4219,647.2656 167.2188,647.0625 Q167.0156,646.875 166.9063,646.3594 Q166.8594,646 166.6719,645.8125 Q166.3438,645.4375 165.7344,645.2188 Q165.125,645 164.5,645 Q163.7344,645 163.0938,645.3281 Q162.4688,645.6563 161.9688,646.4063 Q161.4844,647.1563 161.4844,648.1875 L161.4844,649.2813 Q161.4844,650.5156 162.375,651.3438 Q163.2656,652.1563 164.8594,652.1563 Q165.7969,652.1563 166.4531,651.9063 Q166.8438,651.75 167.2656,651.3125 Q167.5313,651.0469 167.6719,650.9688 Q167.8281,650.8906 168.0313,650.8906 Q168.3594,650.8906 168.6094,651.1563 Q168.875,651.4063 168.875,651.75 Q168.875,652.0938 168.5313,652.5 Q168.0313,653.0781 167.2344,653.4063 Q166.1563,653.8594 164.8594,653.8594 Q163.3438,653.8594 162.1406,653.2344 Q161.1563,652.7344 160.4688,651.6719 Q159.7813,650.5938 159.7813,649.3125 L159.7813,648.1563 Q159.7813,646.8281 160.3906,645.6875 Q161.0156,644.5313 162.1094,643.9219 Q163.2031,643.2969 164.4375,643.2969 Q165.1719,643.2969 165.8125,643.4688 Q166.4688,643.625 167.0156,643.9844 Z " fill="#000000"/><text fill="#000000" font-family="sans-serif" font-size="14" lengthAdjust="spacing" textLength="57" x="184.75" y="653.8379">Cocinero</text><line style="stroke:#181818;stroke-width:0.5;" x1="8" x2="386" y1="664.1094" y2="664.1094"/><rect fill="none" height="6" style="stroke:#C82930;stroke-width:1.0;" width="6" x="15" y="675.4141"/><text fill="#000000" font-family="sans-serif" font-size="14" lengthAdjust="spacing" textLength="138" x="27" y="682.6426">pedidoActual : Pedido</text><line style="stroke:#181818;stroke-width:0.5;" x1="8" x2="386" y1="689.7188" y2="689.7188"/><ellipse cx="18" cy="704.0234" fill="#84BE84" rx="3" ry="3" style="stroke:#038048;stroke-width:1.0;"/><text fill="#000000" font-family="sans-serif" font-size="14" lengthAdjust="spacing" textLength="354" x="27" y="708.252">asignarPedido(pedido : Pedido, minutoActual : int) : void</text><ellipse cx="18" cy="721.6328" fill="#84BE84" rx="3" ry="3" style="stroke:#038048;stroke-width:1.0;"/><text fill="#000000" font-family="sans-serif" font-size="14" lengthAdjust="spacing" textLength="132" x="27" y="725.8613">estaLibre() : boolean</text><ellipse cx="18" cy="739.2422" fill="#84BE84" rx="3" ry="3" style="stroke:#038048;stroke-width:1.0;"/><text fill="#000000" font-family="sans-serif" font-size="14" lengthAdjust="spacing" textLength="222" x="27" y="743.4707">cocinarDuranteUnMinuto() : Pedido</text><ellipse cx="18" cy="756.8516" fill="#84BE84" rx="3" ry="3" style="stroke:#038048;stroke-width:1.0;"/><text fill="#000000" font-family="sans-serif" font-size="14" lengthAdjust="spacing" textLength="169" x="27" y="761.0801">getPedidoActual() : Pedido</text></g><!--class GeneradorPedidos--><g id="elem_GeneradorPedidos"><rect codeLine="35" fill="#F1F1F1" height="118.4375" id="GeneradorPedidos" rx="2.5" ry="2.5" style="stroke:#181818;stroke-width:0.5;" width="340" x="259" y="815.6094"/><ellipse cx="364.75" cy="831.6094" fill="#ADD1B2" rx="11" ry="11" style="stroke:#181818;stroke-width:1.0;"/><path d="M367.5156,827.4844 Q367.6719,827.2656 367.8594,827.1563 Q368.0469,827.0469 368.2656,827.0469 Q368.6406,827.0469 368.875,827.3125 Q369.1094,827.5625 369.1094,828.1719 L369.1094,829.625 Q369.1094,830.2344 368.875,830.5 Q368.6406,830.7656 368.2656,830.7656 Q367.9219,830.7656 367.7188,830.5625 Q367.5156,830.375 367.4063,829.8594 Q367.3594,829.5 367.1719,829.3125 Q366.8438,828.9375 366.2344,828.7188 Q365.625,828.5 365,828.5 Q364.2344,828.5 363.5938,828.8281 Q362.9688,829.1563 362.4688,829.9063 Q361.9844,830.6563 361.9844,831.6875 L361.9844,832.7813 Q361.9844,834.0156 362.875,834.8438 Q363.7656,835.6563 365.3594,835.6563 Q366.2969,835.6563 366.9531,835.4063 Q367.3438,835.25 367.7656,834.8125 Q368.0313,834.5469 368.1719,834.4688 Q368.3281,834.3906 368.5313,834.3906 Q368.8594,834.3906 369.1094,834.6563 Q369.375,834.9063 369.375,835.25 Q369.375,835.5938 369.0313,836 Q368.5313,836.5781 367.7344,836.9063 Q366.6563,837.3594 365.3594,837.3594 Q363.8438,837.3594 362.6406,836.7344 Q361.6563,836.2344 360.9688,835.1719 Q360.2813,834.0938 360.2813,832.8125 L360.2813,831.6563 Q360.2813,830.3281 360.8906,829.1875 Q361.5156,828.0313 362.6094,827.4219 Q363.7031,826.7969 364.9375,826.7969 Q365.6719,826.7969 366.3125,826.9688 Q366.9688,827.125 367.5156,827.4844 Z " fill="#000000"/><text fill="#000000" font-family="sans-serif" font-size="14" lengthAdjust="spacing" textLength="120" x="385.25" y="837.3379">GeneradorPedidos</text><line style="stroke:#181818;stroke-width:0.5;" x1="260" x2="598" y1="847.6094" y2="847.6094"/><rect fill="none" height="6" style="stroke:#C82930;stroke-width:1.0;" width="6" x="267" y="858.9141"/><text fill="#000000" font-family="sans-serif" font-size="14" lengthAdjust="spacing" textLength="184" x="279" y="866.1426">probabilidadLlegada : double</text><rect fill="none" height="6" style="stroke:#C82930;stroke-width:1.0;" width="6" x="267" y="876.5234"/><text fill="#000000" font-family="sans-serif" font-size="14" lengthAdjust="spacing" textLength="187" x="279" y="883.752">generadorAleatorio : Random</text><line style="stroke:#181818;stroke-width:0.5;" x1="260" x2="598" y1="890.8281" y2="890.8281"/><ellipse cx="270" cy="905.1328" fill="#84BE84" rx="3" ry="3" style="stroke:#038048;stroke-width:1.0;"/><text fill="#000000" font-family="sans-serif" font-size="14" lengthAdjust="spacing" textLength="314" x="279" y="909.3613">GeneradorPedidos(probabilidadLlegada : double)</text><ellipse cx="270" cy="922.7422" fill="#84BE84" rx="3" ry="3" style="stroke:#038048;stroke-width:1.0;"/><text fill="#000000" font-family="sans-serif" font-size="14" lengthAdjust="spacing" textLength="268" x="279" y="926.9707">generarPedido(minutoActual : int) : Pedido</text></g><!--class ArbolPedidos--><g id="elem_ArbolPedidos"><rect codeLine="42" fill="#F1F1F1" height="171.2656" id="ArbolPedidos" rx="2.5" ry="2.5" style="stroke:#181818;stroke-width:0.5;" width="221" x="516.5" y="614.6094"/><ellipse cx="580.75" cy="630.6094" fill="#ADD1B2" rx="11" ry="11" style="stroke:#181818;stroke-width:1.0;"/><path d="M583.5156,626.4844 Q583.6719,626.2656 583.8594,626.1563 Q584.0469,626.0469 584.2656,626.0469 Q584.6406,626.0469 584.875,626.3125 Q585.1094,626.5625 585.1094,627.1719 L585.1094,628.625 Q585.1094,629.2344 584.875,629.5 Q584.6406,629.7656 584.2656,629.7656 Q583.9219,629.7656 583.7188,629.5625 Q583.5156,629.375 583.4063,628.8594 Q583.3594,628.5 583.1719,628.3125 Q582.8438,627.9375 582.2344,627.7188 Q581.625,627.5 581,627.5 Q580.2344,627.5 579.5938,627.8281 Q578.9688,628.1563 578.4688,628.9063 Q577.9844,629.6563 577.9844,630.6875 L577.9844,631.7813 Q577.9844,633.0156 578.875,633.8438 Q579.7656,634.6563 581.3594,634.6563 Q582.2969,634.6563 582.9531,634.4063 Q583.3438,634.25 583.7656,633.8125 Q584.0313,633.5469 584.1719,633.4688 Q584.3281,633.3906 584.5313,633.3906 Q584.8594,633.3906 585.1094,633.6563 Q585.375,633.9063 585.375,634.25 Q585.375,634.5938 585.0313,635 Q584.5313,635.5781 583.7344,635.9063 Q582.6563,636.3594 581.3594,636.3594 Q579.8438,636.3594 578.6406,635.7344 Q577.6563,635.2344 576.9688,634.1719 Q576.2813,633.0938 576.2813,631.8125 L576.2813,630.6563 Q576.2813,629.3281 576.8906,628.1875 Q577.5156,627.0313 578.6094,626.4219 Q579.7031,625.7969 580.9375,625.7969 Q581.6719,625.7969 582.3125,625.9688 Q582.9688,626.125 583.5156,626.4844 Z " fill="#000000"/><text fill="#000000" font-family="sans-serif" font-size="14" lengthAdjust="spacing" textLength="84" x="601.25" y="636.3379">ArbolPedidos</text><line style="stroke:#181818;stroke-width:0.5;" x1="517.5" x2="736.5" y1="646.6094" y2="646.6094"/><rect fill="none" height="6" style="stroke:#C82930;stroke-width:1.0;" width="6" x="524.5" y="657.9141"/><text fill="#000000" font-family="sans-serif" font-size="14" lengthAdjust="spacing" textLength="144" x="536.5" y="665.1426">raiz : NodoArbolPedido</text><rect fill="none" height="6" style="stroke:#C82930;stroke-width:1.0;" width="6" x="524.5" y="675.5234"/><text fill="#000000" font-family="sans-serif" font-size="14" lengthAdjust="spacing" textLength="74" x="536.5" y="682.752">tama&#241;o : int</text><line style="stroke:#181818;stroke-width:0.5;" x1="517.5" x2="736.5" y1="689.8281" y2="689.8281"/><ellipse cx="527.5" cy="704.1328" fill="#84BE84" rx="3" ry="3" style="stroke:#038048;stroke-width:1.0;"/><text fill="#000000" font-family="sans-serif" font-size="14" lengthAdjust="spacing" textLength="94" x="536.5" y="708.3613">ArbolPedidos()</text><ellipse cx="527.5" cy="721.7422" fill="#84BE84" rx="3" ry="3" style="stroke:#038048;stroke-width:1.0;"/><text fill="#000000" font-family="sans-serif" font-size="14" lengthAdjust="spacing" textLength="195" x="536.5" y="725.9707">insertar(pedido : Pedido) : void</text><ellipse cx="527.5" cy="739.3516" fill="#84BE84" rx="3" ry="3" style="stroke:#038048;stroke-width:1.0;"/><text fill="#000000" font-family="sans-serif" font-size="14" lengthAdjust="spacing" textLength="135" x="536.5" y="743.5801">estaVacio() : boolean</text><ellipse cx="527.5" cy="756.9609" fill="#84BE84" rx="3" ry="3" style="stroke:#038048;stroke-width:1.0;"/><text fill="#000000" font-family="sans-serif" font-size="14" lengthAdjust="spacing" textLength="84" x="536.5" y="761.1895">tama&#241;o() : int</text><ellipse cx="527.5" cy="774.5703" fill="#84BE84" rx="3" ry="3" style="stroke:#038048;stroke-width:1.0;"/><text fill="#000000" font-family="sans-serif" font-size="14" lengthAdjust="spacing" textLength="154" x="536.5" y="778.7988">extraerMinimo() : Pedido</text></g><!--class NodoArbolPedido--><g id="elem_NodoArbolPedido"><rect codeLine="52" fill="#F1F1F1" height="206.4844" id="NodoArbolPedido" rx="2.5" ry="2.5" style="stroke:#181818;stroke-width:0.5;" width="290" x="493" y="963.6094"/><ellipse cx="578.75" cy="979.6094" fill="#ADD1B2" rx="11" ry="11" style="stroke:#181818;stroke-width:1.0;"/><path d="M581.5156,975.4844 Q581.6719,975.2656 581.8594,975.1563 Q582.0469,975.0469 582.2656,975.0469 Q582.6406,975.0469 582.875,975.3125 Q583.1094,975.5625 583.1094,976.1719 L583.1094,977.625 Q583.1094,978.2344 582.875,978.5 Q582.6406,978.7656 582.2656,978.7656 Q581.9219,978.7656 581.7188,978.5625 Q581.5156,978.375 581.4063,977.8594 Q581.3594,977.5 581.1719,977.3125 Q580.8438,976.9375 580.2344,976.7188 Q579.625,976.5 579,976.5 Q578.2344,976.5 577.5938,976.8281 Q576.9688,977.1563 576.4688,977.9063 Q575.9844,978.6563 575.9844,979.6875 L575.9844,980.7813 Q575.9844,982.0156 576.875,982.8438 Q577.7656,983.6563 579.3594,983.6563 Q580.2969,983.6563 580.9531,983.4063 Q581.3438,983.25 581.7656,982.8125 Q582.0313,982.5469 582.1719,982.4688 Q582.3281,982.3906 582.5313,982.3906 Q582.8594,982.3906 583.1094,982.6563 Q583.375,982.9063 583.375,983.25 Q583.375,983.5938 583.0313,984 Q582.5313,984.5781 581.7344,984.9063 Q580.6563,985.3594 579.3594,985.3594 Q577.8438,985.3594 576.6406,984.7344 Q575.6563,984.2344 574.9688,983.1719 Q574.2813,982.0938 574.2813,980.8125 L574.2813,979.6563 Q574.2813,978.3281 574.8906,977.1875 Q575.5156,976.0313 576.6094,975.4219 Q577.7031,974.7969 578.9375,974.7969 Q579.6719,974.7969 580.3125,974.9688 Q580.9688,975.125 581.5156,975.4844 Z " fill="#000000"/><text fill="#000000" font-family="sans-serif" font-size="14" lengthAdjust="spacing" textLength="110" x="599.25" y="985.3379">NodoArbolPedido</text><line style="stroke:#181818;stroke-width:0.5;" x1="494" x2="782" y1="995.6094" y2="995.6094"/><rect fill="none" height="6" style="stroke:#C82930;stroke-width:1.0;" width="6" x="501" y="1006.9141"/><text fill="#000000" font-family="sans-serif" font-size="14" lengthAdjust="spacing" textLength="84" x="513" y="1014.1426">dato : Pedido</text><rect fill="none" height="6" style="stroke:#C82930;stroke-width:1.0;" width="6" x="501" y="1024.5234"/><text fill="#000000" font-family="sans-serif" font-size="14" lengthAdjust="spacing" textLength="179" x="513" y="1031.752">izquierdo : NodoArbolPedido</text><rect fill="none" height="6" style="stroke:#C82930;stroke-width:1.0;" width="6" x="501" y="1042.1328"/><text fill="#000000" font-family="sans-serif" font-size="14" lengthAdjust="spacing" textLength="174" x="513" y="1049.3613">derecho : NodoArbolPedido</text><line style="stroke:#181818;stroke-width:0.5;" x1="494" x2="782" y1="1056.4375" y2="1056.4375"/><ellipse cx="504" cy="1070.7422" fill="#84BE84" rx="3" ry="3" style="stroke:#038048;stroke-width:1.0;"/><text fill="#000000" font-family="sans-serif" font-size="14" lengthAdjust="spacing" textLength="204" x="513" y="1074.9707">NodoArbolPedido(dato : Pedido)</text><ellipse cx="504" cy="1088.3516" fill="#84BE84" rx="3" ry="3" style="stroke:#038048;stroke-width:1.0;"/><text fill="#000000" font-family="sans-serif" font-size="14" lengthAdjust="spacing" textLength="116" x="513" y="1092.5801">getDato() : Pedido</text><ellipse cx="504" cy="1105.9609" fill="#84BE84" rx="3" ry="3" style="stroke:#038048;stroke-width:1.0;"/><text fill="#000000" font-family="sans-serif" font-size="14" lengthAdjust="spacing" textLength="209" x="513" y="1110.1895">getIzquierdo() : NodoArbolPedido</text><ellipse cx="504" cy="1123.5703" fill="#84BE84" rx="3" ry="3" style="stroke:#038048;stroke-width:1.0;"/><text fill="#000000" font-family="sans-serif" font-size="14" lengthAdjust="spacing" textLength="206" x="513" y="1127.7988">getDerecho() : NodoArbolPedido</text><ellipse cx="504" cy="1141.1797" fill="#84BE84" rx="3" ry="3" style="stroke:#038048;stroke-width:1.0;"/><text fill="#000000" font-family="sans-serif" font-size="14" lengthAdjust="spacing" textLength="263" x="513" y="1145.4082">setIzquierdo(izq : NodoArbolPedido) : void</text><ellipse cx="504" cy="1158.7891" fill="#84BE84" rx="3" ry="3" style="stroke:#038048;stroke-width:1.0;"/><text fill="#000000" font-family="sans-serif" font-size="14" lengthAdjust="spacing" textLength="264" x="513" y="1163.0176">setDerecho(der : NodoArbolPedido) : void</text></g><!--class Pedido--><g id="elem_Pedido"><rect codeLine="64" fill="#F1F1F1" height="294.5313" id="Pedido" rx="2.5" ry="2.5" style="stroke:#181818;stroke-width:0.5;" width="521" x="198.5" y="1247.6094"/><ellipse cx="432.75" cy="1263.6094" fill="#ADD1B2" rx="11" ry="11" style="stroke:#181818;stroke-width:1.0;"/><path d="M435.5156,1259.4844 Q435.6719,1259.2656 435.8594,1259.1563 Q436.0469,1259.0469 436.2656,1259.0469 Q436.6406,1259.0469 436.875,1259.3125 Q437.1094,1259.5625 437.1094,1260.1719 L437.1094,1261.625 Q437.1094,1262.2344 436.875,1262.5 Q436.6406,1262.7656 436.2656,1262.7656 Q435.9219,1262.7656 435.7188,1262.5625 Q435.5156,1262.375 435.4063,1261.8594 Q435.3594,1261.5 435.1719,1261.3125 Q434.8438,1260.9375 434.2344,1260.7188 Q433.625,1260.5 433,1260.5 Q432.2344,1260.5 431.5938,1260.8281 Q430.9688,1261.1563 430.4688,1261.9063 Q429.9844,1262.6563 429.9844,1263.6875 L429.9844,1264.7813 Q429.9844,1266.0156 430.875,1266.8438 Q431.7656,1267.6563 433.3594,1267.6563 Q434.2969,1267.6563 434.9531,1267.4063 Q435.3438,1267.25 435.7656,1266.8125 Q436.0313,1266.5469 436.1719,1266.4688 Q436.3281,1266.3906 436.5313,1266.3906 Q436.8594,1266.3906 437.1094,1266.6563 Q437.375,1266.9063 437.375,1267.25 Q437.375,1267.5938 437.0313,1268 Q436.5313,1268.5781 435.7344,1268.9063 Q434.6563,1269.3594 433.3594,1269.3594 Q431.8438,1269.3594 430.6406,1268.7344 Q429.6563,1268.2344 428.9688,1267.1719 Q428.2813,1266.0938 428.2813,1264.8125 L428.2813,1263.6563 Q428.2813,1262.3281 428.8906,1261.1875 Q429.5156,1260.0313 430.6094,1259.4219 Q431.7031,1258.7969 432.9375,1258.7969 Q433.6719,1258.7969 434.3125,1258.9688 Q434.9688,1259.125 435.5156,1259.4844 Z " fill="#000000"/><text fill="#000000" font-family="sans-serif" font-size="14" lengthAdjust="spacing" textLength="44" x="453.25" y="1269.3379">Pedido</text><line style="stroke:#181818;stroke-width:0.5;" x1="199.5" x2="718.5" y1="1279.6094" y2="1279.6094"/><rect fill="none" height="6" style="stroke:#C82930;stroke-width:1.0;" width="6" x="206.5" y="1290.9141"/><text fill="#000000" font-family="sans-serif" font-size="14" lengthAdjust="spacing" textLength="104" x="218.5" y="1298.1426">identificador : int</text><rect fill="none" height="6" style="stroke:#C82930;stroke-width:1.0;" width="6" x="206.5" y="1308.5234"/><text fill="#000000" font-family="sans-serif" font-size="14" lengthAdjust="spacing" textLength="127" x="218.5" y="1315.752">tipoPlato : TipoPlato</text><rect fill="none" height="6" style="stroke:#C82930;stroke-width:1.0;" width="6" x="206.5" y="1326.1328"/><text fill="#000000" font-family="sans-serif" font-size="14" lengthAdjust="spacing" textLength="178" x="218.5" y="1333.3613">tiempoTotalPreparacion : int</text><rect fill="none" height="6" style="stroke:#C82930;stroke-width:1.0;" width="6" x="206.5" y="1343.7422"/><text fill="#000000" font-family="sans-serif" font-size="14" lengthAdjust="spacing" textLength="203" x="218.5" y="1350.9707">tiempoRestantePreparacion : int</text><rect fill="none" height="6" style="stroke:#C82930;stroke-width:1.0;" width="6" x="206.5" y="1361.3516"/><text fill="#000000" font-family="sans-serif" font-size="14" lengthAdjust="spacing" textLength="120" x="218.5" y="1368.5801">minutoLlegada : int</text><rect fill="none" height="6" style="stroke:#C82930;stroke-width:1.0;" width="6" x="206.5" y="1378.9609"/><text fill="#000000" font-family="sans-serif" font-size="14" lengthAdjust="spacing" textLength="207" x="218.5" y="1386.1895">minutoInicioPreparacion : Integer</text><line style="stroke:#181818;stroke-width:0.5;" x1="199.5" x2="718.5" y1="1393.2656" y2="1393.2656"/><ellipse cx="209.5" cy="1407.5703" fill="#84BE84" rx="3" ry="3" style="stroke:#038048;stroke-width:1.0;"/><text fill="#000000" font-family="sans-serif" font-size="14" lengthAdjust="spacing" textLength="495" x="218.5" y="1411.7988">Pedido(tipoPlato : TipoPlato, tiempoTotalPreparacion : int, minutoLlegada : int)</text><ellipse cx="209.5" cy="1425.1797" fill="#84BE84" rx="3" ry="3" style="stroke:#038048;stroke-width:1.0;"/><text fill="#000000" font-family="sans-serif" font-size="14" lengthAdjust="spacing" textLength="162" x="218.5" y="1429.4082">getTipoPlato() : TipoPlato</text><ellipse cx="209.5" cy="1442.7891" fill="#84BE84" rx="3" ry="3" style="stroke:#038048;stroke-width:1.0;"/><text fill="#000000" font-family="sans-serif" font-size="14" lengthAdjust="spacing" textLength="213" x="218.5" y="1447.0176">getTiempoTotalPreparacion() : int</text><ellipse cx="209.5" cy="1460.3984" fill="#84BE84" rx="3" ry="3" style="stroke:#038048;stroke-width:1.0;"/><text fill="#000000" font-family="sans-serif" font-size="14" lengthAdjust="spacing" textLength="238" x="218.5" y="1464.627">getTiempoRestantePreparacion() : int</text><ellipse cx="209.5" cy="1478.0078" fill="#84BE84" rx="3" ry="3" style="stroke:#038048;stroke-width:1.0;"/><text fill="#000000" font-family="sans-serif" font-size="14" lengthAdjust="spacing" textLength="196" x="218.5" y="1482.2363">reducirTiempoRestante() : void</text><ellipse cx="209.5" cy="1495.6172" fill="#84BE84" rx="3" ry="3" style="stroke:#038048;stroke-width:1.0;"/><text fill="#000000" font-family="sans-serif" font-size="14" lengthAdjust="spacing" textLength="178" x="218.5" y="1499.8457">calcularTiempoEspera() : int</text><ellipse cx="209.5" cy="1513.2266" fill="#84BE84" rx="3" ry="3" style="stroke:#038048;stroke-width:1.0;"/><text fill="#000000" font-family="sans-serif" font-size="14" lengthAdjust="spacing" textLength="287" x="218.5" y="1517.4551">setMinutoInicioPreparacion(minuto : int) : void</text><ellipse cx="209.5" cy="1530.8359" fill="#84BE84" rx="3" ry="3" style="stroke:#038048;stroke-width:1.0;"/><text fill="#000000" font-family="sans-serif" font-size="14" lengthAdjust="spacing" textLength="190" x="218.5" y="1535.0645">compareTo(otro : Pedido) : int</text></g><!--class TipoPlato--><g id="elem_TipoPlato"><rect codeLine="81" fill="#F1F1F1" height="171.2656" id="TipoPlato" rx="2.5" ry="2.5" style="stroke:#181818;stroke-width:0.5;" width="438" x="240" y="1620.6094"/><ellipse cx="424.75" cy="1636.6094" fill="#ADD1B2" rx="11" ry="11" style="stroke:#181818;stroke-width:1.0;"/><path d="M427.5156,1632.4844 Q427.6719,1632.2656 427.8594,1632.1563 Q428.0469,1632.0469 428.2656,1632.0469 Q428.6406,1632.0469 428.875,1632.3125 Q429.1094,1632.5625 429.1094,1633.1719 L429.1094,1634.625 Q429.1094,1635.2344 428.875,1635.5 Q428.6406,1635.7656 428.2656,1635.7656 Q427.9219,1635.7656 427.7188,1635.5625 Q427.5156,1635.375 427.4063,1634.8594 Q427.3594,1634.5 427.1719,1634.3125 Q426.8438,1633.9375 426.2344,1633.7188 Q425.625,1633.5 425,1633.5 Q424.2344,1633.5 423.5938,1633.8281 Q422.9688,1634.1563 422.4688,1634.9063 Q421.9844,1635.6563 421.9844,1636.6875 L421.9844,1637.7813 Q421.9844,1639.0156 422.875,1639.8438 Q423.7656,1640.6563 425.3594,1640.6563 Q426.2969,1640.6563 426.9531,1640.4063 Q427.3438,1640.25 427.7656,1639.8125 Q428.0313,1639.5469 428.1719,1639.4688 Q428.3281,1639.3906 428.5313,1639.3906 Q428.8594,1639.3906 429.1094,1639.6563 Q429.375,1639.9063 429.375,1640.25 Q429.375,1640.5938 429.0313,1641 Q428.5313,1641.5781 427.7344,1641.9063 Q426.6563,1642.3594 425.3594,1642.3594 Q423.8438,1642.3594 422.6406,1641.7344 Q421.6563,1641.2344 420.9688,1640.1719 Q420.2813,1639.0938 420.2813,1637.8125 L420.2813,1636.6563 Q420.2813,1635.3281 420.8906,1634.1875 Q421.5156,1633.0313 422.6094,1632.4219 Q423.7031,1631.7969 424.9375,1631.7969 Q425.6719,1631.7969 426.3125,1631.9688 Q426.9688,1632.125 427.5156,1632.4844 Z " fill="#000000"/><text fill="#000000" font-family="sans-serif" font-size="14" lengthAdjust="spacing" textLength="60" x="445.25" y="1642.3379">TipoPlato</text><line style="stroke:#181818;stroke-width:0.5;" x1="241" x2="677" y1="1652.6094" y2="1652.6094"/><rect fill="none" height="6" style="stroke:#C82930;stroke-width:1.0;" width="6" x="248" y="1663.9141"/><text fill="#000000" font-family="sans-serif" font-size="14" lengthAdjust="spacing" textLength="97" x="260" y="1671.1426">nombre : String</text><rect fill="none" height="6" style="stroke:#C82930;stroke-width:1.0;" width="6" x="248" y="1681.5234"/><text fill="#000000" font-family="sans-serif" font-size="14" lengthAdjust="spacing" textLength="113" x="260" y="1688.752">tiempoMinimo : int</text><rect fill="none" height="6" style="stroke:#C82930;stroke-width:1.0;" width="6" x="248" y="1699.1328"/><text fill="#000000" font-family="sans-serif" font-size="14" lengthAdjust="spacing" textLength="116" x="260" y="1706.3613">tiempoMaximo : int</text><line style="stroke:#181818;stroke-width:0.5;" x1="241" x2="677" y1="1713.4375" y2="1713.4375"/><ellipse cx="251" cy="1727.7422" fill="#84BE84" rx="3" ry="3" style="stroke:#038048;stroke-width:1.0;"/><text fill="#000000" font-family="sans-serif" font-size="14" lengthAdjust="spacing" textLength="412" x="260" y="1731.9707">TipoPlato(nombre : String, tiempoMinimo : int, tiempoMaximo : int)</text><ellipse cx="251" cy="1745.3516" fill="#84BE84" rx="3" ry="3" style="stroke:#038048;stroke-width:1.0;"/><text fill="#000000" font-family="sans-serif" font-size="14" lengthAdjust="spacing" textLength="128" x="260" y="1749.5801">getNombre() : String</text><ellipse cx="251" cy="1762.9609" fill="#84BE84" rx="3" ry="3" style="stroke:#038048;stroke-width:1.0;"/><text fill="#000000" font-family="sans-serif" font-size="14" lengthAdjust="spacing" textLength="259" x="260" y="1767.1895">obtenerTiempoAleatorio(r : Random) : int</text><ellipse cx="251" cy="1780.5703" fill="#84BE84" rx="3" ry="3" style="stroke:#038048;stroke-width:1.0;"/><text fill="#000000" font-family="sans-serif" font-size="14" lengthAdjust="spacing" textLength="257" x="260" y="1784.7988">obtenerAleatorio(r : Random) : TipoPlato</text></g><!--link Simulacion to Restaurante--><g id="link_Simulacion_Restaurante"><path codeLine="91" d="M440,111.7394 C440,131.9194 440,153.6794 440,183.4094 " fill="none" id="Simulacion-to-Restaurante" style="stroke:#181818;stroke-width:1.0;"/><polygon fill="#181818" points="440,189.4094,444,180.4094,440,184.4094,436,180.4094,440,189.4094" style="stroke:#181818;stroke-width:1.0;"/><text fill="#000000" font-family="sans-serif" font-size="13" lengthAdjust="spacing" textLength="61" x="441" y="156.1045">crea y usa</text></g><!--link Restaurante to Cocinero--><g id="link_Restaurante_Cocinero"><path codeLine="92" d="M314.59,537.0094 C290.1,570.7594 269.342,599.3719 249.272,627.0519 " fill="none" id="Restaurante-to-Cocinero" style="stroke:#181818;stroke-width:1.0;"/><polygon fill="#181818" points="245.75,631.9094,254.2714,626.9712,248.685,627.8615,247.7947,622.2751,245.75,631.9094" style="stroke:#181818;stroke-width:1.0;"/><text fill="#000000" font-family="sans-serif" font-size="13" lengthAdjust="spacing" textLength="28" x="291" y="581.1045">tiene</text></g><!--link Restaurante to GeneradorPedidos--><g id="link_Restaurante_GeneradorPedidos"><path codeLine="93" d="M436.27,536.9594 C434.18,633.6394 431.8389,741.9208 430.3889,809.3908 " fill="none" id="Restaurante-to-GeneradorPedidos" style="stroke:#181818;stroke-width:1.0;"/><polygon fill="#181818" points="430.26,815.3894,434.4525,806.4774,430.3674,810.3905,426.4543,806.3055,430.26,815.3894" style="stroke:#181818;stroke-width:1.0;"/><text fill="#000000" font-family="sans-serif" font-size="13" lengthAdjust="spacing" textLength="21" x="437" y="581.1045">usa</text></g><!--link Restaurante to ArbolPedidos--><g id="link_Restaurante_ArbolPedidos"><path codeLine="94" d="M536.51,537.0094 C551.52,563.8794 563.4966,585.3398 576.7366,609.0698 " fill="none" id="Restaurante-to-ArbolPedidos" style="stroke:#181818;stroke-width:1.0;"/><polygon fill="#181818" points="579.66,614.3094,578.768,604.501,577.2238,609.943,571.7818,608.3989,579.66,614.3094" style="stroke:#181818;stroke-width:1.0;"/><text fill="#000000" font-family="sans-serif" font-size="13" lengthAdjust="spacing" textLength="49" x="563" y="581.1045">gestiona</text></g><!--link ArbolPedidos to NodoArbolPedido--><g id="link_ArbolPedidos_NodoArbolPedido"><path codeLine="95" d="M629.55,785.6494 C631.15,838.6494 633.0392,901.3021 634.7292,957.3521 " fill="none" id="ArbolPedidos-to-NodoArbolPedido" style="stroke:#181818;stroke-width:1.0;"/><polygon fill="#181818" points="634.91,963.3494,638.6369,954.2329,634.7593,958.3516,630.6406,954.474,634.91,963.3494" style="stroke:#181818;stroke-width:1.0;"/><text fill="#000000" font-family="sans-serif" font-size="13" lengthAdjust="spacing" textLength="53" x="635" y="880.1045">compone</text></g><!--link NodoArbolPedido to Pedido--><g id="link_NodoArbolPedido_Pedido"><path codeLine="96" d="M581.85,1170.0194 C568.37,1194.6094 556.5941,1216.098 542.2541,1242.258 " fill="none" id="NodoArbolPedido-to-Pedido" style="stroke:#181818;stroke-width:1.0;"/><polygon fill="#181818" points="539.37,1247.5194,547.2037,1241.5501,541.7734,1243.1349,540.1886,1237.7046,539.37,1247.5194" style="stroke:#181818;stroke-width:1.0;"/><text fill="#000000" font-family="sans-serif" font-size="13" lengthAdjust="spacing" textLength="49" x="566" y="1214.1045">contiene</text></g><!--link GeneradorPedidos to Pedido--><g id="link_GeneradorPedidos_Pedido"><path codeLine="97" d="M432.37,933.8294 C436.73,1009.2294 444.1435,1137.3094 450.1635,1241.3794 " fill="none" id="GeneradorPedidos-to-Pedido" style="stroke:#181818;stroke-width:1.0;"/><polygon fill="#181818" points="450.51,1247.3694,453.9836,1238.1534,450.2213,1242.3777,445.9969,1238.6154,450.51,1247.3694" style="stroke:#181818;stroke-width:1.0;"/><text fill="#000000" font-family="sans-serif" font-size="13" lengthAdjust="spacing" textLength="25" x="447" y="1072.1045">crea</text></g><!--link Pedido to TipoPlato--><g id="link_Pedido_TipoPlato"><path codeLine="98" d="M459,1542.9194 C459,1569.5494 459,1590.4794 459,1614.5394 " fill="none" id="Pedido-to-TipoPlato" style="stroke:#181818;stroke-width:1.0;"/><polygon fill="#181818" points="459,1620.5394,463,1611.5394,459,1615.5394,455,1611.5394,459,1620.5394" style="stroke:#181818;stroke-width:1.0;"/><text fill="#000000" font-family="sans-serif" font-size="13" lengthAdjust="spacing" textLength="21" x="460" y="1587.1045">usa</text></g><!--SRC=[VLPHRjim3FtFAVJf8Ca5-Z70JR8kGD86RhgVOHXeMVKqs58coqNNOOVP4NQ6NcoKBSkox2H005jyfCZ79rgQwuAHX3q3rLBnDw1S2aBn__vNfR9W5Kcv0CLbHLOaMQ_N7sSpMa1LaKTUraMB_pqZ-5kG4hY8GEKLkI6FMd6HV_awn-SNoRFPdyunOPM6Me7Gp7gkoAU79FuM7xV9wIc9qIEJTLemtxZURPDa6veEk_kdqqEuUamURkFRtNwtYJVVzlljNRmP1QMISi6KnFMrVRIMdE4BP58TMSOpQOgv2vOi4Wn5FIhsNYsYvABMCgQwXW8HN6XhEBUmM3FHkVT6pLbvbjlgZ9kUf6vS2oboIxD7O3ItQ-m7exK65Jc-sr0lKF0CrBvWEMGGMXMZFEMsggZD2H7jUu2jMC6eQJTq-Bc3TaKfILa5gY4KnlPILbg1mlphaebeB8sk4quNRKgEFo_QWa35ypwP8Fdb1FM3Wf0oP77FKyMQH5A9QWTXROqwG6rQbf_4eGaMLhH0hUYZbw8FS4M5ukcBKpA5b9i6PRP1eKgT5cDCpfnGKs428fEbpI2C7bsBEdTf6wUEkcccmZ9yTRiI5F0tnDvBPA2tTpA64jx_IK_QYq4K9rukAgQCUAyfi6tOPpDn9Xfczsei_Mxi5VN657QFbtAoEK7chh0CsGxbozz-rfof9i7fYZE69-hx9ViYN8q6k_JDqHku8BPTbq9ZdTx4-BTvN05LVYmiR0mCoA_wg5Zb5RYZDc2KPqne_iof4MimxixoMBHKdBhdmIXiXk1HiJEezeipdfRDKCIpUWdLYhm_4A5b9pZw3Brt62zdoZ9WUpQPxV9geikftRrskp1DmuOKMC1Ky43i3ZT1HG1LBAifLqDu57ISGa7n2szHxTSeY8EYE4opPuVAvE2biaGOEyb8QZKyxIQq4v0Zmcb8o1BdjRjT30JG7l89PHpWTMXOz96Z8E9o8jXo8exNlFicGaECbzM2o5IRATkovyPtfDm07r9fuPU0lIYG7k_gjLfz65oeRWXL3CWlKbSmymq6kExlF5YIO2F0tVZgCnKd7jvxSZIRUy5ii6w0uNIzQNelSUVGOj0UIBJvZV8Pmh3IcUT_yawcIVi_]--></g></svg>