<?xml version="1.0" encoding="us-ascii" standalone="no"?><svg xmlns="http://www.w3.org/2000/svg" xmlns:xlink="http://www.w3.org/1999/xlink" contentStyleType="text/css" height="1005px" preserveAspectRatio="none" style="width:416px;height:1005px;background:#FFFFFF;" version="1.1" viewBox="0 0 416 1005" width="416px" zoomAndPan="magnify"><defs/><g><text fill="#000000" font-family="sans-serif" font-size="14" font-weight="bold" lengthAdjust="spacing" textLength="337" x="32.5" y="24.5332">Diagrama de clases - Matriz con listas enlazadas</text><!--class Matriz--><g id="elem_Matriz"><rect codeLine="4" fill="#F1F1F1" height="224.0938" id="Matriz" rx="2.5" ry="2.5" style="stroke:#181818;stroke-width:0.5;" width="402" x="7" y="45.6094"/><ellipse cx="185.25" cy="61.6094" fill="#ADD1B2" rx="11" ry="11" style="stroke:#181818;stroke-width:1.0;"/><path d="M188.0156,57.4844 Q188.1719,57.2656 188.3594,57.1563 Q188.5469,57.0469 188.7656,57.0469 Q189.1406,57.0469 189.375,57.3125 Q189.6094,57.5625 189.6094,58.1719 L189.6094,59.625 Q189.6094,60.2344 189.375,60.5 Q189.1406,60.7656 188.7656,60.7656 Q188.4219,60.7656 188.2188,60.5625 Q188.0156,60.375 187.9063,59.8594 Q187.8594,59.5 187.6719,59.3125 Q187.3438,58.9375 186.7344,58.7188 Q186.125,58.5 185.5,58.5 Q184.7344,58.5 184.0938,58.8281 Q183.4688,59.1563 182.9688,59.9063 Q182.4844,60.6563 182.4844,61.6875 L182.4844,62.7813 Q182.4844,64.0156 183.375,64.8438 Q184.2656,65.6563 185.8594,65.6563 Q186.7969,65.6563 187.4531,65.4063 Q187.8438,65.25 188.2656,64.8125 Q188.5313,64.5469 188.6719,64.4688 Q188.8281,64.3906 189.0313,64.3906 Q189.3594,64.3906 189.6094,64.6563 Q189.875,64.9063 189.875,65.25 Q189.875,65.5938 189.5313,66 Q189.0313,66.5781 188.2344,66.9063 Q187.1563,67.3594 185.8594,67.3594 Q184.3438,67.3594 183.1406,66.7344 Q182.1563,66.2344 181.4688,65.1719 Q180.7813,64.0938 180.7813,62.8125 L180.7813,61.6563 Q180.7813,60.3281 181.3906,59.1875 Q182.0156,58.0313 183.1094,57.4219 Q184.2031,56.7969 185.4375,56.7969 Q186.1719,56.7969 186.8125,56.9688 Q187.4688,57.125 188.0156,57.4844 Z " fill="#000000"/><text fill="#000000" font-family="sans-serif" font-size="14" lengthAdjust="spacing" textLength="37" x="205.75" y="67.3379">Matriz</text><line style="stroke:#181818;stroke-width:0.5;" x1="8" x2="408" y1="77.6094" y2="77.6094"/><text fill="#000000" font-family="sans-serif" font-size="14" lengthAdjust="spacing" textLength="110" x="13" y="96.1426">-numeroFilas : int</text><text fill="#000000" font-family="sans-serif" font-size="14" lengthAdjust="spacing" textLength="143" x="13" y="113.752">-numeroColumnas : int</text><text fill="#000000" font-family="sans-serif" font-size="14" lengthAdjust="spacing" textLength="168" x="13" y="131.3613">-listaDeFilas : ListaDeFilas</text><line style="stroke:#181818;stroke-width:0.5;" x1="8" x2="408" y1="138.4375" y2="138.4375"/><text fill="#000000" font-family="sans-serif" font-size="14" lengthAdjust="spacing" textLength="290" x="13" y="156.9707">+Matriz(numeroFilas:int, numeroColumnas:int)</text><text fill="#000000" font-family="sans-serif" font-size="14" lengthAdjust="spacing" textLength="371" x="13" y="174.5801">+posicionValida(indiceFila:int, indiceColumna:int) : boolean</text><text fill="#000000" font-family="sans-serif" font-size="14" lengthAdjust="spacing" textLength="217" x="13" y="192.1895">+filaValida(indiceFila:int) : boolean</text><text fill="#000000" font-family="sans-serif" font-size="14" lengthAdjust="spacing" textLength="390" x="13" y="209.7988">+setValor(indiceFila:int, indiceColumna:int, valor:int) : boolean</text><text fill="#000000" font-family="sans-serif" font-size="14" lengthAdjust="spacing" textLength="297" x="13" y="227.4082">+getValor(indiceFila:int, indiceColumna:int) : int</text><text fill="#000000" font-family="sans-serif" font-size="14" lengthAdjust="spacing" textLength="105" x="13" y="245.0176">+imprimir() : void</text><text fill="#000000" font-family="sans-serif" font-size="14" lengthAdjust="spacing" textLength="175" x="13" y="262.627">+getFila(indiceFila:int) : Fila</text></g><!--class ListaDeFilas--><g id="elem_ListaDeFilas"><rect codeLine="17" fill="#F1F1F1" height="136.0469" id="ListaDeFilas" rx="2.5" ry="2.5" style="stroke:#181818;stroke-width:0.5;" width="343" x="36.5" y="329.6094"/><ellipse cx="164.75" cy="345.6094" fill="#ADD1B2" rx="11" ry="11" style="stroke:#181818;stroke-width:1.0;"/><path d="M167.5156,341.4844 Q167.6719,341.2656 167.8594,341.1563 Q168.0469,341.0469 168.2656,341.0469 Q168.6406,341.0469 168.875,341.3125 Q169.1094,341.5625 169.1094,342.1719 L169.1094,343.625 Q169.1094,344.2344 168.875,344.5 Q168.6406,344.7656 168.2656,344.7656 Q167.9219,344.7656 167.7188,344.5625 Q167.5156,344.375 167.4063,343.8594 Q167.3594,343.5 167.1719,343.3125 Q166.8438,342.9375 166.2344,342.7188 Q165.625,342.5 165,342.5 Q164.2344,342.5 163.5938,342.8281 Q162.9688,343.1563 162.4688,343.9063 Q161.9844,344.6563 161.9844,345.6875 L161.9844,346.7813 Q161.9844,348.0156 162.875,348.8438 Q163.7656,349.6563 165.3594,349.6563 Q166.2969,349.6563 166.9531,349.4063 Q167.3438,349.25 167.7656,348.8125 Q168.0313,348.5469 168.1719,348.4688 Q168.3281,348.3906 168.5313,348.3906 Q168.8594,348.3906 169.1094,348.6563 Q169.375,348.9063 169.375,349.25 Q169.375,349.5938 169.0313,350 Q168.5313,350.5781 167.7344,350.9063 Q166.6563,351.3594 165.3594,351.3594 Q163.8438,351.3594 162.6406,350.7344 Q161.6563,350.2344 160.9688,349.1719 Q160.2813,348.0938 160.2813,346.8125 L160.2813,345.6563 Q160.2813,344.3281 160.8906,343.1875 Q161.5156,342.0313 162.6094,341.4219 Q163.7031,340.7969 164.9375,340.7969 Q165.6719,340.7969 166.3125,340.9688 Q166.9688,341.125 167.5156,341.4844 Z " fill="#000000"/><text fill="#000000" font-family="sans-serif" font-size="14" lengthAdjust="spacing" textLength="78" x="185.25" y="351.3379">ListaDeFilas</text><line style="stroke:#181818;stroke-width:0.5;" x1="37.5" x2="378.5" y1="361.6094" y2="361.6094"/><text fill="#000000" font-family="sans-serif" font-size="14" lengthAdjust="spacing" textLength="110" x="42.5" y="380.1426">-numeroFilas : int</text><text fill="#000000" font-family="sans-serif" font-size="14" lengthAdjust="spacing" textLength="143" x="42.5" y="397.752">-numeroColumnas : int</text><text fill="#000000" font-family="sans-serif" font-size="14" lengthAdjust="spacing" textLength="141" x="42.5" y="415.3613">-arregloDeFilas : Fila[]</text><line style="stroke:#181818;stroke-width:0.5;" x1="37.5" x2="378.5" y1="422.4375" y2="422.4375"/><text fill="#000000" font-family="sans-serif" font-size="14" lengthAdjust="spacing" textLength="331" x="42.5" y="440.9707">+ListaDeFilas(numeroFilas:int, numeroColumnas:int)</text><text fill="#000000" font-family="sans-serif" font-size="14" lengthAdjust="spacing" textLength="175" x="42.5" y="458.5801">+getFila(indiceFila:int) : Fila</text></g><!--class Fila--><g id="elem_Fila"><rect codeLine="25" fill="#F1F1F1" height="241.7031" id="Fila" rx="2.5" ry="2.5" style="stroke:#181818;stroke-width:0.5;" width="379" x="18.5" y="525.6094"/><ellipse cx="192.25" cy="541.6094" fill="#ADD1B2" rx="11" ry="11" style="stroke:#181818;stroke-width:1.0;"/><path d="M195.0156,537.4844 Q195.1719,537.2656 195.3594,537.1563 Q195.5469,537.0469 195.7656,537.0469 Q196.1406,537.0469 196.375,537.3125 Q196.6094,537.5625 196.6094,538.1719 L196.6094,539.625 Q196.6094,540.2344 196.375,540.5 Q196.1406,540.7656 195.7656,540.7656 Q195.4219,540.7656 195.2188,540.5625 Q195.0156,540.375 194.9063,539.8594 Q194.8594,539.5 194.6719,539.3125 Q194.3438,538.9375 193.7344,538.7188 Q193.125,538.5 192.5,538.5 Q191.7344,538.5 191.0938,538.8281 Q190.4688,539.1563 189.9688,539.9063 Q189.4844,540.6563 189.4844,541.6875 L189.4844,542.7813 Q189.4844,544.0156 190.375,544.8438 Q191.2656,545.6563 192.8594,545.6563 Q193.7969,545.6563 194.4531,545.4063 Q194.8438,545.25 195.2656,544.8125 Q195.5313,544.5469 195.6719,544.4688 Q195.8281,544.3906 196.0313,544.3906 Q196.3594,544.3906 196.6094,544.6563 Q196.875,544.9063 196.875,545.25 Q196.875,545.5938 196.5313,546 Q196.0313,546.5781 195.2344,546.9063 Q194.1563,547.3594 192.8594,547.3594 Q191.3438,547.3594 190.1406,546.7344 Q189.1563,546.2344 188.4688,545.1719 Q187.7813,544.0938 187.7813,542.8125 L187.7813,541.6563 Q187.7813,540.3281 188.3906,539.1875 Q189.0156,538.0313 190.1094,537.4219 Q191.2031,536.7969 192.4375,536.7969 Q193.1719,536.7969 193.8125,536.9688 Q194.4688,537.125 195.0156,537.4844 Z " fill="#000000"/><text fill="#000000" font-family="sans-serif" font-size="14" lengthAdjust="spacing" textLength="23" x="212.75" y="547.3379">Fila</text><line style="stroke:#181818;stroke-width:0.5;" x1="19.5" x2="396.5" y1="557.6094" y2="557.6094"/><text fill="#000000" font-family="sans-serif" font-size="14" lengthAdjust="spacing" textLength="95" x="24.5" y="576.1426">-cabeza : Nodo</text><text fill="#000000" font-family="sans-serif" font-size="14" lengthAdjust="spacing" textLength="143" x="24.5" y="593.752">-numeroColumnas : int</text><text fill="#000000" font-family="sans-serif" font-size="14" lengthAdjust="spacing" textLength="166" x="24.5" y="611.3613">-nodoUltimoAcceso : Nodo</text><text fill="#000000" font-family="sans-serif" font-size="14" lengthAdjust="spacing" textLength="153" x="24.5" y="628.9707">-indiceUltimoAcceso : int</text><line style="stroke:#181818;stroke-width:0.5;" x1="19.5" x2="396.5" y1="636.0469" y2="636.0469"/><text fill="#000000" font-family="sans-serif" font-size="14" lengthAdjust="spacing" textLength="167" x="24.5" y="654.5801">+Fila(columnasTotales:int)</text><text fill="#000000" font-family="sans-serif" font-size="14" lengthAdjust="spacing" textLength="285" x="24.5" y="672.1895">+columnaValida(indiceColumna:int) : boolean</text><text fill="#000000" font-family="sans-serif" font-size="14" lengthAdjust="spacing" textLength="303" x="24.5" y="689.7988">+setValor(indiceColumna:int, valor:int) : boolean</text><text fill="#000000" font-family="sans-serif" font-size="14" lengthAdjust="spacing" textLength="210" x="24.5" y="707.4082">+getValor(indiceColumna:int) : int</text><text fill="#000000" font-family="sans-serif" font-size="14" lengthAdjust="spacing" textLength="105" x="24.5" y="725.0176">+imprimir() : void</text><text fill="#000000" font-family="sans-serif" font-size="14" lengthAdjust="spacing" textLength="367" x="24.5" y="742.627">-buscarNodoConCache(indiceColumnaObjetivo:int) : Nodo</text><text fill="#000000" font-family="sans-serif" font-size="14" lengthAdjust="spacing" textLength="282" x="24.5" y="760.2363">-construirFilaVacia(totalColumnas:int) : Nodo</text></g><!--class Nodo--><g id="elem_Nodo"><rect codeLine="39" fill="#F1F1F1" height="171.2656" id="Nodo" rx="2.5" ry="2.5" style="stroke:#181818;stroke-width:0.5;" width="240" x="88" y="827.6094"/><ellipse cx="187.25" cy="843.6094" fill="#ADD1B2" rx="11" ry="11" style="stroke:#181818;stroke-width:1.0;"/><path d="M190.0156,839.4844 Q190.1719,839.2656 190.3594,839.1563 Q190.5469,839.0469 190.7656,839.0469 Q191.1406,839.0469 191.375,839.3125 Q191.6094,839.5625 191.6094,840.1719 L191.6094,841.625 Q191.6094,842.2344 191.375,842.5 Q191.1406,842.7656 190.7656,842.7656 Q190.4219,842.7656 190.2188,842.5625 Q190.0156,842.375 189.9063,841.8594 Q189.8594,841.5 189.6719,841.3125 Q189.3438,840.9375 188.7344,840.7188 Q188.125,840.5 187.5,840.5 Q186.7344,840.5 186.0938,840.8281 Q185.4688,841.1563 184.9688,841.9063 Q184.4844,842.6563 184.4844,843.6875 L184.4844,844.7813 Q184.4844,846.0156 185.375,846.8438 Q186.2656,847.6563 187.8594,847.6563 Q188.7969,847.6563 189.4531,847.4063 Q189.8438,847.25 190.2656,846.8125 Q190.5313,846.5469 190.6719,846.4688 Q190.8281,846.3906 191.0313,846.3906 Q191.3594,846.3906 191.6094,846.6563 Q191.875,846.9063 191.875,847.25 Q191.875,847.5938 191.5313,848 Q191.0313,848.5781 190.2344,848.9063 Q189.1563,849.3594 187.8594,849.3594 Q186.3438,849.3594 185.1406,848.7344 Q184.1563,848.2344 183.4688,847.1719 Q182.7813,846.0938 182.7813,844.8125 L182.7813,843.6563 Q182.7813,842.3281 183.3906,841.1875 Q184.0156,840.0313 185.1094,839.4219 Q186.2031,838.7969 187.4375,838.7969 Q188.1719,838.7969 188.8125,838.9688 Q189.4688,839.125 190.0156,839.4844 Z " fill="#000000"/><text fill="#000000" font-family="sans-serif" font-size="14" lengthAdjust="spacing" textLength="33" x="207.75" y="849.3379">Nodo</text><line style="stroke:#181818;stroke-width:0.5;" x1="89" x2="327" y1="859.6094" y2="859.6094"/><text fill="#000000" font-family="sans-serif" font-size="14" lengthAdjust="spacing" textLength="60" x="94" y="878.1426">-dato : int</text><text fill="#000000" font-family="sans-serif" font-size="14" lengthAdjust="spacing" textLength="107" x="94" y="895.752">-siguiente : Nodo</text><line style="stroke:#181818;stroke-width:0.5;" x1="89" x2="327" y1="902.8281" y2="902.8281"/><text fill="#000000" font-family="sans-serif" font-size="14" lengthAdjust="spacing" textLength="98" x="94" y="921.3613">+Nodo(dato:int)</text><text fill="#000000" font-family="sans-serif" font-size="14" lengthAdjust="spacing" textLength="95" x="94" y="938.9707">+getDato() : int</text><text fill="#000000" font-family="sans-serif" font-size="14" lengthAdjust="spacing" textLength="152" x="94" y="956.5801">+setDato(dato:int) : void</text><text fill="#000000" font-family="sans-serif" font-size="14" lengthAdjust="spacing" textLength="142" x="94" y="974.1895">+getSiguiente() : Nodo</text><text fill="#000000" font-family="sans-serif" font-size="14" lengthAdjust="spacing" textLength="228" x="94" y="991.7988">+setSiguiente(siguiente:Nodo) : void</text></g><!--reverse link Matriz to ListaDeFilas--><g id="link_Matriz_ListaDeFilas"><path codeLine="49" d="M208,281.9394 C208,302.2694 208,310.8894 208,329.4294 " fill="none" id="Matriz-backto-ListaDeFilas" style="stroke:#181818;stroke-width:1.0;"/><polygon fill="#181818" points="208,269.9394,204,275.9394,208,281.9394,212,275.9394,208,269.9394" style="stroke:#181818;stroke-width:1.0;"/></g><!--reverse link ListaDeFilas to Fila--><g id="link_ListaDeFilas_Fila"><path codeLine="50" d="M208,477.7794 C208,496.2094 208,504.7594 208,525.2094 " fill="none" id="ListaDeFilas-backto-Fila" style="stroke:#181818;stroke-width:1.0;"/><polygon fill="#181818" points="208,465.7794,204,471.7794,208,477.7794,212,471.7794,208,465.7794" style="stroke:#181818;stroke-width:1.0;"/><text fill="#000000" font-family="sans-serif" font-size="13" lengthAdjust="spacing" textLength="20" x="187.3906" y="514.8389">1..*</text></g><!--reverse link Fila to Nodo--><g id="link_Fila_Nodo"><path codeLine="51" d="M208,779.8594 C208,799.9194 208,808.3594 208,827.2894 " fill="none" id="Fila-backto-Nodo" style="stroke:#181818;stroke-width:1.0;"/><polygon fill="#181818" points="208,767.8594,204,773.8594,208,779.8594,212,773.8594,208,767.8594" style="stroke:#181818;stroke-width:1.0;"/><text fill="#000000" font-family="sans-serif" font-size="13" lengthAdjust="spacing" textLength="20" x="187.1406" y="816.7255">1..*</text></g><!--SRC=[fLGzRzim4DtrAuXCSXm5wUeji16WGDiCIRiK7KxKrRsMuXaavS51_tj9cf99nMYIrel5k_VUVPAEd4An8TWQw45qAAG2YrOquYCuGmSXMGj5re4Lg1KSe0DRsL-aT-0f4MvldOUsWyFt7lr01nGtLHKzeyfJ9Vol4NheqV0TUPzO2TAkiAzP3RsUkMBm3OwS3zan8fOfHfrfhppzQYOQR8l4sB4bIQo_WA8EQj8ToIXv91xFYHXvFd3Bh11qKlZkmMVPpw4MdKUoUJdCbTW7u7cPxQjb5bd_beBwdQ6UJ1tCUwRkf1SqpgGVlglVumJpXl_F7C4Ot2e-JJByV_sMiicZl6MIhwqYdARi9RHu08_vn1s_dBdsgC_AKS-tKgBbadYCFFEVsX-paqdsaHqeB0f8hcAN_hfvitNwn_LvuxeqeXsi11FgNhDUW_o1fT9z-nCTxNbKp3ha7mNhp43cBbuQIL2xq8XYdYDbcbWuJHFhm74n4qlRWL0xp4CjusSTmBCTsNXJNHPgatL2FxiU3sECUb56iRblocGL49EAhoEzVPTDKxvQnOqAtejtrzUN5yUDZOkQ6OFe7m00]--></g></svg>