<?xml version="1.0" encoding="us-ascii" standalone="no"?><svg xmlns="http://www.w3.org/2000/svg" xmlns:xlink="http://www.w3.org/1999/xlink" contentStyleType="text/css" height="1835px" preserveAspectRatio="none" style="width:862px;height:1835px;background:#FFFFFF;" version="1.1" viewBox="0 0 862 1835" width="862px" zoomAndPan="magnify"><defs/><g><text fill="#000000" font-family="sans-serif" font-size="14" font-weight="bold" lengthAdjust="spacing" textLength="444" x="202" y="24.5332">Diagrama Sistema de Gesti&#243;n de Pedidos del RCCCF (con Lista)</text><!--class Simulacion--><g id="elem_Simulacion"><rect codeLine="3" fill="#F1F1F1" height="65.6094" id="Simulacion" rx="2.5" ry="2.5" style="stroke:#181818;stroke-width:0.5;" width="189" x="381.5" y="45.6094"/><ellipse cx="437.75" cy="61.6094" fill="#ADD1B2" rx="11" ry="11" style="stroke:#181818;stroke-width:1.0;"/><path d="M440.5156,57.4844 Q440.6719,57.2656 440.8594,57.1563 Q441.0469,57.0469 441.2656,57.0469 Q441.6406,57.0469 441.875,57.3125 Q442.1094,57.5625 442.1094,58.1719 L442.1094,59.625 Q442.1094,60.2344 441.875,60.5 Q441.6406,60.7656 441.2656,60.7656 Q440.9219,60.7656 440.7188,60.5625 Q440.5156,60.375 440.4063,59.8594 Q440.3594,59.5 440.1719,59.3125 Q439.8438,58.9375 439.2344,58.7188 Q438.625,58.5 438,58.5 Q437.2344,58.5 436.5938,58.8281 Q435.9688,59.1563 435.4688,59.9063 Q434.9844,60.6563 434.9844,61.6875 L434.9844,62.7813 Q434.9844,64.0156 435.875,64.8438 Q436.7656,65.6563 438.3594,65.6563 Q439.2969,65.6563 439.9531,65.4063 Q440.3438,65.25 440.7656,64.8125 Q441.0313,64.5469 441.1719,64.4688 Q441.3281,64.3906 441.5313,64.3906 Q441.8594,64.3906 442.1094,64.6563 Q442.375,64.9063 442.375,65.25 Q442.375,65.5938 442.0313,66 Q441.5313,66.5781 440.7344,66.9063 Q439.6563,67.3594 438.3594,67.3594 Q436.8438,67.3594 435.6406,66.7344 Q434.6563,66.2344 433.9688,65.1719 Q433.2813,64.0938 433.2813,62.8125 L433.2813,61.6563 Q433.2813,60.3281 433.8906,59.1875 Q434.5156,58.0313 435.6094,57.4219 Q436.7031,56.7969 437.9375,56.7969 Q438.6719,56.7969 439.3125,56.9688 Q439.9688,57.125 440.5156,57.4844 Z " fill="#000000"/><text fill="#000000" font-family="sans-serif" font-size="14" lengthAdjust="spacing" textLength="68" x="458.25" y="67.3379">Simulacion</text><line style="stroke:#181818;stroke-width:0.5;" x1="382.5" x2="569.5" y1="77.6094" y2="77.6094"/><line style="stroke:#181818;stroke-width:0.5;" x1="382.5" x2="569.5" y1="85.6094" y2="85.6094"/><ellipse cx="392.5" cy="99.9141" fill="#84BE84" rx="3" ry="3" style="stroke:#038048;stroke-width:1.0;"/><text fill="#000000" font-family="sans-serif" font-size="14" lengthAdjust="spacing" textLength="163" x="401.5" y="104.1426">main(args : String[]) : void</text></g><!--class Restaurante--><g id="elem_Restaurante"><rect codeLine="7" fill="#F1F1F1" height="347.3594" id="Restaurante" rx="2.5" ry="2.5" style="stroke:#181818;stroke-width:0.5;" width="275" x="338.5" y="172.6094"/><ellipse cx="432.75" cy="188.6094" fill="#ADD1B2" rx="11" ry="11" style="stroke:#181818;stroke-width:1.0;"/><path d="M435.5156,184.4844 Q435.6719,184.2656 435.8594,184.1563 Q436.0469,184.0469 436.2656,184.0469 Q436.6406,184.0469 436.875,184.3125 Q437.1094,184.5625 437.1094,185.1719 L437.1094,186.625 Q437.1094,187.2344 436.875,187.5 Q436.6406,187.7656 436.2656,187.7656 Q435.9219,187.7656 435.7188,187.5625 Q435.5156,187.375 435.4063,186.8594 Q435.3594,186.5 435.1719,186.3125 Q434.8438,185.9375 434.2344,185.7188 Q433.625,185.5 433,185.5 Q432.2344,185.5 431.5938,185.8281 Q430.9688,186.1563 430.4688,186.9063 Q429.9844,187.6563 429.9844,188.6875 L429.9844,189.7813 Q429.9844,191.0156 430.875,191.8438 Q431.7656,192.6563 433.3594,192.6563 Q434.2969,192.6563 434.9531,192.4063 Q435.3438,192.25 435.7656,191.8125 Q436.0313,191.5469 436.1719,191.4688 Q436.3281,191.3906 436.5313,191.3906 Q436.8594,191.3906 437.1094,191.6563 Q437.375,191.9063 437.375,192.25 Q437.375,192.5938 437.0313,193 Q436.5313,193.5781 435.7344,193.9063 Q434.6563,194.3594 433.3594,194.3594 Q431.8438,194.3594 430.6406,193.7344 Q429.6563,193.2344 428.9688,192.1719 Q428.2813,191.0938 428.2813,189.8125 L428.2813,188.6563 Q428.2813,187.3281 428.8906,186.1875 Q429.5156,185.0313 430.6094,184.4219 Q431.7031,183.7969 432.9375,183.7969 Q433.6719,183.7969 434.3125,183.9688 Q434.9688,184.125 435.5156,184.4844 Z " fill="#000000"/><text fill="#000000" font-family="sans-serif" font-size="14" lengthAdjust="spacing" textLength="78" x="453.25" y="194.3379">Restaurante</text><line style="stroke:#181818;stroke-width:0.5;" x1="339.5" x2="612.5" y1="204.6094" y2="204.6094"/><rect fill="none" height="6" style="stroke:#C82930;stroke-width:1.0;" width="6" x="346.5" y="215.9141"/><text fill="#000000" font-family="sans-serif" font-size="14" lengthAdjust="spacing" textLength="176" x="358.5" y="223.1426">HORA_APERTURA : double</text><rect fill="none" height="6" style="stroke:#C82930;stroke-width:1.0;" width="6" x="346.5" y="233.5234"/><text fill="#000000" font-family="sans-serif" font-size="14" lengthAdjust="spacing" textLength="153" x="358.5" y="240.752">HORA_CIERRE : double</text><rect fill="none" height="6" style="stroke:#C82930;stroke-width:1.0;" width="6" x="346.5" y="251.1328"/><text fill="#000000" font-family="sans-serif" font-size="14" lengthAdjust="spacing" textLength="107" x="358.5" y="258.3613">MINUTO : double</text><rect fill="none" height="6" style="stroke:#C82930;stroke-width:1.0;" width="6" x="346.5" y="268.7422"/><text fill="#000000" font-family="sans-serif" font-size="14" lengthAdjust="spacing" textLength="227" x="358.5" y="275.9707">PROBABILIDAD_LLEGADA : double</text><rect fill="none" height="6" style="stroke:#C82930;stroke-width:1.0;" width="6" x="346.5" y="286.3516"/><text fill="#000000" font-family="sans-serif" font-size="14" lengthAdjust="spacing" textLength="123" x="358.5" y="293.5801">cocinero : Cocinero</text><rect fill="none" height="6" style="stroke:#C82930;stroke-width:1.0;" width="6" x="346.5" y="303.9609"/><text fill="#000000" font-family="sans-serif" font-size="14" lengthAdjust="spacing" textLength="249" x="358.5" y="311.1895">generadorPedidos : GeneradorPedidos</text><rect fill="none" height="6" style="stroke:#C82930;stroke-width:1.0;" width="6" x="346.5" y="321.5703"/><text fill="#000000" font-family="sans-serif" font-size="14" lengthAdjust="spacing" textLength="169" x="358.5" y="328.7988">listaPedidos : ListaPedidos</text><rect fill="none" height="6" style="stroke:#C82930;stroke-width:1.0;" width="6" x="346.5" y="339.1797"/><text fill="#000000" font-family="sans-serif" font-size="14" lengthAdjust="spacing" textLength="108" x="358.5" y="346.4082">minutoActual : int</text><rect fill="none" height="6" style="stroke:#C82930;stroke-width:1.0;" width="6" x="346.5" y="356.7891"/><text fill="#000000" font-family="sans-serif" font-size="14" lengthAdjust="spacing" textLength="140" x="358.5" y="364.0176">pedidosAtendidos : int</text><rect fill="none" height="6" style="stroke:#C82930;stroke-width:1.0;" width="6" x="346.5" y="374.3984"/><text fill="#000000" font-family="sans-serif" font-size="14" lengthAdjust="spacing" textLength="158" x="358.5" y="381.627">tiempoEsperaTotal : long</text><line style="stroke:#181818;stroke-width:0.5;" x1="339.5" x2="612.5" y1="388.7031" y2="388.7031"/><ellipse cx="349.5" cy="403.0078" fill="#84BE84" rx="3" ry="3" style="stroke:#038048;stroke-width:1.0;"/><text fill="#000000" font-family="sans-serif" font-size="14" lengthAdjust="spacing" textLength="88" x="358.5" y="407.2363">Restaurante()</text><ellipse cx="349.5" cy="420.6172" fill="#84BE84" rx="3" ry="3" style="stroke:#038048;stroke-width:1.0;"/><text fill="#000000" font-family="sans-serif" font-size="14" lengthAdjust="spacing" textLength="99" x="358.5" y="424.8457">ejecutar() : void</text><rect fill="#F24D5C" height="6" style="stroke:#C82930;stroke-width:1.0;" width="6" x="346.5" y="435.2266"/><text fill="#000000" font-family="sans-serif" font-size="14" lengthAdjust="spacing" textLength="141" x="358.5" y="442.4551">validarLlegada() : void</text><rect fill="#F24D5C" height="6" style="stroke:#C82930;stroke-width:1.0;" width="6" x="346.5" y="452.8359"/><text fill="#000000" font-family="sans-serif" font-size="14" lengthAdjust="spacing" textLength="230" x="358.5" y="460.0645">recibirPedido(pedido : Pedido) : void</text><rect fill="#F24D5C" height="6" style="stroke:#C82930;stroke-width:1.0;" width="6" x="346.5" y="470.4453"/><text fill="#000000" font-family="sans-serif" font-size="14" lengthAdjust="spacing" textLength="182" x="358.5" y="477.6738">seleccionarPedido() : Pedido</text><rect fill="#F24D5C" height="6" style="stroke:#C82930;stroke-width:1.0;" width="6" x="346.5" y="488.0547"/><text fill="#000000" font-family="sans-serif" font-size="14" lengthAdjust="spacing" textLength="166" x="358.5" y="495.2832">procesarCocina() : Pedido</text><rect fill="#F24D5C" height="6" style="stroke:#C82930;stroke-width:1.0;" width="6" x="346.5" y="505.6641"/><text fill="#000000" font-family="sans-serif" font-size="14" lengthAdjust="spacing" textLength="156" x="358.5" y="512.8926">mostrarResumen() : void</text></g><!--class Cocinero--><g id="elem_Cocinero"><rect codeLine="27" fill="#F1F1F1" height="136.0469" id="Cocinero" rx="2.5" ry="2.5" style="stroke:#181818;stroke-width:0.5;" width="380" x="286" y="798.6094"/><ellipse cx="443.25" cy="814.6094" fill="#ADD1B2" rx="11" ry="11" style="stroke:#181818;stroke-width:1.0;"/><path d="M446.0156,810.4844 Q446.1719,810.2656 446.3594,810.1563 Q446.5469,810.0469 446.7656,810.0469 Q447.1406,810.0469 447.375,810.3125 Q447.6094,810.5625 447.6094,811.1719 L447.6094,812.625 Q447.6094,813.2344 447.375,813.5 Q447.1406,813.7656 446.7656,813.7656 Q446.4219,813.7656 446.2188,813.5625 Q446.0156,813.375 445.9063,812.8594 Q445.8594,812.5 445.6719,812.3125 Q445.3438,811.9375 444.7344,811.7188 Q444.125,811.5 443.5,811.5 Q442.7344,811.5 442.0938,811.8281 Q441.4688,812.1563 440.9688,812.9063 Q440.4844,813.6563 440.4844,814.6875 L440.4844,815.7813 Q440.4844,817.0156 441.375,817.8438 Q442.2656,818.6563 443.8594,818.6563 Q444.7969,818.6563 445.4531,818.4063 Q445.8438,818.25 446.2656,817.8125 Q446.5313,817.5469 446.6719,817.4688 Q446.8281,817.3906 447.0313,817.3906 Q447.3594,817.3906 447.6094,817.6563 Q447.875,817.9063 447.875,818.25 Q447.875,818.5938 447.5313,819 Q447.0313,819.5781 446.2344,819.9063 Q445.1563,820.3594 443.8594,820.3594 Q442.3438,820.3594 441.1406,819.7344 Q440.1563,819.2344 439.4688,818.1719 Q438.7813,817.0938 438.7813,815.8125 L438.7813,814.6563 Q438.7813,813.3281 439.3906,812.1875 Q440.0156,811.0313 441.1094,810.4219 Q442.2031,809.7969 443.4375,809.7969 Q444.1719,809.7969 444.8125,809.9688 Q445.4688,810.125 446.0156,810.4844 Z " fill="#000000"/><text fill="#000000" font-family="sans-serif" font-size="14" lengthAdjust="spacing" textLength="57" x="463.75" y="820.3379">Cocinero</text><line style="stroke:#181818;stroke-width:0.5;" x1="287" x2="665" y1="830.6094" y2="830.6094"/><rect fill="none" height="6" style="stroke:#C82930;stroke-width:1.0;" width="6" x="294" y="841.9141"/><text fill="#000000" font-family="sans-serif" font-size="14" lengthAdjust="spacing" textLength="138" x="306" y="849.1426">pedidoActual : Pedido</text><line style="stroke:#181818;stroke-width:0.5;" x1="287" x2="665" y1="856.2188" y2="856.2188"/><ellipse cx="297" cy="870.5234" fill="#84BE84" rx="3" ry="3" style="stroke:#038048;stroke-width:1.0;"/><text fill="#000000" font-family="sans-serif" font-size="14" lengthAdjust="spacing" textLength="354" x="306" y="874.752">asignarPedido(pedido : Pedido, minutoActual : int) : void</text><ellipse cx="297" cy="888.1328" fill="#84BE84" rx="3" ry="3" style="stroke:#038048;stroke-width:1.0;"/><text fill="#000000" font-family="sans-serif" font-size="14" lengthAdjust="spacing" textLength="132" x="306" y="892.3613">estaLibre() : boolean</text><ellipse cx="297" cy="905.7422" fill="#84BE84" rx="3" ry="3" style="stroke:#038048;stroke-width:1.0;"/><text fill="#000000" font-family="sans-serif" font-size="14" lengthAdjust="spacing" textLength="222" x="306" y="909.9707">cocinarDuranteUnMinuto() : Pedido</text><ellipse cx="297" cy="923.3516" fill="#84BE84" rx="3" ry="3" style="stroke:#038048;stroke-width:1.0;"/><text fill="#000000" font-family="sans-serif" font-size="14" lengthAdjust="spacing" textLength="169" x="306" y="927.5801">getPedidoActual() : Pedido</text></g><!--class GeneradorPedidos--><g id="elem_GeneradorPedidos"><rect codeLine="35" fill="#F1F1F1" height="118.4375" id="GeneradorPedidos" rx="2.5" ry="2.5" style="stroke:#181818;stroke-width:0.5;" width="340" x="72" y="982.6094"/><ellipse cx="177.75" cy="998.6094" fill="#ADD1B2" rx="11" ry="11" style="stroke:#181818;stroke-width:1.0;"/><path d="M180.5156,994.4844 Q180.6719,994.2656 180.8594,994.1563 Q181.0469,994.0469 181.2656,994.0469 Q181.6406,994.0469 181.875,994.3125 Q182.1094,994.5625 182.1094,995.1719 L182.1094,996.625 Q182.1094,997.2344 181.875,997.5 Q181.6406,997.7656 181.2656,997.7656 Q180.9219,997.7656 180.7188,997.5625 Q180.5156,997.375 180.4063,996.8594 Q180.3594,996.5 180.1719,996.3125 Q179.8438,995.9375 179.2344,995.7188 Q178.625,995.5 178,995.5 Q177.2344,995.5 176.5938,995.8281 Q175.9688,996.1563 175.4688,996.9063 Q174.9844,997.6563 174.9844,998.6875 L174.9844,999.7813 Q174.9844,1001.0156 175.875,1001.8438 Q176.7656,1002.6563 178.3594,1002.6563 Q179.2969,1002.6563 179.9531,1002.4063 Q180.3438,1002.25 180.7656,1001.8125 Q181.0313,1001.5469 181.1719,1001.4688 Q181.3281,1001.3906 181.5313,1001.3906 Q181.8594,1001.3906 182.1094,1001.6563 Q182.375,1001.9063 182.375,1002.25 Q182.375,1002.5938 182.0313,1003 Q181.5313,1003.5781 180.7344,1003.9063 Q179.6563,1004.3594 178.3594,1004.3594 Q176.8438,1004.3594 175.6406,1003.7344 Q174.6563,1003.2344 173.9688,1002.1719 Q173.2813,1001.0938 173.2813,999.8125 L173.2813,998.6563 Q173.2813,997.3281 173.8906,996.1875 Q174.5156,995.0313 175.6094,994.4219 Q176.7031,993.7969 177.9375,993.7969 Q178.6719,993.7969 179.3125,993.9688 Q179.9688,994.125 180.5156,994.4844 Z " fill="#000000"/><text fill="#000000" font-family="sans-serif" font-size="14" lengthAdjust="spacing" textLength="120" x="198.25" y="1004.3379">GeneradorPedidos</text><line style="stroke:#181818;stroke-width:0.5;" x1="73" x2="411" y1="1014.6094" y2="1014.6094"/><rect fill="none" height="6" style="stroke:#C82930;stroke-width:1.0;" width="6" x="80" y="1025.9141"/><text fill="#000000" font-family="sans-serif" font-size="14" lengthAdjust="spacing" textLength="184" x="92" y="1033.1426">probabilidadLlegada : double</text><rect fill="none" height="6" style="stroke:#C82930;stroke-width:1.0;" width="6" x="80" y="1043.5234"/><text fill="#000000" font-family="sans-serif" font-size="14" lengthAdjust="spacing" textLength="187" x="92" y="1050.752">generadorAleatorio : Random</text><line style="stroke:#181818;stroke-width:0.5;" x1="73" x2="411" y1="1057.8281" y2="1057.8281"/><ellipse cx="83" cy="1072.1328" fill="#84BE84" rx="3" ry="3" style="stroke:#038048;stroke-width:1.0;"/><text fill="#000000" font-family="sans-serif" font-size="14" lengthAdjust="spacing" textLength="314" x="92" y="1076.3613">GeneradorPedidos(probabilidadLlegada : double)</text><ellipse cx="83" cy="1089.7422" fill="#84BE84" rx="3" ry="3" style="stroke:#038048;stroke-width:1.0;"/><text fill="#000000" font-family="sans-serif" font-size="14" lengthAdjust="spacing" textLength="268" x="92" y="1093.9707">generarPedido(minutoActual : int) : Pedido</text></g><!--class ListaPedidos--><g id="elem_ListaPedidos"><rect codeLine="42" fill="#F1F1F1" height="171.2656" id="ListaPedidos" rx="2.5" ry="2.5" style="stroke:#181818;stroke-width:0.5;" width="285" x="546.5" y="597.6094"/><ellipse cx="644.25" cy="613.6094" fill="#ADD1B2" rx="11" ry="11" style="stroke:#181818;stroke-width:1.0;"/><path d="M647.0156,609.4844 Q647.1719,609.2656 647.3594,609.1563 Q647.5469,609.0469 647.7656,609.0469 Q648.1406,609.0469 648.375,609.3125 Q648.6094,609.5625 648.6094,610.1719 L648.6094,611.625 Q648.6094,612.2344 648.375,612.5 Q648.1406,612.7656 647.7656,612.7656 Q647.4219,612.7656 647.2188,612.5625 Q647.0156,612.375 646.9063,611.8594 Q646.8594,611.5 646.6719,611.3125 Q646.3438,610.9375 645.7344,610.7188 Q645.125,610.5 644.5,610.5 Q643.7344,610.5 643.0938,610.8281 Q642.4688,611.1563 641.9688,611.9063 Q641.4844,612.6563 641.4844,613.6875 L641.4844,614.7813 Q641.4844,616.0156 642.375,616.8438 Q643.2656,617.6563 644.8594,617.6563 Q645.7969,617.6563 646.4531,617.4063 Q646.8438,617.25 647.2656,616.8125 Q647.5313,616.5469 647.6719,616.4688 Q647.8281,616.3906 648.0313,616.3906 Q648.3594,616.3906 648.6094,616.6563 Q648.875,616.9063 648.875,617.25 Q648.875,617.5938 648.5313,618 Q648.0313,618.5781 647.2344,618.9063 Q646.1563,619.3594 644.8594,619.3594 Q643.3438,619.3594 642.1406,618.7344 Q641.1563,618.2344 640.4688,617.1719 Q639.7813,616.0938 639.7813,614.8125 L639.7813,613.6563 Q639.7813,612.3281 640.3906,611.1875 Q641.0156,610.0313 642.1094,609.4219 Q643.2031,608.7969 644.4375,608.7969 Q645.1719,608.7969 645.8125,608.9688 Q646.4688,609.125 647.0156,609.4844 Z " fill="#000000"/><text fill="#000000" font-family="sans-serif" font-size="14" lengthAdjust="spacing" textLength="81" x="664.75" y="619.3379">ListaPedidos</text><line style="stroke:#181818;stroke-width:0.5;" x1="547.5" x2="830.5" y1="629.6094" y2="629.6094"/><rect fill="none" height="6" style="stroke:#C82930;stroke-width:1.0;" width="6" x="554.5" y="640.9141"/><text fill="#000000" font-family="sans-serif" font-size="14" lengthAdjust="spacing" textLength="134" x="566.5" y="648.1426">cabeza : NodoPedido</text><rect fill="none" height="6" style="stroke:#C82930;stroke-width:1.0;" width="6" x="554.5" y="658.5234"/><text fill="#000000" font-family="sans-serif" font-size="14" lengthAdjust="spacing" textLength="74" x="566.5" y="665.752">tama&#241;o : int</text><line style="stroke:#181818;stroke-width:0.5;" x1="547.5" x2="830.5" y1="672.8281" y2="672.8281"/><ellipse cx="557.5" cy="687.1328" fill="#84BE84" rx="3" ry="3" style="stroke:#038048;stroke-width:1.0;"/><text fill="#000000" font-family="sans-serif" font-size="14" lengthAdjust="spacing" textLength="91" x="566.5" y="691.3613">ListaPedidos()</text><ellipse cx="557.5" cy="704.7422" fill="#84BE84" rx="3" ry="3" style="stroke:#038048;stroke-width:1.0;"/><text fill="#000000" font-family="sans-serif" font-size="14" lengthAdjust="spacing" textLength="259" x="566.5" y="708.9707">insertarOrdenado(pedido : Pedido) : void</text><ellipse cx="557.5" cy="722.3516" fill="#84BE84" rx="3" ry="3" style="stroke:#038048;stroke-width:1.0;"/><text fill="#000000" font-family="sans-serif" font-size="14" lengthAdjust="spacing" textLength="159" x="566.5" y="726.5801">extraerPrimero() : Pedido</text><ellipse cx="557.5" cy="739.9609" fill="#84BE84" rx="3" ry="3" style="stroke:#038048;stroke-width:1.0;"/><text fill="#000000" font-family="sans-serif" font-size="14" lengthAdjust="spacing" textLength="135" x="566.5" y="744.1895">estaVacia() : boolean</text><ellipse cx="557.5" cy="757.5703" fill="#84BE84" rx="3" ry="3" style="stroke:#038048;stroke-width:1.0;"/><text fill="#000000" font-family="sans-serif" font-size="14" lengthAdjust="spacing" textLength="84" x="566.5" y="761.7988">tama&#241;o() : int</text></g><!--class NodoPedido--><g id="elem_NodoPedido"><rect codeLine="52" fill="#F1F1F1" height="153.6563" id="NodoPedido" rx="2.5" ry="2.5" style="stroke:#181818;stroke-width:0.5;" width="298" x="557" y="964.6094"/><ellipse cx="663.25" cy="980.6094" fill="#ADD1B2" rx="11" ry="11" style="stroke:#181818;stroke-width:1.0;"/><path d="M666.0156,976.4844 Q666.1719,976.2656 666.3594,976.1563 Q666.5469,976.0469 666.7656,976.0469 Q667.1406,976.0469 667.375,976.3125 Q667.6094,976.5625 667.6094,977.1719 L667.6094,978.625 Q667.6094,979.2344 667.375,979.5 Q667.1406,979.7656 666.7656,979.7656 Q666.4219,979.7656 666.2188,979.5625 Q666.0156,979.375 665.9063,978.8594 Q665.8594,978.5 665.6719,978.3125 Q665.3438,977.9375 664.7344,977.7188 Q664.125,977.5 663.5,977.5 Q662.7344,977.5 662.0938,977.8281 Q661.4688,978.1563 660.9688,978.9063 Q660.4844,979.6563 660.4844,980.6875 L660.4844,981.7813 Q660.4844,983.0156 661.375,983.8438 Q662.2656,984.6563 663.8594,984.6563 Q664.7969,984.6563 665.4531,984.4063 Q665.8438,984.25 666.2656,983.8125 Q666.5313,983.5469 666.6719,983.4688 Q666.8281,983.3906 667.0313,983.3906 Q667.3594,983.3906 667.6094,983.6563 Q667.875,983.9063 667.875,984.25 Q667.875,984.5938 667.5313,985 Q667.0313,985.5781 666.2344,985.9063 Q665.1563,986.3594 663.8594,986.3594 Q662.3438,986.3594 661.1406,985.7344 Q660.1563,985.2344 659.4688,984.1719 Q658.7813,983.0938 658.7813,981.8125 L658.7813,980.6563 Q658.7813,979.3281 659.3906,978.1875 Q660.0156,977.0313 661.1094,976.4219 Q662.2031,975.7969 663.4375,975.7969 Q664.1719,975.7969 664.8125,975.9688 Q665.4688,976.125 666.0156,976.4844 Z " fill="#000000"/><text fill="#000000" font-family="sans-serif" font-size="14" lengthAdjust="spacing" textLength="77" x="683.75" y="986.3379">NodoPedido</text><line style="stroke:#181818;stroke-width:0.5;" x1="558" x2="854" y1="996.6094" y2="996.6094"/><rect fill="none" height="6" style="stroke:#C82930;stroke-width:1.0;" width="6" x="565" y="1007.9141"/><text fill="#000000" font-family="sans-serif" font-size="14" lengthAdjust="spacing" textLength="84" x="577" y="1015.1426">dato : Pedido</text><rect fill="none" height="6" style="stroke:#C82930;stroke-width:1.0;" width="6" x="565" y="1025.5234"/><text fill="#000000" font-family="sans-serif" font-size="14" lengthAdjust="spacing" textLength="146" x="577" y="1032.752">siguiente : NodoPedido</text><line style="stroke:#181818;stroke-width:0.5;" x1="558" x2="854" y1="1039.8281" y2="1039.8281"/><ellipse cx="568" cy="1054.1328" fill="#84BE84" rx="3" ry="3" style="stroke:#038048;stroke-width:1.0;"/><text fill="#000000" font-family="sans-serif" font-size="14" lengthAdjust="spacing" textLength="171" x="577" y="1058.3613">NodoPedido(dato : Pedido)</text><ellipse cx="568" cy="1071.7422" fill="#84BE84" rx="3" ry="3" style="stroke:#038048;stroke-width:1.0;"/><text fill="#000000" font-family="sans-serif" font-size="14" lengthAdjust="spacing" textLength="116" x="577" y="1075.9707">getDato() : Pedido</text><ellipse cx="568" cy="1089.3516" fill="#84BE84" rx="3" ry="3" style="stroke:#038048;stroke-width:1.0;"/><text fill="#000000" font-family="sans-serif" font-size="14" lengthAdjust="spacing" textLength="178" x="577" y="1093.5801">getSiguiente() : NodoPedido</text><ellipse cx="568" cy="1106.9609" fill="#84BE84" rx="3" ry="3" style="stroke:#038048;stroke-width:1.0;"/><text fill="#000000" font-family="sans-serif" font-size="14" lengthAdjust="spacing" textLength="272" x="577" y="1111.1895">setSiguiente(siguiente : NodoPedido) : void</text></g><!--class Pedido--><g id="elem_Pedido"><rect codeLine="61" fill="#F1F1F1" height="364.9688" id="Pedido" rx="2.5" ry="2.5" style="stroke:#181818;stroke-width:0.5;" width="521" x="255.5" y="1196.6094"/><ellipse cx="489.75" cy="1212.6094" fill="#ADD1B2" rx="11" ry="11" style="stroke:#181818;stroke-width:1.0;"/><path d="M492.5156,1208.4844 Q492.6719,1208.2656 492.8594,1208.1563 Q493.0469,1208.0469 493.2656,1208.0469 Q493.6406,1208.0469 493.875,1208.3125 Q494.1094,1208.5625 494.1094,1209.1719 L494.1094,1210.625 Q494.1094,1211.2344 493.875,1211.5 Q493.6406,1211.7656 493.2656,1211.7656 Q492.9219,1211.7656 492.7188,1211.5625 Q492.5156,1211.375 492.4063,1210.8594 Q492.3594,1210.5 492.1719,1210.3125 Q491.8438,1209.9375 491.2344,1209.7188 Q490.625,1209.5 490,1209.5 Q489.2344,1209.5 488.5938,1209.8281 Q487.9688,1210.1563 487.4688,1210.9063 Q486.9844,1211.6563 486.9844,1212.6875 L486.9844,1213.7813 Q486.9844,1215.0156 487.875,1215.8438 Q488.7656,1216.6563 490.3594,1216.6563 Q491.2969,1216.6563 491.9531,1216.4063 Q492.3438,1216.25 492.7656,1215.8125 Q493.0313,1215.5469 493.1719,1215.4688 Q493.3281,1215.3906 493.5313,1215.3906 Q493.8594,1215.3906 494.1094,1215.6563 Q494.375,1215.9063 494.375,1216.25 Q494.375,1216.5938 494.0313,1217 Q493.5313,1217.5781 492.7344,1217.9063 Q491.6563,1218.3594 490.3594,1218.3594 Q488.8438,1218.3594 487.6406,1217.7344 Q486.6563,1217.2344 485.9688,1216.1719 Q485.2813,1215.0938 485.2813,1213.8125 L485.2813,1212.6563 Q485.2813,1211.3281 485.8906,1210.1875 Q486.5156,1209.0313 487.6094,1208.4219 Q488.7031,1207.7969 489.9375,1207.7969 Q490.6719,1207.7969 491.3125,1207.9688 Q491.9688,1208.125 492.5156,1208.4844 Z " fill="#000000"/><text fill="#000000" font-family="sans-serif" font-size="14" lengthAdjust="spacing" textLength="44" x="510.25" y="1218.3379">Pedido</text><line style="stroke:#181818;stroke-width:0.5;" x1="256.5" x2="775.5" y1="1228.6094" y2="1228.6094"/><rect fill="none" height="6" style="stroke:#C82930;stroke-width:1.0;" width="6" x="263.5" y="1239.9141"/><text fill="#000000" font-family="sans-serif" font-size="14" lengthAdjust="spacing" textLength="148" x="275.5" y="1247.1426">siguienteId : int &#171;static&#187;</text><rect fill="none" height="6" style="stroke:#C82930;stroke-width:1.0;" width="6" x="263.5" y="1257.5234"/><text fill="#000000" font-family="sans-serif" font-size="14" lengthAdjust="spacing" textLength="188" x="275.5" y="1264.752">comparaciones : long &#171;static&#187;</text><rect fill="none" height="6" style="stroke:#C82930;stroke-width:1.0;" width="6" x="263.5" y="1275.1328"/><text fill="#000000" font-family="sans-serif" font-size="14" lengthAdjust="spacing" textLength="104" x="275.5" y="1282.3613">identificador : int</text><rect fill="none" height="6" style="stroke:#C82930;stroke-width:1.0;" width="6" x="263.5" y="1292.7422"/><text fill="#000000" font-family="sans-serif" font-size="14" lengthAdjust="spacing" textLength="127" x="275.5" y="1299.9707">tipoPlato : TipoPlato</text><rect fill="none" height="6" style="stroke:#C82930;stroke-width:1.0;" width="6" x="263.5" y="1310.3516"/><text fill="#000000" font-family="sans-serif" font-size="14" lengthAdjust="spacing" textLength="178" x="275.5" y="1317.5801">tiempoTotalPreparacion : int</text><rect fill="none" height="6" style="stroke:#C82930;stroke-width:1.0;" width="6" x="263.5" y="1327.9609"/><text fill="#000000" font-family="sans-serif" font-size="14" lengthAdjust="spacing" textLength="203" x="275.5" y="1335.1895">tiempoRestantePreparacion : int</text><rect fill="none" height="6" style="stroke:#C82930;stroke-width:1.0;" width="6" x="263.5" y="1345.5703"/><text fill="#000000" font-family="sans-serif" font-size="14" lengthAdjust="spacing" textLength="120" x="275.5" y="1352.7988">minutoLlegada : int</text><rect fill="none" height="6" style="stroke:#C82930;stroke-width:1.0;" width="6" x="263.5" y="1363.1797"/><text fill="#000000" font-family="sans-serif" font-size="14" lengthAdjust="spacing" textLength="207" x="275.5" y="1370.4082">minutoInicioPreparacion : Integer</text><line style="stroke:#181818;stroke-width:0.5;" x1="256.5" x2="775.5" y1="1377.4844" y2="1377.4844"/><ellipse cx="266.5" cy="1391.7891" fill="#84BE84" rx="3" ry="3" style="stroke:#038048;stroke-width:1.0;"/><text fill="#000000" font-family="sans-serif" font-size="14" lengthAdjust="spacing" textLength="495" x="275.5" y="1396.0176">Pedido(tipoPlato : TipoPlato, tiempoTotalPreparacion : int, minutoLlegada : int)</text><ellipse cx="266.5" cy="1409.3984" fill="#84BE84" rx="3" ry="3" style="stroke:#038048;stroke-width:1.0;"/><text fill="#000000" font-family="sans-serif" font-size="14" lengthAdjust="spacing" textLength="162" x="275.5" y="1413.627">getTipoPlato() : TipoPlato</text><ellipse cx="266.5" cy="1427.0078" fill="#84BE84" rx="3" ry="3" style="stroke:#038048;stroke-width:1.0;"/><text fill="#000000" font-family="sans-serif" font-size="14" lengthAdjust="spacing" textLength="213" x="275.5" y="1431.2363">getTiempoTotalPreparacion() : int</text><ellipse cx="266.5" cy="1444.6172" fill="#84BE84" rx="3" ry="3" style="stroke:#038048;stroke-width:1.0;"/><text fill="#000000" font-family="sans-serif" font-size="14" lengthAdjust="spacing" textLength="238" x="275.5" y="1448.8457">getTiempoRestantePreparacion() : int</text><ellipse cx="266.5" cy="1462.2266" fill="#84BE84" rx="3" ry="3" style="stroke:#038048;stroke-width:1.0;"/><text fill="#000000" font-family="sans-serif" font-size="14" lengthAdjust="spacing" textLength="196" x="275.5" y="1466.4551">reducirTiempoRestante() : void</text><ellipse cx="266.5" cy="1479.8359" fill="#84BE84" rx="3" ry="3" style="stroke:#038048;stroke-width:1.0;"/><text fill="#000000" font-family="sans-serif" font-size="14" lengthAdjust="spacing" textLength="178" x="275.5" y="1484.0645">calcularTiempoEspera() : int</text><ellipse cx="266.5" cy="1497.4453" fill="#84BE84" rx="3" ry="3" style="stroke:#038048;stroke-width:1.0;"/><text fill="#000000" font-family="sans-serif" font-size="14" lengthAdjust="spacing" textLength="287" x="275.5" y="1501.6738">setMinutoInicioPreparacion(minuto : int) : void</text><ellipse cx="266.5" cy="1515.0547" fill="#84BE84" rx="3" ry="3" style="stroke:#038048;stroke-width:1.0;"/><text fill="#000000" font-family="sans-serif" font-size="14" lengthAdjust="spacing" textLength="221" x="275.5" y="1519.2832">getComparaciones() : long &#171;static&#187;</text><ellipse cx="266.5" cy="1532.6641" fill="#84BE84" rx="3" ry="3" style="stroke:#038048;stroke-width:1.0;"/><text fill="#000000" font-family="sans-serif" font-size="14" lengthAdjust="spacing" textLength="190" x="275.5" y="1536.8926">compareTo(otro : Pedido) : int</text><ellipse cx="266.5" cy="1550.2734" fill="#84BE84" rx="3" ry="3" style="stroke:#038048;stroke-width:1.0;"/><text fill="#000000" font-family="sans-serif" font-size="14" lengthAdjust="spacing" textLength="108" x="275.5" y="1554.502">toString() : String</text></g><!--class TipoPlato--><g id="elem_TipoPlato"><rect codeLine="82" fill="#F1F1F1" height="188.875" id="TipoPlato" rx="2.5" ry="2.5" style="stroke:#181818;stroke-width:0.5;" width="438" x="7" y="1639.6094"/><ellipse cx="191.75" cy="1655.6094" fill="#ADD1B2" rx="11" ry="11" style="stroke:#181818;stroke-width:1.0;"/><path d="M194.5156,1651.4844 Q194.6719,1651.2656 194.8594,1651.1563 Q195.0469,1651.0469 195.2656,1651.0469 Q195.6406,1651.0469 195.875,1651.3125 Q196.1094,1651.5625 196.1094,1652.1719 L196.1094,1653.625 Q196.1094,1654.2344 195.875,1654.5 Q195.6406,1654.7656 195.2656,1654.7656 Q194.9219,1654.7656 194.7188,1654.5625 Q194.5156,1654.375 194.4063,1653.8594 Q194.3594,1653.5 194.1719,1653.3125 Q193.8438,1652.9375 193.2344,1652.7188 Q192.625,1652.5 192,1652.5 Q191.2344,1652.5 190.5938,1652.8281 Q189.9688,1653.1563 189.4688,1653.9063 Q188.9844,1654.6563 188.9844,1655.6875 L188.9844,1656.7813 Q188.9844,1658.0156 189.875,1658.8438 Q190.7656,1659.6563 192.3594,1659.6563 Q193.2969,1659.6563 193.9531,1659.4063 Q194.3438,1659.25 194.7656,1658.8125 Q195.0313,1658.5469 195.1719,1658.4688 Q195.3281,1658.3906 195.5313,1658.3906 Q195.8594,1658.3906 196.1094,1658.6563 Q196.375,1658.9063 196.375,1659.25 Q196.375,1659.5938 196.0313,1660 Q195.5313,1660.5781 194.7344,1660.9063 Q193.6563,1661.3594 192.3594,1661.3594 Q190.8438,1661.3594 189.6406,1660.7344 Q188.6563,1660.2344 187.9688,1659.1719 Q187.2813,1658.0938 187.2813,1656.8125 L187.2813,1655.6563 Q187.2813,1654.3281 187.8906,1653.1875 Q188.5156,1652.0313 189.6094,1651.4219 Q190.7031,1650.7969 191.9375,1650.7969 Q192.6719,1650.7969 193.3125,1650.9688 Q193.9688,1651.125 194.5156,1651.4844 Z " fill="#000000"/><text fill="#000000" font-family="sans-serif" font-size="14" lengthAdjust="spacing" textLength="60" x="212.25" y="1661.3379">TipoPlato</text><line style="stroke:#181818;stroke-width:0.5;" x1="8" x2="444" y1="1671.6094" y2="1671.6094"/><rect fill="none" height="6" style="stroke:#C82930;stroke-width:1.0;" width="6" x="15" y="1682.9141"/><text fill="#000000" font-family="sans-serif" font-size="14" lengthAdjust="spacing" textLength="97" x="27" y="1690.1426">nombre : String</text><rect fill="none" height="6" style="stroke:#C82930;stroke-width:1.0;" width="6" x="15" y="1700.5234"/><text fill="#000000" font-family="sans-serif" font-size="14" lengthAdjust="spacing" textLength="113" x="27" y="1707.752">tiempoMinimo : int</text><rect fill="none" height="6" style="stroke:#C82930;stroke-width:1.0;" width="6" x="15" y="1718.1328"/><text fill="#000000" font-family="sans-serif" font-size="14" lengthAdjust="spacing" textLength="116" x="27" y="1725.3613">tiempoMaximo : int</text><text fill="#000000" font-family="sans-serif" font-size="14" lengthAdjust="spacing" text-decoration="underline" textLength="121" x="27" y="1742.9707">TIPOS : TipoPlato[]</text><line style="stroke:#181818;stroke-width:0.5;" x1="8" x2="444" y1="1750.0469" y2="1750.0469"/><ellipse cx="18" cy="1764.3516" fill="#84BE84" rx="3" ry="3" style="stroke:#038048;stroke-width:1.0;"/><text fill="#000000" font-family="sans-serif" font-size="14" lengthAdjust="spacing" textLength="412" x="27" y="1768.5801">TipoPlato(nombre : String, tiempoMinimo : int, tiempoMaximo : int)</text><ellipse cx="18" cy="1781.9609" fill="#84BE84" rx="3" ry="3" style="stroke:#038048;stroke-width:1.0;"/><text fill="#000000" font-family="sans-serif" font-size="14" lengthAdjust="spacing" textLength="128" x="27" y="1786.1895">getNombre() : String</text><ellipse cx="18" cy="1799.5703" fill="#84BE84" rx="3" ry="3" style="stroke:#038048;stroke-width:1.0;"/><text fill="#000000" font-family="sans-serif" font-size="14" lengthAdjust="spacing" textLength="259" x="27" y="1803.7988">obtenerTiempoAleatorio(r : Random) : int</text><ellipse cx="18" cy="1817.1797" fill="#84BE84" rx="3" ry="3" style="stroke:#038048;stroke-width:1.0;"/><text fill="#000000" font-family="sans-serif" font-size="14" lengthAdjust="spacing" textLength="310" x="27" y="1821.4082">obtenerAleatorio(r : Random) : TipoPlato &#171;static&#187;</text></g><!--link Simulacion to Restaurante--><g id="link_Simulacion_Restaurante"><path codeLine="93" d="M476,111.6394 C476,127.9794 476,143.2594 476,166.3294 " fill="none" id="Simulacion-to-Restaurante" style="stroke:#181818;stroke-width:1.0;"/><polygon fill="#181818" points="476,172.3294,480,163.3294,476,167.3294,472,163.3294,476,172.3294" style="stroke:#181818;stroke-width:1.0;"/></g><!--link Restaurante to Cocinero--><g id="link_Restaurante_Cocinero"><path codeLine="94" d="M476,519.7594 C476,615.2094 476,722.3494 476,792.5694 " fill="none" id="Restaurante-to-Cocinero" style="stroke:#181818;stroke-width:1.0;"/><polygon fill="#181818" points="476,798.5694,480,789.5694,476,793.5694,472,789.5694,476,798.5694" style="stroke:#181818;stroke-width:1.0;"/><text fill="#000000" font-family="sans-serif" font-size="13" lengthAdjust="spacing" textLength="28" x="477" y="564.1045">tiene</text></g><!--link Restaurante to GeneradorPedidos--><g id="link_Restaurante_GeneradorPedidos"><path codeLine="95" d="M385.33,519.6894 C345.68,602.0794 302.12,703.2894 275,798.6094 C257.54,859.9894 249.6701,926.8578 245.7701,976.4778 " fill="none" id="Restaurante-to-GeneradorPedidos" style="stroke:#181818;stroke-width:1.0;"/><polygon fill="#181818" points="245.3,982.4594,249.9929,973.8005,245.6918,977.4747,242.0175,973.1736,245.3,982.4594" style="stroke:#181818;stroke-width:1.0;"/><text fill="#000000" font-family="sans-serif" font-size="13" lengthAdjust="spacing" textLength="21" x="349" y="688.6045">usa</text></g><!--link Restaurante to ListaPedidos--><g id="link_Restaurante_ListaPedidos"><path codeLine="96" d="M585.93,520.0094 C603.02,546.8794 616.7704,568.5164 631.8604,592.2464 " fill="none" id="Restaurante-to-ListaPedidos" style="stroke:#181818;stroke-width:1.0;"/><polygon fill="#181818" points="635.08,597.3094,633.626,587.5684,632.397,593.0902,626.8753,591.8612,635.08,597.3094" style="stroke:#181818;stroke-width:1.0;"/><text fill="#000000" font-family="sans-serif" font-size="13" lengthAdjust="spacing" textLength="49" x="616" y="564.1045">gestiona</text></g><!--link GeneradorPedidos to Pedido--><g id="link_GeneradorPedidos_Pedido"><path codeLine="97" d="M289.41,1100.6694 C311.55,1127.7694 335.4453,1157.0218 363.7853,1191.7318 " fill="none" id="GeneradorPedidos-to-Pedido" style="stroke:#181818;stroke-width:1.0;"/><polygon fill="#181818" points="367.58,1196.3794,364.9864,1186.8782,364.4178,1192.5064,358.7896,1191.9377,367.58,1196.3794" style="stroke:#181818;stroke-width:1.0;"/><text fill="#000000" font-family="sans-serif" font-size="13" lengthAdjust="spacing" textLength="25" x="340" y="1163.1045">crea</text></g><!--link GeneradorPedidos to TipoPlato--><g id="link_GeneradorPedidos_TipoPlato"><path codeLine="98" d="M229.34,1100.7994 C223.73,1129.4894 217.78,1164.6994 215,1196.6094 C201.54,1351.3694 209.8486,1526.1649 217.5786,1633.3949 " fill="none" id="GeneradorPedidos-to-TipoPlato" style="stroke:#181818;stroke-width:1.0;"/><polygon fill="#181818" points="218.01,1639.3794,221.3525,1630.1151,217.6505,1634.3923,213.3732,1630.6903,218.01,1639.3794" style="stroke:#181818;stroke-width:1.0;"/><text fill="#000000" font-family="sans-serif" font-size="13" lengthAdjust="spacing" textLength="21" x="216" y="1384.6045">usa</text></g><!--link ListaPedidos to NodoPedido--><g id="link_ListaPedidos_NodoPedido"><path codeLine="99" d="M693.05,769.0494 C695.88,828.4594 699.3548,901.1462 702.0848,958.5162 " fill="none" id="ListaPedidos-to-NodoPedido" style="stroke:#181818;stroke-width:1.0;"/><polygon fill="#181818" points="702.37,964.5094,705.9377,955.3294,702.1323,959.515,697.9467,955.7097,702.37,964.5094" style="stroke:#181818;stroke-width:1.0;"/><text fill="#000000" font-family="sans-serif" font-size="13" lengthAdjust="spacing" textLength="56" x="702" y="872.1045">encadena</text></g><!--link NodoPedido to Pedido--><g id="link_NodoPedido_Pedido"><path codeLine="100" d="M662.89,1118.7394 C649.64,1142.1294 637.4079,1163.7391 621.9279,1191.0591 " fill="none" id="NodoPedido-to-Pedido" style="stroke:#181818;stroke-width:1.0;"/><polygon fill="#181818" points="618.97,1196.2794,626.887,1190.4209,621.4349,1191.9292,619.9267,1186.4771,618.97,1196.2794" style="stroke:#181818;stroke-width:1.0;"/><text fill="#000000" font-family="sans-serif" font-size="13" lengthAdjust="spacing" textLength="49" x="646" y="1163.1045">contiene</text></g><!--link Cocinero to Pedido--><g id="link_Cocinero_Pedido"><path codeLine="101" d="M481.25,934.6094 C486.45,1000.9494 494.1716,1099.5177 501.2916,1190.4377 " fill="none" id="Cocinero-to-Pedido" style="stroke:#181818;stroke-width:1.0;"/><polygon fill="#181818" points="501.76,1196.4194,505.0451,1187.1346,501.3696,1191.4346,497.0696,1187.7591,501.76,1196.4194" style="stroke:#181818;stroke-width:1.0;"/><text fill="#000000" font-family="sans-serif" font-size="13" lengthAdjust="spacing" textLength="38" x="497" y="1047.1045">cocina</text></g><!--link Pedido to TipoPlato--><g id="link_Pedido_TipoPlato"><path codeLine="102" d="M366.75,1561.7794 C344.69,1588.6394 326.559,1610.7035 306.799,1634.7535 " fill="none" id="Pedido-to-TipoPlato" style="stroke:#181818;stroke-width:1.0;"/><polygon fill="#181818" points="302.99,1639.3894,311.7941,1634.9748,306.1641,1635.5261,305.6128,1629.8962,302.99,1639.3894" style="stroke:#181818;stroke-width:1.0;"/><text fill="#000000" font-family="sans-serif" font-size="13" lengthAdjust="spacing" textLength="21" x="338" y="1606.1045">usa</text></g><!--SRC=[XLPHRjim3FtFAVpf8Ea5Yg60bsHTWBGnt7G_HL4mCcTeiAL0beTXGmyrx0Yzs2XRbcNPtV8JMNoaoCTdMfhh4gCjXq911T43hpNIVuxHBTQQl_qHPfrYpdDPqxACiircyocAcHJHWT2mN2nO2NLDlbLJ0kDa-BM8wBUAAk0Y1bNKqNNqe1KNnTFpajRV9SyNhxrZHYT1eq1ej9vNqUTZbhmawIuxFMO9UUIoEPVe6pVxNPRjGjFT_lxnT0ntq-puCVcuF-otoVRbSDZT9jj9K2OP5wWaxM_iqbeAf0V8fUffk2PonbiMMHf21jJ1UxI8Yej6ouJf1af2SA6juTB14esYTn-CccDraRlwGeUUf6vTIoaAIxD7OBoqU_WDMQD1nOxlBjHtA7aEwb1Y0Jc4LeMCdxcjAkvo8aJt761hB96PTaEFNpfeNvII36jGBQ4mjLUorWeKvTzKAEAfDFfEE5rqAJd-l6Yh26fU3Ca4oQzdg1yLH9GHYmT-LjWcSfQoH13Mrge3rBPZ-L7SjS72YbQa5PrwAVe0LrGedg4u9SzmvgP1kMrGg5AdnOIIqr9nKs468fULpI2C7lyhwjAbRPnwwkQP2ilmrUrAO736doR-lSpbgDUQvilRR-dfUZKAuPJBHOsAb7jKEGhuZmofQpz8GgXInIiIohGZfgjVQ2p1J5TjJgt5PELg6x9tbUL4TwXV4bp3qSojIS4hRoCU-GwSwosyew67Fd1hdOIkVSHy4jDtAQZ7kUtphlhemmUYIdDsS-D6OdK1rOvqhEt8cQ8ujKdphvmPqGLZwoBJiglzrAz78wqTPgd2_fYPgTSEDqhpFLGdra7OeMKlEFcClVSKhq1bsRHDcirs_Sz4rtEdU_rrOTesZYcmWBdWJey1ReQA0AemRnXNOtWSl34CIaPVQelglYf171BOtJnxTZZC3b1ATEDBfWqw9vgLbHQUP2or6h_RGnPQTfU6Dawt7EJis7IA5hAYuJr0VHLHDRoIC_AwWnzZmsg870SHrpF1rZDnF0NSjn7y0ZgJF6ipShiMk5aUApVDnqnO-7l0WOk0w5_TqsjqsgV71n_vz6oezEviLrSt_aLYuT_AZ6qpt8-eOZ45t4wlIKqD4zXXV4Sgp3MJxX2BYRi1f_tePmhVWPoyrzQSDufl0DuiluvGq9YYpyh2snqV94LNdgitC9jxmCBp3C__2m00]--></g></svg>