<?xml version="1.0" encoding="us-ascii" standalone="no"?><svg xmlns="http://www.w3.org/2000/svg" xmlns:xlink="http://www.w3.org/1999/xlink" contentStyleType="text/css" height="652px" preserveAspectRatio="none" style="width:1110px;height:652px;background:#FFFFFF;" version="1.1" viewBox="0 0 1110 652" width="1110px" zoomAndPan="magnify"><defs/><g><text fill="#000000" font-family="sans-serif" font-size="14" font-weight="bold" lengthAdjust="spacing" textLength="179" x="458.75" y="24.5332">PROPUESTA MEJORA IRIS</text><!--class Mensaje--><g id="elem_Mensaje"><rect codeLine="4" fill="#F1F1F1" height="100.8281" id="Mensaje" rx="2.5" ry="2.5" style="stroke:#181818;stroke-width:0.5;" width="181" x="207" y="544.6094"/><ellipse cx="266.75" cy="560.6094" fill="#ADD1B2" rx="11" ry="11" style="stroke:#181818;stroke-width:1.0;"/><path d="M269.5156,556.4844 Q269.6719,556.2656 269.8594,556.1563 Q270.0469,556.0469 270.2656,556.0469 Q270.6406,556.0469 270.875,556.3125 Q271.1094,556.5625 271.1094,557.1719 L271.1094,558.625 Q271.1094,559.2344 270.875,559.5 Q270.6406,559.7656 270.2656,559.7656 Q269.9219,559.7656 269.7188,559.5625 Q269.5156,559.375 269.4063,558.8594 Q269.3594,558.5 269.1719,558.3125 Q268.8438,557.9375 268.2344,557.7188 Q267.625,557.5 267,557.5 Q266.2344,557.5 265.5938,557.8281 Q264.9688,558.1563 264.4688,558.9063 Q263.9844,559.6563 263.9844,560.6875 L263.9844,561.7813 Q263.9844,563.0156 264.875,563.8438 Q265.7656,564.6563 267.3594,564.6563 Q268.2969,564.6563 268.9531,564.4063 Q269.3438,564.25 269.7656,563.8125 Q270.0313,563.5469 270.1719,563.4688 Q270.3281,563.3906 270.5313,563.3906 Q270.8594,563.3906 271.1094,563.6563 Q271.375,563.9063 271.375,564.25 Q271.375,564.5938 271.0313,565 Q270.5313,565.5781 269.7344,565.9063 Q268.6563,566.3594 267.3594,566.3594 Q265.8438,566.3594 264.6406,565.7344 Q263.6563,565.2344 262.9688,564.1719 Q262.2813,563.0938 262.2813,561.8125 L262.2813,560.6563 Q262.2813,559.3281 262.8906,558.1875 Q263.5156,557.0313 264.6094,556.4219 Q265.7031,555.7969 266.9375,555.7969 Q267.6719,555.7969 268.3125,555.9688 Q268.9688,556.125 269.5156,556.4844 Z " fill="#000000"/><text fill="#000000" font-family="sans-serif" font-size="14" lengthAdjust="spacing" textLength="53" x="287.25" y="566.3379">Mensaje</text><line style="stroke:#181818;stroke-width:0.5;" x1="208" x2="387" y1="576.6094" y2="576.6094"/><rect fill="none" height="6" style="stroke:#C82930;stroke-width:1.0;" width="6" x="215" y="587.9141"/><text fill="#000000" font-family="sans-serif" font-size="14" lengthAdjust="spacing" textLength="75" x="227" y="595.1426">texto: String</text><rect fill="none" height="6" style="stroke:#C82930;stroke-width:1.0;" width="6" x="215" y="605.5234"/><text fill="#000000" font-family="sans-serif" font-size="14" lengthAdjust="spacing" textLength="155" x="227" y="612.752">codigoAsignatura: String</text><rect fill="none" height="6" style="stroke:#C82930;stroke-width:1.0;" width="6" x="215" y="623.1328"/><text fill="#000000" font-family="sans-serif" font-size="14" lengthAdjust="spacing" textLength="133" x="227" y="630.3613">timestamp: DateTime</text><line style="stroke:#181818;stroke-width:0.5;" x1="208" x2="387" y1="637.4375" y2="637.4375"/></g><!--class ColaMensajes--><g id="elem_ColaMensajes"><rect codeLine="10" fill="#F1F1F1" height="83.2188" id="ColaMensajes" rx="2.5" ry="2.5" style="stroke:#181818;stroke-width:0.5;" width="153" x="7" y="401.6094"/><ellipse cx="36.4" cy="417.6094" fill="#ADD1B2" rx="11" ry="11" style="stroke:#181818;stroke-width:1.0;"/><path d="M39.1656,413.4844 Q39.3219,413.2656 39.5094,413.1563 Q39.6969,413.0469 39.9156,413.0469 Q40.2906,413.0469 40.525,413.3125 Q40.7594,413.5625 40.7594,414.1719 L40.7594,415.625 Q40.7594,416.2344 40.525,416.5 Q40.2906,416.7656 39.9156,416.7656 Q39.5719,416.7656 39.3688,416.5625 Q39.1656,416.375 39.0563,415.8594 Q39.0094,415.5 38.8219,415.3125 Q38.4938,414.9375 37.8844,414.7188 Q37.275,414.5 36.65,414.5 Q35.8844,414.5 35.2438,414.8281 Q34.6188,415.1563 34.1188,415.9063 Q33.6344,416.6563 33.6344,417.6875 L33.6344,418.7813 Q33.6344,420.0156 34.525,420.8438 Q35.4156,421.6563 37.0094,421.6563 Q37.9469,421.6563 38.6031,421.4063 Q38.9938,421.25 39.4156,420.8125 Q39.6813,420.5469 39.8219,420.4688 Q39.9781,420.3906 40.1813,420.3906 Q40.5094,420.3906 40.7594,420.6563 Q41.025,420.9063 41.025,421.25 Q41.025,421.5938 40.6813,422 Q40.1813,422.5781 39.3844,422.9063 Q38.3063,423.3594 37.0094,423.3594 Q35.4938,423.3594 34.2906,422.7344 Q33.3063,422.2344 32.6188,421.1719 Q31.9313,420.0938 31.9313,418.8125 L31.9313,417.6563 Q31.9313,416.3281 32.5406,415.1875 Q33.1656,414.0313 34.2594,413.4219 Q35.3531,412.7969 36.5875,412.7969 Q37.3219,412.7969 37.9625,412.9688 Q38.6188,413.125 39.1656,413.4844 Z " fill="#000000"/><text fill="#000000" font-family="sans-serif" font-size="14" lengthAdjust="spacing" textLength="89" x="53.6" y="423.3379">ColaMensajes</text><line style="stroke:#181818;stroke-width:0.5;" x1="8" x2="159" y1="433.6094" y2="433.6094"/><line style="stroke:#181818;stroke-width:0.5;" x1="8" x2="159" y1="441.6094" y2="441.6094"/><ellipse cx="18" cy="455.9141" fill="#84BE84" rx="3" ry="3" style="stroke:#038048;stroke-width:1.0;"/><text fill="#000000" font-family="sans-serif" font-size="14" lengthAdjust="spacing" textLength="121" x="27" y="460.1426">recibir(m: Mensaje)</text><ellipse cx="18" cy="473.5234" fill="#84BE84" rx="3" ry="3" style="stroke:#038048;stroke-width:1.0;"/><text fill="#000000" font-family="sans-serif" font-size="14" lengthAdjust="spacing" textLength="127" x="27" y="477.752">procesar(): Mensaje</text></g><!--class Estudiante--><g id="elem_Estudiante"><rect codeLine="15" fill="#F1F1F1" height="83.2188" id="Estudiante" rx="2.5" ry="2.5" style="stroke:#181818;stroke-width:0.5;" width="122" x="930.5" y="401.6094"/><ellipse cx="955.85" cy="417.6094" fill="#ADD1B2" rx="11" ry="11" style="stroke:#181818;stroke-width:1.0;"/><path d="M958.6156,413.4844 Q958.7719,413.2656 958.9594,413.1563 Q959.1469,413.0469 959.3656,413.0469 Q959.7406,413.0469 959.975,413.3125 Q960.2094,413.5625 960.2094,414.1719 L960.2094,415.625 Q960.2094,416.2344 959.975,416.5 Q959.7406,416.7656 959.3656,416.7656 Q959.0219,416.7656 958.8188,416.5625 Q958.6156,416.375 958.5063,415.8594 Q958.4594,415.5 958.2719,415.3125 Q957.9438,414.9375 957.3344,414.7188 Q956.725,414.5 956.1,414.5 Q955.3344,414.5 954.6938,414.8281 Q954.0688,415.1563 953.5688,415.9063 Q953.0844,416.6563 953.0844,417.6875 L953.0844,418.7813 Q953.0844,420.0156 953.975,420.8438 Q954.8656,421.6563 956.4594,421.6563 Q957.3969,421.6563 958.0531,421.4063 Q958.4438,421.25 958.8656,420.8125 Q959.1313,420.5469 959.2719,420.4688 Q959.4281,420.3906 959.6313,420.3906 Q959.9594,420.3906 960.2094,420.6563 Q960.475,420.9063 960.475,421.25 Q960.475,421.5938 960.1313,422 Q959.6313,422.5781 958.8344,422.9063 Q957.7563,423.3594 956.4594,423.3594 Q954.9438,423.3594 953.7406,422.7344 Q952.7563,422.2344 952.0688,421.1719 Q951.3813,420.0938 951.3813,418.8125 L951.3813,417.6563 Q951.3813,416.3281 951.9906,415.1875 Q952.6156,414.0313 953.7094,413.4219 Q954.8031,412.7969 956.0375,412.7969 Q956.7719,412.7969 957.4125,412.9688 Q958.0688,413.125 958.6156,413.4844 Z " fill="#000000"/><text fill="#000000" font-family="sans-serif" font-size="14" lengthAdjust="spacing" textLength="67" x="972.15" y="423.3379">Estudiante</text><line style="stroke:#181818;stroke-width:0.5;" x1="931.5" x2="1051.5" y1="433.6094" y2="433.6094"/><rect fill="none" height="6" style="stroke:#C82930;stroke-width:1.0;" width="6" x="938.5" y="444.9141"/><text fill="#000000" font-family="sans-serif" font-size="14" lengthAdjust="spacing" textLength="56" x="950.5" y="452.1426">id: String</text><rect fill="none" height="6" style="stroke:#C82930;stroke-width:1.0;" width="6" x="938.5" y="462.5234"/><text fill="#000000" font-family="sans-serif" font-size="14" lengthAdjust="spacing" textLength="96" x="950.5" y="469.752">telefono: String</text><line style="stroke:#181818;stroke-width:0.5;" x1="931.5" x2="1051.5" y1="476.8281" y2="476.8281"/></g><!--class BuzonAlumno--><g id="elem_BuzonAlumno"><rect codeLine="20" fill="#F1F1F1" height="83.2188" id="BuzonAlumno" rx="2.5" ry="2.5" style="stroke:#181818;stroke-width:0.5;" width="193" x="201" y="401.6094"/><ellipse cx="250.25" cy="417.6094" fill="#ADD1B2" rx="11" ry="11" style="stroke:#181818;stroke-width:1.0;"/><path d="M253.0156,413.4844 Q253.1719,413.2656 253.3594,413.1563 Q253.5469,413.0469 253.7656,413.0469 Q254.1406,413.0469 254.375,413.3125 Q254.6094,413.5625 254.6094,414.1719 L254.6094,415.625 Q254.6094,416.2344 254.375,416.5 Q254.1406,416.7656 253.7656,416.7656 Q253.4219,416.7656 253.2188,416.5625 Q253.0156,416.375 252.9063,415.8594 Q252.8594,415.5 252.6719,415.3125 Q252.3438,414.9375 251.7344,414.7188 Q251.125,414.5 250.5,414.5 Q249.7344,414.5 249.0938,414.8281 Q248.4688,415.1563 247.9688,415.9063 Q247.4844,416.6563 247.4844,417.6875 L247.4844,418.7813 Q247.4844,420.0156 248.375,420.8438 Q249.2656,421.6563 250.8594,421.6563 Q251.7969,421.6563 252.4531,421.4063 Q252.8438,421.25 253.2656,420.8125 Q253.5313,420.5469 253.6719,420.4688 Q253.8281,420.3906 254.0313,420.3906 Q254.3594,420.3906 254.6094,420.6563 Q254.875,420.9063 254.875,421.25 Q254.875,421.5938 254.5313,422 Q254.0313,422.5781 253.2344,422.9063 Q252.1563,423.3594 250.8594,423.3594 Q249.3438,423.3594 248.1406,422.7344 Q247.1563,422.2344 246.4688,421.1719 Q245.7813,420.0938 245.7813,418.8125 L245.7813,417.6563 Q245.7813,416.3281 246.3906,415.1875 Q247.0156,414.0313 248.1094,413.4219 Q249.2031,412.7969 250.4375,412.7969 Q251.1719,412.7969 251.8125,412.9688 Q252.4688,413.125 253.0156,413.4844 Z " fill="#000000"/><text fill="#000000" font-family="sans-serif" font-size="14" lengthAdjust="spacing" textLength="86" x="270.75" y="423.3379">BuzonAlumno</text><line style="stroke:#181818;stroke-width:0.5;" x1="202" x2="393" y1="433.6094" y2="433.6094"/><rect fill="none" height="6" style="stroke:#C82930;stroke-width:1.0;" width="6" x="209" y="444.9141"/><text fill="#000000" font-family="sans-serif" font-size="14" lengthAdjust="spacing" textLength="121" x="221" y="452.1426">alumno: Estudiante</text><rect fill="none" height="6" style="stroke:#C82930;stroke-width:1.0;" width="6" x="209" y="462.5234"/><text fill="#000000" font-family="sans-serif" font-size="14" lengthAdjust="spacing" textLength="167" x="221" y="469.752">mensajes: Lista&lt;Mensaje&gt;</text><line style="stroke:#181818;stroke-width:0.5;" x1="202" x2="393" y1="476.8281" y2="476.8281"/></g><!--class ListaBuzones--><g id="elem_ListaBuzones"><rect codeLine="25" fill="#F1F1F1" height="118.4375" id="ListaBuzones" rx="2.5" ry="2.5" style="stroke:#181818;stroke-width:0.5;" width="335" x="130" y="223.6094"/><ellipse cx="251.25" cy="239.6094" fill="#ADD1B2" rx="11" ry="11" style="stroke:#181818;stroke-width:1.0;"/><path d="M254.0156,235.4844 Q254.1719,235.2656 254.3594,235.1563 Q254.5469,235.0469 254.7656,235.0469 Q255.1406,235.0469 255.375,235.3125 Q255.6094,235.5625 255.6094,236.1719 L255.6094,237.625 Q255.6094,238.2344 255.375,238.5 Q255.1406,238.7656 254.7656,238.7656 Q254.4219,238.7656 254.2188,238.5625 Q254.0156,238.375 253.9063,237.8594 Q253.8594,237.5 253.6719,237.3125 Q253.3438,236.9375 252.7344,236.7188 Q252.125,236.5 251.5,236.5 Q250.7344,236.5 250.0938,236.8281 Q249.4688,237.1563 248.9688,237.9063 Q248.4844,238.6563 248.4844,239.6875 L248.4844,240.7813 Q248.4844,242.0156 249.375,242.8438 Q250.2656,243.6563 251.8594,243.6563 Q252.7969,243.6563 253.4531,243.4063 Q253.8438,243.25 254.2656,242.8125 Q254.5313,242.5469 254.6719,242.4688 Q254.8281,242.3906 255.0313,242.3906 Q255.3594,242.3906 255.6094,242.6563 Q255.875,242.9063 255.875,243.25 Q255.875,243.5938 255.5313,244 Q255.0313,244.5781 254.2344,244.9063 Q253.1563,245.3594 251.8594,245.3594 Q250.3438,245.3594 249.1406,244.7344 Q248.1563,244.2344 247.4688,243.1719 Q246.7813,242.0938 246.7813,240.8125 L246.7813,239.6563 Q246.7813,238.3281 247.3906,237.1875 Q248.0156,236.0313 249.1094,235.4219 Q250.2031,234.7969 251.4375,234.7969 Q252.1719,234.7969 252.8125,234.9688 Q253.4688,235.125 254.0156,235.4844 Z " fill="#000000"/><text fill="#000000" font-family="sans-serif" font-size="14" lengthAdjust="spacing" textLength="84" x="271.75" y="245.3379">ListaBuzones</text><line style="stroke:#181818;stroke-width:0.5;" x1="131" x2="464" y1="255.6094" y2="255.6094"/><rect fill="none" height="6" style="stroke:#C82930;stroke-width:1.0;" width="6" x="138" y="266.9141"/><text fill="#000000" font-family="sans-serif" font-size="14" lengthAdjust="spacing" textLength="193" x="150" y="274.1426">buzones: Lista&lt;BuzonAlumno&gt;</text><line style="stroke:#181818;stroke-width:0.5;" x1="131" x2="464" y1="281.2188" y2="281.2188"/><ellipse cx="141" cy="295.5234" fill="#84BE84" rx="3" ry="3" style="stroke:#038048;stroke-width:1.0;"/><text fill="#000000" font-family="sans-serif" font-size="14" lengthAdjust="spacing" textLength="276" x="150" y="299.752">agregarMensaje(e: Estudiante, m: Mensaje)</text><ellipse cx="141" cy="313.1328" fill="#84BE84" rx="3" ry="3" style="stroke:#038048;stroke-width:1.0;"/><text fill="#000000" font-family="sans-serif" font-size="14" lengthAdjust="spacing" textLength="309" x="150" y="317.3613">obtenerMensajes(e: Estudiante): Lista&lt;Mensaje&gt;</text><ellipse cx="141" cy="330.7422" fill="#84BE84" rx="3" ry="3" style="stroke:#038048;stroke-width:1.0;"/><text fill="#000000" font-family="sans-serif" font-size="14" lengthAdjust="spacing" textLength="131" x="150" y="334.9707">vaciar(e: Estudiante)</text></g><!--class HistorialMensajes--><g id="elem_HistorialMensajes"><rect codeLine="32" fill="#F1F1F1" height="118.4375" id="HistorialMensajes" rx="2.5" ry="2.5" style="stroke:#181818;stroke-width:0.5;" width="344" x="500.5" y="223.6094"/><ellipse cx="613.25" cy="239.6094" fill="#ADD1B2" rx="11" ry="11" style="stroke:#181818;stroke-width:1.0;"/><path d="M616.0156,235.4844 Q616.1719,235.2656 616.3594,235.1563 Q616.5469,235.0469 616.7656,235.0469 Q617.1406,235.0469 617.375,235.3125 Q617.6094,235.5625 617.6094,236.1719 L617.6094,237.625 Q617.6094,238.2344 617.375,238.5 Q617.1406,238.7656 616.7656,238.7656 Q616.4219,238.7656 616.2188,238.5625 Q616.0156,238.375 615.9063,237.8594 Q615.8594,237.5 615.6719,237.3125 Q615.3438,236.9375 614.7344,236.7188 Q614.125,236.5 613.5,236.5 Q612.7344,236.5 612.0938,236.8281 Q611.4688,237.1563 610.9688,237.9063 Q610.4844,238.6563 610.4844,239.6875 L610.4844,240.7813 Q610.4844,242.0156 611.375,242.8438 Q612.2656,243.6563 613.8594,243.6563 Q614.7969,243.6563 615.4531,243.4063 Q615.8438,243.25 616.2656,242.8125 Q616.5313,242.5469 616.6719,242.4688 Q616.8281,242.3906 617.0313,242.3906 Q617.3594,242.3906 617.6094,242.6563 Q617.875,242.9063 617.875,243.25 Q617.875,243.5938 617.5313,244 Q617.0313,244.5781 616.2344,244.9063 Q615.1563,245.3594 613.8594,245.3594 Q612.3438,245.3594 611.1406,244.7344 Q610.1563,244.2344 609.4688,243.1719 Q608.7813,242.0938 608.7813,240.8125 L608.7813,239.6563 Q608.7813,238.3281 609.3906,237.1875 Q610.0156,236.0313 611.1094,235.4219 Q612.2031,234.7969 613.4375,234.7969 Q614.1719,234.7969 614.8125,234.9688 Q615.4688,235.125 616.0156,235.4844 Z " fill="#000000"/><text fill="#000000" font-family="sans-serif" font-size="14" lengthAdjust="spacing" textLength="110" x="633.75" y="245.3379">HistorialMensajes</text><line style="stroke:#181818;stroke-width:0.5;" x1="501.5" x2="843.5" y1="255.6094" y2="255.6094"/><rect fill="none" height="6" style="stroke:#C82930;stroke-width:1.0;" width="6" x="508.5" y="266.9141"/><text fill="#000000" font-family="sans-serif" font-size="14" lengthAdjust="spacing" textLength="162" x="520.5" y="274.1426">registros: Lista&lt;Mensaje&gt;</text><line style="stroke:#181818;stroke-width:0.5;" x1="501.5" x2="843.5" y1="281.2188" y2="281.2188"/><ellipse cx="511.5" cy="295.5234" fill="#84BE84" rx="3" ry="3" style="stroke:#038048;stroke-width:1.0;"/><text fill="#000000" font-family="sans-serif" font-size="14" lengthAdjust="spacing" textLength="132" x="520.5" y="299.752">guardar(m: Mensaje)</text><ellipse cx="511.5" cy="313.1328" fill="#84BE84" rx="3" ry="3" style="stroke:#038048;stroke-width:1.0;"/><text fill="#000000" font-family="sans-serif" font-size="14" lengthAdjust="spacing" textLength="318" x="520.5" y="317.3613">obtenerPorAlumno(e: Estudiante): Lista&lt;Mensaje&gt;</text><ellipse cx="511.5" cy="330.7422" fill="#84BE84" rx="3" ry="3" style="stroke:#038048;stroke-width:1.0;"/><text fill="#000000" font-family="sans-serif" font-size="14" lengthAdjust="spacing" textLength="301" x="520.5" y="334.9707">obtenerPorFecha(fecha: Date): Lista&lt;Mensaje&gt;</text></g><!--class NodoAsignatura--><g id="elem_NodoAsignatura"><rect codeLine="39" fill="#F1F1F1" height="118.4375" id="NodoAsignatura" rx="2.5" ry="2.5" style="stroke:#181818;stroke-width:0.5;" width="224" x="879.5" y="223.6094"/><ellipse cx="936.75" cy="239.6094" fill="#ADD1B2" rx="11" ry="11" style="stroke:#181818;stroke-width:1.0;"/><path d="M939.5156,235.4844 Q939.6719,235.2656 939.8594,235.1563 Q940.0469,235.0469 940.2656,235.0469 Q940.6406,235.0469 940.875,235.3125 Q941.1094,235.5625 941.1094,236.1719 L941.1094,237.625 Q941.1094,238.2344 940.875,238.5 Q940.6406,238.7656 940.2656,238.7656 Q939.9219,238.7656 939.7188,238.5625 Q939.5156,238.375 939.4063,237.8594 Q939.3594,237.5 939.1719,237.3125 Q938.8438,236.9375 938.2344,236.7188 Q937.625,236.5 937,236.5 Q936.2344,236.5 935.5938,236.8281 Q934.9688,237.1563 934.4688,237.9063 Q933.9844,238.6563 933.9844,239.6875 L933.9844,240.7813 Q933.9844,242.0156 934.875,242.8438 Q935.7656,243.6563 937.3594,243.6563 Q938.2969,243.6563 938.9531,243.4063 Q939.3438,243.25 939.7656,242.8125 Q940.0313,242.5469 940.1719,242.4688 Q940.3281,242.3906 940.5313,242.3906 Q940.8594,242.3906 941.1094,242.6563 Q941.375,242.9063 941.375,243.25 Q941.375,243.5938 941.0313,244 Q940.5313,244.5781 939.7344,244.9063 Q938.6563,245.3594 937.3594,245.3594 Q935.8438,245.3594 934.6406,244.7344 Q933.6563,244.2344 932.9688,243.1719 Q932.2813,242.0938 932.2813,240.8125 L932.2813,239.6563 Q932.2813,238.3281 932.8906,237.1875 Q933.5156,236.0313 934.6094,235.4219 Q935.7031,234.7969 936.9375,234.7969 Q937.6719,234.7969 938.3125,234.9688 Q938.9688,235.125 939.5156,235.4844 Z " fill="#000000"/><text fill="#000000" font-family="sans-serif" font-size="14" lengthAdjust="spacing" textLength="101" x="957.25" y="245.3379">NodoAsignatura</text><line style="stroke:#181818;stroke-width:0.5;" x1="880.5" x2="1102.5" y1="255.6094" y2="255.6094"/><rect fill="none" height="6" style="stroke:#C82930;stroke-width:1.0;" width="6" x="887.5" y="266.9141"/><text fill="#000000" font-family="sans-serif" font-size="14" lengthAdjust="spacing" textLength="87" x="899.5" y="274.1426">codigo: String</text><rect fill="none" height="6" style="stroke:#C82930;stroke-width:1.0;" width="6" x="887.5" y="284.5234"/><text fill="#000000" font-family="sans-serif" font-size="14" lengthAdjust="spacing" textLength="166" x="899.5" y="291.752">izquierda: NodoAsignatura</text><rect fill="none" height="6" style="stroke:#C82930;stroke-width:1.0;" width="6" x="887.5" y="302.1328"/><text fill="#000000" font-family="sans-serif" font-size="14" lengthAdjust="spacing" textLength="161" x="899.5" y="309.3613">derecha: NodoAsignatura</text><rect fill="none" height="6" style="stroke:#C82930;stroke-width:1.0;" width="6" x="887.5" y="319.7422"/><text fill="#000000" font-family="sans-serif" font-size="14" lengthAdjust="spacing" textLength="198" x="899.5" y="326.9707">suscriptores: Lista&lt;Estudiante&gt;</text><line style="stroke:#181818;stroke-width:0.5;" x1="880.5" x2="1102.5" y1="334.0469" y2="334.0469"/></g><!--class Iris--><g id="elem_Iris"><rect codeLine="46" fill="#F1F1F1" height="118.4375" id="Iris" rx="2.5" ry="2.5" style="stroke:#181818;stroke-width:0.5;" width="209" x="380" y="45.6094"/><ellipse cx="471.25" cy="61.6094" fill="#ADD1B2" rx="11" ry="11" style="stroke:#181818;stroke-width:1.0;"/><path d="M474.0156,57.4844 Q474.1719,57.2656 474.3594,57.1563 Q474.5469,57.0469 474.7656,57.0469 Q475.1406,57.0469 475.375,57.3125 Q475.6094,57.5625 475.6094,58.1719 L475.6094,59.625 Q475.6094,60.2344 475.375,60.5 Q475.1406,60.7656 474.7656,60.7656 Q474.4219,60.7656 474.2188,60.5625 Q474.0156,60.375 473.9063,59.8594 Q473.8594,59.5 473.6719,59.3125 Q473.3438,58.9375 472.7344,58.7188 Q472.125,58.5 471.5,58.5 Q470.7344,58.5 470.0938,58.8281 Q469.4688,59.1563 468.9688,59.9063 Q468.4844,60.6563 468.4844,61.6875 L468.4844,62.7813 Q468.4844,64.0156 469.375,64.8438 Q470.2656,65.6563 471.8594,65.6563 Q472.7969,65.6563 473.4531,65.4063 Q473.8438,65.25 474.2656,64.8125 Q474.5313,64.5469 474.6719,64.4688 Q474.8281,64.3906 475.0313,64.3906 Q475.3594,64.3906 475.6094,64.6563 Q475.875,64.9063 475.875,65.25 Q475.875,65.5938 475.5313,66 Q475.0313,66.5781 474.2344,66.9063 Q473.1563,67.3594 471.8594,67.3594 Q470.3438,67.3594 469.1406,66.7344 Q468.1563,66.2344 467.4688,65.1719 Q466.7813,64.0938 466.7813,62.8125 L466.7813,61.6563 Q466.7813,60.3281 467.3906,59.1875 Q468.0156,58.0313 469.1094,57.4219 Q470.2031,56.7969 471.4375,56.7969 Q472.1719,56.7969 472.8125,56.9688 Q473.4688,57.125 474.0156,57.4844 Z " fill="#000000"/><text fill="#000000" font-family="sans-serif" font-size="14" lengthAdjust="spacing" textLength="18" x="491.75" y="67.3379">Iris</text><line style="stroke:#181818;stroke-width:0.5;" x1="381" x2="588" y1="77.6094" y2="77.6094"/><rect fill="none" height="6" style="stroke:#C82930;stroke-width:1.0;" width="6" x="388" y="88.9141"/><text fill="#000000" font-family="sans-serif" font-size="14" lengthAdjust="spacing" textLength="123" x="400" y="96.1426">cola: ColaMensajes</text><rect fill="none" height="6" style="stroke:#C82930;stroke-width:1.0;" width="6" x="388" y="106.5234"/><text fill="#000000" font-family="sans-serif" font-size="14" lengthAdjust="spacing" textLength="183" x="400" y="113.752">asignaturas: NodoAsignatura</text><rect fill="none" height="6" style="stroke:#C82930;stroke-width:1.0;" width="6" x="388" y="124.1328"/><text fill="#000000" font-family="sans-serif" font-size="14" lengthAdjust="spacing" textLength="145" x="400" y="131.3613">buzones: ListaBuzones</text><rect fill="none" height="6" style="stroke:#C82930;stroke-width:1.0;" width="6" x="388" y="141.7422"/><text fill="#000000" font-family="sans-serif" font-size="14" lengthAdjust="spacing" textLength="167" x="400" y="148.9707">historial: HistorialMensajes</text><line style="stroke:#181818;stroke-width:0.5;" x1="381" x2="588" y1="156.0469" y2="156.0469"/></g><!--link Iris to ColaMensajes--><g id="link_Iris_ColaMensajes"><path codeLine="53" d="M379.79,104.6094 C256.56,104.6094 68.5,104.6094 68.5,104.6094 C68.5,104.6094 68.5,305.2094 68.5,395.5994 " fill="none" id="Iris-to-ColaMensajes" style="stroke:#181818;stroke-width:1.0;"/><polygon fill="#181818" points="68.5,401.5994,72.5,392.5994,68.5,396.5994,64.5,392.5994,68.5,401.5994" style="stroke:#181818;stroke-width:1.0;"/><text fill="#000000" font-family="sans-serif" font-size="13" lengthAdjust="spacing" textLength="35" x="39.65" y="101.1045">recibe</text></g><!--link Iris to NodoAsignatura--><g id="link_Iris_NodoAsignatura"><path codeLine="54" d="M589.24,104.6094 C737.7,104.6094 991.5,104.6094 991.5,104.6094 C991.5,104.6094 991.5,165.5594 991.5,217.3394 " fill="none" id="Iris-to-NodoAsignatura" style="stroke:#181818;stroke-width:1.0;"/><polygon fill="#181818" points="991.5,223.3394,995.5,214.3394,991.5,218.3394,987.5,214.3394,991.5,223.3394" style="stroke:#181818;stroke-width:1.0;"/><text fill="#000000" font-family="sans-serif" font-size="13" lengthAdjust="spacing" textLength="47" x="801.74" y="101.1045">clasifica</text></g><!--link Iris to ListaBuzones--><g id="link_Iris_ListaBuzones"><path codeLine="55" d="M422.5,163.8794 C422.5,183.0994 422.5,198.3994 422.5,217.5994 " fill="none" id="Iris-to-ListaBuzones" style="stroke:#181818;stroke-width:1.0;"/><polygon fill="#181818" points="422.5,223.5994,426.5,214.5994,422.5,218.5994,418.5,214.5994,422.5,223.5994" style="stroke:#181818;stroke-width:1.0;"/><text fill="#000000" font-family="sans-serif" font-size="13" lengthAdjust="spacing" textLength="49" x="372.5" y="190.2345">gestiona</text></g><!--link Iris to HistorialMensajes--><g id="link_Iris_HistorialMensajes"><path codeLine="56" d="M544.75,163.8794 C544.75,183.0994 544.75,198.3994 544.75,217.5994 " fill="none" id="Iris-to-HistorialMensajes" style="stroke:#181818;stroke-width:1.0;"/><polygon fill="#181818" points="544.75,223.5994,548.75,214.5994,544.75,218.5994,540.75,214.5994,544.75,223.5994" style="stroke:#181818;stroke-width:1.0;"/><text fill="#000000" font-family="sans-serif" font-size="13" lengthAdjust="spacing" textLength="39" x="504.75" y="190.2345">guarda</text></g><!--reverse link ColaMensajes to Mensaje--><g id="link_ColaMensajes_Mensaje"><path codeLine="58" d="M83.5,496.7794 C83.5,541.9294 83.5,595.6094 83.5,595.6094 C83.5,595.6094 148.42,595.6094 206.74,595.6094 " fill="none" id="ColaMensajes-backto-Mensaje" style="stroke:#181818;stroke-width:1.0;"/><polygon fill="none" points="83.5,484.7794,79.5,490.7794,83.5,496.7794,87.5,490.7794,83.5,484.7794" style="stroke:#181818;stroke-width:1.0;"/><text fill="#000000" font-family="sans-serif" font-size="13" lengthAdjust="spacing" textLength="29" x="59.71" y="592.1045">FIFO</text></g><!--reverse link NodoAsignatura to Estudiante--><g id="link_NodoAsignatura_Estudiante"><path codeLine="59" d="M991.5,353.9194 C991.5,373.7394 991.5,383.3994 991.5,401.5694 " fill="none" id="NodoAsignatura-backto-Estudiante" style="stroke:#181818;stroke-width:1.0;"/><polygon fill="none" points="991.5,341.9194,987.5,347.9194,991.5,353.9194,995.5,347.9194,991.5,341.9194" style="stroke:#181818;stroke-width:1.0;"/><text fill="#000000" font-family="sans-serif" font-size="13" lengthAdjust="spacing" textLength="46" x="944.5" y="368.2445">suscrito</text></g><!--reverse link ListaBuzones to BuzonAlumno--><g id="link_ListaBuzones_BuzonAlumno"><path codeLine="60" d="M297.5,353.9194 C297.5,373.7394 297.5,383.3994 297.5,401.5694 " fill="none" id="ListaBuzones-backto-BuzonAlumno" style="stroke:#181818;stroke-width:1.0;"/><polygon fill="#181818" points="297.5,341.9194,293.5,347.9194,297.5,353.9194,301.5,347.9194,297.5,341.9194" style="stroke:#181818;stroke-width:1.0;"/><text fill="#000000" font-family="sans-serif" font-size="13" lengthAdjust="spacing" textLength="49" x="247.5" y="368.2445">contiene</text></g><!--reverse link BuzonAlumno to Mensaje--><g id="link_BuzonAlumno_Mensaje"><path codeLine="61" d="M297.5,496.6394 C297.5,515.0994 297.5,524.9994 297.5,544.4194 " fill="none" id="BuzonAlumno-backto-Mensaje" style="stroke:#181818;stroke-width:1.0;"/><polygon fill="#181818" points="297.5,484.6394,293.5,490.6394,297.5,496.6394,301.5,490.6394,297.5,484.6394" style="stroke:#181818;stroke-width:1.0;"/><text fill="#000000" font-family="sans-serif" font-size="13" lengthAdjust="spacing" textLength="49" x="247.5" y="511.0245">acumula</text></g><!--reverse link HistorialMensajes to Mensaje--><g id="link_HistorialMensajes_Mensaje"><path codeLine="62" d="M672.5,353.8494 C672.5,444.5894 672.5,595.6094 672.5,595.6094 C672.5,595.6094 499.26,595.6094 388.28,595.6094 " fill="none" id="HistorialMensajes-backto-Mensaje" style="stroke:#181818;stroke-width:1.0;"/><polygon fill="none" points="672.5,341.8494,668.5,347.8494,672.5,353.8494,676.5,347.8494,672.5,341.8494" style="stroke:#181818;stroke-width:1.0;"/><text fill="#000000" font-family="sans-serif" font-size="13" lengthAdjust="spacing" textLength="56" x="600.27" y="592.1045">almacena</text></g><!--SRC=[ZPHTZjCm4CVVVGe_jWkvW8Kg5MX54KkhTZd0r9cc0uvTR0V18kwEspYnasobxKCbUxv-C_DtF7c5VBVVxhwj3azB_hZwlDql-MQ_EJ3tW_G5BDHSaKR_vuBSM7ysZ4a5pl57r0w-8__BUFWLtEDlRmG_U4kwYdVIb5IPfQDAWsyiZCoUQdGUwelW7y7ZKpYoVrt-3qP1hE5YaJVSegGZsLajklhpQBbO8z61dSrxKygrShuf2RHFk5IEOL3XoUZKGX_zldasUgcQMfi-76v7aMMEXZeY2_w5Gc_l8iiYfRlTttBsZHNys9wxgApa8ZO8bSKARCmtmxpsMpuTY3bwrDZvks70V8BN1lq2IM66Gz-4_Yd464kWHeifmcAgOBF6tKbSDM1BU6bnaNDdRDllwq1Jr1hb6MQdwtyhe_dzqNyrPQR67hwLwKWFzFop8GpGOXGMxINQjkQBLjSuQUaIffMMchhAa3QMN0QYGi9S-PtS-lpkJi6XWAAyektShKrCDtWbkJ4KnMBuvaJxsZ2PH-CJ_De2dKX2yXceM_0gF70oEdEOQaX4TJ0sg6-Ael_82BxUhBTi173ro9wsY5FtXWqe7e9R_eO3jz6UWdvOVlqmg0UogHi5R8exv09LWqGD_m40]--></g></svg>