<?xml version="1.0" encoding="us-ascii" standalone="no"?><svg xmlns="http://www.w3.org/2000/svg" xmlns:xlink="http://www.w3.org/1999/xlink" contentStyleType="text/css" height="634px" preserveAspectRatio="none" style="width:416px;height:634px;background:#FFFFFF;" version="1.1" viewBox="0 0 416 634" width="416px" zoomAndPan="magnify"><defs/><g><text fill="#000000" font-family="sans-serif" font-size="14" font-weight="bold" lengthAdjust="spacing" textLength="145" x="128.5" y="24.5332">Vista p&#250;blica - Matriz</text><!--class Matriz--><g id="elem_Matriz"><rect codeLine="4" fill="#F1F1F1" height="171.2656" id="Matriz" rx="2.5" ry="2.5" style="stroke:#181818;stroke-width:0.5;" width="402" x="7" y="45.6094"/><ellipse cx="185.25" cy="61.6094" fill="#ADD1B2" rx="11" ry="11" style="stroke:#181818;stroke-width:1.0;"/><path d="M188.0156,57.4844 Q188.1719,57.2656 188.3594,57.1563 Q188.5469,57.0469 188.7656,57.0469 Q189.1406,57.0469 189.375,57.3125 Q189.6094,57.5625 189.6094,58.1719 L189.6094,59.625 Q189.6094,60.2344 189.375,60.5 Q189.1406,60.7656 188.7656,60.7656 Q188.4219,60.7656 188.2188,60.5625 Q188.0156,60.375 187.9063,59.8594 Q187.8594,59.5 187.6719,59.3125 Q187.3438,58.9375 186.7344,58.7188 Q186.125,58.5 185.5,58.5 Q184.7344,58.5 184.0938,58.8281 Q183.4688,59.1563 182.9688,59.9063 Q182.4844,60.6563 182.4844,61.6875 L182.4844,62.7813 Q182.4844,64.0156 183.375,64.8438 Q184.2656,65.6563 185.8594,65.6563 Q186.7969,65.6563 187.4531,65.4063 Q187.8438,65.25 188.2656,64.8125 Q188.5313,64.5469 188.6719,64.4688 Q188.8281,64.3906 189.0313,64.3906 Q189.3594,64.3906 189.6094,64.6563 Q189.875,64.9063 189.875,65.25 Q189.875,65.5938 189.5313,66 Q189.0313,66.5781 188.2344,66.9063 Q187.1563,67.3594 185.8594,67.3594 Q184.3438,67.3594 183.1406,66.7344 Q182.1563,66.2344 181.4688,65.1719 Q180.7813,64.0938 180.7813,62.8125 L180.7813,61.6563 Q180.7813,60.3281 181.3906,59.1875 Q182.0156,58.0313 183.1094,57.4219 Q184.2031,56.7969 185.4375,56.7969 Q186.1719,56.7969 186.8125,56.9688 Q187.4688,57.125 188.0156,57.4844 Z " fill="#000000"/><text fill="#000000" font-family="sans-serif" font-size="14" lengthAdjust="spacing" textLength="37" x="205.75" y="67.3379">Matriz</text><line style="stroke:#181818;stroke-width:0.5;" x1="8" x2="408" y1="77.6094" y2="77.6094"/><line style="stroke:#181818;stroke-width:0.5;" x1="8" x2="408" y1="85.6094" y2="85.6094"/><text fill="#000000" font-family="sans-serif" font-size="14" lengthAdjust="spacing" textLength="290" x="13" y="104.1426">+Matriz(numeroFilas:int, numeroColumnas:int)</text><text fill="#000000" font-family="sans-serif" font-size="14" lengthAdjust="spacing" textLength="371" x="13" y="121.752">+posicionValida(indiceFila:int, indiceColumna:int) : boolean</text><text fill="#000000" font-family="sans-serif" font-size="14" lengthAdjust="spacing" textLength="217" x="13" y="139.3613">+filaValida(indiceFila:int) : boolean</text><text fill="#000000" font-family="sans-serif" font-size="14" lengthAdjust="spacing" textLength="390" x="13" y="156.9707">+setValor(indiceFila:int, indiceColumna:int, valor:int) : boolean</text><text fill="#000000" font-family="sans-serif" font-size="14" lengthAdjust="spacing" textLength="297" x="13" y="174.5801">+getValor(indiceFila:int, indiceColumna:int) : int</text><text fill="#000000" font-family="sans-serif" font-size="14" lengthAdjust="spacing" textLength="105" x="13" y="192.1895">+imprimir() : void</text><text fill="#000000" font-family="sans-serif" font-size="14" lengthAdjust="spacing" textLength="175" x="13" y="209.7988">+getFila(indiceFila:int) : Fila</text></g><!--class Fila--><g id="elem_Fila"><rect codeLine="14" fill="#F1F1F1" height="58.7031" id="Fila" rx="2.5" ry="2.5" style="stroke:#181818;stroke-width:0.5;" width="83" x="137.5" y="431.6094"/><ellipse cx="152.5" cy="452.9609" fill="#ADD1B2" rx="11" ry="11" style="stroke:#181818;stroke-width:1.0;"/><path d="M155.2656,448.8359 Q155.4219,448.6172 155.6094,448.5078 Q155.7969,448.3984 156.0156,448.3984 Q156.3906,448.3984 156.625,448.6641 Q156.8594,448.9141 156.8594,449.5234 L156.8594,450.9766 Q156.8594,451.5859 156.625,451.8516 Q156.3906,452.1172 156.0156,452.1172 Q155.6719,452.1172 155.4688,451.9141 Q155.2656,451.7266 155.1563,451.2109 Q155.1094,450.8516 154.9219,450.6641 Q154.5938,450.2891 153.9844,450.0703 Q153.375,449.8516 152.75,449.8516 Q151.9844,449.8516 151.3438,450.1797 Q150.7188,450.5078 150.2188,451.2578 Q149.7344,452.0078 149.7344,453.0391 L149.7344,454.1328 Q149.7344,455.3672 150.625,456.1953 Q151.5156,457.0078 153.1094,457.0078 Q154.0469,457.0078 154.7031,456.7578 Q155.0938,456.6016 155.5156,456.1641 Q155.7813,455.8984 155.9219,455.8203 Q156.0781,455.7422 156.2813,455.7422 Q156.6094,455.7422 156.8594,456.0078 Q157.125,456.2578 157.125,456.6016 Q157.125,456.9453 156.7813,457.3516 Q156.2813,457.9297 155.4844,458.2578 Q154.4063,458.7109 153.1094,458.7109 Q151.5938,458.7109 150.3906,458.0859 Q149.4063,457.5859 148.7188,456.5234 Q148.0313,455.4453 148.0313,454.1641 L148.0313,453.0078 Q148.0313,451.6797 148.6406,450.5391 Q149.2656,449.3828 150.3594,448.7734 Q151.4531,448.1484 152.6875,448.1484 Q153.4219,448.1484 154.0625,448.3203 Q154.7188,448.4766 155.2656,448.8359 Z " fill="#000000"/><text fill="#000000" font-family="sans-serif" font-size="12" font-style="italic" lengthAdjust="spacing" textLength="55" x="164.5" y="449.0664">&#171;internal&#187;</text><text fill="#000000" font-family="sans-serif" font-size="14" lengthAdjust="spacing" textLength="23" x="180.5" y="466.2363">Fila</text><line style="stroke:#181818;stroke-width:0.5;" x1="138.5" x2="219.5" y1="474.3125" y2="474.3125"/><line style="stroke:#181818;stroke-width:0.5;" x1="138.5" x2="219.5" y1="482.3125" y2="482.3125"/></g><!--class ListaDeFilas--><g id="elem_ListaDeFilas"><rect codeLine="15" fill="#F1F1F1" height="58.7031" id="ListaDeFilas" rx="2.5" ry="2.5" style="stroke:#181818;stroke-width:0.5;" width="110" x="270" y="294.6094"/><ellipse cx="285" cy="315.9609" fill="#ADD1B2" rx="11" ry="11" style="stroke:#181818;stroke-width:1.0;"/><path d="M287.7656,311.8359 Q287.9219,311.6172 288.1094,311.5078 Q288.2969,311.3984 288.5156,311.3984 Q288.8906,311.3984 289.125,311.6641 Q289.3594,311.9141 289.3594,312.5234 L289.3594,313.9766 Q289.3594,314.5859 289.125,314.8516 Q288.8906,315.1172 288.5156,315.1172 Q288.1719,315.1172 287.9688,314.9141 Q287.7656,314.7266 287.6563,314.2109 Q287.6094,313.8516 287.4219,313.6641 Q287.0938,313.2891 286.4844,313.0703 Q285.875,312.8516 285.25,312.8516 Q284.4844,312.8516 283.8438,313.1797 Q283.2188,313.5078 282.7188,314.2578 Q282.2344,315.0078 282.2344,316.0391 L282.2344,317.1328 Q282.2344,318.3672 283.125,319.1953 Q284.0156,320.0078 285.6094,320.0078 Q286.5469,320.0078 287.2031,319.7578 Q287.5938,319.6016 288.0156,319.1641 Q288.2813,318.8984 288.4219,318.8203 Q288.5781,318.7422 288.7813,318.7422 Q289.1094,318.7422 289.3594,319.0078 Q289.625,319.2578 289.625,319.6016 Q289.625,319.9453 289.2813,320.3516 Q288.7813,320.9297 287.9844,321.2578 Q286.9063,321.7109 285.6094,321.7109 Q284.0938,321.7109 282.8906,321.0859 Q281.9063,320.5859 281.2188,319.5234 Q280.5313,318.4453 280.5313,317.1641 L280.5313,316.0078 Q280.5313,314.6797 281.1406,313.5391 Q281.7656,312.3828 282.8594,311.7734 Q283.9531,311.1484 285.1875,311.1484 Q285.9219,311.1484 286.5625,311.3203 Q287.2188,311.4766 287.7656,311.8359 Z " fill="#000000"/><text fill="#000000" font-family="sans-serif" font-size="12" font-style="italic" lengthAdjust="spacing" textLength="55" x="310.5" y="312.0664">&#171;internal&#187;</text><text fill="#000000" font-family="sans-serif" font-size="14" lengthAdjust="spacing" textLength="78" x="299" y="329.2363">ListaDeFilas</text><line style="stroke:#181818;stroke-width:0.5;" x1="271" x2="379" y1="337.3125" y2="337.3125"/><line style="stroke:#181818;stroke-width:0.5;" x1="271" x2="379" y1="345.3125" y2="345.3125"/></g><!--class Nodo--><g id="elem_Nodo"><rect codeLine="16" fill="#F1F1F1" height="58.7031" id="Nodo" rx="2.5" ry="2.5" style="stroke:#181818;stroke-width:0.5;" width="83" x="137.5" y="568.6094"/><ellipse cx="152.5" cy="589.9609" fill="#ADD1B2" rx="11" ry="11" style="stroke:#181818;stroke-width:1.0;"/><path d="M155.2656,585.8359 Q155.4219,585.6172 155.6094,585.5078 Q155.7969,585.3984 156.0156,585.3984 Q156.3906,585.3984 156.625,585.6641 Q156.8594,585.9141 156.8594,586.5234 L156.8594,587.9766 Q156.8594,588.5859 156.625,588.8516 Q156.3906,589.1172 156.0156,589.1172 Q155.6719,589.1172 155.4688,588.9141 Q155.2656,588.7266 155.1563,588.2109 Q155.1094,587.8516 154.9219,587.6641 Q154.5938,587.2891 153.9844,587.0703 Q153.375,586.8516 152.75,586.8516 Q151.9844,586.8516 151.3438,587.1797 Q150.7188,587.5078 150.2188,588.2578 Q149.7344,589.0078 149.7344,590.0391 L149.7344,591.1328 Q149.7344,592.3672 150.625,593.1953 Q151.5156,594.0078 153.1094,594.0078 Q154.0469,594.0078 154.7031,593.7578 Q155.0938,593.6016 155.5156,593.1641 Q155.7813,592.8984 155.9219,592.8203 Q156.0781,592.7422 156.2813,592.7422 Q156.6094,592.7422 156.8594,593.0078 Q157.125,593.2578 157.125,593.6016 Q157.125,593.9453 156.7813,594.3516 Q156.2813,594.9297 155.4844,595.2578 Q154.4063,595.7109 153.1094,595.7109 Q151.5938,595.7109 150.3906,595.0859 Q149.4063,594.5859 148.7188,593.5234 Q148.0313,592.4453 148.0313,591.1641 L148.0313,590.0078 Q148.0313,588.6797 148.6406,587.5391 Q149.2656,586.3828 150.3594,585.7734 Q151.4531,585.1484 152.6875,585.1484 Q153.4219,585.1484 154.0625,585.3203 Q154.7188,585.4766 155.2656,585.8359 Z " fill="#000000"/><text fill="#000000" font-family="sans-serif" font-size="12" font-style="italic" lengthAdjust="spacing" textLength="55" x="164.5" y="586.0664">&#171;internal&#187;</text><text fill="#000000" font-family="sans-serif" font-size="14" lengthAdjust="spacing" textLength="33" x="175.5" y="603.2363">Nodo</text><line style="stroke:#181818;stroke-width:0.5;" x1="138.5" x2="219.5" y1="611.3125" y2="611.3125"/><line style="stroke:#181818;stroke-width:0.5;" x1="138.5" x2="219.5" y1="619.3125" y2="619.3125"/></g><!--link Matriz to Fila--><g id="link_Matriz_Fila"><path codeLine="18" d="M183.01,216.9894 C176.83,241.7894 171.1,269.0794 168,294.6094 C164.84,320.6394 166.65,327.4194 168,353.6094 C169.36,379.9694 171.8605,403.8939 174.4805,425.2839 " fill="none" id="Matriz-to-Fila" style="stroke:#181818;stroke-width:1.0;stroke-dasharray:7.0,7.0;"/><polygon fill="#181818" points="175.21,431.2394,178.0861,421.8198,174.6021,426.2765,170.1455,422.7925,175.21,431.2394" style="stroke:#181818;stroke-width:1.0;"/><text fill="#000000" font-family="sans-serif" font-size="13" lengthAdjust="spacing" textLength="83" x="169" y="329.6045">devuelve copia</text></g><!--reverse link Matriz to ListaDeFilas--><g id="link_Matriz_ListaDeFilas"><path codeLine="19" d="M266.0969,226.953 C283.2069,254.893 294.83,273.8594 307.53,294.5794 " fill="none" id="Matriz-backto-ListaDeFilas" style="stroke:#181818;stroke-width:1.0;"/><polygon fill="#181818" points="259.83,216.7194,259.5522,223.9251,266.0969,226.953,266.3746,219.7472,259.83,216.7194" style="stroke:#181818;stroke-width:1.0;"/><text fill="#000000" font-family="sans-serif" font-size="13" lengthAdjust="spacing" textLength="49" x="288" y="261.1045">contiene</text></g><!--reverse link ListaDeFilas to Fila--><g id="link_ListaDeFilas_Fila"><path codeLine="20" d="M285.2288,361.8857 C260.4488,384.7957 234.68,408.6194 209.92,431.5194 " fill="none" id="ListaDeFilas-backto-Fila" style="stroke:#181818;stroke-width:1.0;"/><polygon fill="#181818" points="294.04,353.7394,286.919,354.8754,285.2288,361.8857,292.3498,360.7496,294.04,353.7394" style="stroke:#181818;stroke-width:1.0;"/><text fill="#000000" font-family="sans-serif" font-size="13" lengthAdjust="spacing" textLength="49" x="261" y="398.1045">gestiona</text></g><!--reverse link Fila to Nodo--><g id="link_Fila_Nodo"><path codeLine="21" d="M179,502.7394 C179,525.6494 179,545.6194 179,568.5194 " fill="none" id="Fila-backto-Nodo" style="stroke:#181818;stroke-width:1.0;"/><polygon fill="#181818" points="179,490.7394,175,496.7394,179,502.7394,183,496.7394,179,490.7394" style="stroke:#181818;stroke-width:1.0;"/><text fill="#000000" font-family="sans-serif" font-size="13" lengthAdjust="spacing" textLength="80" x="180" y="535.1045">lista enlazada</text></g><!--SRC=[ZP91IyGm48Nl-HLphBfTF9Ub88eWg1TXxzDaN0RJf2Hf3nN_c5V_c4cQHOe5xQMTzzxt6ZeD73J1aNr06Bu-EyqIeOOd38vduT_O3EYm1wdH-viGrMuCz22jUU6Pu5g8x1G0tWN4wwgCbHbxSlQUOwHX4tQm2BTMZxrPj8j23DQpP6kEg5bXnKQnf4Gku38NC7FGG6Uj9ZIbuJM6D-dVKKyX9gtx-pKxc59mk-Rqxvh4nblXk1ySz-og94-MrKzVwjWuVdeM7-UFdIOu7A97pg1ksw8_fZNUPT1l-SzMsRKkojxs-tPfRK3HD9AU2AGT6C-1oxfUrpVHDu79a5ZfALYQJkH3t2YAF2SZ7w01dNytCXfdLFWD]--></g></svg>