<svg xmlns="http://www.w3.org/2000/svg" xmlns:xlink="http://www.w3.org/1999/xlink" contentStyleType="text/css" data-diagram-type="CLASS" height="707px" preserveAspectRatio="none" style="width:507px;height:707px;background:#FFFFFF;" version="1.1" viewBox="0 0 507 707" width="507px" zoomAndPan="magnify"><title>Diagrama de Clases - Simulaci&#243;n RCCCF</title><defs/><g><g class="title" data-source-line="1"><text fill="#000000" font-family="sans-serif" font-size="14" font-weight="bold" lengthAdjust="spacing" textLength="314.1865" x="89.5628" y="22.9951">Diagrama de Clases - Simulaci&#243;n RCCCF</text></g><!--class Pedido--><g class="entity" data-entity="Pedido" data-source-line="6" data-uid="ent0002" id="entity_Pedido"><rect fill="#F1F1F1" height="210.9688" rx="2.5" ry="2.5" style="stroke:#181818;stroke-width:0.5;" width="235.6855" x="62.66" y="489.8569"/><ellipse cx="152.6107" cy="505.8569" fill="#ADD1B2" rx="11" ry="11" style="stroke:#181818;stroke-width:1;"/><path d="M155.5794,511.4975 Q155.0013,511.7944 154.3607,511.935 Q153.7201,512.0913 153.0169,512.0913 Q150.5169,512.0913 149.1888,510.4506 Q147.8763,508.7944 147.8763,505.6694 Q147.8763,502.5444 149.1888,500.8881 Q150.5169,499.2319 153.0169,499.2319 Q153.7201,499.2319 154.3607,499.3881 Q155.0169,499.5444 155.5794,499.8412 L155.5794,502.56 Q154.9544,501.9819 154.3607,501.7162 Q153.7669,501.435 153.1419,501.435 Q151.7982,501.435 151.1107,502.5131 Q150.4232,503.5756 150.4232,505.6694 Q150.4232,507.7631 151.1107,508.8412 Q151.7982,509.9037 153.1419,509.9037 Q153.7669,509.9037 154.3607,509.6381 Q154.9544,509.3569 155.5794,508.7787 L155.5794,511.4975 Z " fill="#000000"/><text fill="#000000" font-family="sans-serif" font-size="14" lengthAdjust="spacing" textLength="47.2842" x="173.1107" y="510.7036">Pedido</text><line style="stroke:#181818;stroke-width:0.5;" x1="63.66" x2="297.3455" y1="521.8569" y2="521.8569"/><text fill="#000000" font-family="sans-serif" font-size="14" lengthAdjust="spacing" textLength="78.1143" x="68.66" y="538.852">-String tipo</text><text fill="#000000" font-family="sans-serif" font-size="14" lengthAdjust="spacing" textLength="111.9111" x="68.66" y="555.1489">-int tiempoTotal</text><text fill="#000000" font-family="sans-serif" font-size="14" lengthAdjust="spacing" textLength="139.5146" x="68.66" y="571.4457">-int tiempoRestante</text><text fill="#000000" font-family="sans-serif" font-size="14" lengthAdjust="spacing" text-decoration="underline" textLength="192.0488" x="68.66" y="587.7426">+int comparacionesTotales</text><line style="stroke:#181818;stroke-width:0.5;" x1="63.66" x2="297.3455" y1="595.0444" y2="595.0444"/><text fill="#000000" font-family="sans-serif" font-size="14" lengthAdjust="spacing" textLength="223.6855" x="68.66" y="612.0395">+Pedido(String tipo, int tiempo)</text><text fill="#000000" font-family="sans-serif" font-size="14" lengthAdjust="spacing" textLength="204.3193" x="68.66" y="628.3364">+int compareTo(Pedido otro)</text><text fill="#000000" font-family="sans-serif" font-size="14" lengthAdjust="spacing" textLength="165.6484" x="68.66" y="644.6332">+void procesarMinuto()</text><text fill="#000000" font-family="sans-serif" font-size="14" lengthAdjust="spacing" textLength="188.4053" x="68.66" y="660.9301">+boolean estaTerminado()</text><text fill="#000000" font-family="sans-serif" font-size="14" lengthAdjust="spacing" textLength="124.7217" x="68.66" y="677.227">+String toString()</text><text fill="#000000" font-family="sans-serif" font-size="14" lengthAdjust="spacing" textLength="155.5654" x="68.66" y="693.5239">+int getTiempoTotal()</text></g><!--class Cocina--><g class="entity" data-entity="Cocina" data-source-line="21" data-uid="ent0003" id="entity_Cocina"><rect fill="#F1F1F1" height="210.9688" rx="2.5" ry="2.5" style="stroke:#181818;stroke-width:0.5;" width="271.6221" x="228.69" y="201.8869"/><ellipse cx="336.5611" cy="217.8869" fill="#ADD1B2" rx="11" ry="11" style="stroke:#181818;stroke-width:1;"/><path d="M339.5298,223.5275 Q338.9517,223.8244 338.3111,223.965 Q337.6705,224.1212 336.9673,224.1212 Q334.4673,224.1212 333.1392,222.4806 Q331.8267,220.8244 331.8267,217.6994 Q331.8267,214.5744 333.1392,212.9181 Q334.4673,211.2619 336.9673,211.2619 Q337.6705,211.2619 338.3111,211.4181 Q338.9673,211.5744 339.5298,211.8712 L339.5298,214.59 Q338.9048,214.0119 338.3111,213.7462 Q337.7173,213.465 337.0923,213.465 Q335.7486,213.465 335.0611,214.5431 Q334.3736,215.6056 334.3736,217.6994 Q334.3736,219.7931 335.0611,220.8712 Q335.7486,221.9337 337.0923,221.9337 Q337.7173,221.9337 338.3111,221.6681 Q338.9048,221.3869 339.5298,220.8087 L339.5298,223.5275 Z " fill="#000000"/><text fill="#000000" font-family="sans-serif" font-size="14" lengthAdjust="spacing" textLength="47.3799" x="357.0611" y="222.7336">Cocina</text><line style="stroke:#181818;stroke-width:0.5;" x1="229.69" x2="499.3121" y1="233.8869" y2="233.8869"/><text fill="#000000" font-family="sans-serif" font-size="14" lengthAdjust="spacing" textLength="259.6221" x="234.69" y="250.882">-PriorityQueue&lt;Pedido&gt; colaPedidos</text><text fill="#000000" font-family="sans-serif" font-size="14" lengthAdjust="spacing" textLength="177.167" x="234.69" y="267.1789">-Pedido pedidoEnProceso</text><text fill="#000000" font-family="sans-serif" font-size="14" lengthAdjust="spacing" textLength="152.8516" x="234.69" y="283.4757">-int pedidosAtendidos</text><text fill="#000000" font-family="sans-serif" font-size="14" lengthAdjust="spacing" textLength="203.3896" x="234.69" y="299.7726">-int tiempoEsperaAcumulado</text><line style="stroke:#181818;stroke-width:0.5;" x1="229.69" x2="499.3121" y1="307.0744" y2="307.0744"/><text fill="#000000" font-family="sans-serif" font-size="14" lengthAdjust="spacing" textLength="70.0342" x="234.69" y="324.0695">+Cocina()</text><text fill="#000000" font-family="sans-serif" font-size="14" lengthAdjust="spacing" textLength="209.125" x="234.69" y="340.3664">+void recibirPedido(Pedido p)</text><text fill="#000000" font-family="sans-serif" font-size="14" lengthAdjust="spacing" textLength="112.2461" x="234.69" y="356.6632">+void trabajar()</text><text fill="#000000" font-family="sans-serif" font-size="14" lengthAdjust="spacing" textLength="197.1758" x="234.69" y="372.9601">-void finalizarPedidoActual()</text><text fill="#000000" font-family="sans-serif" font-size="14" lengthAdjust="spacing" textLength="163.7344" x="234.69" y="389.257">+void imprimirEstado()</text><text fill="#000000" font-family="sans-serif" font-size="14" lengthAdjust="spacing" textLength="177.4404" x="234.69" y="405.5539">+void mostrarResumen()</text></g><!--class Simulacion--><g class="entity" data-entity="Simulacion" data-source-line="36" data-uid="ent0004" id="entity_Simulacion"><rect fill="#F1F1F1" height="80.5938" rx="2.5" ry="2.5" style="stroke:#181818;stroke-width:0.5;" width="244.9961" x="7" y="44.2969"/><ellipse cx="86.8574" cy="60.2969" fill="#ADD1B2" rx="11" ry="11" style="stroke:#181818;stroke-width:1;"/><path d="M89.8262,65.9375 Q89.248,66.2344 88.6074,66.375 Q87.9668,66.5313 87.2637,66.5313 Q84.7637,66.5313 83.4355,64.8906 Q82.123,63.2344 82.123,60.1094 Q82.123,56.9844 83.4355,55.3281 Q84.7637,53.6719 87.2637,53.6719 Q87.9668,53.6719 88.6074,53.8281 Q89.2637,53.9844 89.8262,54.2813 L89.8262,57 Q89.2012,56.4219 88.6074,56.1563 Q88.0137,55.875 87.3887,55.875 Q86.0449,55.875 85.3574,56.9531 Q84.6699,58.0156 84.6699,60.1094 Q84.6699,62.2031 85.3574,63.2813 Q86.0449,64.3438 87.3887,64.3438 Q88.0137,64.3438 88.6074,64.0781 Q89.2012,63.7969 89.8262,63.2188 L89.8262,65.9375 Z " fill="#000000"/><text fill="#000000" font-family="sans-serif" font-size="14" lengthAdjust="spacing" textLength="76.7813" x="107.3574" y="65.1436">Simulacion</text><line style="stroke:#181818;stroke-width:0.5;" x1="8" x2="250.9961" y1="76.2969" y2="76.2969"/><line style="stroke:#181818;stroke-width:0.5;" x1="8" x2="250.9961" y1="84.2969" y2="84.2969"/><text fill="#000000" font-family="sans-serif" font-size="14" lengthAdjust="spacing" text-decoration="underline" textLength="179.3818" x="13" y="101.292">+void main(String[] args)</text><text fill="#000000" font-family="sans-serif" font-size="14" lengthAdjust="spacing" text-decoration="underline" textLength="232.9961" x="13" y="117.5889">-Pedido generarPedidoAleatorio()</text></g><!--reverse link Cocina to Pedido--><g class="link" data-entity-1="Cocina" data-entity-2="Pedido" data-source-line="43" data-uid="lnk5" id="link_Cocina_Pedido"><path codeLine="43" d="M290.5356,423.3276 C274.5356,448.1876 263.96,464.6269 247.96,489.4969" fill="none" id="Cocina-backto-Pedido" style="stroke:#181818;stroke-width:1;"/><polygon fill="none" points="297.03,413.2369,290.4192,416.1174,290.5356,423.3276,297.1464,420.447,297.03,413.2369" style="stroke:#181818;stroke-width:1;"/><text fill="#000000" font-family="sans-serif" font-size="13" lengthAdjust="spacing" textLength="55.8911" x="273.5" y="455.9238">gestiona</text></g><!--link Simulacion to Cocina--><g class="link" data-entity-1="Simulacion" data-entity-2="Cocina" data-source-line="44" data-uid="lnk6" id="link_Simulacion_Cocina"><path codeLine="44" d="M171.78,125.3169 C194.64,146.7969 219.6872,170.3186 248.6172,197.4986" fill="none" id="Simulacion-to-Cocina" style="stroke:#181818;stroke-width:1;stroke-dasharray:7,7;"/><polygon fill="#181818" points="252.99,201.6069,249.1696,192.5292,249.346,198.1833,243.6919,198.3596,252.99,201.6069" style="stroke:#181818;stroke-width:1;"/><text fill="#000000" font-family="sans-serif" font-size="13" lengthAdjust="spacing" textLength="127.9243" x="219.5" y="167.9538">instancia y controla</text></g><!--link Simulacion to Pedido--><g class="link" data-entity-1="Simulacion" data-entity-2="Pedido" data-source-line="45" data-uid="lnk7" id="link_Simulacion_Pedido"><path codeLine="45" d="M124.8,125.3569 C122.39,147.7969 119.7,176.3669 118.5,201.8869 C114.08,295.5469 103.13,320.3569 118.5,412.8569 C122.73,438.3169 128.2005,459.2888 136.3905,484.1188" fill="none" id="Simulacion-to-Pedido" style="stroke:#181818;stroke-width:1;stroke-dasharray:7,7;"/><polygon fill="#181818" points="138.27,489.8169,139.2495,480.0168,136.7038,485.0685,131.6521,482.5228,138.27,489.8169" style="stroke:#181818;stroke-width:1;"/><text fill="#000000" font-family="sans-serif" font-size="13" lengthAdjust="spacing" textLength="91.4126" x="119.5" y="311.9438">crea (Factory)</text></g><!--SRC=[PL9DQzn03BtxLuWzERGRUYubiBWRwA6mJVPMIj2ELQFM7fcPSM4Jyglw4_h7gfqFsqjyyOpqzFJcIO53J_2PiNCu8BG4JO-UF6pXaOUfHyF__bfuQ9hclghyRxOZAXACelmk1CUdAT0N8_QHdma-L5KLKt2Wbbk1bmhqKp95sWu2Zv8ZR8DUQHZbA07xDz47yW5je9Xu1ozw2snU8yB8S95XM2pvM4u-ufwUCZorhrTjtw-uRp9guQAZr5co13S3_WYtC3envD5zPJi5gKlk9D8JMhZeF98Rs6AxP4jdIOTwtRAZS5nUhgdNsRP6ZFBCjXqSY-Dm_ZRHH9-Im3kLt6Cw-u9BqiVuszj3LBnsEcLqOcJNTOibUp-ImvsPBaDlvThDfAg-SiMHuHExR7GHS0K93a_u2rqktAReJwNg-HbpwSw4APgmAkHXT3omswkrAqzZRX2ll4xNOnh8NfbNDbPiDd1-mBmzYGBPvjNu_WFGTRu8d77vFHrPTQKerN477OVafdbMijr2mN-4JQVxe0fmKwtatDxUbT4gXErbjGqZd7MMLlUjVmjV68qZXFeUZJO_tsp-0m00]--></g></svg>