<svg xmlns="http://www.w3.org/2000/svg" xmlns:xlink="http://www.w3.org/1999/xlink" contentStyleType="text/css" data-diagram-type="CLASS" height="1073px" preserveAspectRatio="none" style="width:1014px;height:1073px;background:#FFFFFF;" version="1.1" viewBox="0 0 1014 1073" width="1014px" zoomAndPan="magnify"><defs/><g><!--cluster Mensajes--><g class="cluster" data-entity="Mensajes" data-source-line="5" data-uid="ent0002" id="cluster_Mensajes"><path d="M435.5,6 L510.3008,6 A3.75,3.75 0 0 1 512.8008,8.5 L519.8008,28.2969 L1004.5,28.2969 A2.5,2.5 0 0 1 1007,30.7969 L1007,340.88 A2.5,2.5 0 0 1 1004.5,343.38 L435.5,343.38 A2.5,2.5 0 0 1 433,340.88 L433,8.5 A2.5,2.5 0 0 1 435.5,6" fill="none" style="stroke:#000000;stroke-width:1.5;"/><line style="stroke:#000000;stroke-width:1.5;" x1="433" x2="519.8008" y1="28.2969" y2="28.2969"/><text fill="#000000" font-family="sans-serif" font-size="14" font-weight="bold" lengthAdjust="spacing" textLength="73.8008" x="437" y="20.9951">Mensajes</text></g><!--cluster Organizacion--><g class="cluster" data-entity="Organizacion" data-source-line="27" data-uid="ent0006" id="cluster_Organizacion"><path d="M76.5,367.38 L180.8184,367.38 A3.75,3.75 0 0 1 183.3184,369.88 L190.3184,389.6769 L734.5,389.6769 A2.5,2.5 0 0 1 737,392.1769 L737,561.66 A2.5,2.5 0 0 1 734.5,564.16 L76.5,564.16 A2.5,2.5 0 0 1 74,561.66 L74,369.88 A2.5,2.5 0 0 1 76.5,367.38" fill="none" style="stroke:#000000;stroke-width:1.5;"/><line style="stroke:#000000;stroke-width:1.5;" x1="74" x2="190.3184" y1="389.6769" y2="389.6769"/><text fill="#000000" font-family="sans-serif" font-size="14" font-weight="bold" lengthAdjust="spacing" textLength="103.3184" x="78" y="382.3751">Organizacion</text></g><!--cluster Distribucion--><g class="cluster" data-entity="Distribucion" data-source-line="44" data-uid="ent0009" id="cluster_Distribucion"><path d="M8.5,588.16 L105.3193,588.16 A3.75,3.75 0 0 1 107.8193,590.66 L114.8193,610.4569 L461.5,610.4569 A2.5,2.5 0 0 1 464,612.9569 L464,1063.63 A2.5,2.5 0 0 1 461.5,1066.13 L8.5,1066.13 A2.5,2.5 0 0 1 6,1063.63 L6,590.66 A2.5,2.5 0 0 1 8.5,588.16" fill="none" style="stroke:#000000;stroke-width:1.5;"/><line style="stroke:#000000;stroke-width:1.5;" x1="6" x2="114.8193" y1="610.4569" y2="610.4569"/><text fill="#000000" font-family="sans-serif" font-size="14" font-weight="bold" lengthAdjust="spacing" textLength="95.8193" x="10" y="603.1551">Distribucion</text></g><!--class Mensaje--><g class="entity" data-entity="Mensaje" data-source-line="6" data-uid="ent0003" id="entity_Mensaje"><rect fill="#F1F1F1" height="113.1875" rx="2.5" ry="2.5" style="stroke:#181818;stroke-width:0.5;" width="184.0811" x="619.96" y="41"/><ellipse cx="678.7798" cy="57" fill="#ADD1B2" rx="11" ry="11" style="stroke:#181818;stroke-width:1;"/><path d="M681.7486,62.6406 Q681.1704,62.9375 680.5298,63.0781 Q679.8892,63.2344 679.1861,63.2344 Q676.6861,63.2344 675.3579,61.5938 Q674.0454,59.9375 674.0454,56.8125 Q674.0454,53.6875 675.3579,52.0313 Q676.6861,50.375 679.1861,50.375 Q679.8892,50.375 680.5298,50.5313 Q681.1861,50.6875 681.7486,50.9844 L681.7486,53.7031 Q681.1236,53.125 680.5298,52.8594 Q679.9361,52.5781 679.3111,52.5781 Q677.9673,52.5781 677.2798,53.6563 Q676.5923,54.7188 676.5923,56.8125 Q676.5923,58.9063 677.2798,59.9844 Q677.9673,61.0469 679.3111,61.0469 Q679.9361,61.0469 680.5298,60.7813 Q681.1236,60.5 681.7486,59.9219 L681.7486,62.6406 Z " fill="#000000"/><text fill="#000000" font-family="sans-serif" font-size="14" lengthAdjust="spacing" textLength="57.9414" x="699.2798" y="61.8467">Mensaje</text><line style="stroke:#181818;stroke-width:0.5;" x1="620.96" x2="803.0411" y1="73" y2="73"/><text fill="#000000" font-family="sans-serif" font-size="14" lengthAdjust="spacing" textLength="82.0381" x="625.96" y="89.9951">+ID : String</text><text fill="#000000" font-family="sans-serif" font-size="14" lengthAdjust="spacing" textLength="138.6602" x="625.96" y="106.292">+Contenido : String</text><text fill="#000000" font-family="sans-serif" font-size="14" lengthAdjust="spacing" textLength="150.1719" x="625.96" y="122.5889">+CategoriaID : String</text><text fill="#000000" font-family="sans-serif" font-size="14" lengthAdjust="spacing" textLength="172.0811" x="625.96" y="138.8857">+Timestamp : DateTime</text><line style="stroke:#181818;stroke-width:0.5;" x1="620.96" x2="803.0411" y1="146.1875" y2="146.1875"/></g><!--class ColaMensajesPendientes--><g class="entity" data-entity="ColaMensajesPendientes" data-source-line="13" data-uid="ent0004" id="entity_ColaMensajesPendientes"><rect fill="#F1F1F1" height="113.1875" rx="2.5" ry="2.5" style="stroke:#181818;stroke-width:0.5;" width="237.1074" x="449.45" y="214.19"/><ellipse cx="478.6136" cy="230.19" fill="#ADD1B2" rx="11" ry="11" style="stroke:#181818;stroke-width:1;"/><path d="M481.5823,235.8306 Q481.0042,236.1275 480.3636,236.2681 Q479.7229,236.4244 479.0198,236.4244 Q476.5198,236.4244 475.1917,234.7838 Q473.8792,233.1275 473.8792,230.0025 Q473.8792,226.8775 475.1917,225.2213 Q476.5198,223.565 479.0198,223.565 Q479.7229,223.565 480.3636,223.7213 Q481.0198,223.8775 481.5823,224.1744 L481.5823,226.8931 Q480.9573,226.315 480.3636,226.0494 Q479.7698,225.7681 479.1448,225.7681 Q477.8011,225.7681 477.1136,226.8463 Q476.4261,227.9088 476.4261,230.0025 Q476.4261,232.0963 477.1136,233.1744 Q477.8011,234.2369 479.1448,234.2369 Q479.7698,234.2369 480.3636,233.9713 Q480.9573,233.69 481.5823,233.1119 L481.5823,235.8306 Z " fill="#000000"/><text fill="#000000" font-family="sans-serif" font-size="14" lengthAdjust="spacing" textLength="173.6328" x="495.761" y="235.0367">ColaMensajesPendientes</text><line style="stroke:#181818;stroke-width:0.5;" x1="450.45" x2="685.5574" y1="246.19" y2="246.19"/><text fill="#000000" font-family="sans-serif" font-size="14" lengthAdjust="spacing" textLength="225.1074" x="455.45" y="263.1851">-colaInterna : Queue&lt;Mensaje&gt;</text><line style="stroke:#181818;stroke-width:0.5;" x1="450.45" x2="685.5574" y1="270.4869" y2="270.4869"/><text fill="#000000" font-family="sans-serif" font-size="14" lengthAdjust="spacing" textLength="160.0566" x="455.45" y="287.482">+Encolar(m : Mensaje)</text><text fill="#000000" font-family="sans-serif" font-size="14" lengthAdjust="spacing" textLength="172.874" x="455.45" y="303.7789">+Desencolar() : Mensaje</text><text fill="#000000" font-family="sans-serif" font-size="14" lengthAdjust="spacing" textLength="147.4238" x="455.45" y="320.0757">+EsVacia() : Boolean</text></g><!--class HistorialMensajes--><g class="entity" data-entity="HistorialMensajes" data-source-line="20" data-uid="ent0005" id="entity_HistorialMensajes"><rect fill="#F1F1F1" height="96.8906" rx="2.5" ry="2.5" style="stroke:#181818;stroke-width:0.5;" width="269.3115" x="721.34" y="222.34"/><ellipse cx="790.1881" cy="238.34" fill="#ADD1B2" rx="11" ry="11" style="stroke:#181818;stroke-width:1;"/><path d="M793.1569,243.9806 Q792.5788,244.2775 791.9381,244.4181 Q791.2975,244.5744 790.5944,244.5744 Q788.0944,244.5744 786.7663,242.9338 Q785.4538,241.2775 785.4538,238.1525 Q785.4538,235.0275 786.7663,233.3713 Q788.0944,231.715 790.5944,231.715 Q791.2975,231.715 791.9381,231.8713 Q792.5944,232.0275 793.1569,232.3244 L793.1569,235.0431 Q792.5319,234.465 791.9381,234.1994 Q791.3444,233.9181 790.7194,233.9181 Q789.3756,233.9181 788.6881,234.9963 Q788.0006,236.0588 788.0006,238.1525 Q788.0006,240.2463 788.6881,241.3244 Q789.3756,242.3869 790.7194,242.3869 Q791.3444,242.3869 791.9381,242.1213 Q792.5319,241.84 793.1569,241.2619 L793.1569,243.9806 Z " fill="#000000"/><text fill="#000000" font-family="sans-serif" font-size="14" lengthAdjust="spacing" textLength="123.1152" x="810.6881" y="243.1867">HistorialMensajes</text><line style="stroke:#181818;stroke-width:0.5;" x1="722.34" x2="989.6515" y1="254.34" y2="254.34"/><text fill="#000000" font-family="sans-serif" font-size="14" lengthAdjust="spacing" textLength="145.8857" x="727.34" y="271.3351">-log : List&lt;Mensaje&gt;</text><line style="stroke:#181818;stroke-width:0.5;" x1="722.34" x2="989.6515" y1="278.6369" y2="278.6369"/><text fill="#000000" font-family="sans-serif" font-size="14" lengthAdjust="spacing" textLength="166.2637" x="727.34" y="295.632">+Archivar(m : Mensaje)</text><text fill="#000000" font-family="sans-serif" font-size="14" lengthAdjust="spacing" textLength="257.3115" x="727.34" y="311.9289">+ObtenerPorID(id : String) : Mensaje</text></g><!--class NodoCategoria--><g class="entity" data-entity="NodoCategoria" data-source-line="28" data-uid="ent0007" id="entity_NodoCategoria"><rect fill="#F1F1F1" height="145.7813" rx="2.5" ry="2.5" style="stroke:#181818;stroke-width:0.5;" width="289.9014" x="90.05" y="402.38"/><ellipse cx="178.4387" cy="418.38" fill="#ADD1B2" rx="11" ry="11" style="stroke:#181818;stroke-width:1;"/><path d="M181.4074,424.0206 Q180.8293,424.3175 180.1887,424.4581 Q179.548,424.6144 178.8449,424.6144 Q176.3449,424.6144 175.0168,422.9738 Q173.7043,421.3175 173.7043,418.1925 Q173.7043,415.0675 175.0168,413.4113 Q176.3449,411.755 178.8449,411.755 Q179.548,411.755 180.1887,411.9113 Q180.8449,412.0675 181.4074,412.3644 L181.4074,415.0831 Q180.7824,414.505 180.1887,414.2394 Q179.5949,413.9581 178.9699,413.9581 Q177.6262,413.9581 176.9387,415.0363 Q176.2512,416.0988 176.2512,418.1925 Q176.2512,420.2863 176.9387,421.3644 Q177.6262,422.4269 178.9699,422.4269 Q179.5949,422.4269 180.1887,422.1613 Q180.7824,421.88 181.4074,421.3019 L181.4074,424.0206 Z " fill="#000000"/><text fill="#000000" font-family="sans-serif" font-size="14" lengthAdjust="spacing" textLength="104.624" x="198.9387" y="423.2267">NodoCategoria</text><line style="stroke:#181818;stroke-width:0.5;" x1="91.05" x2="378.9514" y1="434.38" y2="434.38"/><text fill="#000000" font-family="sans-serif" font-size="14" lengthAdjust="spacing" textLength="150.1719" x="96.05" y="451.3751">+CategoriaID : String</text><text fill="#000000" font-family="sans-serif" font-size="14" lengthAdjust="spacing" textLength="123.0605" x="96.05" y="467.672">+Nombre : String</text><text fill="#000000" font-family="sans-serif" font-size="14" lengthAdjust="spacing" textLength="277.9014" x="96.05" y="483.9689">+Subcategorias : List&lt;NodoCategoria&gt;</text><text fill="#000000" font-family="sans-serif" font-size="14" lengthAdjust="spacing" textLength="240.4063" x="96.05" y="500.2657">+BufferTemporal : List&lt;Mensaje&gt;</text><line style="stroke:#181818;stroke-width:0.5;" x1="91.05" x2="378.9514" y1="507.5675" y2="507.5675"/><text fill="#000000" font-family="sans-serif" font-size="14" lengthAdjust="spacing" textLength="221.8467" x="96.05" y="524.5626">+AgregarMensaje(m : Mensaje)</text><text fill="#000000" font-family="sans-serif" font-size="14" lengthAdjust="spacing" textLength="228.9287" x="96.05" y="540.8595">+VaciarBuffer() : List&lt;Mensaje&gt;</text></g><!--class ArbolCategorias--><g class="entity" data-entity="ArbolCategorias" data-source-line="37" data-uid="ent0008" id="entity_ArbolCategorias"><rect fill="#F1F1F1" height="96.8906" rx="2.5" ry="2.5" style="stroke:#181818;stroke-width:0.5;" width="305.3643" x="415.32" y="426.83"/><ellipse cx="507.7009" cy="442.83" fill="#ADD1B2" rx="11" ry="11" style="stroke:#181818;stroke-width:1;"/><path d="M510.6696,448.4706 Q510.0915,448.7675 509.4509,448.9081 Q508.8102,449.0644 508.1071,449.0644 Q505.6071,449.0644 504.279,447.4238 Q502.9665,445.7675 502.9665,442.6425 Q502.9665,439.5175 504.279,437.8613 Q505.6071,436.205 508.1071,436.205 Q508.8102,436.205 509.4509,436.3613 Q510.1071,436.5175 510.6696,436.8144 L510.6696,439.5331 Q510.0446,438.955 509.4509,438.6894 Q508.8571,438.4081 508.2321,438.4081 Q506.8884,438.4081 506.2009,439.4863 Q505.5134,440.5488 505.5134,442.6425 Q505.5134,444.7363 506.2009,445.8144 Q506.8884,446.8769 508.2321,446.8769 Q508.8571,446.8769 509.4509,446.6113 Q510.0446,446.33 510.6696,445.7519 L510.6696,448.4706 Z " fill="#000000"/><text fill="#000000" font-family="sans-serif" font-size="14" lengthAdjust="spacing" textLength="112.1025" x="528.2009" y="447.6767">ArbolCategorias</text><line style="stroke:#181818;stroke-width:0.5;" x1="416.32" x2="719.6843" y1="458.83" y2="458.83"/><text fill="#000000" font-family="sans-serif" font-size="14" lengthAdjust="spacing" textLength="159.5166" x="421.32" y="475.8251">+Raiz : NodoCategoria</text><line style="stroke:#181818;stroke-width:0.5;" x1="416.32" x2="719.6843" y1="483.1269" y2="483.1269"/><text fill="#000000" font-family="sans-serif" font-size="14" lengthAdjust="spacing" textLength="293.3643" x="421.32" y="500.122">+BuscarNodo(id : String) : NodoCategoria</text><text fill="#000000" font-family="sans-serif" font-size="14" lengthAdjust="spacing" textLength="265.248" x="421.32" y="516.4189">+Insertar(id : String, padreID : String)</text></g><!--class Cliente--><g class="entity" data-entity="Cliente" data-source-line="45" data-uid="ent0010" id="entity_Cliente"><rect fill="#F1F1F1" height="96.8906" rx="2.5" ry="2.5" style="stroke:#181818;stroke-width:0.5;" width="143.1816" x="163.41" y="953.24"/><ellipse cx="206.3271" cy="969.24" fill="#ADD1B2" rx="11" ry="11" style="stroke:#181818;stroke-width:1;"/><path d="M209.2959,974.8806 Q208.7178,975.1775 208.0771,975.3181 Q207.4365,975.4744 206.7334,975.4744 Q204.2334,975.4744 202.9053,973.8338 Q201.5928,972.1775 201.5928,969.0525 Q201.5928,965.9275 202.9053,964.2713 Q204.2334,962.615 206.7334,962.615 Q207.4365,962.615 208.0771,962.7713 Q208.7334,962.9275 209.2959,963.2244 L209.2959,965.9431 Q208.6709,965.365 208.0771,965.0994 Q207.4834,964.8181 206.8584,964.8181 Q205.5146,964.8181 204.8271,965.8963 Q204.1396,966.9588 204.1396,969.0525 Q204.1396,971.1463 204.8271,972.2244 Q205.5146,973.2869 206.8584,973.2869 Q207.4834,973.2869 208.0771,973.0213 Q208.6709,972.74 209.2959,972.1619 L209.2959,974.8806 Z " fill="#000000"/><text fill="#000000" font-family="sans-serif" font-size="14" lengthAdjust="spacing" textLength="49.1436" x="226.5309" y="974.0867">Cliente</text><line style="stroke:#181818;stroke-width:0.5;" x1="164.41" x2="305.5916" y1="985.24" y2="985.24"/><text fill="#000000" font-family="sans-serif" font-size="14" lengthAdjust="spacing" textLength="131.1816" x="169.41" y="1002.2351">+ClienteID : String</text><text fill="#000000" font-family="sans-serif" font-size="14" lengthAdjust="spacing" textLength="127.7295" x="169.41" y="1018.532">+Telefono : String</text><text fill="#000000" font-family="sans-serif" font-size="14" lengthAdjust="spacing" textLength="105.9707" x="169.41" y="1034.8289">+Email : String</text><line style="stroke:#181818;stroke-width:0.5;" x1="164.41" x2="305.5916" y1="1042.1306" y2="1042.1306"/></g><!--class GestorSuscripciones--><g class="entity" data-entity="GestorSuscripciones" data-source-line="51" data-uid="ent0011" id="entity_GestorSuscripciones"><rect fill="#F1F1F1" height="96.8906" rx="2.5" ry="2.5" style="stroke:#181818;stroke-width:0.5;" width="425.9639" x="22.02" y="796.35"/><ellipse cx="159.3608" cy="812.35" fill="#ADD1B2" rx="11" ry="11" style="stroke:#181818;stroke-width:1;"/><path d="M162.3296,817.9906 Q161.7514,818.2875 161.1108,818.4281 Q160.4702,818.5844 159.7671,818.5844 Q157.2671,818.5844 155.9389,816.9438 Q154.6264,815.2875 154.6264,812.1625 Q154.6264,809.0375 155.9389,807.3813 Q157.2671,805.725 159.7671,805.725 Q160.4702,805.725 161.1108,805.8813 Q161.7671,806.0375 162.3296,806.3344 L162.3296,809.0531 Q161.7046,808.475 161.1108,808.2094 Q160.5171,807.9281 159.8921,807.9281 Q158.5483,807.9281 157.8608,809.0063 Q157.1733,810.0688 157.1733,812.1625 Q157.1733,814.2563 157.8608,815.3344 Q158.5483,816.3969 159.8921,816.3969 Q160.5171,816.3969 161.1108,816.1313 Q161.7046,815.85 162.3296,815.2719 L162.3296,817.9906 Z " fill="#000000"/><text fill="#000000" font-family="sans-serif" font-size="14" lengthAdjust="spacing" textLength="142.7822" x="179.8608" y="817.1967">GestorSuscripciones</text><line style="stroke:#181818;stroke-width:0.5;" x1="23.02" x2="446.9839" y1="828.35" y2="828.35"/><text fill="#000000" font-family="sans-serif" font-size="14" lengthAdjust="spacing" textLength="355.332" x="28.02" y="845.3451">-mapaSuscripciones : Map&lt;String, List&lt;Cliente&gt;&gt;</text><line style="stroke:#181818;stroke-width:0.5;" x1="23.02" x2="446.9839" y1="852.6469" y2="852.6469"/><text fill="#000000" font-family="sans-serif" font-size="14" lengthAdjust="spacing" textLength="338.6729" x="28.02" y="869.642">+Suscribir(cliente : Cliente, categoriaID : String)</text><text fill="#000000" font-family="sans-serif" font-size="14" lengthAdjust="spacing" textLength="413.9639" x="28.02" y="885.9389">+ObtenerSuscriptores(categoriaID : String) : List&lt;Cliente&gt;</text></g><!--class ResumenMensajes--><g class="entity" data-entity="ResumenMensajes" data-source-line="57" data-uid="ent0012" id="entity_ResumenMensajes"><rect fill="#F1F1F1" height="113.1875" rx="2.5" ry="2.5" style="stroke:#181818;stroke-width:0.5;" width="255.4961" x="107.25" y="623.16"/><ellipse cx="165.3145" cy="639.16" fill="#ADD1B2" rx="11" ry="11" style="stroke:#181818;stroke-width:1;"/><path d="M168.2832,644.8006 Q167.7051,645.0975 167.0645,645.2381 Q166.4238,645.3944 165.7207,645.3944 Q163.2207,645.3944 161.8926,643.7538 Q160.5801,642.0975 160.5801,638.9725 Q160.5801,635.8475 161.8926,634.1913 Q163.2207,632.535 165.7207,632.535 Q166.4238,632.535 167.0645,632.6913 Q167.7207,632.8475 168.2832,633.1444 L168.2832,635.8631 Q167.6582,635.285 167.0645,635.0194 Q166.4707,634.7381 165.8457,634.7381 Q164.502,634.7381 163.8145,635.8163 Q163.127,636.8788 163.127,638.9725 Q163.127,641.0663 163.8145,642.1444 Q164.502,643.2069 165.8457,643.2069 Q166.4707,643.2069 167.0645,642.9413 Q167.6582,642.66 168.2832,642.0819 L168.2832,644.8006 Z " fill="#000000"/><text fill="#000000" font-family="sans-serif" font-size="14" lengthAdjust="spacing" textLength="130.8672" x="185.8145" y="644.0067">ResumenMensajes</text><line style="stroke:#181818;stroke-width:0.5;" x1="108.25" x2="361.7461" y1="655.16" y2="655.16"/><text fill="#000000" font-family="sans-serif" font-size="14" lengthAdjust="spacing" textLength="150.1719" x="113.25" y="672.1551">+CategoriaID : String</text><text fill="#000000" font-family="sans-serif" font-size="14" lengthAdjust="spacing" textLength="172.2656" x="113.25" y="688.452">+TextoResumen : String</text><text fill="#000000" font-family="sans-serif" font-size="14" lengthAdjust="spacing" textLength="243.4961" x="113.25" y="704.7489">+MensajesOrigen : List&lt;Mensaje&gt;</text><text fill="#000000" font-family="sans-serif" font-size="14" lengthAdjust="spacing" textLength="179.9561" x="113.25" y="721.0457">+GeneradoEn : DateTime</text><line style="stroke:#181818;stroke-width:0.5;" x1="108.25" x2="361.7461" y1="728.3475" y2="728.3475"/></g><!--link Mensaje to ColaMensajesPendientes--><g class="link" data-entity-1="Mensaje" data-entity-2="ColaMensajesPendientes" data-link-type="dependency" data-source-line="66" data-uid="lnk13" id="link_Mensaje_ColaMensajesPendientes"><path codeLine="66" d="M653.26,154.31 C653.26,173.44 653.26,188.8 653.26,207.95" fill="none" id="Mensaje-to-ColaMensajesPendientes" style="stroke:#181818;stroke-width:1;stroke-dasharray:7,7;"/><polygon fill="#181818" points="653.26,213.95,657.26,204.95,653.26,208.95,649.26,204.95,653.26,213.95" style="stroke:#181818;stroke-width:1;"/><text fill="#000000" font-family="sans-serif" font-size="13" lengthAdjust="spacing" textLength="51.397" x="601.26" y="180.1969">1. Entra</text></g><!--link ColaMensajesPendientes to ArbolCategorias--><g class="link" data-entity-1="ColaMensajesPendientes" data-entity-2="ArbolCategorias" data-link-type="dependency" data-source-line="67" data-uid="lnk14" id="link_ColaMensajesPendientes_ArbolCategorias"><path codeLine="67" d="M568,327.75 C568,358.83 568,390.9 568,420.59" fill="none" id="ColaMensajesPendientes-to-ArbolCategorias" style="stroke:#181818;stroke-width:1;"/><polygon fill="#181818" points="568,426.59,572,417.59,568,421.59,564,417.59,568,426.59" style="stroke:#181818;stroke-width:1;"/><text fill="#000000" font-family="sans-serif" font-size="13" lengthAdjust="spacing" textLength="109.7002" x="569" y="373.2369">2. Se clasifica en</text></g><!--link NodoCategoria to ResumenMensajes--><g class="link" data-entity-1="NodoCategoria" data-entity-2="ResumenMensajes" data-link-type="dependency" data-source-line="68" data-uid="lnk15" id="link_NodoCategoria_ResumenMensajes"><path codeLine="68" d="M235,548.52 C235,572.93 235,593.74 235,616.73" fill="none" id="NodoCategoria-to-ResumenMensajes" style="stroke:#181818;stroke-width:1;stroke-dasharray:7,7;"/><polygon fill="#181818" points="235,622.73,239,613.73,235,617.73,231,613.73,235,622.73" style="stroke:#181818;stroke-width:1;"/><text fill="#000000" font-family="sans-serif" font-size="13" lengthAdjust="spacing" textLength="64.1558" x="170" y="581.6869">3. Genera</text></g><!--link ResumenMensajes to GestorSuscripciones--><g class="link" data-entity-1="ResumenMensajes" data-entity-2="GestorSuscripciones" data-link-type="dependency" data-source-line="69" data-uid="lnk16" id="link_ResumenMensajes_GestorSuscripciones"><path codeLine="69" d="M235,736.55 C235,755.85 235,771.24 235,789.87" fill="none" id="ResumenMensajes-to-GestorSuscripciones" style="stroke:#181818;stroke-width:1;"/><polygon fill="#181818" points="235,795.87,239,786.87,235,790.87,231,786.87,235,795.87" style="stroke:#181818;stroke-width:1;"/><text fill="#000000" font-family="sans-serif" font-size="13" lengthAdjust="spacing" textLength="132.3232" x="102" y="762.2769">4. Consulta destinos</text></g><!--link GestorSuscripciones to Cliente--><g class="link" data-entity-1="GestorSuscripciones" data-entity-2="Cliente" data-link-type="dependency" data-source-line="70" data-uid="lnk17" id="link_GestorSuscripciones_Cliente"><path codeLine="70" d="M235,893.58 C235,912.47 235,928.05 235,946.93" fill="none" id="GestorSuscripciones-to-Cliente" style="stroke:#181818;stroke-width:1;stroke-dasharray:7,7;"/><polygon fill="#181818" points="235,952.93,239,943.93,235,947.93,231,943.93,235,952.93" style="stroke:#181818;stroke-width:1;"/><text fill="#000000" font-family="sans-serif" font-size="13" lengthAdjust="spacing" textLength="108.9702" x="126" y="919.3169">5. Devuelve lista</text></g><!--link Mensaje to HistorialMensajes--><g class="link" data-entity-1="Mensaje" data-entity-2="HistorialMensajes" data-link-type="aggregation" data-source-line="71" data-uid="lnk18" id="link_Mensaje_HistorialMensajes"><path codeLine="71" d="M762.69,154.31 C762.69,176.21 762.69,189.01 762.69,210.09" fill="none" id="Mensaje-to-HistorialMensajes" style="stroke:#181818;stroke-width:1;"/><polygon fill="none" points="762.69,222.09,766.69,216.09,762.69,210.09,758.69,216.09,762.69,222.09" style="stroke:#181818;stroke-width:1;"/><text fill="#000000" font-family="sans-serif" font-size="13" lengthAdjust="spacing" textLength="58.9697" x="703.69" y="184.2669">Auditor&#237;a</text></g><!--SRC=[XLLBRjj03Dth50Djug2nqUyc20mujf4QQ9Cq3hgd9LfXCvfHPoIZJP73v01TzGYvM3cAP8_iKQk5OV7xo4TIHsAgrPgooa12pt-Ks92jG0fT9AGL_od0WFXUeR0eDWWYVtwoGb9Ua8xiFIcdpqKYmTf9MHfQLIKk4gsMz83YjMSYIM7viq2XJNcdewY0v1uo5F5dL1Q-eOt5hqZmKySIZRIHkUVLOYPEnP9pg6mdPFWbAafrI0SbPjeG13rlAKTRGbwmRiQMxhtMFjQ_7fQfbj2Yl4QL4d9Ewq4R9conOA5HmD6-L5ZXMUCntcMSAsTd1ZdRDDhZdNQ65Xk3uvs1vss_CaTGAy-rbWYgWUj1_KYsT1NB5g-FKkgCVJ-nIG3Sn2HtjEb5TxNYDgEvrcOn6r2wxUS-rCVeqUFsocIWw07SC7NvlTIftlBZi_nlqYvrlZ8OK2ohLT9wshRAJXAlrlDglKPpYtcX3SzuVqyoWncOHj7JcPeLynAo9kSmM8UYYLbfETrXzMg_0NhW01tOFcgRW77AVG9w71RAeYcPKi_yX3SwDUWrzpZ0sunBSBjyoDjKrjFVOUn555uobBZMAhITynn8TkMTFbsW6-Kb5sselaRTOSwXWAwIoO7Yh2spPg61DXxxW-9yLcG6ILFAQLlKYKW2mtUu14rQHeTs47Hffw3DVrZT3TegHnLOq_-TBVnHwiOxe6u3NXdAQeEUqRvmXK2gv-hm_37G8mOeeMdiDQT8g029DchlycWqxhkBfo9-Cn9pLHg8enwRuN1yi0ZiztOabbXtYDQKW40LHzrBuVBkzuuTtut4IqLnjAzrgKApn5xlH-xpPojPWaZPX9IsSHGohilTpalyOIHckAbGRf0_RFmLYRUD6Gvru0gppwHAYQNFlo7-2m00]--></g></svg>