<svg xmlns="http://www.w3.org/2000/svg" xmlns:xlink="http://www.w3.org/1999/xlink" contentStyleType="text/css" data-diagram-type="CLASS" height="904px" preserveAspectRatio="none" style="width:537px;height:904px;background:#FFFFFF;" version="1.1" viewBox="0 0 537 904" width="537px" zoomAndPan="magnify"><defs/><g><!--class Simulation--><g class="entity" data-entity="Simulation" data-source-line="1" data-uid="ent0002" id="entity_Simulation"><rect fill="#F1F1F1" height="48" rx="2.5" ry="2.5" style="stroke:#181818;stroke-width:0.5;" width="106.5732" x="340.79" y="7"/><ellipse cx="355.79" cy="23" fill="#ADD1B2" rx="11" ry="11" style="stroke:#181818;stroke-width:1;"/><path d="M358.7588,28.6406 Q358.1806,28.9375 357.54,29.0781 Q356.8994,29.2344 356.1963,29.2344 Q353.6963,29.2344 352.3681,27.5938 Q351.0556,25.9375 351.0556,22.8125 Q351.0556,19.6875 352.3681,18.0313 Q353.6963,16.375 356.1963,16.375 Q356.8994,16.375 357.54,16.5313 Q358.1963,16.6875 358.7588,16.9844 L358.7588,19.7031 Q358.1338,19.125 357.54,18.8594 Q356.9463,18.5781 356.3213,18.5781 Q354.9775,18.5781 354.29,19.6563 Q353.6025,20.7188 353.6025,22.8125 Q353.6025,24.9063 354.29,25.9844 Q354.9775,27.0469 356.3213,27.0469 Q356.9463,27.0469 357.54,26.7813 Q358.1338,26.5 358.7588,25.9219 L358.7588,28.6406 Z " fill="#000000"/><text fill="#000000" font-family="sans-serif" font-size="14" lengthAdjust="spacing" textLength="74.5732" x="369.79" y="27.8467">Simulation</text><line style="stroke:#181818;stroke-width:0.5;" x1="341.79" x2="446.3632" y1="39" y2="39"/><line style="stroke:#181818;stroke-width:0.5;" x1="341.79" x2="446.3632" y1="47" y2="47"/></g><!--class Restaurant--><g class="entity" data-entity="Restaurant" data-source-line="4" data-uid="ent0003" id="entity_Restaurant"><rect fill="#F1F1F1" height="80.5938" rx="2.5" ry="2.5" style="stroke:#181818;stroke-width:0.5;" width="114.1973" x="336.98" y="132"/><ellipse cx="354.1957" cy="148" fill="#ADD1B2" rx="11" ry="11" style="stroke:#181818;stroke-width:1;"/><path d="M357.1645,153.6406 Q356.5863,153.9375 355.9457,154.0781 Q355.3051,154.2344 354.602,154.2344 Q352.102,154.2344 350.7738,152.5938 Q349.4613,150.9375 349.4613,147.8125 Q349.4613,144.6875 350.7738,143.0313 Q352.102,141.375 354.602,141.375 Q355.3051,141.375 355.9457,141.5313 Q356.602,141.6875 357.1645,141.9844 L357.1645,144.7031 Q356.5395,144.125 355.9457,143.8594 Q355.352,143.5781 354.727,143.5781 Q353.3832,143.5781 352.6957,144.6563 Q352.0082,145.7188 352.0082,147.8125 Q352.0082,149.9063 352.6957,150.9844 Q353.3832,152.0469 354.727,152.0469 Q355.352,152.0469 355.9457,151.7813 Q356.5395,151.5 357.1645,150.9219 L357.1645,153.6406 Z " fill="#000000"/><text fill="#000000" font-family="sans-serif" font-size="14" lengthAdjust="spacing" textLength="77.2734" x="368.6881" y="152.8467">Restaurant</text><line style="stroke:#181818;stroke-width:0.5;" x1="337.98" x2="450.1773" y1="164" y2="164"/><line style="stroke:#181818;stroke-width:0.5;" x1="337.98" x2="450.1773" y1="172" y2="172"/><g data-visibility-modifier="PUBLIC_METHOD"><ellipse cx="347.98" cy="185.6484" fill="#84BE84" rx="3" ry="3" style="stroke:#038048;stroke-width:1;"/></g><text fill="#000000" font-family="sans-serif" font-size="14" lengthAdjust="spacing" textLength="88.1973" x="356.98" y="188.9951">Restaurant()</text><g data-visibility-modifier="PUBLIC_METHOD"><ellipse cx="347.98" cy="201.9453" fill="#84BE84" rx="3" ry="3" style="stroke:#038048;stroke-width:1;"/></g><text fill="#000000" font-family="sans-serif" font-size="14" lengthAdjust="spacing" textLength="77.6699" x="356.98" y="205.292">run() : void</text></g><!--class ArbolPedidos--><g class="entity" data-entity="ArbolPedidos" data-source-line="9" data-uid="ent0004" id="entity_ArbolPedidos"><rect fill="#F1F1F1" height="178.375" rx="2.5" ry="2.5" style="stroke:#181818;stroke-width:0.5;" width="233.8809" x="151.14" y="289.59"/><ellipse cx="218.204" cy="305.59" fill="#ADD1B2" rx="11" ry="11" style="stroke:#181818;stroke-width:1;"/><path d="M221.1727,311.2306 Q220.5946,311.5275 219.954,311.6681 Q219.3133,311.8244 218.6102,311.8244 Q216.1102,311.8244 214.7821,310.1838 Q213.4696,308.5275 213.4696,305.4025 Q213.4696,302.2775 214.7821,300.6213 Q216.1102,298.965 218.6102,298.965 Q219.3133,298.965 219.954,299.1213 Q220.6102,299.2775 221.1727,299.5744 L221.1727,302.2931 Q220.5477,301.715 219.954,301.4494 Q219.3602,301.1681 218.7352,301.1681 Q217.3915,301.1681 216.704,302.2463 Q216.0165,303.3088 216.0165,305.4025 Q216.0165,307.4963 216.704,308.5744 Q217.3915,309.6369 218.7352,309.6369 Q219.3602,309.6369 219.954,309.3713 Q220.5477,309.09 221.1727,308.5119 L221.1727,311.2306 Z " fill="#000000"/><text fill="#000000" font-family="sans-serif" font-size="14" lengthAdjust="spacing" textLength="91.2529" x="238.704" y="310.4367">ArbolPedidos</text><line style="stroke:#181818;stroke-width:0.5;" x1="152.14" x2="384.0209" y1="321.59" y2="321.59"/><line style="stroke:#181818;stroke-width:0.5;" x1="152.14" x2="384.0209" y1="329.59" y2="329.59"/><g data-visibility-modifier="PUBLIC_METHOD"><ellipse cx="162.14" cy="343.2384" fill="#84BE84" rx="3" ry="3" style="stroke:#038048;stroke-width:1;"/></g><text fill="#000000" font-family="sans-serif" font-size="14" lengthAdjust="spacing" textLength="102.1768" x="171.14" y="346.5851">ArbolPedidos()</text><g data-visibility-modifier="PUBLIC_METHOD"><ellipse cx="162.14" cy="359.5353" fill="#84BE84" rx="3" ry="3" style="stroke:#038048;stroke-width:1;"/></g><text fill="#000000" font-family="sans-serif" font-size="14" lengthAdjust="spacing" textLength="207.8809" x="171.14" y="362.882">insertar(Pedido pedido) : void</text><g data-visibility-modifier="PUBLIC_METHOD"><ellipse cx="162.14" cy="375.8322" fill="#84BE84" rx="3" ry="3" style="stroke:#038048;stroke-width:1;"/></g><text fill="#000000" font-family="sans-serif" font-size="14" lengthAdjust="spacing" textLength="173.8516" x="171.14" y="379.1789">extraerMinimo() : Pedido</text><g data-visibility-modifier="PUBLIC_METHOD"><ellipse cx="162.14" cy="392.1291" fill="#84BE84" rx="3" ry="3" style="stroke:#038048;stroke-width:1;"/></g><text fill="#000000" font-family="sans-serif" font-size="14" lengthAdjust="spacing" textLength="100.4063" x="171.14" y="395.4757">tamanio() : int</text><g data-visibility-modifier="PUBLIC_METHOD"><ellipse cx="162.14" cy="408.4259" fill="#84BE84" rx="3" ry="3" style="stroke:#038048;stroke-width:1;"/></g><text fill="#000000" font-family="sans-serif" font-size="14" lengthAdjust="spacing" textLength="174.4941" x="171.14" y="411.7726">getComparaciones() : int</text><g data-visibility-modifier="PUBLIC_METHOD"><ellipse cx="162.14" cy="424.7228" fill="#84BE84" rx="3" ry="3" style="stroke:#038048;stroke-width:1;"/></g><text fill="#000000" font-family="sans-serif" font-size="14" lengthAdjust="spacing" textLength="187.9199" x="171.14" y="428.0695">incrementarEspera() : void</text><g data-visibility-modifier="PUBLIC_METHOD"><ellipse cx="162.14" cy="441.0197" fill="#84BE84" rx="3" ry="3" style="stroke:#038048;stroke-width:1;"/></g><text fill="#000000" font-family="sans-serif" font-size="14" lengthAdjust="spacing" textLength="174.9248" x="171.14" y="444.3664">tiempoTotalEspera() : int</text><g data-visibility-modifier="PUBLIC_METHOD"><ellipse cx="162.14" cy="457.3166" fill="#84BE84" rx="3" ry="3" style="stroke:#038048;stroke-width:1;"/></g><text fill="#000000" font-family="sans-serif" font-size="14" lengthAdjust="spacing" textLength="118.5967" x="171.14" y="460.6632">printTree() : void</text></g><!--class Pedido--><g class="entity" data-entity="Pedido" data-source-line="20" data-uid="ent0005" id="entity_Pedido"><rect fill="#F1F1F1" height="129.4844" rx="2.5" ry="2.5" style="stroke:#181818;stroke-width:0.5;" width="321.5928" x="150.28" y="767.75"/><ellipse cx="283.1843" cy="783.75" fill="#ADD1B2" rx="11" ry="11" style="stroke:#181818;stroke-width:1;"/><path d="M286.153,789.3906 Q285.5749,789.6875 284.9343,789.8281 Q284.2937,789.9844 283.5905,789.9844 Q281.0905,789.9844 279.7624,788.3438 Q278.4499,786.6875 278.4499,783.5625 Q278.4499,780.4375 279.7624,778.7813 Q281.0905,777.125 283.5905,777.125 Q284.2937,777.125 284.9343,777.2813 Q285.5905,777.4375 286.153,777.7344 L286.153,780.4531 Q285.528,779.875 284.9343,779.6094 Q284.3405,779.3281 283.7155,779.3281 Q282.3718,779.3281 281.6843,780.4063 Q280.9968,781.4688 280.9968,783.5625 Q280.9968,785.6563 281.6843,786.7344 Q282.3718,787.7969 283.7155,787.7969 Q284.3405,787.7969 284.9343,787.5313 Q285.528,787.25 286.153,786.6719 L286.153,789.3906 Z " fill="#000000"/><text fill="#000000" font-family="sans-serif" font-size="14" lengthAdjust="spacing" textLength="47.2842" x="303.6843" y="788.5967">Pedido</text><line style="stroke:#181818;stroke-width:0.5;" x1="151.28" x2="470.8728" y1="799.75" y2="799.75"/><line style="stroke:#181818;stroke-width:0.5;" x1="151.28" x2="470.8728" y1="807.75" y2="807.75"/><g data-visibility-modifier="PUBLIC_METHOD"><ellipse cx="161.28" cy="821.3984" fill="#84BE84" rx="3" ry="3" style="stroke:#038048;stroke-width:1;"/></g><text fill="#000000" font-family="sans-serif" font-size="14" lengthAdjust="spacing" textLength="295.5928" x="170.28" y="824.7451">Pedido(String tipo, int tiempoPreparacion)</text><g data-visibility-modifier="PUBLIC_METHOD"><ellipse cx="161.28" cy="837.6953" fill="#84BE84" rx="3" ry="3" style="stroke:#038048;stroke-width:1;"/></g><text fill="#000000" font-family="sans-serif" font-size="14" lengthAdjust="spacing" textLength="119.2051" x="170.28" y="841.042">getTipo() : String</text><g data-visibility-modifier="PUBLIC_METHOD"><ellipse cx="161.28" cy="853.9922" fill="#84BE84" rx="3" ry="3" style="stroke:#038048;stroke-width:1;"/></g><text fill="#000000" font-family="sans-serif" font-size="14" lengthAdjust="spacing" textLength="201.5645" x="170.28" y="857.3389">getTiempoPreparacion() : int</text><g data-visibility-modifier="PUBLIC_METHOD"><ellipse cx="161.28" cy="870.2891" fill="#84BE84" rx="3" ry="3" style="stroke:#038048;stroke-width:1;"/></g><text fill="#000000" font-family="sans-serif" font-size="14" lengthAdjust="spacing" textLength="165.9014" x="170.28" y="873.6357">getTiempoEspera() : int</text><g data-visibility-modifier="PUBLIC_METHOD"><ellipse cx="161.28" cy="886.5859" fill="#84BE84" rx="3" ry="3" style="stroke:#038048;stroke-width:1;"/></g><text fill="#000000" font-family="sans-serif" font-size="14" lengthAdjust="spacing" textLength="187.9199" x="170.28" y="889.9326">incrementarEspera() : void</text></g><!--class Nodo--><g class="entity" data-entity="Nodo" data-source-line="28" data-uid="ent0006" id="entity_Nodo"><rect fill="#F1F1F1" height="145.7813" rx="2.5" ry="2.5" style="stroke:#181818;stroke-width:0.5;" width="272.1621" x="7" y="544.96"/><ellipse cx="120.5859" cy="560.96" fill="#ADD1B2" rx="11" ry="11" style="stroke:#181818;stroke-width:1;"/><path d="M123.5547,566.6006 Q122.9766,566.8975 122.3359,567.0381 Q121.6953,567.1944 120.9922,567.1944 Q118.4922,567.1944 117.1641,565.5538 Q115.8516,563.8975 115.8516,560.7725 Q115.8516,557.6475 117.1641,555.9913 Q118.4922,554.335 120.9922,554.335 Q121.6953,554.335 122.3359,554.4913 Q122.9922,554.6475 123.5547,554.9444 L123.5547,557.6631 Q122.9297,557.085 122.3359,556.8194 Q121.7422,556.5381 121.1172,556.5381 Q119.7734,556.5381 119.0859,557.6163 Q118.3984,558.6788 118.3984,560.7725 Q118.3984,562.8663 119.0859,563.9444 Q119.7734,565.0069 121.1172,565.0069 Q121.7422,565.0069 122.3359,564.7413 Q122.9297,564.46 123.5547,563.8819 L123.5547,566.6006 Z " fill="#000000"/><text fill="#000000" font-family="sans-serif" font-size="14" lengthAdjust="spacing" textLength="36.4902" x="141.0859" y="565.8067">Nodo</text><line style="stroke:#181818;stroke-width:0.5;" x1="8" x2="278.1621" y1="576.96" y2="576.96"/><line style="stroke:#181818;stroke-width:0.5;" x1="8" x2="278.1621" y1="584.96" y2="584.96"/><g data-visibility-modifier="PUBLIC_METHOD"><ellipse cx="18" cy="598.6084" fill="#84BE84" rx="3" ry="3" style="stroke:#038048;stroke-width:1;"/></g><text fill="#000000" font-family="sans-serif" font-size="14" lengthAdjust="spacing" textLength="146.877" x="27" y="601.9551">Nodo(Pedido pedido)</text><g data-visibility-modifier="PUBLIC_METHOD"><ellipse cx="18" cy="614.9053" fill="#84BE84" rx="3" ry="3" style="stroke:#038048;stroke-width:1;"/></g><text fill="#000000" font-family="sans-serif" font-size="14" lengthAdjust="spacing" textLength="142.0986" x="27" y="618.252">getPedido() : Pedido</text><g data-visibility-modifier="PUBLIC_METHOD"><ellipse cx="18" cy="631.2022" fill="#84BE84" rx="3" ry="3" style="stroke:#038048;stroke-width:1;"/></g><text fill="#000000" font-family="sans-serif" font-size="14" lengthAdjust="spacing" textLength="148.9688" x="27" y="634.5489">getIzquierdo() : Nodo</text><g data-visibility-modifier="PUBLIC_METHOD"><ellipse cx="18" cy="647.4991" fill="#84BE84" rx="3" ry="3" style="stroke:#038048;stroke-width:1;"/></g><text fill="#000000" font-family="sans-serif" font-size="14" lengthAdjust="spacing" textLength="246.1621" x="27" y="650.8457">setIzquierdo(Nodo izquierdo) : void</text><g data-visibility-modifier="PUBLIC_METHOD"><ellipse cx="18" cy="663.7959" fill="#84BE84" rx="3" ry="3" style="stroke:#038048;stroke-width:1;"/></g><text fill="#000000" font-family="sans-serif" font-size="14" lengthAdjust="spacing" textLength="142.9189" x="27" y="667.1426">getDerecho() : Nodo</text><g data-visibility-modifier="PUBLIC_METHOD"><ellipse cx="18" cy="680.0928" fill="#84BE84" rx="3" ry="3" style="stroke:#038048;stroke-width:1;"/></g><text fill="#000000" font-family="sans-serif" font-size="14" lengthAdjust="spacing" textLength="232.4082" x="27" y="683.4395">setDerecho(Nodo derecho) : void</text></g><!--link Simulation to Restaurant--><g class="link" data-entity-1="Simulation" data-entity-2="Restaurant" data-source-line="37" data-uid="lnk7" id="link_Simulation_Restaurant"><path codeLine="37" d="M394.08,55.31 C394.08,76.07 394.08,100.87 394.08,125.52" fill="none" id="Simulation-to-Restaurant" style="stroke:#181818;stroke-width:1;stroke-dasharray:7,7;"/><polygon fill="#181818" points="394.08,131.52,398.08,122.52,394.08,126.52,390.08,122.52,394.08,131.52" style="stroke:#181818;stroke-width:1;"/><text fill="#000000" font-family="sans-serif" font-size="13" lengthAdjust="spacing" textLength="22.9785" x="395.08" y="98.0669">usa</text></g><!--reverse link Restaurant to ArbolPedidos--><g class="link" data-entity-1="Restaurant" data-entity-2="ArbolPedidos" data-source-line="38" data-uid="lnk8" id="link_Restaurant_ArbolPedidos"><path codeLine="38" d="M363.4933,222.9352 C350.0433,244.7552 339.06,262.59 322.57,289.35" fill="none" id="Restaurant-backto-ArbolPedidos" style="stroke:#181818;stroke-width:1;"/><polygon fill="#181818" points="369.79,212.72,363.2366,215.7287,363.4933,222.9352,370.0467,219.9265,369.79,212.72" style="stroke:#181818;stroke-width:1;"/><text fill="#000000" font-family="sans-serif" font-size="13" lengthAdjust="spacing" textLength="56.2847" x="351.08" y="255.6569">contiene</text></g><!--reverse link Restaurant to Pedido--><g class="link" data-entity-1="Restaurant" data-entity-2="Pedido" data-source-line="39" data-uid="lnk9" id="link_Restaurant_Pedido"><path codeLine="39" d="M414.0793,224.2524 C447.0893,313.3424 510.71,523.23 444.08,690.75 C432.65,719.48 412.26,745.74 390.82,767.6" fill="none" id="Restaurant-backto-Pedido" style="stroke:#181818;stroke-width:1;stroke-dasharray:7,7;"/><polygon fill="none" points="409.91,213,408.2438,220.016,414.0793,224.2524,415.7455,217.2364,409.91,213" style="stroke:#181818;stroke-width:1;"/><text fill="#000000" font-family="sans-serif" font-size="13" lengthAdjust="spacing" textLength="55.8911" x="474.08" y="511.0269">gestiona</text></g><!--reverse link ArbolPedidos to Nodo--><g class="link" data-entity-1="ArbolPedidos" data-entity-2="Nodo" data-source-line="40" data-uid="lnk10" id="link_ArbolPedidos_Nodo"><path codeLine="40" d="M215.7615,479.004 C202.5115,504.124 193.86,520.55 181.19,544.58" fill="none" id="ArbolPedidos-backto-Nodo" style="stroke:#181818;stroke-width:1;"/><polygon fill="#181818" points="221.36,468.39,215.0227,471.8308,215.7615,479.004,222.0987,475.5632,221.36,468.39" style="stroke:#181818;stroke-width:1;"/><text fill="#000000" font-family="sans-serif" font-size="13" lengthAdjust="spacing" textLength="56.2847" x="207.08" y="511.0269">contiene</text></g><!--reverse link Nodo to Pedido--><g class="link" data-entity-1="Nodo" data-entity-2="Pedido" data-source-line="41" data-uid="lnk11" id="link_Nodo_Pedido"><path codeLine="41" d="M207.6307,700.5547 C227.2307,725.3547 241.57,743.5 260.6,767.59" fill="none" id="Nodo-backto-Pedido" style="stroke:#181818;stroke-width:1;"/><polygon fill="none" points="200.19,691.14,200.7721,698.3276,207.6307,700.5547,207.0486,693.3671,200.19,691.14" style="stroke:#181818;stroke-width:1;"/><text fill="#000000" font-family="sans-serif" font-size="13" lengthAdjust="spacing" textLength="56.2847" x="234.08" y="733.8169">contiene</text></g><!--reverse link Nodo to Nodo--><g class="link" data-entity-1="Nodo" data-entity-2="Nodo" data-source-line="42" data-uid="lnk12" id="link_Nodo_Nodo"><path codeLine="42" d="M291.5301,600.5522 C312.1001,603.4822 314.16,608.12 314.16,617.85 C314.16,627.59 300.22,633.92 279.65,636.85" fill="none" id="Nodo-backto-Nodo" style="stroke:#181818;stroke-width:1;"/><polygon fill="none" points="279.65,598.86,285.026,603.6661,291.5301,600.5522,286.1541,595.7461,279.65,598.86" style="stroke:#181818;stroke-width:1;"/><text fill="#000000" font-family="sans-serif" font-size="13" lengthAdjust="spacing" textLength="117.3999" x="320.16" y="622.4169">izquierdo/derecho</text></g><!--SRC=[VLBBJiGm3BptAtBi0blkFI0XuC01j6Bt1qnhBPRQk3WfGY3-dJIFRjf5d5hFUCRZ94q7ngWzzMC7bbYhx-AdA1gFlg2nC0fewr2bBZEWt7X0HbrkLAq-cDgJxbPUkTjXIosRgCoXg2LjK2n86M0r-C_iDhNWfnL0UI9DFVj1eTUJ5dhG563IrcD7j7VS3o3Gk5tGB4ZIZM2FsiryC0CAb8jXbh0V-C0MkenEua7Stq4G_zWtBX0s3KMvjqvmTAO3NqqcqNudcD9jKkA3w_6kGNE2LuBrfg7XZwp_B3fdVkOvyVIxkeGq8YwpEdb7F7wzZuGIkSd1CoPd_0XAvUAidSCz2ZPlv_g4UtKRYZn-zbIhwYP_exKQ3HGPSB7TBjzYhHhMxY8qvcrSLUaAQvVCJDvGB8IJam-KEVYQ7J5hpwcecG_XEYxq2m00]--></g></svg>