<svg xmlns="http://www.w3.org/2000/svg" xmlns:xlink="http://www.w3.org/1999/xlink" contentStyleType="text/css" data-diagram-type="CLASS" height="562px" preserveAspectRatio="none" style="width:402px;height:562px;background:#FFFFFF;" version="1.1" viewBox="0 0 402 562" width="402px" zoomAndPan="magnify"><defs/><g><!--class Simulation--><g class="entity" data-entity="Simulation" data-source-line="1" data-uid="ent0002" id="entity_Simulation"><rect fill="#F1F1F1" height="48" rx="2.5" ry="2.5" style="stroke:#181818;stroke-width:0.5;" width="106.5732" x="163.96" y="7"/><ellipse cx="178.96" cy="23" fill="#ADD1B2" rx="11" ry="11" style="stroke:#181818;stroke-width:1;"/><path d="M181.9288,28.6406 Q181.3506,28.9375 180.71,29.0781 Q180.0694,29.2344 179.3663,29.2344 Q176.8663,29.2344 175.5381,27.5938 Q174.2256,25.9375 174.2256,22.8125 Q174.2256,19.6875 175.5381,18.0313 Q176.8663,16.375 179.3663,16.375 Q180.0694,16.375 180.71,16.5313 Q181.3663,16.6875 181.9288,16.9844 L181.9288,19.7031 Q181.3038,19.125 180.71,18.8594 Q180.1163,18.5781 179.4913,18.5781 Q178.1475,18.5781 177.46,19.6563 Q176.7725,20.7188 176.7725,22.8125 Q176.7725,24.9063 177.46,25.9844 Q178.1475,27.0469 179.4913,27.0469 Q180.1163,27.0469 180.71,26.7813 Q181.3038,26.5 181.9288,25.9219 L181.9288,28.6406 Z " fill="#000000"/><text fill="#000000" font-family="sans-serif" font-size="14" lengthAdjust="spacing" textLength="74.5732" x="192.96" y="27.8467">Simulation</text><line style="stroke:#181818;stroke-width:0.5;" x1="164.96" x2="269.5332" y1="39" y2="39"/><line style="stroke:#181818;stroke-width:0.5;" x1="164.96" x2="269.5332" y1="47" y2="47"/></g><!--class Restaurant--><g class="entity" data-entity="Restaurant" data-source-line="1" data-uid="ent0003" id="entity_Restaurant"><rect fill="#F1F1F1" height="48" rx="2.5" ry="2.5" style="stroke:#181818;stroke-width:0.5;" width="109.2734" x="162.61" y="132"/><ellipse cx="177.61" cy="148" fill="#ADD1B2" rx="11" ry="11" style="stroke:#181818;stroke-width:1;"/><path d="M180.5788,153.6406 Q180.0006,153.9375 179.36,154.0781 Q178.7194,154.2344 178.0163,154.2344 Q175.5163,154.2344 174.1881,152.5938 Q172.8756,150.9375 172.8756,147.8125 Q172.8756,144.6875 174.1881,143.0313 Q175.5163,141.375 178.0163,141.375 Q178.7194,141.375 179.36,141.5313 Q180.0163,141.6875 180.5788,141.9844 L180.5788,144.7031 Q179.9538,144.125 179.36,143.8594 Q178.7663,143.5781 178.1413,143.5781 Q176.7975,143.5781 176.11,144.6563 Q175.4225,145.7188 175.4225,147.8125 Q175.4225,149.9063 176.11,150.9844 Q176.7975,152.0469 178.1413,152.0469 Q178.7663,152.0469 179.36,151.7813 Q179.9538,151.5 180.5788,150.9219 L180.5788,153.6406 Z " fill="#000000"/><text fill="#000000" font-family="sans-serif" font-size="14" lengthAdjust="spacing" textLength="77.2734" x="191.61" y="152.8467">Restaurant</text><line style="stroke:#181818;stroke-width:0.5;" x1="163.61" x2="270.8834" y1="164" y2="164"/><line style="stroke:#181818;stroke-width:0.5;" x1="163.61" x2="270.8834" y1="172" y2="172"/></g><!--class ArbolPedidos--><g class="entity" data-entity="ArbolPedidos" data-source-line="2" data-uid="ent0005" id="entity_ArbolPedidos"><rect fill="#F1F1F1" height="48" rx="2.5" ry="2.5" style="stroke:#181818;stroke-width:0.5;" width="123.2529" x="68.62" y="257"/><ellipse cx="83.62" cy="273" fill="#ADD1B2" rx="11" ry="11" style="stroke:#181818;stroke-width:1;"/><path d="M86.5888,278.6406 Q86.0106,278.9375 85.37,279.0781 Q84.7294,279.2344 84.0263,279.2344 Q81.5263,279.2344 80.1981,277.5938 Q78.8856,275.9375 78.8856,272.8125 Q78.8856,269.6875 80.1981,268.0313 Q81.5263,266.375 84.0263,266.375 Q84.7294,266.375 85.37,266.5313 Q86.0263,266.6875 86.5888,266.9844 L86.5888,269.7031 Q85.9638,269.125 85.37,268.8594 Q84.7763,268.5781 84.1513,268.5781 Q82.8075,268.5781 82.12,269.6563 Q81.4325,270.7188 81.4325,272.8125 Q81.4325,274.9063 82.12,275.9844 Q82.8075,277.0469 84.1513,277.0469 Q84.7763,277.0469 85.37,276.7813 Q85.9638,276.5 86.5888,275.9219 L86.5888,278.6406 Z " fill="#000000"/><text fill="#000000" font-family="sans-serif" font-size="14" lengthAdjust="spacing" textLength="91.2529" x="97.62" y="277.8467">ArbolPedidos</text><line style="stroke:#181818;stroke-width:0.5;" x1="69.62" x2="190.8729" y1="289" y2="289"/><line style="stroke:#181818;stroke-width:0.5;" x1="69.62" x2="190.8729" y1="297" y2="297"/></g><!--class Pedido--><g class="entity" data-entity="Pedido" data-source-line="3" data-uid="ent0007" id="entity_Pedido"><rect fill="#F1F1F1" height="48" rx="2.5" ry="2.5" style="stroke:#181818;stroke-width:0.5;" width="79.2842" x="118.6" y="507"/><ellipse cx="133.6" cy="523" fill="#ADD1B2" rx="11" ry="11" style="stroke:#181818;stroke-width:1;"/><path d="M136.5688,528.6406 Q135.9906,528.9375 135.35,529.0781 Q134.7094,529.2344 134.0063,529.2344 Q131.5063,529.2344 130.1781,527.5938 Q128.8656,525.9375 128.8656,522.8125 Q128.8656,519.6875 130.1781,518.0313 Q131.5063,516.375 134.0063,516.375 Q134.7094,516.375 135.35,516.5313 Q136.0063,516.6875 136.5688,516.9844 L136.5688,519.7031 Q135.9438,519.125 135.35,518.8594 Q134.7563,518.5781 134.1313,518.5781 Q132.7875,518.5781 132.1,519.6563 Q131.4125,520.7188 131.4125,522.8125 Q131.4125,524.9063 132.1,525.9844 Q132.7875,527.0469 134.1313,527.0469 Q134.7563,527.0469 135.35,526.7813 Q135.9438,526.5 136.5688,525.9219 L136.5688,528.6406 Z " fill="#000000"/><text fill="#000000" font-family="sans-serif" font-size="14" lengthAdjust="spacing" textLength="47.2842" x="147.6" y="527.8467">Pedido</text><line style="stroke:#181818;stroke-width:0.5;" x1="119.6" x2="196.8842" y1="539" y2="539"/><line style="stroke:#181818;stroke-width:0.5;" x1="119.6" x2="196.8842" y1="547" y2="547"/></g><!--class Nodo--><g class="entity" data-entity="Nodo" data-source-line="4" data-uid="ent0009" id="entity_Nodo"><rect fill="#F1F1F1" height="48" rx="2.5" ry="2.5" style="stroke:#181818;stroke-width:0.5;" width="68.4902" x="7" y="382"/><ellipse cx="22" cy="398" fill="#ADD1B2" rx="11" ry="11" style="stroke:#181818;stroke-width:1;"/><path d="M24.9688,403.6406 Q24.3906,403.9375 23.75,404.0781 Q23.1094,404.2344 22.4063,404.2344 Q19.9063,404.2344 18.5781,402.5938 Q17.2656,400.9375 17.2656,397.8125 Q17.2656,394.6875 18.5781,393.0313 Q19.9063,391.375 22.4063,391.375 Q23.1094,391.375 23.75,391.5313 Q24.4063,391.6875 24.9688,391.9844 L24.9688,394.7031 Q24.3438,394.125 23.75,393.8594 Q23.1563,393.5781 22.5313,393.5781 Q21.1875,393.5781 20.5,394.6563 Q19.8125,395.7188 19.8125,397.8125 Q19.8125,399.9063 20.5,400.9844 Q21.1875,402.0469 22.5313,402.0469 Q23.1563,402.0469 23.75,401.7813 Q24.3438,401.5 24.9688,400.9219 L24.9688,403.6406 Z " fill="#000000"/><text fill="#000000" font-family="sans-serif" font-size="14" lengthAdjust="spacing" textLength="36.4902" x="36" y="402.8467">Nodo</text><line style="stroke:#181818;stroke-width:0.5;" x1="8" x2="74.4902" y1="414" y2="414"/><line style="stroke:#181818;stroke-width:0.5;" x1="8" x2="74.4902" y1="422" y2="422"/></g><!--link Simulation to Restaurant--><g class="link" data-entity-1="Simulation" data-entity-2="Restaurant" data-source-line="1" data-uid="lnk4" id="link_Simulation_Restaurant"><path codeLine="1" d="M217.25,55.42 C217.25,77.31 217.25,103.8 217.25,125.66" fill="none" id="Simulation-to-Restaurant" style="stroke:#181818;stroke-width:1;stroke-dasharray:7,7;"/><polygon fill="#181818" points="217.25,131.66,221.25,122.66,217.25,126.66,213.25,122.66,217.25,131.66" style="stroke:#181818;stroke-width:1;"/><text fill="#000000" font-family="sans-serif" font-size="13" lengthAdjust="spacing" textLength="22.9785" x="218.25" y="98.0669">usa</text></g><!--reverse link Restaurant to ArbolPedidos--><g class="link" data-entity-1="Restaurant" data-entity-2="ArbolPedidos" data-source-line="2" data-uid="lnk6" id="link_Restaurant_ArbolPedidos"><path codeLine="2" d="M193.7514,190.2177 C178.2714,212.1077 162.21,234.8 146.75,256.66" fill="none" id="Restaurant-backto-ArbolPedidos" style="stroke:#181818;stroke-width:1;"/><polygon fill="#181818" points="200.68,180.42,193.9498,183.0093,193.7514,190.2177,200.4816,187.6284,200.68,180.42" style="stroke:#181818;stroke-width:1;"/><text fill="#000000" font-family="sans-serif" font-size="13" lengthAdjust="spacing" textLength="56.2847" x="180.25" y="223.0669">contiene</text></g><!--reverse link Restaurant to Pedido--><g class="link" data-entity-1="Restaurant" data-entity-2="Pedido" data-source-line="3" data-uid="lnk8" id="link_Restaurant_Pedido"><path codeLine="3" d="M238.597,190.7198 C243.647,199.6298 242.69,199.7 245.25,210 C258.8,264.68 395.32,12.61 240.25,430 C228.99,460.31 204.45,488.16 185.13,506.73" fill="none" id="Restaurant-backto-Pedido" style="stroke:#181818;stroke-width:1;stroke-dasharray:7,7;"/><polygon fill="none" points="232.68,180.28,232.1586,187.4722,238.597,190.7198,239.1184,183.5275,232.68,180.28" style="stroke:#181818;stroke-width:1;"/><text fill="#000000" font-family="sans-serif" font-size="13" lengthAdjust="spacing" textLength="55.8911" x="275.25" y="348.0669">gestiona</text></g><!--reverse link ArbolPedidos to Nodo--><g class="link" data-entity-1="ArbolPedidos" data-entity-2="Nodo" data-source-line="4" data-uid="lnk10" id="link_ArbolPedidos_Nodo"><path codeLine="4" d="M106.2652,315.1417 C90.4252,337.0317 73.95,359.8 58.13,381.66" fill="none" id="ArbolPedidos-backto-Nodo" style="stroke:#181818;stroke-width:1;"/><polygon fill="#181818" points="113.3,305.42,106.542,307.9359,106.2652,315.1417,113.0232,312.6258,113.3,305.42" style="stroke:#181818;stroke-width:1;"/><text fill="#000000" font-family="sans-serif" font-size="13" lengthAdjust="spacing" textLength="56.2847" x="92.25" y="348.0669">contiene</text></g><!--reverse link Nodo to Pedido--><g class="link" data-entity-1="Nodo" data-entity-2="Pedido" data-source-line="5" data-uid="lnk11" id="link_Nodo_Pedido"><path codeLine="5" d="M71.8001,439.1151 C92.6201,461.0051 115.25,484.8 136.05,506.66" fill="none" id="Nodo-backto-Pedido" style="stroke:#181818;stroke-width:1;"/><polygon fill="none" points="63.53,430.42,64.7667,437.5243,71.8001,439.1151,70.5634,432.0109,63.53,430.42" style="stroke:#181818;stroke-width:1;"/><text fill="#000000" font-family="sans-serif" font-size="13" lengthAdjust="spacing" textLength="56.2847" x="108.25" y="473.0669">contiene</text></g><!--reverse link Nodo to Nodo--><g class="link" data-entity-1="Nodo" data-entity-2="Nodo" data-source-line="6" data-uid="lnk12" id="link_Nodo_Nodo"><path codeLine="6" d="M87.7398,393.5295 C105.9398,391.6995 110.49,396.66 110.49,406 C110.49,415.34 94,419.1 75.8,417.27" fill="none" id="Nodo-backto-Nodo" style="stroke:#181818;stroke-width:1;"/><polygon fill="none" points="75.8,394.73,82.1701,398.1097,87.7398,393.5295,81.3697,390.1498,75.8,394.73" style="stroke:#181818;stroke-width:1;"/><text fill="#000000" font-family="sans-serif" font-size="13" lengthAdjust="spacing" textLength="117.3999" x="116.49" y="410.5669">izquierdo/derecho</text></g><!--SRC=[POnB2eD044JtdgBN0IVxB8HSGCISeECqIODEuNmsERsj1Z5aMLNlrKEdCd9M17AkeLvIvX8vPBfHILoTYajTqpq-CNRYrICPCI1abI1d3CxHJXZmijw-kVeHrwSM6t0yR1as7Ex_z7NqCnULw77r4cLuOm40]--></g></svg>