<?xml version="1.0" encoding="us-ascii" standalone="no"?><svg xmlns="http://www.w3.org/2000/svg" xmlns:xlink="http://www.w3.org/1999/xlink" contentStyleType="text/css" height="989px" preserveAspectRatio="none" style="width:519px;height:989px;background:#FFFFFF;" version="1.1" viewBox="0 0 519 989" width="519px" zoomAndPan="magnify"><defs/><g><!--class Simulation--><g id="elem_Simulation"><rect codeLine="2" fill="#F1F1F1" height="48" id="Simulation" rx="2.5" ry="2.5" style="stroke:#181818;stroke-width:0.5;" width="104" x="328.5" y="7"/><ellipse cx="343.5" cy="23" fill="#ADD1B2" rx="11" ry="11" style="stroke:#181818;stroke-width:1.0;"/><path d="M342.9688,29.9219 Q341.2188,29.9219 340.0781,29.1875 Q338.9531,28.4375 338.3906,27.0938 Q337.8438,25.7344 337.8438,23.9375 Q337.8438,21.9063 338.5,20.4531 Q339.1563,19 340.4375,18.2188 Q341.7188,17.4375 343.5938,17.4375 Q344.4844,17.4375 345.1563,17.625 Q345.8281,17.7969 346.5156,18.1406 L345.7031,20.1563 Q345.0781,19.8438 344.5313,19.7188 Q344,19.5938 343.5156,19.5938 Q342.3438,19.5938 341.6406,20.125 Q340.9375,20.6563 340.6406,21.6094 Q340.3438,22.5625 340.3438,23.8281 Q340.3438,25.8438 341.0625,26.8125 Q341.7813,27.7656 343.375,27.7656 Q343.9688,27.7656 344.5938,27.6094 Q345.2188,27.4531 346.0469,27.0781 L346.0469,29.2969 Q345.3125,29.6094 344.5156,29.7656 Q343.7344,29.9219 342.9688,29.9219 Z " fill="#000000"/><text fill="#000000" font-family="sans-serif" font-size="14" lengthAdjust="spacing" textLength="72" x="357.5" y="28.432">Simulation</text><line style="stroke:#181818;stroke-width:0.5;" x1="329.5" x2="431.5" y1="39" y2="39"/><line style="stroke:#181818;stroke-width:0.5;" x1="329.5" x2="431.5" y1="47" y2="47"/></g><!--class Restaurant--><g id="elem_Restaurant"><rect codeLine="5" fill="#F1F1F1" height="86.1358" id="Restaurant" rx="2.5" ry="2.5" style="stroke:#181818;stroke-width:0.5;" width="108" x="326.5" y="134"/><ellipse cx="342.4" cy="150" fill="#ADD1B2" rx="11" ry="11" style="stroke:#181818;stroke-width:1.0;"/><path d="M341.8688,156.9219 Q340.1188,156.9219 338.9781,156.1875 Q337.8531,155.4375 337.2906,154.0938 Q336.7438,152.7344 336.7438,150.9375 Q336.7438,148.9063 337.4,147.4531 Q338.0563,146 339.3375,145.2188 Q340.6188,144.4375 342.4938,144.4375 Q343.3844,144.4375 344.0563,144.625 Q344.7281,144.7969 345.4156,145.1406 L344.6031,147.1563 Q343.9781,146.8438 343.4313,146.7188 Q342.9,146.5938 342.4156,146.5938 Q341.2438,146.5938 340.5406,147.125 Q339.8375,147.6563 339.5406,148.6094 Q339.2438,149.5625 339.2438,150.8281 Q339.2438,152.8438 339.9625,153.8125 Q340.6813,154.7656 342.275,154.7656 Q342.8688,154.7656 343.4938,154.6094 Q344.1188,154.4531 344.9469,154.0781 L344.9469,156.2969 Q344.2125,156.6094 343.4156,156.7656 Q342.6344,156.9219 341.8688,156.9219 Z " fill="#000000"/><text fill="#000000" font-family="sans-serif" font-size="14" lengthAdjust="spacing" textLength="74" x="356.6" y="155.432">Restaurant</text><line style="stroke:#181818;stroke-width:0.5;" x1="327.5" x2="433.5" y1="166" y2="166"/><line style="stroke:#181818;stroke-width:0.5;" x1="327.5" x2="433.5" y1="174" y2="174"/><ellipse cx="337.5" cy="189.034" fill="#84BE84" rx="3" ry="3" style="stroke:#038048;stroke-width:1.0;"/><text fill="#000000" font-family="sans-serif" font-size="14" lengthAdjust="spacing" textLength="82" x="346.5" y="192.9659">Restaurant()</text><ellipse cx="337.5" cy="208.1019" fill="#84BE84" rx="3" ry="3" style="stroke:#038048;stroke-width:1.0;"/><text fill="#000000" font-family="sans-serif" font-size="14" lengthAdjust="spacing" textLength="72" x="346.5" y="212.0339">run() : void</text></g><!--class ArbolPedidos--><g id="elem_ArbolPedidos"><rect codeLine="10" fill="#F1F1F1" height="219.6113" id="ArbolPedidos" rx="2.5" ry="2.5" style="stroke:#181818;stroke-width:0.5;" width="224" x="146.5" y="299"/><ellipse cx="209.75" cy="315" fill="#ADD1B2" rx="11" ry="11" style="stroke:#181818;stroke-width:1.0;"/><path d="M209.2188,321.9219 Q207.4688,321.9219 206.3281,321.1875 Q205.2031,320.4375 204.6406,319.0938 Q204.0938,317.7344 204.0938,315.9375 Q204.0938,313.9063 204.75,312.4531 Q205.4063,311 206.6875,310.2188 Q207.9688,309.4375 209.8438,309.4375 Q210.7344,309.4375 211.4063,309.625 Q212.0781,309.7969 212.7656,310.1406 L211.9531,312.1563 Q211.3281,311.8438 210.7813,311.7188 Q210.25,311.5938 209.7656,311.5938 Q208.5938,311.5938 207.8906,312.125 Q207.1875,312.6563 206.8906,313.6094 Q206.5938,314.5625 206.5938,315.8281 Q206.5938,317.8438 207.3125,318.8125 Q208.0313,319.7656 209.625,319.7656 Q210.2188,319.7656 210.8438,319.6094 Q211.4688,319.4531 212.2969,319.0781 L212.2969,321.2969 Q211.5625,321.6094 210.7656,321.7656 Q209.9844,321.9219 209.2188,321.9219 Z " fill="#000000"/><text fill="#000000" font-family="sans-serif" font-size="14" lengthAdjust="spacing" textLength="89" x="230.25" y="320.432">ArbolPedidos</text><line style="stroke:#181818;stroke-width:0.5;" x1="147.5" x2="369.5" y1="331" y2="331"/><line style="stroke:#181818;stroke-width:0.5;" x1="147.5" x2="369.5" y1="339" y2="339"/><ellipse cx="157.5" cy="354.034" fill="#84BE84" rx="3" ry="3" style="stroke:#038048;stroke-width:1.0;"/><text fill="#000000" font-family="sans-serif" font-size="14" lengthAdjust="spacing" textLength="97" x="166.5" y="357.9659">ArbolPedidos()</text><ellipse cx="157.5" cy="373.1019" fill="#84BE84" rx="3" ry="3" style="stroke:#038048;stroke-width:1.0;"/><text fill="#000000" font-family="sans-serif" font-size="14" lengthAdjust="spacing" textLength="198" x="166.5" y="377.0339">insertar(Pedido pedido) : void</text><ellipse cx="157.5" cy="392.1698" fill="#84BE84" rx="3" ry="3" style="stroke:#038048;stroke-width:1.0;"/><text fill="#000000" font-family="sans-serif" font-size="14" lengthAdjust="spacing" textLength="165" x="166.5" y="396.1018">extraerMinimo() : Pedido</text><ellipse cx="157.5" cy="411.2377" fill="#84BE84" rx="3" ry="3" style="stroke:#038048;stroke-width:1.0;"/><text fill="#000000" font-family="sans-serif" font-size="14" lengthAdjust="spacing" textLength="93" x="166.5" y="415.1697">tamanio() : int</text><ellipse cx="157.5" cy="430.3056" fill="#84BE84" rx="3" ry="3" style="stroke:#038048;stroke-width:1.0;"/><text fill="#000000" font-family="sans-serif" font-size="14" lengthAdjust="spacing" textLength="164" x="166.5" y="434.2376">getComparaciones() : int</text><ellipse cx="157.5" cy="449.3735" fill="#84BE84" rx="3" ry="3" style="stroke:#038048;stroke-width:1.0;"/><text fill="#000000" font-family="sans-serif" font-size="14" lengthAdjust="spacing" textLength="177" x="166.5" y="453.3055">incrementarEspera() : void</text><ellipse cx="157.5" cy="468.4415" fill="#84BE84" rx="3" ry="3" style="stroke:#038048;stroke-width:1.0;"/><text fill="#000000" font-family="sans-serif" font-size="14" lengthAdjust="spacing" textLength="164" x="166.5" y="472.3734">tiempoTotalEspera() : int</text><ellipse cx="157.5" cy="487.5094" fill="#84BE84" rx="3" ry="3" style="stroke:#038048;stroke-width:1.0;"/><text fill="#000000" font-family="sans-serif" font-size="14" lengthAdjust="spacing" textLength="111" x="166.5" y="491.4414">printTree() : void</text><ellipse cx="157.5" cy="506.5773" fill="#84BE84" rx="3" ry="3" style="stroke:#038048;stroke-width:1.0;"/><text fill="#000000" font-family="sans-serif" font-size="14" lengthAdjust="spacing" textLength="127" x="166.5" y="510.5093">isEmpty() : boolean</text></g><!--class Pedido--><g id="elem_Pedido"><rect codeLine="22" fill="#F1F1F1" height="143.3396" id="Pedido" rx="2.5" ry="2.5" style="stroke:#181818;stroke-width:0.5;" width="309" x="146" y="839"/><ellipse cx="273.25" cy="855" fill="#ADD1B2" rx="11" ry="11" style="stroke:#181818;stroke-width:1.0;"/><path d="M272.7188,861.9219 Q270.9688,861.9219 269.8281,861.1875 Q268.7031,860.4375 268.1406,859.0938 Q267.5938,857.7344 267.5938,855.9375 Q267.5938,853.9063 268.25,852.4531 Q268.9063,851 270.1875,850.2188 Q271.4688,849.4375 273.3438,849.4375 Q274.2344,849.4375 274.9063,849.625 Q275.5781,849.7969 276.2656,850.1406 L275.4531,852.1563 Q274.8281,851.8438 274.2813,851.7188 Q273.75,851.5938 273.2656,851.5938 Q272.0938,851.5938 271.3906,852.125 Q270.6875,852.6563 270.3906,853.6094 Q270.0938,854.5625 270.0938,855.8281 Q270.0938,857.8438 270.8125,858.8125 Q271.5313,859.7656 273.125,859.7656 Q273.7188,859.7656 274.3438,859.6094 Q274.9688,859.4531 275.7969,859.0781 L275.7969,861.2969 Q275.0625,861.6094 274.2656,861.7656 Q273.4844,861.9219 272.7188,861.9219 Z " fill="#000000"/><text fill="#000000" font-family="sans-serif" font-size="14" lengthAdjust="spacing" textLength="46" x="293.75" y="860.432">Pedido</text><line style="stroke:#181818;stroke-width:0.5;" x1="147" x2="454" y1="871" y2="871"/><line style="stroke:#181818;stroke-width:0.5;" x1="147" x2="454" y1="879" y2="879"/><ellipse cx="157" cy="894.034" fill="#84BE84" rx="3" ry="3" style="stroke:#038048;stroke-width:1.0;"/><text fill="#000000" font-family="sans-serif" font-size="14" lengthAdjust="spacing" textLength="283" x="166" y="897.9659">Pedido(String tipo, int tiempoPreparacion)</text><ellipse cx="157" cy="913.1019" fill="#84BE84" rx="3" ry="3" style="stroke:#038048;stroke-width:1.0;"/><text fill="#000000" font-family="sans-serif" font-size="14" lengthAdjust="spacing" textLength="112" x="166" y="917.0339">getTipo() : String</text><ellipse cx="157" cy="932.1698" fill="#84BE84" rx="3" ry="3" style="stroke:#038048;stroke-width:1.0;"/><text fill="#000000" font-family="sans-serif" font-size="14" lengthAdjust="spacing" textLength="191" x="166" y="936.1018">getTiempoPreparacion() : int</text><ellipse cx="157" cy="951.2377" fill="#84BE84" rx="3" ry="3" style="stroke:#038048;stroke-width:1.0;"/><text fill="#000000" font-family="sans-serif" font-size="14" lengthAdjust="spacing" textLength="156" x="166" y="955.1697">getTiempoEspera() : int</text><ellipse cx="157" cy="970.3056" fill="#84BE84" rx="3" ry="3" style="stroke:#038048;stroke-width:1.0;"/><text fill="#000000" font-family="sans-serif" font-size="14" lengthAdjust="spacing" textLength="177" x="166" y="974.2376">incrementarEspera() : void</text></g><!--class Nodo--><g id="elem_Nodo"><rect codeLine="30" fill="#F1F1F1" height="162.4075" id="Nodo" rx="2.5" ry="2.5" style="stroke:#181818;stroke-width:0.5;" width="263" x="7" y="598"/><ellipse cx="116.25" cy="614" fill="#ADD1B2" rx="11" ry="11" style="stroke:#181818;stroke-width:1.0;"/><path d="M115.7188,620.9219 Q113.9688,620.9219 112.8281,620.1875 Q111.7031,619.4375 111.1406,618.0938 Q110.5938,616.7344 110.5938,614.9375 Q110.5938,612.9063 111.25,611.4531 Q111.9063,610 113.1875,609.2188 Q114.4688,608.4375 116.3438,608.4375 Q117.2344,608.4375 117.9063,608.625 Q118.5781,608.7969 119.2656,609.1406 L118.4531,611.1563 Q117.8281,610.8438 117.2813,610.7188 Q116.75,610.5938 116.2656,610.5938 Q115.0938,610.5938 114.3906,611.125 Q113.6875,611.6563 113.3906,612.6094 Q113.0938,613.5625 113.0938,614.8281 Q113.0938,616.8438 113.8125,617.8125 Q114.5313,618.7656 116.125,618.7656 Q116.7188,618.7656 117.3438,618.6094 Q117.9688,618.4531 118.7969,618.0781 L118.7969,620.2969 Q118.0625,620.6094 117.2656,620.7656 Q116.4844,620.9219 115.7188,620.9219 Z " fill="#000000"/><text fill="#000000" font-family="sans-serif" font-size="14" lengthAdjust="spacing" textLength="36" x="136.75" y="619.432">Nodo</text><line style="stroke:#181818;stroke-width:0.5;" x1="8" x2="269" y1="630" y2="630"/><line style="stroke:#181818;stroke-width:0.5;" x1="8" x2="269" y1="638" y2="638"/><ellipse cx="18" cy="653.034" fill="#84BE84" rx="3" ry="3" style="stroke:#038048;stroke-width:1.0;"/><text fill="#000000" font-family="sans-serif" font-size="14" lengthAdjust="spacing" textLength="141" x="27" y="656.9659">Nodo(Pedido pedido)</text><ellipse cx="18" cy="672.1019" fill="#84BE84" rx="3" ry="3" style="stroke:#038048;stroke-width:1.0;"/><text fill="#000000" font-family="sans-serif" font-size="14" lengthAdjust="spacing" textLength="134" x="27" y="676.0339">getPedido() : Pedido</text><ellipse cx="18" cy="691.1698" fill="#84BE84" rx="3" ry="3" style="stroke:#038048;stroke-width:1.0;"/><text fill="#000000" font-family="sans-serif" font-size="14" lengthAdjust="spacing" textLength="143" x="27" y="695.1018">getIzquierdo() : Nodo</text><ellipse cx="18" cy="710.2377" fill="#84BE84" rx="3" ry="3" style="stroke:#038048;stroke-width:1.0;"/><text fill="#000000" font-family="sans-serif" font-size="14" lengthAdjust="spacing" textLength="237" x="27" y="714.1697">setIzquierdo(Nodo izquierdo) : void</text><ellipse cx="18" cy="729.3056" fill="#84BE84" rx="3" ry="3" style="stroke:#038048;stroke-width:1.0;"/><text fill="#000000" font-family="sans-serif" font-size="14" lengthAdjust="spacing" textLength="134" x="27" y="733.2376">getDerecho() : Nodo</text><ellipse cx="18" cy="748.3735" fill="#84BE84" rx="3" ry="3" style="stroke:#038048;stroke-width:1.0;"/><text fill="#000000" font-family="sans-serif" font-size="14" lengthAdjust="spacing" textLength="219" x="27" y="752.3055">setDerecho(Nodo derecho) : void</text></g><!--link Simulation to Restaurant--><g id="link_Simulation_Restaurant"><path codeLine="39" d="M380.5,55.14 C380.5,76.28 380.5,102.08 380.5,127.75 " fill="none" id="Simulation-to-Restaurant" style="stroke:#181818;stroke-width:1.0;stroke-dasharray:7.0,7.0;"/><polygon fill="#181818" points="380.5,133.75,384.5,124.75,380.5,128.75,376.5,124.75,380.5,133.75" style="stroke:#181818;stroke-width:1.0;"/><text fill="#000000" font-family="sans-serif" font-size="13" lengthAdjust="spacing" textLength="21" x="381.5" y="99.897">usa</text></g><!--reverse link Restaurant to ArbolPedidos--><g id="link_Restaurant_ArbolPedidos"><path codeLine="40" d="M352.4968,230.7909 C340.7368,252.9609 331.34,270.67 316.56,298.55 " fill="none" id="Restaurant-backto-ArbolPedidos" style="stroke:#181818;stroke-width:1.0;"/><polygon fill="#181818" points="358.12,220.19,351.7748,223.6161,352.4968,230.7909,358.842,227.3649,358.12,220.19" style="stroke:#181818;stroke-width:1.0;"/><text fill="#000000" font-family="sans-serif" font-size="13" lengthAdjust="spacing" textLength="52" x="342.5" y="264.897">contiene</text></g><!--reverse link Restaurant to Pedido--><g id="link_Restaurant_Pedido"><path codeLine="41" d="M399.4886,231.5796 C432.3586,329.7896 497.86,568.51 427.5,760 C416.93,788.77 398.09,815.79 378.11,838.73 " fill="none" id="Restaurant-backto-Pedido" style="stroke:#181818;stroke-width:1.0;stroke-dasharray:7.0,7.0;"/><polygon fill="none" points="395.68,220.2,393.7911,227.1593,399.4886,231.5796,401.3775,224.6202,395.68,220.2" style="stroke:#181818;stroke-width:1.0;"/><text fill="#000000" font-family="sans-serif" font-size="13" lengthAdjust="spacing" textLength="52" x="459.5" y="563.897">gestiona</text></g><!--reverse link ArbolPedidos to Nodo--><g id="link_ArbolPedidos_Nodo"><path codeLine="42" d="M204.7851,529.9618 C192.9751,556.3318 185.47,573.09 174.38,597.86 " fill="none" id="ArbolPedidos-backto-Nodo" style="stroke:#181818;stroke-width:1.0;"/><polygon fill="#181818" points="209.69,519.01,203.587,522.851,204.7851,529.9618,210.8882,526.1209,209.69,519.01" style="stroke:#181818;stroke-width:1.0;"/><text fill="#000000" font-family="sans-serif" font-size="13" lengthAdjust="spacing" textLength="52" x="196.5" y="563.897">contiene</text></g><!--reverse link Nodo to Pedido--><g id="link_Nodo_Pedido"><path codeLine="43" d="M202.0819,770.0724 C220.1519,795.6624 233.07,813.98 250.62,838.84 " fill="none" id="Nodo-backto-Pedido" style="stroke:#181818;stroke-width:1.0;"/><polygon fill="none" points="195.16,760.27,195.3534,767.4785,202.0819,770.0724,201.8884,762.8639,195.16,760.27" style="stroke:#181818;stroke-width:1.0;"/><text fill="#000000" font-family="sans-serif" font-size="13" lengthAdjust="spacing" textLength="52" x="230.5" y="804.897">contiene</text></g><!--reverse link Nodo to Nodo--><g id="link_Nodo_Nodo"><path codeLine="44" d="M281.9317,660.0799 C302.6917,663.1399 305,668.28 305,679 C305,689.72 290.82,696.61 270.06,699.67 " fill="none" id="Nodo-backto-Nodo" style="stroke:#181818;stroke-width:1.0;"/><polygon fill="none" points="270.06,658.33,275.4126,663.1622,281.9317,660.0799,276.5792,655.2477,270.06,658.33" style="stroke:#181818;stroke-width:1.0;"/><text fill="#000000" font-family="sans-serif" font-size="13" lengthAdjust="spacing" textLength="110" x="311" y="684.397">izquierdo/derecho</text></g><!--SRC=[VLBBJiCm4BpdAtnCWOPx3aW8UkW1LD7-m3PP5KknrwmTn4FyEuxjf4wAE2KxipFxSjE1jM8lLT-1awJ5T_5J54r0Nz0ww1cqywWGrnbGhWB0lIvNeXRl9DkpxfwFrEsmbItPfCoXf9NQ8ZlWCiB2XC_aDgJWXsD0Vf9QAWg5OcuW7IZGCi9Iku2Tq3sGCi3G-5dGpaYf6qQ5sjVSM8CCvQoOawWC7SX1bz6ZsB3_Ep3YN2JjHXdt6S0ZKOUWptj8WyKDnA3SEszqyiKCtGpcgUoESUnwDKvoy3d1E6hEy4Amt41C-6E6VnOmzVnCKyV3x-8uOuaqpE8YdjX-lVKIEN63Gs1ipeGISWndw_GEZyZOl5xgHpoesnZaxMTFkAhkyhTRYzv2aG5Nw_NyZTQY8UqFeJ5FeweQJrZxpkpW3SLCE3Y5XZA749Cd9kqbbJJJ4cxJGCKl]--></g></svg>