<?xml version="1.0" encoding="us-ascii" standalone="no"?><svg xmlns="http://www.w3.org/2000/svg" xmlns:xlink="http://www.w3.org/1999/xlink" contentStyleType="text/css" height="1485px" preserveAspectRatio="none" style="width:529px;height:1485px;background:#FFFFFF;" version="1.1" viewBox="0 0 529 1485" width="529px" zoomAndPan="magnify"><defs/><g><!--class Simulation--><g id="elem_Simulation"><rect codeLine="2" fill="#F1F1F1" height="67.0679" id="Simulation" rx="2.5" ry="2.5" style="stroke:#181818;stroke-width:0.5;" width="193" x="284" y="7"/><ellipse cx="340.25" cy="23" fill="#ADD1B2" rx="11" ry="11" style="stroke:#181818;stroke-width:1.0;"/><path d="M339.7188,29.9219 Q337.9688,29.9219 336.8281,29.1875 Q335.7031,28.4375 335.1406,27.0938 Q334.5938,25.7344 334.5938,23.9375 Q334.5938,21.9063 335.25,20.4531 Q335.9063,19 337.1875,18.2188 Q338.4688,17.4375 340.3438,17.4375 Q341.2344,17.4375 341.9063,17.625 Q342.5781,17.7969 343.2656,18.1406 L342.4531,20.1563 Q341.8281,19.8438 341.2813,19.7188 Q340.75,19.5938 340.2656,19.5938 Q339.0938,19.5938 338.3906,20.125 Q337.6875,20.6563 337.3906,21.6094 Q337.0938,22.5625 337.0938,23.8281 Q337.0938,25.8438 337.8125,26.8125 Q338.5313,27.7656 340.125,27.7656 Q340.7188,27.7656 341.3438,27.6094 Q341.9688,27.4531 342.7969,27.0781 L342.7969,29.2969 Q342.0625,29.6094 341.2656,29.7656 Q340.4844,29.9219 339.7188,29.9219 Z " fill="#000000"/><text fill="#000000" font-family="sans-serif" font-size="14" lengthAdjust="spacing" textLength="72" x="360.75" y="28.432">Simulation</text><line style="stroke:#181818;stroke-width:0.5;" x1="285" x2="476" y1="39" y2="39"/><line style="stroke:#181818;stroke-width:0.5;" x1="285" x2="476" y1="47" y2="47"/><ellipse cx="295" cy="62.034" fill="#84BE84" rx="3" ry="3" style="stroke:#038048;stroke-width:1.0;"/><text fill="#000000" font-family="sans-serif" font-size="14" lengthAdjust="spacing" text-decoration="underline" textLength="167" x="304" y="65.9659">main(String[] args) : void</text></g><!--class Restaurant--><g id="elem_Restaurant"><rect codeLine="6" fill="#F1F1F1" height="391.2225" id="Restaurant" rx="2.5" ry="2.5" style="stroke:#181818;stroke-width:0.5;" width="250" x="255.5" y="153"/><ellipse cx="339.25" cy="169" fill="#ADD1B2" rx="11" ry="11" style="stroke:#181818;stroke-width:1.0;"/><path d="M338.7188,175.9219 Q336.9688,175.9219 335.8281,175.1875 Q334.7031,174.4375 334.1406,173.0938 Q333.5938,171.7344 333.5938,169.9375 Q333.5938,167.9063 334.25,166.4531 Q334.9063,165 336.1875,164.2188 Q337.4688,163.4375 339.3438,163.4375 Q340.2344,163.4375 340.9063,163.625 Q341.5781,163.7969 342.2656,164.1406 L341.4531,166.1563 Q340.8281,165.8438 340.2813,165.7188 Q339.75,165.5938 339.2656,165.5938 Q338.0938,165.5938 337.3906,166.125 Q336.6875,166.6563 336.3906,167.6094 Q336.0938,168.5625 336.0938,169.8281 Q336.0938,171.8438 336.8125,172.8125 Q337.5313,173.7656 339.125,173.7656 Q339.7188,173.7656 340.3438,173.6094 Q340.9688,173.4531 341.7969,173.0781 L341.7969,175.2969 Q341.0625,175.6094 340.2656,175.7656 Q339.4844,175.9219 338.7188,175.9219 Z " fill="#000000"/><text fill="#000000" font-family="sans-serif" font-size="14" lengthAdjust="spacing" textLength="74" x="359.75" y="174.432">Restaurant</text><line style="stroke:#181818;stroke-width:0.5;" x1="256.5" x2="504.5" y1="185" y2="185"/><rect fill="none" height="6" style="stroke:#C82930;stroke-width:1.0;" width="6" x="263.5" y="197.034"/><text fill="#000000" font-family="sans-serif" font-size="14" lengthAdjust="spacing" textLength="173" x="275.5" y="203.9659">DURACION_JORNADA : int</text><rect fill="none" height="6" style="stroke:#C82930;stroke-width:1.0;" width="6" x="263.5" y="216.1019"/><text fill="#000000" font-family="sans-serif" font-size="14" lengthAdjust="spacing" textLength="209" x="275.5" y="223.0339">PROBABILITY_ARRIVAL : double</text><rect fill="none" height="6" style="stroke:#C82930;stroke-width:1.0;" width="6" x="263.5" y="235.1698"/><text fill="#000000" font-family="sans-serif" font-size="14" lengthAdjust="spacing" textLength="128" x="275.5" y="242.1018">cola : ArbolPedidos</text><rect fill="none" height="6" style="stroke:#C82930;stroke-width:1.0;" width="6" x="263.5" y="254.2377"/><text fill="#000000" font-family="sans-serif" font-size="14" lengthAdjust="spacing" textLength="147" x="275.5" y="261.1697">pedidoActual : Pedido</text><rect fill="none" height="6" style="stroke:#C82930;stroke-width:1.0;" width="6" x="263.5" y="273.3056"/><text fill="#000000" font-family="sans-serif" font-size="14" lengthAdjust="spacing" textLength="136" x="275.5" y="280.2376">tiempoRestante : int</text><rect fill="none" height="6" style="stroke:#C82930;stroke-width:1.0;" width="6" x="263.5" y="292.3735"/><text fill="#000000" font-family="sans-serif" font-size="14" lengthAdjust="spacing" textLength="152" x="275.5" y="299.3055">pedidosAtendidos : int</text><rect fill="none" height="6" style="stroke:#C82930;stroke-width:1.0;" width="6" x="263.5" y="311.4415"/><text fill="#000000" font-family="sans-serif" font-size="14" lengthAdjust="spacing" textLength="224" x="275.5" y="318.3734">tiempoTotalEsperaAtendidos : int</text><rect fill="none" height="6" style="stroke:#C82930;stroke-width:1.0;" width="6" x="263.5" y="330.5094"/><text fill="#000000" font-family="sans-serif" font-size="14" lengthAdjust="spacing" textLength="120" x="275.5" y="337.4414">minutoActual : int</text><rect fill="none" height="6" style="stroke:#C82930;stroke-width:1.0;" width="6" x="263.5" y="349.5773"/><text fill="#000000" font-family="sans-serif" font-size="14" lengthAdjust="spacing" textLength="121" x="275.5" y="356.5093">scanner : Scanner</text><rect fill="none" height="6" style="stroke:#C82930;stroke-width:1.0;" width="6" x="263.5" y="368.6452"/><text fill="#000000" font-family="sans-serif" font-size="14" lengthAdjust="spacing" textLength="160" x="275.5" y="375.5772">TIPOS_PLATOS : String[]</text><rect fill="none" height="6" style="stroke:#C82930;stroke-width:1.0;" width="6" x="263.5" y="387.7131"/><text fill="#000000" font-family="sans-serif" font-size="14" lengthAdjust="spacing" textLength="167" x="275.5" y="394.6451">RANGOS_TIEMPO : int[][]</text><line style="stroke:#181818;stroke-width:0.5;" x1="256.5" x2="504.5" y1="402.7471" y2="402.7471"/><ellipse cx="266.5" cy="417.781" fill="#84BE84" rx="3" ry="3" style="stroke:#038048;stroke-width:1.0;"/><text fill="#000000" font-family="sans-serif" font-size="14" lengthAdjust="spacing" textLength="82" x="275.5" y="421.713">Restaurant()</text><ellipse cx="266.5" cy="436.849" fill="#84BE84" rx="3" ry="3" style="stroke:#038048;stroke-width:1.0;"/><text fill="#000000" font-family="sans-serif" font-size="14" lengthAdjust="spacing" textLength="72" x="275.5" y="440.7809">run() : void</text><rect fill="#F24D5C" height="6" style="stroke:#C82930;stroke-width:1.0;" width="6" x="263.5" y="452.9169"/><text fill="#000000" font-family="sans-serif" font-size="14" lengthAdjust="spacing" textLength="147" x="275.5" y="459.8489">validarLlegada() : void</text><rect fill="#F24D5C" height="6" style="stroke:#C82930;stroke-width:1.0;" width="6" x="263.5" y="471.9848"/><text fill="#000000" font-family="sans-serif" font-size="14" lengthAdjust="spacing" textLength="152" x="275.5" y="478.9168">procesarCocina() : void</text><rect fill="#F24D5C" height="6" style="stroke:#C82930;stroke-width:1.0;" width="6" x="263.5" y="491.0527"/><text fill="#000000" font-family="sans-serif" font-size="14" lengthAdjust="spacing" textLength="216" x="275.5" y="497.9847">mostrarEstado(int minuto) : void</text><rect fill="#F24D5C" height="6" style="stroke:#C82930;stroke-width:1.0;" width="6" x="263.5" y="510.1206"/><text fill="#000000" font-family="sans-serif" font-size="14" lengthAdjust="spacing" textLength="164" x="275.5" y="517.0526">mostrarResumen() : void</text><rect fill="#F24D5C" height="6" style="stroke:#C82930;stroke-width:1.0;" width="6" x="263.5" y="529.1885"/><text fill="#000000" font-family="sans-serif" font-size="14" lengthAdjust="spacing" textLength="130" x="275.5" y="536.1205">cleanScreen() : void</text></g><!--class ArbolPedidos--><g id="elem_ArbolPedidos"><rect codeLine="27" fill="#F1F1F1" height="276.815" id="ArbolPedidos" rx="2.5" ry="2.5" style="stroke:#181818;stroke-width:0.5;" width="224" x="146.5" y="623"/><ellipse cx="209.75" cy="639" fill="#ADD1B2" rx="11" ry="11" style="stroke:#181818;stroke-width:1.0;"/><path d="M209.2188,645.9219 Q207.4688,645.9219 206.3281,645.1875 Q205.2031,644.4375 204.6406,643.0938 Q204.0938,641.7344 204.0938,639.9375 Q204.0938,637.9063 204.75,636.4531 Q205.4063,635 206.6875,634.2188 Q207.9688,633.4375 209.8438,633.4375 Q210.7344,633.4375 211.4063,633.625 Q212.0781,633.7969 212.7656,634.1406 L211.9531,636.1563 Q211.3281,635.8438 210.7813,635.7188 Q210.25,635.5938 209.7656,635.5938 Q208.5938,635.5938 207.8906,636.125 Q207.1875,636.6563 206.8906,637.6094 Q206.5938,638.5625 206.5938,639.8281 Q206.5938,641.8438 207.3125,642.8125 Q208.0313,643.7656 209.625,643.7656 Q210.2188,643.7656 210.8438,643.6094 Q211.4688,643.4531 212.2969,643.0781 L212.2969,645.2969 Q211.5625,645.6094 210.7656,645.7656 Q209.9844,645.9219 209.2188,645.9219 Z " fill="#000000"/><text fill="#000000" font-family="sans-serif" font-size="14" lengthAdjust="spacing" textLength="89" x="230.25" y="644.432">ArbolPedidos</text><line style="stroke:#181818;stroke-width:0.5;" x1="147.5" x2="369.5" y1="655" y2="655"/><rect fill="none" height="6" style="stroke:#C82930;stroke-width:1.0;" width="6" x="154.5" y="667.034"/><text fill="#000000" font-family="sans-serif" font-size="14" lengthAdjust="spacing" textLength="73" x="166.5" y="673.9659">raiz : Nodo</text><rect fill="none" height="6" style="stroke:#C82930;stroke-width:1.0;" width="6" x="154.5" y="686.1019"/><text fill="#000000" font-family="sans-serif" font-size="14" lengthAdjust="spacing" textLength="132" x="166.5" y="693.0339">comparaciones : int</text><rect fill="none" height="6" style="stroke:#C82930;stroke-width:1.0;" width="6" x="154.5" y="705.1698"/><text fill="#000000" font-family="sans-serif" font-size="14" lengthAdjust="spacing" textLength="81" x="166.5" y="712.1018">tama&#241;o : int</text><line style="stroke:#181818;stroke-width:0.5;" x1="147.5" x2="369.5" y1="720.2038" y2="720.2038"/><ellipse cx="157.5" cy="735.2377" fill="#84BE84" rx="3" ry="3" style="stroke:#038048;stroke-width:1.0;"/><text fill="#000000" font-family="sans-serif" font-size="14" lengthAdjust="spacing" textLength="97" x="166.5" y="739.1697">ArbolPedidos()</text><ellipse cx="157.5" cy="754.3056" fill="#84BE84" rx="3" ry="3" style="stroke:#038048;stroke-width:1.0;"/><text fill="#000000" font-family="sans-serif" font-size="14" lengthAdjust="spacing" textLength="198" x="166.5" y="758.2376">insertar(Pedido pedido) : void</text><ellipse cx="157.5" cy="773.3735" fill="#84BE84" rx="3" ry="3" style="stroke:#038048;stroke-width:1.0;"/><text fill="#000000" font-family="sans-serif" font-size="14" lengthAdjust="spacing" textLength="165" x="166.5" y="777.3055">extraerMinimo() : Pedido</text><ellipse cx="157.5" cy="792.4415" fill="#84BE84" rx="3" ry="3" style="stroke:#038048;stroke-width:1.0;"/><text fill="#000000" font-family="sans-serif" font-size="14" lengthAdjust="spacing" textLength="93" x="166.5" y="796.3734">tamanio() : int</text><ellipse cx="157.5" cy="811.5094" fill="#84BE84" rx="3" ry="3" style="stroke:#038048;stroke-width:1.0;"/><text fill="#000000" font-family="sans-serif" font-size="14" lengthAdjust="spacing" textLength="164" x="166.5" y="815.4414">getComparaciones() : int</text><ellipse cx="157.5" cy="830.5773" fill="#84BE84" rx="3" ry="3" style="stroke:#038048;stroke-width:1.0;"/><text fill="#000000" font-family="sans-serif" font-size="14" lengthAdjust="spacing" textLength="177" x="166.5" y="834.5093">incrementarEspera() : void</text><ellipse cx="157.5" cy="849.6452" fill="#84BE84" rx="3" ry="3" style="stroke:#038048;stroke-width:1.0;"/><text fill="#000000" font-family="sans-serif" font-size="14" lengthAdjust="spacing" textLength="164" x="166.5" y="853.5772">tiempoTotalEspera() : int</text><ellipse cx="157.5" cy="868.7131" fill="#84BE84" rx="3" ry="3" style="stroke:#038048;stroke-width:1.0;"/><text fill="#000000" font-family="sans-serif" font-size="14" lengthAdjust="spacing" textLength="111" x="166.5" y="872.6451">printTree() : void</text><ellipse cx="157.5" cy="887.781" fill="#84BE84" rx="3" ry="3" style="stroke:#038048;stroke-width:1.0;"/><text fill="#000000" font-family="sans-serif" font-size="14" lengthAdjust="spacing" textLength="127" x="166.5" y="891.713">isEmpty() : boolean</text></g><!--class Pedido--><g id="elem_Pedido"><rect codeLine="42" fill="#F1F1F1" height="200.5433" id="Pedido" rx="2.5" ry="2.5" style="stroke:#181818;stroke-width:0.5;" width="309" x="146" y="1278"/><ellipse cx="273.25" cy="1294" fill="#ADD1B2" rx="11" ry="11" style="stroke:#181818;stroke-width:1.0;"/><path d="M272.7188,1300.9219 Q270.9688,1300.9219 269.8281,1300.1875 Q268.7031,1299.4375 268.1406,1298.0938 Q267.5938,1296.7344 267.5938,1294.9375 Q267.5938,1292.9063 268.25,1291.4531 Q268.9063,1290 270.1875,1289.2188 Q271.4688,1288.4375 273.3438,1288.4375 Q274.2344,1288.4375 274.9063,1288.625 Q275.5781,1288.7969 276.2656,1289.1406 L275.4531,1291.1563 Q274.8281,1290.8438 274.2813,1290.7188 Q273.75,1290.5938 273.2656,1290.5938 Q272.0938,1290.5938 271.3906,1291.125 Q270.6875,1291.6563 270.3906,1292.6094 Q270.0938,1293.5625 270.0938,1294.8281 Q270.0938,1296.8438 270.8125,1297.8125 Q271.5313,1298.7656 273.125,1298.7656 Q273.7188,1298.7656 274.3438,1298.6094 Q274.9688,1298.4531 275.7969,1298.0781 L275.7969,1300.2969 Q275.0625,1300.6094 274.2656,1300.7656 Q273.4844,1300.9219 272.7188,1300.9219 Z " fill="#000000"/><text fill="#000000" font-family="sans-serif" font-size="14" lengthAdjust="spacing" textLength="46" x="293.75" y="1299.432">Pedido</text><line style="stroke:#181818;stroke-width:0.5;" x1="147" x2="454" y1="1310" y2="1310"/><rect fill="none" height="6" style="stroke:#C82930;stroke-width:1.0;" width="6" x="154" y="1322.034"/><text fill="#000000" font-family="sans-serif" font-size="14" lengthAdjust="spacing" textLength="79" x="166" y="1328.9659">tipo : String</text><rect fill="none" height="6" style="stroke:#C82930;stroke-width:1.0;" width="6" x="154" y="1341.1019"/><text fill="#000000" font-family="sans-serif" font-size="14" lengthAdjust="spacing" textLength="158" x="166" y="1348.0339">tiempoPreparacion : int</text><rect fill="none" height="6" style="stroke:#C82930;stroke-width:1.0;" width="6" x="154" y="1360.1698"/><text fill="#000000" font-family="sans-serif" font-size="14" lengthAdjust="spacing" textLength="123" x="166" y="1367.1018">tiempoEspera : int</text><line style="stroke:#181818;stroke-width:0.5;" x1="147" x2="454" y1="1375.2038" y2="1375.2038"/><ellipse cx="157" cy="1390.2377" fill="#84BE84" rx="3" ry="3" style="stroke:#038048;stroke-width:1.0;"/><text fill="#000000" font-family="sans-serif" font-size="14" lengthAdjust="spacing" textLength="283" x="166" y="1394.1697">Pedido(String tipo, int tiempoPreparacion)</text><ellipse cx="157" cy="1409.3056" fill="#84BE84" rx="3" ry="3" style="stroke:#038048;stroke-width:1.0;"/><text fill="#000000" font-family="sans-serif" font-size="14" lengthAdjust="spacing" textLength="112" x="166" y="1413.2376">getTipo() : String</text><ellipse cx="157" cy="1428.3735" fill="#84BE84" rx="3" ry="3" style="stroke:#038048;stroke-width:1.0;"/><text fill="#000000" font-family="sans-serif" font-size="14" lengthAdjust="spacing" textLength="191" x="166" y="1432.3055">getTiempoPreparacion() : int</text><ellipse cx="157" cy="1447.4415" fill="#84BE84" rx="3" ry="3" style="stroke:#038048;stroke-width:1.0;"/><text fill="#000000" font-family="sans-serif" font-size="14" lengthAdjust="spacing" textLength="156" x="166" y="1451.3734">getTiempoEspera() : int</text><ellipse cx="157" cy="1466.5094" fill="#84BE84" rx="3" ry="3" style="stroke:#038048;stroke-width:1.0;"/><text fill="#000000" font-family="sans-serif" font-size="14" lengthAdjust="spacing" textLength="177" x="166" y="1470.4414">incrementarEspera() : void</text></g><!--class Nodo--><g id="elem_Nodo"><rect codeLine="53" fill="#F1F1F1" height="219.6113" id="Nodo" rx="2.5" ry="2.5" style="stroke:#181818;stroke-width:0.5;" width="263" x="7" y="979"/><ellipse cx="116.25" cy="995" fill="#ADD1B2" rx="11" ry="11" style="stroke:#181818;stroke-width:1.0;"/><path d="M115.7188,1001.9219 Q113.9688,1001.9219 112.8281,1001.1875 Q111.7031,1000.4375 111.1406,999.0938 Q110.5938,997.7344 110.5938,995.9375 Q110.5938,993.9063 111.25,992.4531 Q111.9063,991 113.1875,990.2188 Q114.4688,989.4375 116.3438,989.4375 Q117.2344,989.4375 117.9063,989.625 Q118.5781,989.7969 119.2656,990.1406 L118.4531,992.1563 Q117.8281,991.8438 117.2813,991.7188 Q116.75,991.5938 116.2656,991.5938 Q115.0938,991.5938 114.3906,992.125 Q113.6875,992.6563 113.3906,993.6094 Q113.0938,994.5625 113.0938,995.8281 Q113.0938,997.8438 113.8125,998.8125 Q114.5313,999.7656 116.125,999.7656 Q116.7188,999.7656 117.3438,999.6094 Q117.9688,999.4531 118.7969,999.0781 L118.7969,1001.2969 Q118.0625,1001.6094 117.2656,1001.7656 Q116.4844,1001.9219 115.7188,1001.9219 Z " fill="#000000"/><text fill="#000000" font-family="sans-serif" font-size="14" lengthAdjust="spacing" textLength="36" x="136.75" y="1000.432">Nodo</text><line style="stroke:#181818;stroke-width:0.5;" x1="8" x2="269" y1="1011" y2="1011"/><rect fill="none" height="6" style="stroke:#C82930;stroke-width:1.0;" width="6" x="15" y="1023.034"/><text fill="#000000" font-family="sans-serif" font-size="14" lengthAdjust="spacing" textLength="105" x="27" y="1029.9659">pedido : Pedido</text><rect fill="none" height="6" style="stroke:#C82930;stroke-width:1.0;" width="6" x="15" y="1042.1019"/><text fill="#000000" font-family="sans-serif" font-size="14" lengthAdjust="spacing" textLength="112" x="27" y="1049.0339">izquierdo : Nodo</text><rect fill="none" height="6" style="stroke:#C82930;stroke-width:1.0;" width="6" x="15" y="1061.1698"/><text fill="#000000" font-family="sans-serif" font-size="14" lengthAdjust="spacing" textLength="103" x="27" y="1068.1018">derecho : Nodo</text><line style="stroke:#181818;stroke-width:0.5;" x1="8" x2="269" y1="1076.2038" y2="1076.2038"/><ellipse cx="18" cy="1091.2377" fill="#84BE84" rx="3" ry="3" style="stroke:#038048;stroke-width:1.0;"/><text fill="#000000" font-family="sans-serif" font-size="14" lengthAdjust="spacing" textLength="141" x="27" y="1095.1697">Nodo(Pedido pedido)</text><ellipse cx="18" cy="1110.3056" fill="#84BE84" rx="3" ry="3" style="stroke:#038048;stroke-width:1.0;"/><text fill="#000000" font-family="sans-serif" font-size="14" lengthAdjust="spacing" textLength="134" x="27" y="1114.2376">getPedido() : Pedido</text><ellipse cx="18" cy="1129.3735" fill="#84BE84" rx="3" ry="3" style="stroke:#038048;stroke-width:1.0;"/><text fill="#000000" font-family="sans-serif" font-size="14" lengthAdjust="spacing" textLength="143" x="27" y="1133.3055">getIzquierdo() : Nodo</text><ellipse cx="18" cy="1148.4415" fill="#84BE84" rx="3" ry="3" style="stroke:#038048;stroke-width:1.0;"/><text fill="#000000" font-family="sans-serif" font-size="14" lengthAdjust="spacing" textLength="237" x="27" y="1152.3734">setIzquierdo(Nodo izquierdo) : void</text><ellipse cx="18" cy="1167.5094" fill="#84BE84" rx="3" ry="3" style="stroke:#038048;stroke-width:1.0;"/><text fill="#000000" font-family="sans-serif" font-size="14" lengthAdjust="spacing" textLength="134" x="27" y="1171.4414">getDerecho() : Nodo</text><ellipse cx="18" cy="1186.5773" fill="#84BE84" rx="3" ry="3" style="stroke:#038048;stroke-width:1.0;"/><text fill="#000000" font-family="sans-serif" font-size="14" lengthAdjust="spacing" textLength="219" x="27" y="1190.5093">setDerecho(Nodo derecho) : void</text></g><!--link Simulation to Restaurant--><g id="link_Simulation_Restaurant"><path codeLine="65" d="M380.5,74.25 C380.5,94.52 380.5,116.41 380.5,146.66 " fill="none" id="Simulation-to-Restaurant" style="stroke:#181818;stroke-width:1.0;stroke-dasharray:7.0,7.0;"/><polygon fill="#181818" points="380.5,152.66,384.5,143.66,380.5,147.66,376.5,143.66,380.5,152.66" style="stroke:#181818;stroke-width:1.0;"/><text fill="#000000" font-family="sans-serif" font-size="13" lengthAdjust="spacing" textLength="21" x="381.5" y="118.897">usa</text></g><!--reverse link Restaurant to ArbolPedidos--><g id="link_Restaurant_ArbolPedidos"><path codeLine="66" d="M319.3028,555.6732 C311.4128,582.2332 306.88,597.52 299.38,622.79 " fill="none" id="Restaurant-backto-ArbolPedidos" style="stroke:#181818;stroke-width:1.0;"/><polygon fill="#181818" points="322.72,544.17,317.177,548.7825,319.3028,555.6732,324.8458,551.0606,322.72,544.17" style="stroke:#181818;stroke-width:1.0;"/><text fill="#000000" font-family="sans-serif" font-size="13" lengthAdjust="spacing" textLength="52" x="313.5" y="588.897">contiene</text></g><!--reverse link Restaurant to Pedido--><g id="link_Restaurant_Pedido"><path codeLine="67" d="M432.4701,556.0296 C468.1401,731.5296 496.61,982.67 427.5,1199 C418.7,1226.53 403.94,1253.45 387.52,1277.69 " fill="none" id="Restaurant-backto-Pedido" style="stroke:#181818;stroke-width:1.0;stroke-dasharray:7.0,7.0;"/><polygon fill="none" points="430.08,544.27,427.3552,550.9465,432.4701,556.0296,435.1949,549.3531,430.08,544.27" style="stroke:#181818;stroke-width:1.0;"/><text fill="#000000" font-family="sans-serif" font-size="13" lengthAdjust="spacing" textLength="52" x="469.5" y="944.897">gestiona</text></g><!--reverse link ArbolPedidos to Nodo--><g id="link_ArbolPedidos_Nodo"><path codeLine="68" d="M203.6299,911.3295 C193.9399,937.6195 188.07,953.54 178.76,978.79 " fill="none" id="ArbolPedidos-backto-Nodo" style="stroke:#181818;stroke-width:1.0;"/><polygon fill="#181818" points="207.78,900.07,201.9518,904.3164,203.6299,911.3295,209.4582,907.0831,207.78,900.07" style="stroke:#181818;stroke-width:1.0;"/><text fill="#000000" font-family="sans-serif" font-size="13" lengthAdjust="spacing" textLength="52" x="196.5" y="944.897">contiene</text></g><!--reverse link Nodo to Pedido--><g id="link_Nodo_Pedido"><path codeLine="69" d="M205.8714,1209.5543 C220.4614,1235.4443 230.05,1252.48 244.39,1277.92 " fill="none" id="Nodo-backto-Pedido" style="stroke:#181818;stroke-width:1.0;"/><polygon fill="none" points="199.98,1199.1,199.4409,1206.2909,205.8714,1209.5543,206.4104,1202.3633,199.98,1199.1" style="stroke:#181818;stroke-width:1.0;"/><text fill="#000000" font-family="sans-serif" font-size="13" lengthAdjust="spacing" textLength="52" x="225.5" y="1243.897">contiene</text></g><!--reverse link Nodo to Nodo--><g id="link_Nodo_Nodo"><path codeLine="70" d="M281.8669,1065.6541 C302.6269,1069.4241 305,1075.78 305,1089 C305,1102.22 290.82,1110.72 270.06,1114.49 " fill="none" id="Nodo-backto-Nodo" style="stroke:#181818;stroke-width:1.0;"/><polygon fill="none" points="270.06,1063.51,275.2487,1068.5177,281.8669,1065.6541,276.6782,1060.6464,270.06,1063.51" style="stroke:#181818;stroke-width:1.0;"/><text fill="#000000" font-family="sans-serif" font-size="13" lengthAdjust="spacing" textLength="110" x="311" y="1094.397">izquierdo/derecho</text></g><!--SRC=[ZLJ1Zfim4Btp5HoJfadlELHYawYYoWP4QALgjOecnaejWKrjisetse_gD_J7EWo6DMGFUpFlUMRUl1d3IZ0cF8ggAS4A9SDh48QBy6eiVhANi08XPqUhXRmyF8QWBsOUhiCd9OhW9GWOHMSSRpSQfANePRZzbaMRE3cSlYRP8Tf6626a9IhDahleBjx7-OzJb6NnzsYFRA6QSydf0bCb81BfiofJNeX26S9hEaVCDb0Ytr74MC6hMf48QRbNgminaUMI3XxLnUJAGhapDTVmrgLAoCQ-bknXmq1AhX4vTYT2ypXDZgTq7-N9iQMSPSHbqU4Badcykq-JBjF38t4BpxpPd03ToDdWSHlz1AKeGEzBVe42nboj5UC6z4On8ITSfOpLe7UOlr0phEaQUkiIgcWgFYdCIWxoo3JtYM7g_eJSt3M8PxntK6uoJ5KrQ62uLtpaFbJmxwyQaCKecVD1ICEr1JthO3TDJ-0YvBzHEzVtGefAaSHXBHPKH8eExijSkDtucaQaaDWgcc1RpzgTc8sAtQpCABZ6STiShHe72REhQlk7mBDIhQ6l3hh6hcuZQpNiZRUZgUQztflzxNHuAhgCxhrIoeyjTvjgtjkHunrIDnHsy2HWQcFk2NYlYqFZxOAujhkfZX-qUFxL2Au97dQfu9gpdnwqeCDaEtfvpeZ9IY0Hzxc96r8Pdo5vWuZHF373jXDo4z_Z5EtK-grx_zZLwhF_qro7ZO700puib-FdjSQd9768allNr6hLxz0QbPasDmIZm3OJ2V8oqBT2OeYzfLpCOC8drr3m7m00]--></g></svg>