<svg xmlns="http://www.w3.org/2000/svg" xmlns:xlink="http://www.w3.org/1999/xlink" contentStyleType="text/css" data-diagram-type="CLASS" height="1327px" preserveAspectRatio="none" style="width:547px;height:1327px;background:#FFFFFF;" version="1.1" viewBox="0 0 547 1327" width="547px" zoomAndPan="magnify"><defs/><g><!--class Simulation--><g class="entity" data-entity="Simulation" data-source-line="1" data-uid="ent0002" id="entity_Simulation"><rect fill="#F1F1F1" height="64.2969" rx="2.5" ry="2.5" style="stroke:#181818;stroke-width:0.5;" width="202.8184" x="292.67" y="7"/><ellipse cx="352.5426" cy="23" fill="#ADD1B2" rx="11" ry="11" style="stroke:#181818;stroke-width:1;"/><path d="M355.5113,28.6406 Q354.9332,28.9375 354.2926,29.0781 Q353.6519,29.2344 352.9488,29.2344 Q350.4488,29.2344 349.1207,27.5938 Q347.8082,25.9375 347.8082,22.8125 Q347.8082,19.6875 349.1207,18.0313 Q350.4488,16.375 352.9488,16.375 Q353.6519,16.375 354.2926,16.5313 Q354.9488,16.6875 355.5113,16.9844 L355.5113,19.7031 Q354.8863,19.125 354.2926,18.8594 Q353.6988,18.5781 353.0738,18.5781 Q351.7301,18.5781 351.0426,19.6563 Q350.3551,20.7188 350.3551,22.8125 Q350.3551,24.9063 351.0426,25.9844 Q351.7301,27.0469 353.0738,27.0469 Q353.6988,27.0469 354.2926,26.7813 Q354.8863,26.5 355.5113,25.9219 L355.5113,28.6406 Z " fill="#000000"/><text fill="#000000" font-family="sans-serif" font-size="14" lengthAdjust="spacing" textLength="74.5732" x="373.0426" y="27.8467">Simulation</text><line style="stroke:#181818;stroke-width:0.5;" x1="293.67" x2="494.4884" y1="39" y2="39"/><line style="stroke:#181818;stroke-width:0.5;" x1="293.67" x2="494.4884" y1="47" y2="47"/><g data-visibility-modifier="PUBLIC_METHOD"><ellipse cx="303.67" cy="60.6484" fill="#84BE84" rx="3" ry="3" style="stroke:#038048;stroke-width:1;"/></g><text fill="#000000" font-family="sans-serif" font-size="14" lengthAdjust="spacing" text-decoration="underline" textLength="176.8184" x="312.67" y="63.9951">main(String[] args) : void</text></g><!--class Restaurant--><g class="entity" data-entity="Restaurant" data-source-line="5" data-uid="ent0003" id="entity_Restaurant"><rect fill="#F1F1F1" height="341.3438" rx="2.5" ry="2.5" style="stroke:#181818;stroke-width:0.5;" width="260.0762" x="264.04" y="148.29"/><ellipse cx="351.1914" cy="164.29" fill="#ADD1B2" rx="11" ry="11" style="stroke:#181818;stroke-width:1;"/><path d="M354.1601,169.9306 Q353.582,170.2275 352.9414,170.3681 Q352.3007,170.5244 351.5976,170.5244 Q349.0976,170.5244 347.7695,168.8837 Q346.457,167.2275 346.457,164.1025 Q346.457,160.9775 347.7695,159.3212 Q349.0976,157.665 351.5976,157.665 Q352.3007,157.665 352.9414,157.8212 Q353.5976,157.9775 354.1601,158.2744 L354.1601,160.9931 Q353.5351,160.415 352.9414,160.1494 Q352.3476,159.8681 351.7226,159.8681 Q350.3789,159.8681 349.6914,160.9462 Q349.0039,162.0087 349.0039,164.1025 Q349.0039,166.1962 349.6914,167.2744 Q350.3789,168.3369 351.7226,168.3369 Q352.3476,168.3369 352.9414,168.0712 Q353.5351,167.79 354.1601,167.2119 L354.1601,169.9306 Z " fill="#000000"/><text fill="#000000" font-family="sans-serif" font-size="14" lengthAdjust="spacing" textLength="77.2734" x="371.6914" y="169.1367">Restaurant</text><line style="stroke:#181818;stroke-width:0.5;" x1="265.04" x2="523.1162" y1="180.29" y2="180.29"/><g data-visibility-modifier="PRIVATE_FIELD"><rect fill="none" height="6" style="stroke:#C82930;stroke-width:1;" width="6" x="272.04" y="190.9384"/></g><text fill="#000000" font-family="sans-serif" font-size="14" lengthAdjust="spacing" textLength="179.8809" x="284.04" y="197.2851">DURACION_JORNADA : int</text><g data-visibility-modifier="PRIVATE_FIELD"><rect fill="none" height="6" style="stroke:#C82930;stroke-width:1;" width="6" x="272.04" y="207.2353"/></g><text fill="#000000" font-family="sans-serif" font-size="14" lengthAdjust="spacing" textLength="219.584" x="284.04" y="213.582">PROBABILITY_ARRIVAL : double</text><g data-visibility-modifier="PRIVATE_FIELD"><rect fill="none" height="6" style="stroke:#C82930;stroke-width:1;" width="6" x="272.04" y="223.5322"/></g><text fill="#000000" font-family="sans-serif" font-size="14" lengthAdjust="spacing" textLength="133.6016" x="284.04" y="229.8789">cola : ArbolPedidos</text><g data-visibility-modifier="PRIVATE_FIELD"><rect fill="none" height="6" style="stroke:#C82930;stroke-width:1;" width="6" x="272.04" y="239.8291"/></g><text fill="#000000" font-family="sans-serif" font-size="14" lengthAdjust="spacing" textLength="152.7354" x="284.04" y="246.1757">pedidoActual : Pedido</text><g data-visibility-modifier="PRIVATE_FIELD"><rect fill="none" height="6" style="stroke:#C82930;stroke-width:1;" width="6" x="272.04" y="256.1259"/></g><text fill="#000000" font-family="sans-serif" font-size="14" lengthAdjust="spacing" textLength="143.6299" x="284.04" y="262.4726">tiempoRestante : int</text><g data-visibility-modifier="PRIVATE_FIELD"><rect fill="none" height="6" style="stroke:#C82930;stroke-width:1;" width="6" x="272.04" y="272.4228"/></g><text fill="#000000" font-family="sans-serif" font-size="14" lengthAdjust="spacing" textLength="156.9668" x="284.04" y="278.7695">pedidosAtendidos : int</text><g data-visibility-modifier="PRIVATE_FIELD"><rect fill="none" height="6" style="stroke:#C82930;stroke-width:1;" width="6" x="272.04" y="288.7197"/></g><text fill="#000000" font-family="sans-serif" font-size="14" lengthAdjust="spacing" textLength="234.0762" x="284.04" y="295.0664">tiempoTotalEsperaAtendidos : int</text><g data-visibility-modifier="PRIVATE_FIELD"><rect fill="none" height="6" style="stroke:#C82930;stroke-width:1;" width="6" x="272.04" y="305.0166"/></g><text fill="#000000" font-family="sans-serif" font-size="14" lengthAdjust="spacing" textLength="125.3027" x="284.04" y="311.3632">minutoActual : int</text><g data-visibility-modifier="PRIVATE_FIELD"><rect fill="none" height="6" style="stroke:#C82930;stroke-width:1;" width="6" x="272.04" y="321.3134"/></g><text fill="#000000" font-family="sans-serif" font-size="14" lengthAdjust="spacing" textLength="126.5811" x="284.04" y="327.6601">scanner : Scanner</text><g data-visibility-modifier="PRIVATE_FIELD"><rect fill="none" height="6" style="stroke:#C82930;stroke-width:1;" width="6" x="272.04" y="337.6103"/></g><text fill="#000000" font-family="sans-serif" font-size="14" lengthAdjust="spacing" textLength="168.6289" x="284.04" y="343.957">TIPOS_PLATOS : String[]</text><g data-visibility-modifier="PRIVATE_FIELD"><rect fill="none" height="6" style="stroke:#C82930;stroke-width:1;" width="6" x="272.04" y="353.9072"/></g><text fill="#000000" font-family="sans-serif" font-size="14" lengthAdjust="spacing" textLength="174.3164" x="284.04" y="360.2539">RANGOS_TIEMPO : int[][]</text><line style="stroke:#181818;stroke-width:0.5;" x1="265.04" x2="523.1162" y1="367.5556" y2="367.5556"/><g data-visibility-modifier="PUBLIC_METHOD"><ellipse cx="275.04" cy="381.2041" fill="#84BE84" rx="3" ry="3" style="stroke:#038048;stroke-width:1;"/></g><text fill="#000000" font-family="sans-serif" font-size="14" lengthAdjust="spacing" textLength="88.1973" x="284.04" y="384.5507">Restaurant()</text><g data-visibility-modifier="PUBLIC_METHOD"><ellipse cx="275.04" cy="397.5009" fill="#84BE84" rx="3" ry="3" style="stroke:#038048;stroke-width:1;"/></g><text fill="#000000" font-family="sans-serif" font-size="14" lengthAdjust="spacing" textLength="77.6699" x="284.04" y="400.8476">run() : void</text><g data-visibility-modifier="PRIVATE_METHOD"><rect fill="#F24D5C" height="6" style="stroke:#C82930;stroke-width:1;" width="6" x="272.04" y="410.7978"/></g><text fill="#000000" font-family="sans-serif" font-size="14" lengthAdjust="spacing" textLength="157.2676" x="284.04" y="417.1445">validarLlegada() : void</text><g data-visibility-modifier="PRIVATE_METHOD"><rect fill="#F24D5C" height="6" style="stroke:#C82930;stroke-width:1;" width="6" x="272.04" y="427.0947"/></g><text fill="#000000" font-family="sans-serif" font-size="14" lengthAdjust="spacing" textLength="162.6953" x="284.04" y="433.4414">procesarCocina() : void</text><g data-visibility-modifier="PRIVATE_METHOD"><rect fill="#F24D5C" height="6" style="stroke:#C82930;stroke-width:1;" width="6" x="272.04" y="443.3916"/></g><text fill="#000000" font-family="sans-serif" font-size="14" lengthAdjust="spacing" textLength="228.9355" x="284.04" y="449.7382">mostrarEstado(int minuto) : void</text><g data-visibility-modifier="PRIVATE_METHOD"><rect fill="#F24D5C" height="6" style="stroke:#C82930;stroke-width:1;" width="6" x="272.04" y="459.6884"/></g><text fill="#000000" font-family="sans-serif" font-size="14" lengthAdjust="spacing" textLength="174.877" x="284.04" y="466.0351">mostrarResumen() : void</text><g data-visibility-modifier="PRIVATE_METHOD"><rect fill="#F24D5C" height="6" style="stroke:#C82930;stroke-width:1;" width="6" x="272.04" y="475.9853"/></g><text fill="#000000" font-family="sans-serif" font-size="14" lengthAdjust="spacing" textLength="140.2598" x="284.04" y="482.332">cleanScreen() : void</text></g><!--class ArbolPedidos--><g class="entity" data-entity="ArbolPedidos" data-source-line="26" data-uid="ent0004" id="entity_ArbolPedidos"><rect fill="#F1F1F1" height="227.2656" rx="2.5" ry="2.5" style="stroke:#181818;stroke-width:0.5;" width="233.8809" x="151.14" y="566.64"/><ellipse cx="218.204" cy="582.64" fill="#ADD1B2" rx="11" ry="11" style="stroke:#181818;stroke-width:1;"/><path d="M221.1727,588.2806 Q220.5946,588.5775 219.954,588.7181 Q219.3133,588.8744 218.6102,588.8744 Q216.1102,588.8744 214.7821,587.2338 Q213.4696,585.5775 213.4696,582.4525 Q213.4696,579.3275 214.7821,577.6713 Q216.1102,576.015 218.6102,576.015 Q219.3133,576.015 219.954,576.1713 Q220.6102,576.3275 221.1727,576.6244 L221.1727,579.3431 Q220.5477,578.765 219.954,578.4994 Q219.3602,578.2181 218.7352,578.2181 Q217.3915,578.2181 216.704,579.2963 Q216.0165,580.3588 216.0165,582.4525 Q216.0165,584.5463 216.704,585.6244 Q217.3915,586.6869 218.7352,586.6869 Q219.3602,586.6869 219.954,586.4213 Q220.5477,586.14 221.1727,585.5619 L221.1727,588.2806 Z " fill="#000000"/><text fill="#000000" font-family="sans-serif" font-size="14" lengthAdjust="spacing" textLength="91.2529" x="238.704" y="587.4867">ArbolPedidos</text><line style="stroke:#181818;stroke-width:0.5;" x1="152.14" x2="384.0209" y1="598.64" y2="598.64"/><g data-visibility-modifier="PRIVATE_FIELD"><rect fill="none" height="6" style="stroke:#C82930;stroke-width:1;" width="6" x="159.14" y="609.2884"/></g><text fill="#000000" font-family="sans-serif" font-size="14" lengthAdjust="spacing" textLength="75.6807" x="171.14" y="615.6351">raiz : Nodo</text><g data-visibility-modifier="PRIVATE_FIELD"><rect fill="none" height="6" style="stroke:#C82930;stroke-width:1;" width="6" x="159.14" y="625.5853"/></g><text fill="#000000" font-family="sans-serif" font-size="14" lengthAdjust="spacing" textLength="138.5029" x="171.14" y="631.932">comparaciones : int</text><g data-visibility-modifier="PRIVATE_FIELD"><rect fill="none" height="6" style="stroke:#C82930;stroke-width:1;" width="6" x="159.14" y="641.8822"/></g><text fill="#000000" font-family="sans-serif" font-size="14" lengthAdjust="spacing" textLength="85.5928" x="171.14" y="648.2289">tama&#241;o : int</text><line style="stroke:#181818;stroke-width:0.5;" x1="152.14" x2="384.0209" y1="655.5306" y2="655.5306"/><g data-visibility-modifier="PUBLIC_METHOD"><ellipse cx="162.14" cy="669.1791" fill="#84BE84" rx="3" ry="3" style="stroke:#038048;stroke-width:1;"/></g><text fill="#000000" font-family="sans-serif" font-size="14" lengthAdjust="spacing" textLength="102.1768" x="171.14" y="672.5257">ArbolPedidos()</text><g data-visibility-modifier="PUBLIC_METHOD"><ellipse cx="162.14" cy="685.4759" fill="#84BE84" rx="3" ry="3" style="stroke:#038048;stroke-width:1;"/></g><text fill="#000000" font-family="sans-serif" font-size="14" lengthAdjust="spacing" textLength="207.8809" x="171.14" y="688.8226">insertar(Pedido pedido) : void</text><g data-visibility-modifier="PUBLIC_METHOD"><ellipse cx="162.14" cy="701.7728" fill="#84BE84" rx="3" ry="3" style="stroke:#038048;stroke-width:1;"/></g><text fill="#000000" font-family="sans-serif" font-size="14" lengthAdjust="spacing" textLength="173.8516" x="171.14" y="705.1195">extraerMinimo() : Pedido</text><g data-visibility-modifier="PUBLIC_METHOD"><ellipse cx="162.14" cy="718.0697" fill="#84BE84" rx="3" ry="3" style="stroke:#038048;stroke-width:1;"/></g><text fill="#000000" font-family="sans-serif" font-size="14" lengthAdjust="spacing" textLength="100.4063" x="171.14" y="721.4164">tamanio() : int</text><g data-visibility-modifier="PUBLIC_METHOD"><ellipse cx="162.14" cy="734.3666" fill="#84BE84" rx="3" ry="3" style="stroke:#038048;stroke-width:1;"/></g><text fill="#000000" font-family="sans-serif" font-size="14" lengthAdjust="spacing" textLength="174.4941" x="171.14" y="737.7132">getComparaciones() : int</text><g data-visibility-modifier="PUBLIC_METHOD"><ellipse cx="162.14" cy="750.6634" fill="#84BE84" rx="3" ry="3" style="stroke:#038048;stroke-width:1;"/></g><text fill="#000000" font-family="sans-serif" font-size="14" lengthAdjust="spacing" textLength="187.9199" x="171.14" y="754.0101">incrementarEspera() : void</text><g data-visibility-modifier="PUBLIC_METHOD"><ellipse cx="162.14" cy="766.9603" fill="#84BE84" rx="3" ry="3" style="stroke:#038048;stroke-width:1;"/></g><text fill="#000000" font-family="sans-serif" font-size="14" lengthAdjust="spacing" textLength="174.9248" x="171.14" y="770.307">tiempoTotalEspera() : int</text><g data-visibility-modifier="PUBLIC_METHOD"><ellipse cx="162.14" cy="783.2572" fill="#84BE84" rx="3" ry="3" style="stroke:#038048;stroke-width:1;"/></g><text fill="#000000" font-family="sans-serif" font-size="14" lengthAdjust="spacing" textLength="118.5967" x="171.14" y="786.6039">printTree() : void</text></g><!--class Pedido--><g class="entity" data-entity="Pedido" data-source-line="40" data-uid="ent0005" id="entity_Pedido"><rect fill="#F1F1F1" height="178.375" rx="2.5" ry="2.5" style="stroke:#181818;stroke-width:0.5;" width="321.5928" x="150.28" y="1142.57"/><ellipse cx="283.1843" cy="1158.57" fill="#ADD1B2" rx="11" ry="11" style="stroke:#181818;stroke-width:1;"/><path d="M286.153,1164.2106 Q285.5749,1164.5075 284.9343,1164.6481 Q284.2937,1164.8044 283.5905,1164.8044 Q281.0905,1164.8044 279.7624,1163.1638 Q278.4499,1161.5075 278.4499,1158.3825 Q278.4499,1155.2575 279.7624,1153.6013 Q281.0905,1151.945 283.5905,1151.945 Q284.2937,1151.945 284.9343,1152.1013 Q285.5905,1152.2575 286.153,1152.5544 L286.153,1155.2731 Q285.528,1154.695 284.9343,1154.4294 Q284.3405,1154.1481 283.7155,1154.1481 Q282.3718,1154.1481 281.6843,1155.2263 Q280.9968,1156.2888 280.9968,1158.3825 Q280.9968,1160.4763 281.6843,1161.5544 Q282.3718,1162.6169 283.7155,1162.6169 Q284.3405,1162.6169 284.9343,1162.3513 Q285.528,1162.07 286.153,1161.4919 L286.153,1164.2106 Z " fill="#000000"/><text fill="#000000" font-family="sans-serif" font-size="14" lengthAdjust="spacing" textLength="47.2842" x="303.6843" y="1163.4167">Pedido</text><line style="stroke:#181818;stroke-width:0.5;" x1="151.28" x2="470.8728" y1="1174.57" y2="1174.57"/><g data-visibility-modifier="PRIVATE_FIELD"><rect fill="none" height="6" style="stroke:#C82930;stroke-width:1;" width="6" x="158.28" y="1185.2184"/></g><text fill="#000000" font-family="sans-serif" font-size="14" lengthAdjust="spacing" textLength="82.2295" x="170.28" y="1191.5651">tipo : String</text><g data-visibility-modifier="PRIVATE_FIELD"><rect fill="none" height="6" style="stroke:#C82930;stroke-width:1;" width="6" x="158.28" y="1201.5153"/></g><text fill="#000000" font-family="sans-serif" font-size="14" lengthAdjust="spacing" textLength="164.5889" x="170.28" y="1207.862">tiempoPreparacion : int</text><g data-visibility-modifier="PRIVATE_FIELD"><rect fill="none" height="6" style="stroke:#C82930;stroke-width:1;" width="6" x="158.28" y="1217.8122"/></g><text fill="#000000" font-family="sans-serif" font-size="14" lengthAdjust="spacing" textLength="128.9258" x="170.28" y="1224.1589">tiempoEspera : int</text><line style="stroke:#181818;stroke-width:0.5;" x1="151.28" x2="470.8728" y1="1231.4606" y2="1231.4606"/><g data-visibility-modifier="PUBLIC_METHOD"><ellipse cx="161.28" cy="1245.1091" fill="#84BE84" rx="3" ry="3" style="stroke:#038048;stroke-width:1;"/></g><text fill="#000000" font-family="sans-serif" font-size="14" lengthAdjust="spacing" textLength="295.5928" x="170.28" y="1248.4557">Pedido(String tipo, int tiempoPreparacion)</text><g data-visibility-modifier="PUBLIC_METHOD"><ellipse cx="161.28" cy="1261.4059" fill="#84BE84" rx="3" ry="3" style="stroke:#038048;stroke-width:1;"/></g><text fill="#000000" font-family="sans-serif" font-size="14" lengthAdjust="spacing" textLength="119.2051" x="170.28" y="1264.7526">getTipo() : String</text><g data-visibility-modifier="PUBLIC_METHOD"><ellipse cx="161.28" cy="1277.7028" fill="#84BE84" rx="3" ry="3" style="stroke:#038048;stroke-width:1;"/></g><text fill="#000000" font-family="sans-serif" font-size="14" lengthAdjust="spacing" textLength="201.5645" x="170.28" y="1281.0495">getTiempoPreparacion() : int</text><g data-visibility-modifier="PUBLIC_METHOD"><ellipse cx="161.28" cy="1293.9997" fill="#84BE84" rx="3" ry="3" style="stroke:#038048;stroke-width:1;"/></g><text fill="#000000" font-family="sans-serif" font-size="14" lengthAdjust="spacing" textLength="165.9014" x="170.28" y="1297.3464">getTiempoEspera() : int</text><g data-visibility-modifier="PUBLIC_METHOD"><ellipse cx="161.28" cy="1310.2966" fill="#84BE84" rx="3" ry="3" style="stroke:#038048;stroke-width:1;"/></g><text fill="#000000" font-family="sans-serif" font-size="14" lengthAdjust="spacing" textLength="187.9199" x="170.28" y="1313.6432">incrementarEspera() : void</text></g><!--class Nodo--><g class="entity" data-entity="Nodo" data-source-line="51" data-uid="ent0006" id="entity_Nodo"><rect fill="#F1F1F1" height="194.6719" rx="2.5" ry="2.5" style="stroke:#181818;stroke-width:0.5;" width="272.1621" x="7" y="870.9"/><ellipse cx="120.5859" cy="886.9" fill="#ADD1B2" rx="11" ry="11" style="stroke:#181818;stroke-width:1;"/><path d="M123.5547,892.5406 Q122.9766,892.8375 122.3359,892.9781 Q121.6953,893.1344 120.9922,893.1344 Q118.4922,893.1344 117.1641,891.4938 Q115.8516,889.8375 115.8516,886.7125 Q115.8516,883.5875 117.1641,881.9313 Q118.4922,880.275 120.9922,880.275 Q121.6953,880.275 122.3359,880.4313 Q122.9922,880.5875 123.5547,880.8844 L123.5547,883.6031 Q122.9297,883.025 122.3359,882.7594 Q121.7422,882.4781 121.1172,882.4781 Q119.7734,882.4781 119.0859,883.5563 Q118.3984,884.6188 118.3984,886.7125 Q118.3984,888.8063 119.0859,889.8844 Q119.7734,890.9469 121.1172,890.9469 Q121.7422,890.9469 122.3359,890.6813 Q122.9297,890.4 123.5547,889.8219 L123.5547,892.5406 Z " fill="#000000"/><text fill="#000000" font-family="sans-serif" font-size="14" lengthAdjust="spacing" textLength="36.4902" x="141.0859" y="891.7467">Nodo</text><line style="stroke:#181818;stroke-width:0.5;" x1="8" x2="278.1621" y1="902.9" y2="902.9"/><g data-visibility-modifier="PRIVATE_FIELD"><rect fill="none" height="6" style="stroke:#C82930;stroke-width:1;" width="6" x="15" y="913.5484"/></g><text fill="#000000" font-family="sans-serif" font-size="14" lengthAdjust="spacing" textLength="108.6299" x="27" y="919.8951">pedido : Pedido</text><g data-visibility-modifier="PRIVATE_FIELD"><rect fill="none" height="6" style="stroke:#C82930;stroke-width:1;" width="6" x="15" y="929.8453"/></g><text fill="#000000" font-family="sans-serif" font-size="14" lengthAdjust="spacing" textLength="114.8164" x="27" y="936.192">izquierdo : Nodo</text><g data-visibility-modifier="PRIVATE_FIELD"><rect fill="none" height="6" style="stroke:#C82930;stroke-width:1;" width="6" x="15" y="946.1422"/></g><text fill="#000000" font-family="sans-serif" font-size="14" lengthAdjust="spacing" textLength="107.1123" x="27" y="952.4889">derecho : Nodo</text><line style="stroke:#181818;stroke-width:0.5;" x1="8" x2="278.1621" y1="959.7906" y2="959.7906"/><g data-visibility-modifier="PUBLIC_METHOD"><ellipse cx="18" cy="973.4391" fill="#84BE84" rx="3" ry="3" style="stroke:#038048;stroke-width:1;"/></g><text fill="#000000" font-family="sans-serif" font-size="14" lengthAdjust="spacing" textLength="146.877" x="27" y="976.7857">Nodo(Pedido pedido)</text><g data-visibility-modifier="PUBLIC_METHOD"><ellipse cx="18" cy="989.7359" fill="#84BE84" rx="3" ry="3" style="stroke:#038048;stroke-width:1;"/></g><text fill="#000000" font-family="sans-serif" font-size="14" lengthAdjust="spacing" textLength="142.0986" x="27" y="993.0826">getPedido() : Pedido</text><g data-visibility-modifier="PUBLIC_METHOD"><ellipse cx="18" cy="1006.0328" fill="#84BE84" rx="3" ry="3" style="stroke:#038048;stroke-width:1;"/></g><text fill="#000000" font-family="sans-serif" font-size="14" lengthAdjust="spacing" textLength="148.9688" x="27" y="1009.3795">getIzquierdo() : Nodo</text><g data-visibility-modifier="PUBLIC_METHOD"><ellipse cx="18" cy="1022.3297" fill="#84BE84" rx="3" ry="3" style="stroke:#038048;stroke-width:1;"/></g><text fill="#000000" font-family="sans-serif" font-size="14" lengthAdjust="spacing" textLength="246.1621" x="27" y="1025.6764">setIzquierdo(Nodo izquierdo) : void</text><g data-visibility-modifier="PUBLIC_METHOD"><ellipse cx="18" cy="1038.6266" fill="#84BE84" rx="3" ry="3" style="stroke:#038048;stroke-width:1;"/></g><text fill="#000000" font-family="sans-serif" font-size="14" lengthAdjust="spacing" textLength="142.9189" x="27" y="1041.9732">getDerecho() : Nodo</text><g data-visibility-modifier="PUBLIC_METHOD"><ellipse cx="18" cy="1054.9234" fill="#84BE84" rx="3" ry="3" style="stroke:#038048;stroke-width:1;"/></g><text fill="#000000" font-family="sans-serif" font-size="14" lengthAdjust="spacing" textLength="232.4082" x="27" y="1058.2701">setDerecho(Nodo derecho) : void</text></g><!--link Simulation to Restaurant--><g class="link" data-entity-1="Simulation" data-entity-2="Restaurant" data-source-line="63" data-uid="lnk7" id="link_Simulation_Restaurant"><path codeLine="63" d="M394.08,71.74 C394.08,91.51 394.08,112.7 394.08,141.81" fill="none" id="Simulation-to-Restaurant" style="stroke:#181818;stroke-width:1;stroke-dasharray:7,7;"/><polygon fill="#181818" points="394.08,147.81,398.08,138.81,394.08,142.81,390.08,138.81,394.08,147.81" style="stroke:#181818;stroke-width:1;"/><text fill="#000000" font-family="sans-serif" font-size="13" lengthAdjust="spacing" textLength="22.9785" x="395.08" y="114.3569">usa</text></g><!--reverse link Restaurant to ArbolPedidos--><g class="link" data-entity-1="Restaurant" data-entity-2="ArbolPedidos" data-source-line="64" data-uid="lnk8" id="link_Restaurant_ArbolPedidos"><path codeLine="64" d="M330.5198,501.2142 C321.4498,527.0842 316.26,541.9 307.75,566.15" fill="none" id="Restaurant-backto-ArbolPedidos" style="stroke:#181818;stroke-width:1;"/><polygon fill="#181818" points="334.49,489.89,328.7301,494.2287,330.5198,501.2142,336.2796,496.8755,334.49,489.89" style="stroke:#181818;stroke-width:1;"/><text fill="#000000" font-family="sans-serif" font-size="13" lengthAdjust="spacing" textLength="56.2847" x="325.08" y="532.7069">contiene</text></g><!--reverse link Restaurant to Pedido--><g class="link" data-entity-1="Restaurant" data-entity-2="Pedido" data-source-line="65" data-uid="lnk9" id="link_Restaurant_Pedido"><path codeLine="65" d="M445.6495,501.5701 C481.4795,656.1601 510.67,876.69 444.08,1065.57 C434.41,1093.01 418.04,1119.24 400.03,1142.4" fill="none" id="Restaurant-backto-Pedido" style="stroke:#181818;stroke-width:1;stroke-dasharray:7,7;"/><polygon fill="none" points="442.94,489.88,440.398,496.6282,445.6495,501.5701,448.1914,494.8219,442.94,489.88" style="stroke:#181818;stroke-width:1;"/><text fill="#000000" font-family="sans-serif" font-size="13" lengthAdjust="spacing" textLength="55.8911" x="484.08" y="836.9669">gestiona</text></g><!--reverse link ArbolPedidos to Nodo--><g class="link" data-entity-1="ArbolPedidos" data-entity-2="Nodo" data-source-line="66" data-uid="lnk10" id="link_ArbolPedidos_Nodo"><path codeLine="66" d="M213.8718,805.2846 C202.8118,830.5746 196,846.18 185.26,870.73" fill="none" id="ArbolPedidos-backto-Nodo" style="stroke:#181818;stroke-width:1;"/><polygon fill="#181818" points="218.68,794.29,212.611,798.1845,213.8718,805.2846,219.9407,801.39,218.68,794.29" style="stroke:#181818;stroke-width:1;"/><text fill="#000000" font-family="sans-serif" font-size="13" lengthAdjust="spacing" textLength="56.2847" x="207.08" y="836.9669">contiene</text></g><!--reverse link Nodo to Pedido--><g class="link" data-entity-1="Nodo" data-entity-2="Pedido" data-source-line="67" data-uid="lnk11" id="link_Nodo_Pedido"><path codeLine="67" d="M211.6479,1075.9749 C227.7279,1100.9949 238.47,1117.72 254.26,1142.31" fill="none" id="Nodo-backto-Pedido" style="stroke:#181818;stroke-width:1;"/><polygon fill="none" points="205.16,1065.88,205.039,1073.0901,211.6479,1075.9749,211.7689,1068.7648,205.16,1065.88" style="stroke:#181818;stroke-width:1;"/><text fill="#000000" font-family="sans-serif" font-size="13" lengthAdjust="spacing" textLength="56.2847" x="234.08" y="1108.6369">contiene</text></g><!--reverse link Nodo to Nodo--><g class="link" data-entity-1="Nodo" data-entity-2="Nodo" data-source-line="68" data-uid="lnk12" id="link_Nodo_Nodo"><path codeLine="68" d="M291.4733,947.122 C312.0433,950.692 314.16,956.37 314.16,968.24 C314.16,980.11 300.22,987.83 279.65,991.4" fill="none" id="Nodo-backto-Nodo" style="stroke:#181818;stroke-width:1;"/><polygon fill="none" points="279.65,945.07,284.8776,950.0371,291.4733,947.122,286.2456,942.1549,279.65,945.07" style="stroke:#181818;stroke-width:1;"/><text fill="#000000" font-family="sans-serif" font-size="13" lengthAdjust="spacing" textLength="117.3999" x="320.16" y="972.8069">izquierdo/derecho</text></g><!--SRC=[ZLJ1Zfim4Btp5Hn9QT9x3fNOJLHHPGC2MgbQhQ9POwMMmAQsMLKRxKVr6_fZ7Opn6f93R-OzpyoRDsD80qg59Mlx1ZGJFBm4OHY75wNnaxo5BJ0UbLeoVdvy2a6UrIhSXY-2rS5R410JNL2ytKlWsaIlmzst8hbFi-FfQrOSars24OnhG-L5TfVSfOUq-d5AYYBzdXoGhKN_t51pWOW644daisXoMhDQA8DtvfmGtKE3_4WPHZFQTiA8u9fwjSOGbMZApS6ZnfXAQ6ZsggCIRbrg6U_rUya9LWGufnAHSZmPj4hph3pbXwJAoe6obXckI8vVaApI_KEUZPaUdmmNU-P5AmF8daVEuo7w1HfMWpmqz0mrpBbE2a8Lo7j165zmhL1QWjnZ_bf4MDCsTEiIgkXRkYXC6Wgy99BwX9kwFo4xTmdi5UyTXPqC4Mq74WZk5Psv3oty_ICS4i-IMHyOLrHgaD48ssbw0kEG_aRjL3umpbfX9BgrY4qHpaPuAdEc-jxND2CPnrRH13ruDkn4D2jsjJApu0x7hIkqwePJje6BtRnEkFtmTZ6NTD9rjQTZFQ_QcD6-IvFouy1TfrfDRLTunqXpXIsy25ZQLNa2_jSjr_Ym2BRjSNhpXyjUV_MCIWExdQcffEId1yNciDY2IPurOZ5w9D8fj-5SAkKpHfuJCHisPjYDGgxY9zn4MxL-wzw_TBFvxFySjs6l8F203-lr_1bjySbm72Ad_ZMnsKmxj4LbQiWDmInmo6G4UHdCjq32nLvJDiQPyCasz0y0]--></g></svg>