<svg xmlns="http://www.w3.org/2000/svg" xmlns:xlink="http://www.w3.org/1999/xlink" contentStyleType="text/css" data-diagram-type="CLASS" height="886px" preserveAspectRatio="none" style="width:590px;height:886px;background:#FFFFFF;" version="1.1" viewBox="0 0 590 886" width="590px" zoomAndPan="magnify"><defs/><g><g class="entity" data-entity="sim" data-source-line="1" data-uid="ent0002" id="entity_sim"><rect fill="#F1F1F1" height="36.2969" rx="2.5" ry="2.5" style="stroke:#181818;stroke-width:0.5;" width="93.29" x="86.68" y="7"/><text fill="#000000" font-family="sans-serif" font-size="14" lengthAdjust="spacing" textLength="79.29" x="93.68" y="21.9951">:Simulation</text><line style="stroke:#181818;stroke-width:0.5;" x1="87.68" x2="178.97" y1="27.2969" y2="27.2969"/></g><g class="entity" data-entity="rest" data-source-line="4" data-uid="ent0003" id="entity_rest"><rect fill="#F1F1F1" height="93.4844" rx="2.5" ry="2.5" style="stroke:#181818;stroke-width:0.5;" width="252.6523" x="7" y="104.3"/><text fill="#000000" font-family="sans-serif" font-size="14" lengthAdjust="spacing" textLength="81.9902" x="92.3311" y="119.2951">:Restaurant</text><line style="stroke:#181818;stroke-width:0.5;" x1="8" x2="258.6523" y1="124.5969" y2="124.5969"/><text fill="#000000" font-family="sans-serif" font-size="14" lengthAdjust="spacing" textLength="131.8789" x="13" y="141.592">minutoActual = 15</text><text fill="#000000" font-family="sans-serif" font-size="14" lengthAdjust="spacing" textLength="154.6357" x="13" y="157.8889">pedidosAtendidos = 8</text><text fill="#000000" font-family="sans-serif" font-size="14" lengthAdjust="spacing" textLength="141.2988" x="13" y="174.1857">tiempoRestante = 1</text><text fill="#000000" font-family="sans-serif" font-size="14" lengthAdjust="spacing" textLength="240.6523" x="13" y="190.4826">tiempoTotalEsperaAtendidos = 45</text></g><g class="entity" data-entity="pedActual" data-source-line="11" data-uid="ent0004" id="entity_pedActual"><rect fill="#F1F1F1" height="77.1875" rx="2.5" ry="2.5" style="stroke:#181818;stroke-width:0.5;" width="174.2578" x="26.2" y="258.78"/><text fill="#000000" font-family="sans-serif" font-size="14" lengthAdjust="spacing" textLength="143.835" x="41.4114" y="273.7751">pedidoActual:Pedido</text><line style="stroke:#181818;stroke-width:0.5;" x1="27.2" x2="199.4578" y1="279.0769" y2="279.0769"/><text fill="#000000" font-family="sans-serif" font-size="14" lengthAdjust="spacing" textLength="92.2373" x="32.2" y="296.072">tipo = "Caf&#233;"</text><text fill="#000000" font-family="sans-serif" font-size="14" lengthAdjust="spacing" textLength="162.2578" x="32.2" y="312.3689">tiempoPreparacion = 3</text><text fill="#000000" font-family="sans-serif" font-size="14" lengthAdjust="spacing" textLength="126.5947" x="32.2" y="328.6657">tiempoEspera = 2</text></g><g class="entity" data-entity="arbol" data-source-line="17" data-uid="ent0005" id="entity_arbol"><rect fill="#F1F1F1" height="60.8906" rx="2.5" ry="2.5" style="stroke:#181818;stroke-width:0.5;" width="157.0791" x="235.79" y="266.93"/><text fill="#000000" font-family="sans-serif" font-size="14" lengthAdjust="spacing" textLength="124.7012" x="251.979" y="281.9251">cola:ArbolPedidos</text><line style="stroke:#181818;stroke-width:0.5;" x1="236.79" x2="391.8691" y1="287.2269" y2="287.2269"/><text fill="#000000" font-family="sans-serif" font-size="14" lengthAdjust="spacing" textLength="145.0791" x="241.79" y="304.222">comparaciones = 47</text><text fill="#000000" font-family="sans-serif" font-size="14" lengthAdjust="spacing" textLength="83.2617" x="241.79" y="320.5189">tama&#241;o = 4</text></g><g class="entity" data-entity="nodo1" data-source-line="22" data-uid="ent0006" id="entity_nodo1"><rect fill="#F1F1F1" height="36.2969" rx="2.5" ry="2.5" style="stroke:#181818;stroke-width:0.5;" width="80.7803" x="273.94" y="396.97"/><text fill="#000000" font-family="sans-serif" font-size="14" lengthAdjust="spacing" textLength="66.7803" x="280.94" y="411.9651">raiz:Nodo</text><line style="stroke:#181818;stroke-width:0.5;" x1="274.94" x2="353.7203" y1="417.2669" y2="417.2669"/></g><g class="entity" data-entity="ped1" data-source-line="25" data-uid="ent0007" id="entity_ped1"><rect fill="#F1F1F1" height="77.1875" rx="2.5" ry="2.5" style="stroke:#181818;stroke-width:0.5;" width="174.2578" x="45.2" y="510.27"/><text fill="#000000" font-family="sans-serif" font-size="14" lengthAdjust="spacing" textLength="52.001" x="106.3284" y="525.2651">:Pedido</text><line style="stroke:#181818;stroke-width:0.5;" x1="46.2" x2="218.4578" y1="530.5669" y2="530.5669"/><text fill="#000000" font-family="sans-serif" font-size="14" lengthAdjust="spacing" textLength="123.9082" x="51.2" y="547.562">tipo = "Bocadillo"</text><text fill="#000000" font-family="sans-serif" font-size="14" lengthAdjust="spacing" textLength="162.2578" x="51.2" y="563.8589">tiempoPreparacion = 4</text><text fill="#000000" font-family="sans-serif" font-size="14" lengthAdjust="spacing" textLength="126.5947" x="51.2" y="580.1557">tiempoEspera = 5</text></g><g class="entity" data-entity="nodo2" data-source-line="31" data-uid="ent0008" id="entity_nodo2"><rect fill="#F1F1F1" height="36.2969" rx="2.5" ry="2.5" style="stroke:#181818;stroke-width:0.5;" width="119.916" x="254.37" y="530.71"/><text fill="#000000" font-family="sans-serif" font-size="14" lengthAdjust="spacing" textLength="105.916" x="261.37" y="545.7051">izquierdo:Nodo</text><line style="stroke:#181818;stroke-width:0.5;" x1="255.37" x2="373.286" y1="551.0069" y2="551.0069"/></g><g class="entity" data-entity="ped2" data-source-line="34" data-uid="ent0009" id="entity_ped2"><rect fill="#F1F1F1" height="77.1875" rx="2.5" ry="2.5" style="stroke:#181818;stroke-width:0.5;" width="174.2578" x="45.2" y="664.45"/><text fill="#000000" font-family="sans-serif" font-size="14" lengthAdjust="spacing" textLength="52.001" x="106.3284" y="679.4451">:Pedido</text><line style="stroke:#181818;stroke-width:0.5;" x1="46.2" x2="218.4578" y1="684.7469" y2="684.7469"/><text fill="#000000" font-family="sans-serif" font-size="14" lengthAdjust="spacing" textLength="115.9922" x="51.2" y="701.742">tipo = "Colacao"</text><text fill="#000000" font-family="sans-serif" font-size="14" lengthAdjust="spacing" textLength="162.2578" x="51.2" y="718.0389">tiempoPreparacion = 3</text><text fill="#000000" font-family="sans-serif" font-size="14" lengthAdjust="spacing" textLength="126.5947" x="51.2" y="734.3357">tiempoEspera = 3</text></g><g class="entity" data-entity="nodo3" data-source-line="40" data-uid="ent0010" id="entity_nodo3"><rect fill="#F1F1F1" height="36.2969" rx="2.5" ry="2.5" style="stroke:#181818;stroke-width:0.5;" width="112.2119" x="425.22" y="530.71"/><text fill="#000000" font-family="sans-serif" font-size="14" lengthAdjust="spacing" textLength="98.2119" x="432.22" y="545.7051">derecho:Nodo</text><line style="stroke:#181818;stroke-width:0.5;" x1="426.22" x2="536.4319" y1="551.0069" y2="551.0069"/></g><g class="entity" data-entity="ped3" data-source-line="43" data-uid="ent0011" id="entity_ped3"><rect fill="#F1F1F1" height="77.1875" rx="2.5" ry="2.5" style="stroke:#181818;stroke-width:0.5;" width="174.2578" x="409.2" y="664.45"/><text fill="#000000" font-family="sans-serif" font-size="14" lengthAdjust="spacing" textLength="52.001" x="470.3284" y="679.4451">:Pedido</text><line style="stroke:#181818;stroke-width:0.5;" x1="410.2" x2="582.4578" y1="684.7469" y2="684.7469"/><text fill="#000000" font-family="sans-serif" font-size="14" lengthAdjust="spacing" textLength="123.8672" x="415.2" y="701.742">tipo = "Ensalada"</text><text fill="#000000" font-family="sans-serif" font-size="14" lengthAdjust="spacing" textLength="162.2578" x="415.2" y="718.0389">tiempoPreparacion = 7</text><text fill="#000000" font-family="sans-serif" font-size="14" lengthAdjust="spacing" textLength="126.5947" x="415.2" y="734.3357">tiempoEspera = 8</text></g><g class="entity" data-entity="nodo4" data-source-line="49" data-uid="ent0012" id="entity_nodo4"><rect fill="#F1F1F1" height="36.2969" rx="2.5" ry="2.5" style="stroke:#181818;stroke-width:0.5;" width="119.916" x="254.37" y="684.9"/><text fill="#000000" font-family="sans-serif" font-size="14" lengthAdjust="spacing" textLength="105.916" x="261.37" y="699.8951">izquierdo:Nodo</text><line style="stroke:#181818;stroke-width:0.5;" x1="255.37" x2="373.286" y1="705.1969" y2="705.1969"/></g><g class="entity" data-entity="ped4" data-source-line="52" data-uid="ent0013" id="entity_ped4"><rect fill="#F1F1F1" height="77.1875" rx="2.5" ry="2.5" style="stroke:#181818;stroke-width:0.5;" width="174.2578" x="227.2" y="802.64"/><text fill="#000000" font-family="sans-serif" font-size="14" lengthAdjust="spacing" textLength="52.001" x="288.3284" y="817.6351">:Pedido</text><line style="stroke:#181818;stroke-width:0.5;" x1="228.2" x2="400.4578" y1="822.9369" y2="822.9369"/><text fill="#000000" font-family="sans-serif" font-size="14" lengthAdjust="spacing" textLength="108.8008" x="233.2" y="839.932">tipo = "Bebida"</text><text fill="#000000" font-family="sans-serif" font-size="14" lengthAdjust="spacing" textLength="162.2578" x="233.2" y="856.2289">tiempoPreparacion = 2</text><text fill="#000000" font-family="sans-serif" font-size="14" lengthAdjust="spacing" textLength="126.5947" x="233.2" y="872.5257">tiempoEspera = 1</text></g><g class="entity" data-entity="GMN25" data-source-line="77" data-uid="ent0026" id="entity_GMN25"><path d="M295.03,115.78 L295.03,147.04 L260.09,151.04 L295.03,155.04 L295.03,186.3113 A0,0 0 0 0 295.03,186.3113 L503.6159,186.3113 A0,0 0 0 0 503.6159,186.3113 L503.6159,125.78 L493.6159,115.78 L295.03,115.78 A0,0 0 0 0 295.03,115.78" fill="#FEFFDD" style="stroke:#181818;stroke-width:0.5;"/><path d="M493.6159,115.78 L493.6159,125.78 L503.6159,125.78 L493.6159,115.78" fill="#FEFFDD" style="stroke:#181818;stroke-width:0.5;"/><text fill="#000000" font-family="sans-serif" font-size="13" lengthAdjust="spacing" textLength="182.8188" x="301.03" y="132.8469">El cocinero est&#225; terminando</text><text fill="#000000" font-family="sans-serif" font-size="13" lengthAdjust="spacing" textLength="160.0688" x="301.03" y="147.9797">un Caf&#233; (1 min restante)</text><text fill="#000000" font-family="sans-serif" font-size="13" lengthAdjust="spacing" textLength="4.1323" x="301.03" y="163.1125">&#160;</text><text fill="#000000" font-family="sans-serif" font-size="13" lengthAdjust="spacing" textLength="187.5859" x="301.03" y="178.2453">4 pedidos en cola esperando</text></g><!--link sim to rest--><g class="link" data-entity-1="sim" data-entity-2="rest" data-source-line="59" data-uid="lnk14" id="link_sim_rest"><path codeLine="59" d="M133.33,43.64 C133.33,59.25 133.33,76.81 133.33,97.8" fill="none" id="sim-to-rest" style="stroke:#181818;stroke-width:1;stroke-dasharray:7,7;"/><polygon fill="#181818" points="133.33,103.8,137.33,94.8,133.33,98.8,129.33,94.8,133.33,103.8" style="stroke:#181818;stroke-width:1;"/></g><!--reverse link rest to arbol--><g class="link" data-entity-1="rest" data-entity-2="arbol" data-source-line="60" data-uid="lnk15" id="link_rest_arbol"><path codeLine="60" d="M200.4721,205.5917 C228.6121,228.0317 252.25,246.88 277.03,266.63" fill="none" id="rest-backto-arbol" style="stroke:#181818;stroke-width:1;"/><polygon fill="#181818" points="191.09,198.11,193.2872,204.9782,200.4721,205.5917,198.275,198.7235,191.09,198.11" style="stroke:#181818;stroke-width:1;"/></g><!--reverse link rest to pedActual--><g class="link" data-entity-1="rest" data-entity-2="pedActual" data-source-line="61" data-uid="lnk16" id="link_rest_pedActual"><path codeLine="61" d="M125.2977,209.9971 C122.6077,229.4671 121.14,239.98 118.58,258.47" fill="none" id="rest-backto-pedActual" style="stroke:#181818;stroke-width:1;stroke-dasharray:7,7;"/><polygon fill="none" points="126.94,198.11,122.1565,203.5061,125.2977,209.9971,130.0812,204.601,126.94,198.11" style="stroke:#181818;stroke-width:1;"/></g><!--reverse link arbol to nodo1--><g class="link" data-entity-1="arbol" data-entity-2="nodo1" data-source-line="64" data-uid="lnk17" id="link_arbol_nodo1"><path codeLine="64" d="M314.33,340.18 C314.33,361.88 314.33,378.53 314.33,396.65" fill="none" id="arbol-backto-nodo1" style="stroke:#181818;stroke-width:1;"/><polygon fill="#181818" points="314.33,328.18,310.33,334.18,314.33,340.18,318.33,334.18,314.33,328.18" style="stroke:#181818;stroke-width:1;"/></g><!--reverse link nodo1 to ped1--><g class="link" data-entity-1="nodo1" data-entity-2="ped1" data-source-line="65" data-uid="lnk18" id="link_nodo1_ped1"><path codeLine="65" d="M280.439,440.6458 C253.649,460.0358 219.37,484.85 184.63,510" fill="none" id="nodo1-backto-ped1" style="stroke:#181818;stroke-width:1;"/><polygon fill="none" points="290.16,433.61,282.9542,433.8876,280.439,440.6458,287.6448,440.3682,290.16,433.61" style="stroke:#181818;stroke-width:1;"/></g><!--reverse link nodo1 to nodo2--><g class="link" data-entity-1="nodo1" data-entity-2="nodo2" data-source-line="66" data-uid="lnk19" id="link_nodo1_nodo2"><path codeLine="66" d="M314.33,445.61 C314.33,470.81 314.33,505.06 314.33,530.29" fill="none" id="nodo1-backto-nodo2" style="stroke:#181818;stroke-width:1;"/><polygon fill="#181818" points="314.33,433.61,310.33,439.61,314.33,445.61,318.33,439.61,314.33,433.61" style="stroke:#181818;stroke-width:1;"/><text fill="#000000" font-family="sans-serif" font-size="13" lengthAdjust="spacing" textLength="60.0869" x="315.33" y="476.3369">izquierdo</text></g><!--reverse link nodo1 to nodo3--><g class="link" data-entity-1="nodo1" data-entity-2="nodo3" data-source-line="67" data-uid="lnk20" id="link_nodo1_nodo3"><path codeLine="67" d="M352.1821,440.2793 C365.2521,448.8293 370.85,452.91 384.33,463.27 C412.68,485.04 443.48,512.64 462.6,530.28" fill="none" id="nodo1-backto-nodo3" style="stroke:#181818;stroke-width:1;"/><polygon fill="#181818" points="342.14,433.71,344.9713,440.342,352.1821,440.2793,349.3508,433.6473,342.14,433.71" style="stroke:#181818;stroke-width:1;"/><text fill="#000000" font-family="sans-serif" font-size="13" lengthAdjust="spacing" textLength="52.9331" x="405.33" y="476.3369">derecho</text></g><!--reverse link nodo2 to ped2--><g class="link" data-entity-1="nodo2" data-entity-2="ped2" data-source-line="69" data-uid="lnk21" id="link_nodo2_ped2"><path codeLine="69" d="M284.2434,575.0167 C256.1334,598.5167 214.6,633.25 177.55,664.24" fill="none" id="nodo2-backto-ped2" style="stroke:#181818;stroke-width:1;"/><polygon fill="none" points="293.45,567.32,286.2812,568.0995,284.2434,575.0167,291.4123,574.2372,293.45,567.32" style="stroke:#181818;stroke-width:1;"/></g><!--reverse link nodo2 to nodo4--><g class="link" data-entity-1="nodo2" data-entity-2="nodo4" data-source-line="70" data-uid="lnk22" id="link_nodo2_nodo4"><path codeLine="70" d="M314.33,579.32 C314.33,608.68 314.33,655.58 314.33,684.79" fill="none" id="nodo2-backto-nodo4" style="stroke:#181818;stroke-width:1;"/><polygon fill="#181818" points="314.33,567.32,310.33,573.32,314.33,579.32,318.33,573.32,314.33,567.32" style="stroke:#181818;stroke-width:1;"/><text fill="#000000" font-family="sans-serif" font-size="13" lengthAdjust="spacing" textLength="60.0869" x="315.33" y="630.5169">izquierdo</text></g><!--reverse link nodo3 to ped3--><g class="link" data-entity-1="nodo3" data-entity-2="ped3" data-source-line="72" data-uid="lnk23" id="link_nodo3_ped3"><path codeLine="72" d="M484.2239,579.2624 C486.5339,602.7624 489.55,633.25 492.6,664.24" fill="none" id="nodo3-backto-ped3" style="stroke:#181818;stroke-width:1;"/><polygon fill="none" points="483.05,567.32,479.6561,573.6825,484.2239,579.2624,487.6178,572.8999,483.05,567.32" style="stroke:#181818;stroke-width:1;"/></g><!--reverse link nodo4 to ped4--><g class="link" data-entity-1="nodo4" data-entity-2="ped4" data-source-line="74" data-uid="lnk24" id="link_nodo4_ped4"><path codeLine="74" d="M314.33,733.57 C314.33,753.83 314.33,775.77 314.33,802.18" fill="none" id="nodo4-backto-ped4" style="stroke:#181818;stroke-width:1;"/><polygon fill="none" points="314.33,721.57,310.33,727.57,314.33,733.57,318.33,727.57,314.33,721.57" style="stroke:#181818;stroke-width:1;"/></g><!--SRC=[bLHBRjim4Dtp50Dl-W5YG1A3109Qm2syBOAq5nXJauO5HQeKjKdGmsJPPS_WYtL8IevamqQxq_pUUpEQeTlz81LWLN_LxM0mQ6TNW3tqkeLdyKi8DoNSKnzmy6X3Il1iSWP0g-qGt4Q50GryWEAQVHqrkd7z9f1D7-o_PNVGr7Ok0Tb0CVdW_EO2cctVaSTvbRoUQyYmcQg-IqRImlwH_pa1TevBLv_nOVzxTM2uyzIXHyKTShGw-3CfkyevbN86wutVEPDv-aI4qP58b6idD4f2Ro8WjhZ_4ydb7CkZVgg_k56ivO_YQBRBNef56v-SmaORuywr8azRMKnDF_qSDFd6BJMK5pMKor7oD1Iw_nXcDSTko9DwFEAlBl9N2_wjxT5WW-S4t9mAkFs74SYB4kJoDz1EdnTGdWee8lGRk2SpRKddjLMwGqEzYFUrNdzCPoJIBRs_kihxbKstNh_kTGJQzi4FR35uGmRsBoatRsIiJNibydOvjkCYZUOKBg66moYEOXN7nlyaH4uUKShHd3Bb0aNauZ6tohQSR1bjFdMllpzoJm-vNu2juGjIsf9tm9xz2mJo_9AWPKY0mKAwNdXRnFSbLSKduvtWe9oU5o0ByKuP8SuyblBB0P7mBm00]--></g></svg>