<?xml version="1.0" encoding="us-ascii" standalone="no"?><svg xmlns="http://www.w3.org/2000/svg" xmlns:xlink="http://www.w3.org/1999/xlink" contentStyleType="text/css" height="473px" preserveAspectRatio="none" style="width:275px;height:473px;background:#FFFFFF;" version="1.1" viewBox="0 0 275 473" width="275px" zoomAndPan="magnify"><defs/><g><text fill="#000000" font-family="sans-serif" font-size="14" font-weight="bold" lengthAdjust="spacing" textLength="180" x="40.5" y="24.5332">Array actuando como lista</text><!--class ArrayComoLista--><g id="elem_ArrayComoLista"><rect codeLine="4" fill="#F1F1F1" height="276.9219" id="ArrayComoLista" rx="2.5" ry="2.5" style="stroke:#181818;stroke-width:0.5;" width="261" x="7" y="189.6094"/><ellipse cx="82.75" cy="205.6094" fill="#ADD1B2" rx="11" ry="11" style="stroke:#181818;stroke-width:1.0;"/><path d="M85.5156,201.4844 Q85.6719,201.2656 85.8594,201.1563 Q86.0469,201.0469 86.2656,201.0469 Q86.6406,201.0469 86.875,201.3125 Q87.1094,201.5625 87.1094,202.1719 L87.1094,203.625 Q87.1094,204.2344 86.875,204.5 Q86.6406,204.7656 86.2656,204.7656 Q85.9219,204.7656 85.7188,204.5625 Q85.5156,204.375 85.4063,203.8594 Q85.3594,203.5 85.1719,203.3125 Q84.8438,202.9375 84.2344,202.7188 Q83.625,202.5 83,202.5 Q82.2344,202.5 81.5938,202.8281 Q80.9688,203.1563 80.4688,203.9063 Q79.9844,204.6563 79.9844,205.6875 L79.9844,206.7813 Q79.9844,208.0156 80.875,208.8438 Q81.7656,209.6563 83.3594,209.6563 Q84.2969,209.6563 84.9531,209.4063 Q85.3438,209.25 85.7656,208.8125 Q86.0313,208.5469 86.1719,208.4688 Q86.3281,208.3906 86.5313,208.3906 Q86.8594,208.3906 87.1094,208.6563 Q87.375,208.9063 87.375,209.25 Q87.375,209.5938 87.0313,210 Q86.5313,210.5781 85.7344,210.9063 Q84.6563,211.3594 83.3594,211.3594 Q81.8438,211.3594 80.6406,210.7344 Q79.6563,210.2344 78.9688,209.1719 Q78.2813,208.0938 78.2813,206.8125 L78.2813,205.6563 Q78.2813,204.3281 78.8906,203.1875 Q79.5156,202.0313 80.6094,201.4219 Q81.7031,200.7969 82.9375,200.7969 Q83.6719,200.7969 84.3125,200.9688 Q84.9688,201.125 85.5156,201.4844 Z " fill="#000000"/><text fill="#000000" font-family="sans-serif" font-size="14" lengthAdjust="spacing" textLength="101" x="103.25" y="211.3379">ArrayComoLista</text><line style="stroke:#181818;stroke-width:0.5;" x1="8" x2="267" y1="221.6094" y2="221.6094"/><rect fill="none" height="6" style="stroke:#C82930;stroke-width:1.0;" width="6" x="15" y="232.9141"/><text fill="#000000" font-family="sans-serif" font-size="14" lengthAdjust="spacing" textLength="62" x="27" y="240.1426">int[] datos</text><rect fill="none" height="6" style="stroke:#C82930;stroke-width:1.0;" width="6" x="15" y="250.5234"/><text fill="#000000" font-family="sans-serif" font-size="14" lengthAdjust="spacing" textLength="66" x="27" y="257.752">int tama&#241;o</text><line style="stroke:#181818;stroke-width:0.5;" x1="8" x2="267" y1="264.8281" y2="264.8281"/><ellipse cx="18" cy="279.1328" fill="#84BE84" rx="3" ry="3" style="stroke:#038048;stroke-width:1.0;"/><text fill="#000000" font-family="sans-serif" font-size="14" lengthAdjust="spacing" textLength="230" x="27" y="283.3613">ArrayComoLista(int capacidadInicial)</text><ellipse cx="18" cy="296.7422" fill="#84BE84" rx="3" ry="3" style="stroke:#038048;stroke-width:1.0;"/><text fill="#000000" font-family="sans-serif" font-size="14" lengthAdjust="spacing" textLength="130" x="27" y="300.9707">int obtenerTama&#241;o()</text><ellipse cx="18" cy="314.3516" fill="#84BE84" rx="3" ry="3" style="stroke:#038048;stroke-width:1.0;"/><text fill="#000000" font-family="sans-serif" font-size="14" lengthAdjust="spacing" textLength="127" x="27" y="318.5801">boolean estaVacia()</text><ellipse cx="18" cy="331.9609" fill="#84BE84" rx="3" ry="3" style="stroke:#038048;stroke-width:1.0;"/><text fill="#000000" font-family="sans-serif" font-size="14" lengthAdjust="spacing" textLength="140" x="27" y="336.1895">void agregar(int valor)</text><ellipse cx="18" cy="349.5703" fill="#84BE84" rx="3" ry="3" style="stroke:#038048;stroke-width:1.0;"/><text fill="#000000" font-family="sans-serif" font-size="14" lengthAdjust="spacing" textLength="217" x="27" y="353.7988">void insertar(int posicion, int valor)</text><ellipse cx="18" cy="367.1797" fill="#84BE84" rx="3" ry="3" style="stroke:#038048;stroke-width:1.0;"/><text fill="#000000" font-family="sans-serif" font-size="14" lengthAdjust="spacing" textLength="149" x="27" y="371.4082">int obtener(int posicion)</text><ellipse cx="18" cy="384.7891" fill="#84BE84" rx="3" ry="3" style="stroke:#038048;stroke-width:1.0;"/><text fill="#000000" font-family="sans-serif" font-size="14" lengthAdjust="spacing" textLength="235" x="27" y="389.0176">void establecer(int posicion, int valor)</text><ellipse cx="18" cy="402.3984" fill="#84BE84" rx="3" ry="3" style="stroke:#038048;stroke-width:1.0;"/><text fill="#000000" font-family="sans-serif" font-size="14" lengthAdjust="spacing" textLength="166" x="27" y="406.627">int eliminarEn(int posicion)</text><ellipse cx="18" cy="420.0078" fill="#84BE84" rx="3" ry="3" style="stroke:#038048;stroke-width:1.0;"/><text fill="#000000" font-family="sans-serif" font-size="14" lengthAdjust="spacing" textLength="89" x="27" y="424.2363">void imprimir()</text><rect fill="#F24D5C" height="6" style="stroke:#C82930;stroke-width:1.0;" width="6" x="15" y="434.6172"/><text fill="#000000" font-family="sans-serif" font-size="14" lengthAdjust="spacing" textLength="228" x="27" y="441.8457">void asegurarCapacidad(int minimo)</text><rect fill="#F24D5C" height="6" style="stroke:#C82930;stroke-width:1.0;" width="6" x="15" y="452.2266"/><text fill="#000000" font-family="sans-serif" font-size="14" lengthAdjust="spacing" textLength="216" x="27" y="459.4551">void comprobarIndice(int posicion)</text></g><!--class EjemploArrayComoLista--><g id="elem_EjemploArrayComoLista"><rect codeLine="20" fill="#F1F1F1" height="65.6094" id="EjemploArrayComoLista" rx="2.5" ry="2.5" style="stroke:#181818;stroke-width:0.5;" width="183" x="46" y="45.6094"/><ellipse cx="61" cy="61.6094" fill="#ADD1B2" rx="11" ry="11" style="stroke:#181818;stroke-width:1.0;"/><path d="M63.7656,57.4844 Q63.9219,57.2656 64.1094,57.1563 Q64.2969,57.0469 64.5156,57.0469 Q64.8906,57.0469 65.125,57.3125 Q65.3594,57.5625 65.3594,58.1719 L65.3594,59.625 Q65.3594,60.2344 65.125,60.5 Q64.8906,60.7656 64.5156,60.7656 Q64.1719,60.7656 63.9688,60.5625 Q63.7656,60.375 63.6563,59.8594 Q63.6094,59.5 63.4219,59.3125 Q63.0938,58.9375 62.4844,58.7188 Q61.875,58.5 61.25,58.5 Q60.4844,58.5 59.8438,58.8281 Q59.2188,59.1563 58.7188,59.9063 Q58.2344,60.6563 58.2344,61.6875 L58.2344,62.7813 Q58.2344,64.0156 59.125,64.8438 Q60.0156,65.6563 61.6094,65.6563 Q62.5469,65.6563 63.2031,65.4063 Q63.5938,65.25 64.0156,64.8125 Q64.2813,64.5469 64.4219,64.4688 Q64.5781,64.3906 64.7813,64.3906 Q65.1094,64.3906 65.3594,64.6563 Q65.625,64.9063 65.625,65.25 Q65.625,65.5938 65.2813,66 Q64.7813,66.5781 63.9844,66.9063 Q62.9063,67.3594 61.6094,67.3594 Q60.0938,67.3594 58.8906,66.7344 Q57.9063,66.2344 57.2188,65.1719 Q56.5313,64.0938 56.5313,62.8125 L56.5313,61.6563 Q56.5313,60.3281 57.1406,59.1875 Q57.7656,58.0313 58.8594,57.4219 Q59.9531,56.7969 61.1875,56.7969 Q61.9219,56.7969 62.5625,56.9688 Q63.2188,57.125 63.7656,57.4844 Z " fill="#000000"/><text fill="#000000" font-family="sans-serif" font-size="14" lengthAdjust="spacing" textLength="151" x="75" y="67.3379">EjemploArrayComoLista</text><line style="stroke:#181818;stroke-width:0.5;" x1="47" x2="228" y1="77.6094" y2="77.6094"/><line style="stroke:#181818;stroke-width:0.5;" x1="47" x2="228" y1="85.6094" y2="85.6094"/><ellipse cx="57" cy="99.9141" fill="#84BE84" rx="3" ry="3" style="stroke:#038048;stroke-width:1.0;"/><text fill="#000000" font-family="sans-serif" font-size="14" lengthAdjust="spacing" textLength="147" x="66" y="104.1426">void main(String[] args)</text></g><!--link EjemploArrayComoLista to ArrayComoLista--><g id="link_EjemploArrayComoLista_ArrayComoLista"><path codeLine="24" d="M137.5,111.7094 C137.5,132.1794 137.5,154.2594 137.5,183.3894 " fill="none" id="EjemploArrayComoLista-to-ArrayComoLista" style="stroke:#181818;stroke-width:1.0;"/><polygon fill="#181818" points="137.5,189.3894,141.5,180.3894,137.5,184.3894,133.5,180.3894,137.5,189.3894" style="stroke:#181818;stroke-width:1.0;"/><text fill="#000000" font-family="sans-serif" font-size="13" lengthAdjust="spacing" textLength="71" x="138.5" y="156.1045">crea / utiliza</text></g><!--SRC=[ZL6zIWH13ExlALAkw69l8SXnnO6TOYCMsPcmH6QI9JDxeE93-Go-cBD_i2udM2RVtsI-p3aGt9dX6w3BFOfNS1eL0gUCkvqBcD94s9Vr_R25Znr03Ipv-GKyPatB31aZVdzfcIytecg07NResAC_2Zl6S34I1qIRJ4BsEEch2MXK0w405VrJ4UAyFobxmDQeHHjzJnZKLXXB8iips6agOIfNiA6kSdyHLqP3SXF8qJ-iA71aGJl8NsuSEoiS6y-evpCIjRsXxPUl6SN5YAEkQAMJphH1EufdHvk4pwMemol5BkYPlkOdH6If7hAnjAKyj3QDwlEwkhxTLdy3pWZX6lhCWT_n1m00]--></g></svg>