<?xml version="1.0" encoding="us-ascii" standalone="no"?><svg xmlns="http://www.w3.org/2000/svg" xmlns:xlink="http://www.w3.org/1999/xlink" contentStyleType="text/css" height="455px" preserveAspectRatio="none" style="width:360px;height:455px;background:#FFFFFF;" version="1.1" viewBox="0 0 360 455" width="360px" zoomAndPan="magnify"><defs/><g><text fill="#000000" font-family="sans-serif" font-size="14" font-weight="bold" lengthAdjust="spacing" textLength="332" x="10" y="24.5332">Diagrama UML - Usando un array como una lista</text><!--class ArrayComoLista--><g id="elem_ArrayComoLista"><rect codeLine="3" fill="#F1F1F1" height="259.3125" id="ArrayComoLista" rx="2.5" ry="2.5" style="stroke:#181818;stroke-width:0.5;" width="261" x="52.5" y="189.6094"/><ellipse cx="128.25" cy="205.6094" fill="#ADD1B2" rx="11" ry="11" style="stroke:#181818;stroke-width:1.0;"/><path d="M131.0156,201.4844 Q131.1719,201.2656 131.3594,201.1563 Q131.5469,201.0469 131.7656,201.0469 Q132.1406,201.0469 132.375,201.3125 Q132.6094,201.5625 132.6094,202.1719 L132.6094,203.625 Q132.6094,204.2344 132.375,204.5 Q132.1406,204.7656 131.7656,204.7656 Q131.4219,204.7656 131.2188,204.5625 Q131.0156,204.375 130.9063,203.8594 Q130.8594,203.5 130.6719,203.3125 Q130.3438,202.9375 129.7344,202.7188 Q129.125,202.5 128.5,202.5 Q127.7344,202.5 127.0938,202.8281 Q126.4688,203.1563 125.9688,203.9063 Q125.4844,204.6563 125.4844,205.6875 L125.4844,206.7813 Q125.4844,208.0156 126.375,208.8438 Q127.2656,209.6563 128.8594,209.6563 Q129.7969,209.6563 130.4531,209.4063 Q130.8438,209.25 131.2656,208.8125 Q131.5313,208.5469 131.6719,208.4688 Q131.8281,208.3906 132.0313,208.3906 Q132.3594,208.3906 132.6094,208.6563 Q132.875,208.9063 132.875,209.25 Q132.875,209.5938 132.5313,210 Q132.0313,210.5781 131.2344,210.9063 Q130.1563,211.3594 128.8594,211.3594 Q127.3438,211.3594 126.1406,210.7344 Q125.1563,210.2344 124.4688,209.1719 Q123.7813,208.0938 123.7813,206.8125 L123.7813,205.6563 Q123.7813,204.3281 124.3906,203.1875 Q125.0156,202.0313 126.1094,201.4219 Q127.2031,200.7969 128.4375,200.7969 Q129.1719,200.7969 129.8125,200.9688 Q130.4688,201.125 131.0156,201.4844 Z " fill="#000000"/><text fill="#000000" font-family="sans-serif" font-size="14" lengthAdjust="spacing" textLength="101" x="148.75" y="211.3379">ArrayComoLista</text><line style="stroke:#181818;stroke-width:0.5;" x1="53.5" x2="312.5" y1="221.6094" y2="221.6094"/><rect fill="none" height="6" style="stroke:#C82930;stroke-width:1.0;" width="6" x="60.5" y="232.9141"/><text fill="#000000" font-family="sans-serif" font-size="14" lengthAdjust="spacing" textLength="62" x="72.5" y="240.1426">int[] datos</text><rect fill="none" height="6" style="stroke:#C82930;stroke-width:1.0;" width="6" x="60.5" y="250.5234"/><text fill="#000000" font-family="sans-serif" font-size="14" lengthAdjust="spacing" textLength="66" x="72.5" y="257.752">int tama&#241;o</text><line style="stroke:#181818;stroke-width:0.5;" x1="53.5" x2="312.5" y1="264.8281" y2="264.8281"/><ellipse cx="63.5" cy="279.1328" fill="#84BE84" rx="3" ry="3" style="stroke:#038048;stroke-width:1.0;"/><text fill="#000000" font-family="sans-serif" font-size="14" lengthAdjust="spacing" textLength="230" x="72.5" y="283.3613">ArrayComoLista(int capacidadInicial)</text><ellipse cx="63.5" cy="296.7422" fill="#84BE84" rx="3" ry="3" style="stroke:#038048;stroke-width:1.0;"/><text fill="#000000" font-family="sans-serif" font-size="14" lengthAdjust="spacing" textLength="130" x="72.5" y="300.9707">int obtenerTama&#241;o()</text><ellipse cx="63.5" cy="314.3516" fill="#84BE84" rx="3" ry="3" style="stroke:#038048;stroke-width:1.0;"/><text fill="#000000" font-family="sans-serif" font-size="14" lengthAdjust="spacing" textLength="127" x="72.5" y="318.5801">boolean estaVacia()</text><ellipse cx="63.5" cy="331.9609" fill="#84BE84" rx="3" ry="3" style="stroke:#038048;stroke-width:1.0;"/><text fill="#000000" font-family="sans-serif" font-size="14" lengthAdjust="spacing" textLength="140" x="72.5" y="336.1895">void agregar(int valor)</text><ellipse cx="63.5" cy="349.5703" fill="#84BE84" rx="3" ry="3" style="stroke:#038048;stroke-width:1.0;"/><text fill="#000000" font-family="sans-serif" font-size="14" lengthAdjust="spacing" textLength="217" x="72.5" y="353.7988">void insertar(int posicion, int valor)</text><ellipse cx="63.5" cy="367.1797" fill="#84BE84" rx="3" ry="3" style="stroke:#038048;stroke-width:1.0;"/><text fill="#000000" font-family="sans-serif" font-size="14" lengthAdjust="spacing" textLength="149" x="72.5" y="371.4082">int obtener(int posicion)</text><ellipse cx="63.5" cy="384.7891" fill="#84BE84" rx="3" ry="3" style="stroke:#038048;stroke-width:1.0;"/><text fill="#000000" font-family="sans-serif" font-size="14" lengthAdjust="spacing" textLength="235" x="72.5" y="389.0176">void establecer(int posicion, int valor)</text><ellipse cx="63.5" cy="402.3984" fill="#84BE84" rx="3" ry="3" style="stroke:#038048;stroke-width:1.0;"/><text fill="#000000" font-family="sans-serif" font-size="14" lengthAdjust="spacing" textLength="166" x="72.5" y="406.627">int eliminarEn(int posicion)</text><ellipse cx="63.5" cy="420.0078" fill="#84BE84" rx="3" ry="3" style="stroke:#038048;stroke-width:1.0;"/><text fill="#000000" font-family="sans-serif" font-size="14" lengthAdjust="spacing" textLength="89" x="72.5" y="424.2363">void imprimir()</text><rect fill="#F24D5C" height="6" style="stroke:#C82930;stroke-width:1.0;" width="6" x="60.5" y="434.6172"/><text fill="#000000" font-family="sans-serif" font-size="14" lengthAdjust="spacing" textLength="228" x="72.5" y="441.8457">void asegurarCapacidad(int minimo)</text></g><!--class EjemploArrayComoLista--><g id="elem_EjemploArrayComoLista"><rect codeLine="18" fill="#F1F1F1" height="65.6094" id="EjemploArrayComoLista" rx="2.5" ry="2.5" style="stroke:#181818;stroke-width:0.5;" width="183" x="91.5" y="45.6094"/><ellipse cx="106.5" cy="61.6094" fill="#ADD1B2" rx="11" ry="11" style="stroke:#181818;stroke-width:1.0;"/><path d="M109.2656,57.4844 Q109.4219,57.2656 109.6094,57.1563 Q109.7969,57.0469 110.0156,57.0469 Q110.3906,57.0469 110.625,57.3125 Q110.8594,57.5625 110.8594,58.1719 L110.8594,59.625 Q110.8594,60.2344 110.625,60.5 Q110.3906,60.7656 110.0156,60.7656 Q109.6719,60.7656 109.4688,60.5625 Q109.2656,60.375 109.1563,59.8594 Q109.1094,59.5 108.9219,59.3125 Q108.5938,58.9375 107.9844,58.7188 Q107.375,58.5 106.75,58.5 Q105.9844,58.5 105.3438,58.8281 Q104.7188,59.1563 104.2188,59.9063 Q103.7344,60.6563 103.7344,61.6875 L103.7344,62.7813 Q103.7344,64.0156 104.625,64.8438 Q105.5156,65.6563 107.1094,65.6563 Q108.0469,65.6563 108.7031,65.4063 Q109.0938,65.25 109.5156,64.8125 Q109.7813,64.5469 109.9219,64.4688 Q110.0781,64.3906 110.2813,64.3906 Q110.6094,64.3906 110.8594,64.6563 Q111.125,64.9063 111.125,65.25 Q111.125,65.5938 110.7813,66 Q110.2813,66.5781 109.4844,66.9063 Q108.4063,67.3594 107.1094,67.3594 Q105.5938,67.3594 104.3906,66.7344 Q103.4063,66.2344 102.7188,65.1719 Q102.0313,64.0938 102.0313,62.8125 L102.0313,61.6563 Q102.0313,60.3281 102.6406,59.1875 Q103.2656,58.0313 104.3594,57.4219 Q105.4531,56.7969 106.6875,56.7969 Q107.4219,56.7969 108.0625,56.9688 Q108.7188,57.125 109.2656,57.4844 Z " fill="#000000"/><text fill="#000000" font-family="sans-serif" font-size="14" lengthAdjust="spacing" textLength="151" x="120.5" y="67.3379">EjemploArrayComoLista</text><line style="stroke:#181818;stroke-width:0.5;" x1="92.5" x2="273.5" y1="77.6094" y2="77.6094"/><line style="stroke:#181818;stroke-width:0.5;" x1="92.5" x2="273.5" y1="85.6094" y2="85.6094"/><ellipse cx="102.5" cy="99.9141" fill="#84BE84" rx="3" ry="3" style="stroke:#038048;stroke-width:1.0;"/><text fill="#000000" font-family="sans-serif" font-size="14" lengthAdjust="spacing" textLength="147" x="111.5" y="104.1426">void main(String[] args)</text></g><!--link EjemploArrayComoLista to ArrayComoLista--><g id="link_EjemploArrayComoLista_ArrayComoLista"><path codeLine="22" d="M183,111.7794 C183,132.3694 183,154.5894 183,183.5494 " fill="none" id="EjemploArrayComoLista-to-ArrayComoLista" style="stroke:#181818;stroke-width:1.0;"/><polygon fill="#181818" points="183,189.5494,187,180.5494,183,184.5494,179,180.5494,183,189.5494" style="stroke:#181818;stroke-width:1.0;"/><text fill="#000000" font-family="sans-serif" font-size="13" lengthAdjust="spacing" textLength="58" x="184" y="156.1045">crea / usa</text></g><!--SRC=[ZP71IiH038RlVOeSksZnxa6GTG_2UjBr8XxIQIYHcQHafWiYFfJFu8ivxRPGomeUC____I7p9qwUu8wnDGm8XuSzL728A8r2Bu1c-0vEmp0XU8u9Yy9vZ15k1ssRfVtm2Xy5P9GblRn2WqdZF4FAoTzVckUB5LGEiiCE7JVOt0ixHhyPZOEYTI8XUphnvKceLJsX06N-EOCulH-L6yXdK8isvXxHgoqqbaYM9h7Jc9UfNCBAkjZxoxW86ZRNdXpz8uey1nQqdVoLng6pxB7nZ6ew8rBR6zfs_feHpa4ST5DypWtitYXqNiyKCMK7P2aVax6qkHMqDexqUQwgRjQTNeCpGhY2Fk8F]--></g></svg>