<?xml version="1.0" encoding="us-ascii" standalone="no"?><svg xmlns="http://www.w3.org/2000/svg" xmlns:xlink="http://www.w3.org/1999/xlink" contentStyleType="text/css" height="886px" preserveAspectRatio="none" style="width:809px;height:886px;background:#FFFFFF;" version="1.1" viewBox="0 0 809 886" width="809px" zoomAndPan="magnify"><defs/><g><text fill="#000000" font-family="sans-serif" font-size="14" font-weight="bold" lengthAdjust="spacing" textLength="367" x="214" y="24.5332">Diagrama Sistema de Gesti&#243;n de Pedidos del RCCCF</text><!--class Simulacion--><g id="elem_Simulacion"><rect codeLine="3" fill="#F1F1F1" height="65.6094" id="Simulacion" rx="2.5" ry="2.5" style="stroke:#181818;stroke-width:0.5;" width="189" x="431.5" y="45.6094"/><ellipse cx="487.75" cy="61.6094" fill="#ADD1B2" rx="11" ry="11" style="stroke:#181818;stroke-width:1.0;"/><path d="M490.5156,57.4844 Q490.6719,57.2656 490.8594,57.1563 Q491.0469,57.0469 491.2656,57.0469 Q491.6406,57.0469 491.875,57.3125 Q492.1094,57.5625 492.1094,58.1719 L492.1094,59.625 Q492.1094,60.2344 491.875,60.5 Q491.6406,60.7656 491.2656,60.7656 Q490.9219,60.7656 490.7188,60.5625 Q490.5156,60.375 490.4063,59.8594 Q490.3594,59.5 490.1719,59.3125 Q489.8438,58.9375 489.2344,58.7188 Q488.625,58.5 488,58.5 Q487.2344,58.5 486.5938,58.8281 Q485.9688,59.1563 485.4688,59.9063 Q484.9844,60.6563 484.9844,61.6875 L484.9844,62.7813 Q484.9844,64.0156 485.875,64.8438 Q486.7656,65.6563 488.3594,65.6563 Q489.2969,65.6563 489.9531,65.4063 Q490.3438,65.25 490.7656,64.8125 Q491.0313,64.5469 491.1719,64.4688 Q491.3281,64.3906 491.5313,64.3906 Q491.8594,64.3906 492.1094,64.6563 Q492.375,64.9063 492.375,65.25 Q492.375,65.5938 492.0313,66 Q491.5313,66.5781 490.7344,66.9063 Q489.6563,67.3594 488.3594,67.3594 Q486.8438,67.3594 485.6406,66.7344 Q484.6563,66.2344 483.9688,65.1719 Q483.2813,64.0938 483.2813,62.8125 L483.2813,61.6563 Q483.2813,60.3281 483.8906,59.1875 Q484.5156,58.0313 485.6094,57.4219 Q486.7031,56.7969 487.9375,56.7969 Q488.6719,56.7969 489.3125,56.9688 Q489.9688,57.125 490.5156,57.4844 Z " fill="#000000"/><text fill="#000000" font-family="sans-serif" font-size="14" lengthAdjust="spacing" textLength="68" x="508.25" y="67.3379">Simulacion</text><line style="stroke:#181818;stroke-width:0.5;" x1="432.5" x2="619.5" y1="77.6094" y2="77.6094"/><line style="stroke:#181818;stroke-width:0.5;" x1="432.5" x2="619.5" y1="85.6094" y2="85.6094"/><ellipse cx="442.5" cy="99.9141" fill="#84BE84" rx="3" ry="3" style="stroke:#038048;stroke-width:1.0;"/><text fill="#000000" font-family="sans-serif" font-size="14" lengthAdjust="spacing" textLength="163" x="451.5" y="104.1426">main(args : String[]) : void</text></g><!--class Restaurante--><g id="elem_Restaurante"><rect codeLine="7" fill="#F1F1F1" height="171.2656" id="Restaurante" rx="2.5" ry="2.5" style="stroke:#181818;stroke-width:0.5;" width="275" x="388.5" y="172.6094"/><ellipse cx="482.75" cy="188.6094" fill="#ADD1B2" rx="11" ry="11" style="stroke:#181818;stroke-width:1.0;"/><path d="M485.5156,184.4844 Q485.6719,184.2656 485.8594,184.1563 Q486.0469,184.0469 486.2656,184.0469 Q486.6406,184.0469 486.875,184.3125 Q487.1094,184.5625 487.1094,185.1719 L487.1094,186.625 Q487.1094,187.2344 486.875,187.5 Q486.6406,187.7656 486.2656,187.7656 Q485.9219,187.7656 485.7188,187.5625 Q485.5156,187.375 485.4063,186.8594 Q485.3594,186.5 485.1719,186.3125 Q484.8438,185.9375 484.2344,185.7188 Q483.625,185.5 483,185.5 Q482.2344,185.5 481.5938,185.8281 Q480.9688,186.1563 480.4688,186.9063 Q479.9844,187.6563 479.9844,188.6875 L479.9844,189.7813 Q479.9844,191.0156 480.875,191.8438 Q481.7656,192.6563 483.3594,192.6563 Q484.2969,192.6563 484.9531,192.4063 Q485.3438,192.25 485.7656,191.8125 Q486.0313,191.5469 486.1719,191.4688 Q486.3281,191.3906 486.5313,191.3906 Q486.8594,191.3906 487.1094,191.6563 Q487.375,191.9063 487.375,192.25 Q487.375,192.5938 487.0313,193 Q486.5313,193.5781 485.7344,193.9063 Q484.6563,194.3594 483.3594,194.3594 Q481.8438,194.3594 480.6406,193.7344 Q479.6563,193.2344 478.9688,192.1719 Q478.2813,191.0938 478.2813,189.8125 L478.2813,188.6563 Q478.2813,187.3281 478.8906,186.1875 Q479.5156,185.0313 480.6094,184.4219 Q481.7031,183.7969 482.9375,183.7969 Q483.6719,183.7969 484.3125,183.9688 Q484.9688,184.125 485.5156,184.4844 Z " fill="#000000"/><text fill="#000000" font-family="sans-serif" font-size="14" lengthAdjust="spacing" textLength="78" x="503.25" y="194.3379">Restaurante</text><line style="stroke:#181818;stroke-width:0.5;" x1="389.5" x2="662.5" y1="204.6094" y2="204.6094"/><rect fill="none" height="6" style="stroke:#C82930;stroke-width:1.0;" width="6" x="396.5" y="215.9141"/><text fill="#000000" font-family="sans-serif" font-size="14" lengthAdjust="spacing" textLength="123" x="408.5" y="223.1426">cocinero : Cocinero</text><rect fill="none" height="6" style="stroke:#C82930;stroke-width:1.0;" width="6" x="396.5" y="233.5234"/><text fill="#000000" font-family="sans-serif" font-size="14" lengthAdjust="spacing" textLength="249" x="408.5" y="240.752">generadorPedidos : GeneradorPedidos</text><rect fill="none" height="6" style="stroke:#C82930;stroke-width:1.0;" width="6" x="396.5" y="251.1328"/><text fill="#000000" font-family="sans-serif" font-size="14" lengthAdjust="spacing" textLength="108" x="408.5" y="258.3613">minutoActual : int</text><line style="stroke:#181818;stroke-width:0.5;" x1="389.5" x2="662.5" y1="265.4375" y2="265.4375"/><ellipse cx="399.5" cy="279.7422" fill="#84BE84" rx="3" ry="3" style="stroke:#038048;stroke-width:1.0;"/><text fill="#000000" font-family="sans-serif" font-size="14" lengthAdjust="spacing" textLength="99" x="408.5" y="283.9707">ejecutar() : void</text><rect fill="#F24D5C" height="6" style="stroke:#C82930;stroke-width:1.0;" width="6" x="396.5" y="294.3516"/><text fill="#000000" font-family="sans-serif" font-size="14" lengthAdjust="spacing" textLength="230" x="408.5" y="301.5801">recibirPedido(pedido : Pedido) : void</text><rect fill="#F24D5C" height="6" style="stroke:#C82930;stroke-width:1.0;" width="6" x="396.5" y="311.9609"/><text fill="#000000" font-family="sans-serif" font-size="14" lengthAdjust="spacing" textLength="182" x="408.5" y="319.1895">seleccionarPedido() : Pedido</text><rect fill="#F24D5C" height="6" style="stroke:#C82930;stroke-width:1.0;" width="6" x="396.5" y="329.5703"/><text fill="#000000" font-family="sans-serif" font-size="14" lengthAdjust="spacing" textLength="148" x="408.5" y="336.7988">procesarCocina() : void</text></g><!--class GeneradorPedidos--><g id="elem_GeneradorPedidos"><rect codeLine="17" fill="#F1F1F1" height="100.8281" id="GeneradorPedidos" rx="2.5" ry="2.5" style="stroke:#181818;stroke-width:0.5;" width="294" x="7" y="430.1094"/><ellipse cx="89.75" cy="446.1094" fill="#ADD1B2" rx="11" ry="11" style="stroke:#181818;stroke-width:1.0;"/><path d="M92.5156,441.9844 Q92.6719,441.7656 92.8594,441.6563 Q93.0469,441.5469 93.2656,441.5469 Q93.6406,441.5469 93.875,441.8125 Q94.1094,442.0625 94.1094,442.6719 L94.1094,444.125 Q94.1094,444.7344 93.875,445 Q93.6406,445.2656 93.2656,445.2656 Q92.9219,445.2656 92.7188,445.0625 Q92.5156,444.875 92.4063,444.3594 Q92.3594,444 92.1719,443.8125 Q91.8438,443.4375 91.2344,443.2188 Q90.625,443 90,443 Q89.2344,443 88.5938,443.3281 Q87.9688,443.6563 87.4688,444.4063 Q86.9844,445.1563 86.9844,446.1875 L86.9844,447.2813 Q86.9844,448.5156 87.875,449.3438 Q88.7656,450.1563 90.3594,450.1563 Q91.2969,450.1563 91.9531,449.9063 Q92.3438,449.75 92.7656,449.3125 Q93.0313,449.0469 93.1719,448.9688 Q93.3281,448.8906 93.5313,448.8906 Q93.8594,448.8906 94.1094,449.1563 Q94.375,449.4063 94.375,449.75 Q94.375,450.0938 94.0313,450.5 Q93.5313,451.0781 92.7344,451.4063 Q91.6563,451.8594 90.3594,451.8594 Q88.8438,451.8594 87.6406,451.2344 Q86.6563,450.7344 85.9688,449.6719 Q85.2813,448.5938 85.2813,447.3125 L85.2813,446.1563 Q85.2813,444.8281 85.8906,443.6875 Q86.5156,442.5313 87.6094,441.9219 Q88.7031,441.2969 89.9375,441.2969 Q90.6719,441.2969 91.3125,441.4688 Q91.9688,441.625 92.5156,441.9844 Z " fill="#000000"/><text fill="#000000" font-family="sans-serif" font-size="14" lengthAdjust="spacing" textLength="120" x="110.25" y="451.8379">GeneradorPedidos</text><line style="stroke:#181818;stroke-width:0.5;" x1="8" x2="300" y1="462.1094" y2="462.1094"/><rect fill="none" height="6" style="stroke:#C82930;stroke-width:1.0;" width="6" x="15" y="473.4141"/><text fill="#000000" font-family="sans-serif" font-size="14" lengthAdjust="spacing" textLength="184" x="27" y="480.6426">probabilidadLlegada : double</text><rect fill="none" height="6" style="stroke:#C82930;stroke-width:1.0;" width="6" x="15" y="491.0234"/><text fill="#000000" font-family="sans-serif" font-size="14" lengthAdjust="spacing" textLength="187" x="27" y="498.252">generadorAleatorio : Random</text><line style="stroke:#181818;stroke-width:0.5;" x1="8" x2="300" y1="505.3281" y2="505.3281"/><ellipse cx="18" cy="519.6328" fill="#84BE84" rx="3" ry="3" style="stroke:#038048;stroke-width:1.0;"/><text fill="#000000" font-family="sans-serif" font-size="14" lengthAdjust="spacing" textLength="268" x="27" y="523.8613">generarPedido(minutoActual : int) : Pedido</text></g><!--class Cocinero--><g id="elem_Cocinero"><rect codeLine="23" fill="#F1F1F1" height="118.4375" id="Cocinero" rx="2.5" ry="2.5" style="stroke:#181818;stroke-width:0.5;" width="380" x="336" y="421.6094"/><ellipse cx="493.25" cy="437.6094" fill="#ADD1B2" rx="11" ry="11" style="stroke:#181818;stroke-width:1.0;"/><path d="M496.0156,433.4844 Q496.1719,433.2656 496.3594,433.1563 Q496.5469,433.0469 496.7656,433.0469 Q497.1406,433.0469 497.375,433.3125 Q497.6094,433.5625 497.6094,434.1719 L497.6094,435.625 Q497.6094,436.2344 497.375,436.5 Q497.1406,436.7656 496.7656,436.7656 Q496.4219,436.7656 496.2188,436.5625 Q496.0156,436.375 495.9063,435.8594 Q495.8594,435.5 495.6719,435.3125 Q495.3438,434.9375 494.7344,434.7188 Q494.125,434.5 493.5,434.5 Q492.7344,434.5 492.0938,434.8281 Q491.4688,435.1563 490.9688,435.9063 Q490.4844,436.6563 490.4844,437.6875 L490.4844,438.7813 Q490.4844,440.0156 491.375,440.8438 Q492.2656,441.6563 493.8594,441.6563 Q494.7969,441.6563 495.4531,441.4063 Q495.8438,441.25 496.2656,440.8125 Q496.5313,440.5469 496.6719,440.4688 Q496.8281,440.3906 497.0313,440.3906 Q497.3594,440.3906 497.6094,440.6563 Q497.875,440.9063 497.875,441.25 Q497.875,441.5938 497.5313,442 Q497.0313,442.5781 496.2344,442.9063 Q495.1563,443.3594 493.8594,443.3594 Q492.3438,443.3594 491.1406,442.7344 Q490.1563,442.2344 489.4688,441.1719 Q488.7813,440.0938 488.7813,438.8125 L488.7813,437.6563 Q488.7813,436.3281 489.3906,435.1875 Q490.0156,434.0313 491.1094,433.4219 Q492.2031,432.7969 493.4375,432.7969 Q494.1719,432.7969 494.8125,432.9688 Q495.4688,433.125 496.0156,433.4844 Z " fill="#000000"/><text fill="#000000" font-family="sans-serif" font-size="14" lengthAdjust="spacing" textLength="57" x="513.75" y="443.3379">Cocinero</text><line style="stroke:#181818;stroke-width:0.5;" x1="337" x2="715" y1="453.6094" y2="453.6094"/><rect fill="none" height="6" style="stroke:#C82930;stroke-width:1.0;" width="6" x="344" y="464.9141"/><text fill="#000000" font-family="sans-serif" font-size="14" lengthAdjust="spacing" textLength="138" x="356" y="472.1426">pedidoActual : Pedido</text><line style="stroke:#181818;stroke-width:0.5;" x1="337" x2="715" y1="479.2188" y2="479.2188"/><ellipse cx="347" cy="493.5234" fill="#84BE84" rx="3" ry="3" style="stroke:#038048;stroke-width:1.0;"/><text fill="#000000" font-family="sans-serif" font-size="14" lengthAdjust="spacing" textLength="354" x="356" y="497.752">asignarPedido(pedido : Pedido, minutoActual : int) : void</text><ellipse cx="347" cy="511.1328" fill="#84BE84" rx="3" ry="3" style="stroke:#038048;stroke-width:1.0;"/><text fill="#000000" font-family="sans-serif" font-size="14" lengthAdjust="spacing" textLength="222" x="356" y="515.3613">cocinarDuranteUnMinuto() : Pedido</text><ellipse cx="347" cy="528.7422" fill="#84BE84" rx="3" ry="3" style="stroke:#038048;stroke-width:1.0;"/><text fill="#000000" font-family="sans-serif" font-size="14" lengthAdjust="spacing" textLength="132" x="356" y="532.9707">estaLibre() : boolean</text></g><!--class Pedido--><g id="elem_Pedido"><rect codeLine="30" fill="#F1F1F1" height="136.0469" id="Pedido" rx="2.5" ry="2.5" style="stroke:#181818;stroke-width:0.5;" width="233" x="409.5" y="617.6094"/><ellipse cx="499.75" cy="633.6094" fill="#ADD1B2" rx="11" ry="11" style="stroke:#181818;stroke-width:1.0;"/><path d="M502.5156,629.4844 Q502.6719,629.2656 502.8594,629.1563 Q503.0469,629.0469 503.2656,629.0469 Q503.6406,629.0469 503.875,629.3125 Q504.1094,629.5625 504.1094,630.1719 L504.1094,631.625 Q504.1094,632.2344 503.875,632.5 Q503.6406,632.7656 503.2656,632.7656 Q502.9219,632.7656 502.7188,632.5625 Q502.5156,632.375 502.4063,631.8594 Q502.3594,631.5 502.1719,631.3125 Q501.8438,630.9375 501.2344,630.7188 Q500.625,630.5 500,630.5 Q499.2344,630.5 498.5938,630.8281 Q497.9688,631.1563 497.4688,631.9063 Q496.9844,632.6563 496.9844,633.6875 L496.9844,634.7813 Q496.9844,636.0156 497.875,636.8438 Q498.7656,637.6563 500.3594,637.6563 Q501.2969,637.6563 501.9531,637.4063 Q502.3438,637.25 502.7656,636.8125 Q503.0313,636.5469 503.1719,636.4688 Q503.3281,636.3906 503.5313,636.3906 Q503.8594,636.3906 504.1094,636.6563 Q504.375,636.9063 504.375,637.25 Q504.375,637.5938 504.0313,638 Q503.5313,638.5781 502.7344,638.9063 Q501.6563,639.3594 500.3594,639.3594 Q498.8438,639.3594 497.6406,638.7344 Q496.6563,638.2344 495.9688,637.1719 Q495.2813,636.0938 495.2813,634.8125 L495.2813,633.6563 Q495.2813,632.3281 495.8906,631.1875 Q496.5156,630.0313 497.6094,629.4219 Q498.7031,628.7969 499.9375,628.7969 Q500.6719,628.7969 501.3125,628.9688 Q501.9688,629.125 502.5156,629.4844 Z " fill="#000000"/><text fill="#000000" font-family="sans-serif" font-size="14" lengthAdjust="spacing" textLength="44" x="520.25" y="639.3379">Pedido</text><line style="stroke:#181818;stroke-width:0.5;" x1="410.5" x2="641.5" y1="649.6094" y2="649.6094"/><rect fill="none" height="6" style="stroke:#C82930;stroke-width:1.0;" width="6" x="417.5" y="660.9141"/><text fill="#000000" font-family="sans-serif" font-size="14" lengthAdjust="spacing" textLength="127" x="429.5" y="668.1426">tipoPlato : TipoPlato</text><rect fill="none" height="6" style="stroke:#C82930;stroke-width:1.0;" width="6" x="417.5" y="678.5234"/><text fill="#000000" font-family="sans-serif" font-size="14" lengthAdjust="spacing" textLength="178" x="429.5" y="685.752">tiempoTotalPreparacion : int</text><rect fill="none" height="6" style="stroke:#C82930;stroke-width:1.0;" width="6" x="417.5" y="696.1328"/><text fill="#000000" font-family="sans-serif" font-size="14" lengthAdjust="spacing" textLength="203" x="429.5" y="703.3613">tiempoRestantePreparacion : int</text><rect fill="none" height="6" style="stroke:#C82930;stroke-width:1.0;" width="6" x="417.5" y="713.7422"/><text fill="#000000" font-family="sans-serif" font-size="14" lengthAdjust="spacing" textLength="120" x="429.5" y="720.9707">minutoLlegada : int</text><rect fill="none" height="6" style="stroke:#C82930;stroke-width:1.0;" width="6" x="417.5" y="731.3516"/><text fill="#000000" font-family="sans-serif" font-size="14" lengthAdjust="spacing" textLength="207" x="429.5" y="738.5801">minutoInicioPreparacion : Integer</text><line style="stroke:#181818;stroke-width:0.5;" x1="410.5" x2="641.5" y1="745.6563" y2="745.6563"/></g><!--class TipoPlato--><g id="elem_TipoPlato"><rect codeLine="38" fill="#F1F1F1" height="48" id="TipoPlato" rx="2.5" ry="2.5" style="stroke:#181818;stroke-width:0.5;" width="92" x="480" y="831.6094"/><ellipse cx="495" cy="847.6094" fill="#ADD1B2" rx="11" ry="11" style="stroke:#181818;stroke-width:1.0;"/><path d="M497.7656,843.4844 Q497.9219,843.2656 498.1094,843.1563 Q498.2969,843.0469 498.5156,843.0469 Q498.8906,843.0469 499.125,843.3125 Q499.3594,843.5625 499.3594,844.1719 L499.3594,845.625 Q499.3594,846.2344 499.125,846.5 Q498.8906,846.7656 498.5156,846.7656 Q498.1719,846.7656 497.9688,846.5625 Q497.7656,846.375 497.6563,845.8594 Q497.6094,845.5 497.4219,845.3125 Q497.0938,844.9375 496.4844,844.7188 Q495.875,844.5 495.25,844.5 Q494.4844,844.5 493.8438,844.8281 Q493.2188,845.1563 492.7188,845.9063 Q492.2344,846.6563 492.2344,847.6875 L492.2344,848.7813 Q492.2344,850.0156 493.125,850.8438 Q494.0156,851.6563 495.6094,851.6563 Q496.5469,851.6563 497.2031,851.4063 Q497.5938,851.25 498.0156,850.8125 Q498.2813,850.5469 498.4219,850.4688 Q498.5781,850.3906 498.7813,850.3906 Q499.1094,850.3906 499.3594,850.6563 Q499.625,850.9063 499.625,851.25 Q499.625,851.5938 499.2813,852 Q498.7813,852.5781 497.9844,852.9063 Q496.9063,853.3594 495.6094,853.3594 Q494.0938,853.3594 492.8906,852.7344 Q491.9063,852.2344 491.2188,851.1719 Q490.5313,850.0938 490.5313,848.8125 L490.5313,847.6563 Q490.5313,846.3281 491.1406,845.1875 Q491.7656,844.0313 492.8594,843.4219 Q493.9531,842.7969 495.1875,842.7969 Q495.9219,842.7969 496.5625,842.9688 Q497.2188,843.125 497.7656,843.4844 Z " fill="#000000"/><text fill="#000000" font-family="sans-serif" font-size="14" lengthAdjust="spacing" textLength="60" x="509" y="853.3379">TipoPlato</text><line style="stroke:#181818;stroke-width:0.5;" x1="481" x2="571" y1="863.6094" y2="863.6094"/><line style="stroke:#181818;stroke-width:0.5;" x1="481" x2="571" y1="871.6094" y2="871.6094"/></g><!--link Simulacion to Restaurante--><g id="link_Simulacion_Restaurante"><path codeLine="41" d="M526,111.7494 C526,128.8394 526,144.7194 526,166.2994 " fill="none" id="Simulacion-to-Restaurante" style="stroke:#181818;stroke-width:1.0;"/><polygon fill="#181818" points="526,172.2994,530,163.2994,526,167.2994,522,163.2994,526,172.2994" style="stroke:#181818;stroke-width:1.0;"/></g><!--link Restaurante to GeneradorPedidos--><g id="link_Restaurante_GeneradorPedidos"><path codeLine="42" d="M388.27,340.7494 C337.69,370.7294 287.1618,400.6807 242.7618,426.9907 " fill="none" id="Restaurante-to-GeneradorPedidos" style="stroke:#181818;stroke-width:1.0;"/><polygon fill="#181818" points="237.6,430.0494,247.3819,428.9025,241.9015,427.5004,243.3036,422.0201,237.6,430.0494" style="stroke:#181818;stroke-width:1.0;"/><text fill="#000000" font-family="sans-serif" font-size="13" lengthAdjust="spacing" textLength="21" x="330" y="388.1045">usa</text></g><!--link Restaurante to Cocinero--><g id="link_Restaurante_Cocinero"><path codeLine="43" d="M526,343.7294 C526,369.7194 526,391.7194 526,415.5094 " fill="none" id="Restaurante-to-Cocinero" style="stroke:#181818;stroke-width:1.0;"/><polygon fill="#181818" points="526,421.5094,530,412.5094,526,416.5094,522,412.5094,526,421.5094" style="stroke:#181818;stroke-width:1.0;"/><text fill="#000000" font-family="sans-serif" font-size="13" lengthAdjust="spacing" textLength="28" x="527" y="388.1045">tiene</text></g><!--link Restaurante to Pedido--><g id="link_Restaurante_Pedido"><path codeLine="44" d="M663.51,337.6394 C691.92,360.7894 718.03,388.8694 734,421.6094 C756.99,468.7494 758.26,493.1194 734,539.6094 C713.94,578.0494 683.59,605.1608 647.61,627.9308 " fill="none" id="Restaurante-to-Pedido" style="stroke:#181818;stroke-width:1.0;"/><polygon fill="#181818" points="642.54,631.1394,652.2841,629.7065,646.765,628.4656,648.006,622.9465,642.54,631.1394" style="stroke:#181818;stroke-width:1.0;"/><text fill="#000000" font-family="sans-serif" font-size="13" lengthAdjust="spacing" textLength="49" x="752" y="486.1045">gestiona</text></g><!--link GeneradorPedidos to Pedido--><g id="link_GeneradorPedidos_Pedido"><path codeLine="45" d="M245,531.2694 C294.47,558.2694 350.9333,589.075 403.9233,617.995 " fill="none" id="GeneradorPedidos-to-Pedido" style="stroke:#181818;stroke-width:1.0;"/><polygon fill="#181818" points="409.19,620.8694,403.2062,613.0467,404.8011,618.4741,399.3737,620.069,409.19,620.8694" style="stroke:#181818;stroke-width:1.0;"/><text fill="#000000" font-family="sans-serif" font-size="13" lengthAdjust="spacing" textLength="25" x="341" y="584.1045">crea</text></g><!--link Cocinero to Pedido--><g id="link_Cocinero_Pedido"><path codeLine="46" d="M526,539.7794 C526,564.0294 526,586.3494 526,611.4794 " fill="none" id="Cocinero-to-Pedido" style="stroke:#181818;stroke-width:1.0;"/><polygon fill="#181818" points="526,617.4794,530,608.4794,526,612.4794,522,608.4794,526,617.4794" style="stroke:#181818;stroke-width:1.0;"/><text fill="#000000" font-family="sans-serif" font-size="13" lengthAdjust="spacing" textLength="38" x="527" y="584.1045">cocina</text></g><!--link Pedido to TipoPlato--><g id="link_Pedido_TipoPlato"><path codeLine="47" d="M526,753.9694 C526,781.3594 526,805.1994 526,825.2194 " fill="none" id="Pedido-to-TipoPlato" style="stroke:#181818;stroke-width:1.0;"/><polygon fill="#181818" points="526,831.2194,530,822.2194,526,826.2194,522,822.2194,526,831.2194" style="stroke:#181818;stroke-width:1.0;"/><text fill="#000000" font-family="sans-serif" font-size="13" lengthAdjust="spacing" textLength="21" x="527" y="798.1045">usa</text></g><!--SRC=[TLDDJkmm3Dxt55aEcZSNO864YXv2uacZOLWX5cvYLNvAayf9sI1EnH6u66wRffqMkeaJVtQ_pp-HeaLrHr0pDA2UA4IKqw2wnn3fwzFrzX4D6H_4jEfKbkNVej0MGX1yqrdGv9rwBvHyUzK0kHrm7TIrUefChdvvlHBxpPCfFgR0asI7Zi55J947fRqcX-m5N2OpUMgK2nZF4v5heNVvb90DkIxwMnqxi88Y5nCj_8-wYy2xp6KCODHKKSgoQuT34EDzXGreKVTYOS9VPMY2jEmr1k110EosmjUyitg9hA0YImRCeyKQ34YmyLrbSLs6MuiGFLFFz0JE-2Qf714Jksqn5dmpewdMCvC1aCCM-lOA0jMp_5Mv_gYV_vXBk1zx37mtjlxP_Hi2rdMKTibuF5B5EBWgxqMncpcFsCmuKkkFLaeYsFDaPnyshJ_x2FR8s0AFuphFnWGPHb98_OOQjSsjMNiU74dCPVI3vAkHP-APdN2NnyN-70utowqebXlI- -wtEz05sC3AUOb4bjlcEKuzg_i5brakDfalO9eHYfprqZKqiqZttdLUDA9dzmq0]--></g></svg>